M48
; DRILL file {KiCad (5.1.10)-1} date 11/12/21 10:08:19
; FORMAT={-:-/ absolute / inch / decimal}
; #@! TF.CreationDate,2021-11-12T10:08:19+01:00
; #@! TF.GenerationSoftware,Kicad,Pcbnew,(5.1.10)-1
; #@! TF.FileFunction,Plated,1,2,PTH
FMAT,2
INCH
T1C0.0157
T2C0.0315
%
G90
G05
T1
X4.625Y-2.875
X4.626Y-3.1004
X4.626Y-4.2126
X4.6457Y-3.4646
X4.6457Y-3.8386
X4.8228Y-3.8386
X4.8425Y-3.0807
X4.8425Y-3.4843
X4.8425Y-4.2126
X5.1378Y-3.0807
X5.1673Y-4.2028
X5.2264Y-3.4744
X5.2264Y-3.8091
X5.2362Y-4.3799
X5.3642Y-4.0157
X5.3839Y-2.8543
X5.5906Y-3.4744
X5.6004Y-3.8091
X5.6693Y-4.2028
X5.7382Y-2.8642
X5.7382Y-4.0157
X5.9646Y-3.0807
X5.9646Y-3.4646
X5.9646Y-3.7992
X5.9646Y-4.1929
X6.125Y-4.375
X6.1417Y-3.061
X6.175Y-4.4
X6.2795Y-3.189
X6.2795Y-3.563
X6.2795Y-3.8976
T2
X5.2854Y-3.075
X5.2854Y-4.2028
X5.3642Y-3.075
X5.3642Y-4.2028
X5.4429Y-3.075
X5.4429Y-4.2028
X5.5217Y-3.075
X5.5217Y-4.2028
T0
M30
