%TF.GenerationSoftware,KiCad,Pcbnew,(5.1.10)-1*%
%TF.CreationDate,2021-11-12T10:13:00+01:00*%
%TF.ProjectId,Projekt1,50726f6a-656b-4743-912e-6b696361645f,rev?*%
%TF.SameCoordinates,Original*%
%TF.FileFunction,Legend,Top*%
%TF.FilePolarity,Positive*%
%FSLAX46Y46*%
G04 Gerber Fmt 4.6, Leading zero omitted, Abs format (unit mm)*
G04 Created by KiCad (PCBNEW (5.1.10)-1) date 2021-11-12 10:13:00*
%MOMM*%
%LPD*%
G01*
G04 APERTURE LIST*
%ADD10C,0.100000*%
%ADD11C,0.150000*%
%ADD12C,0.300000*%
%ADD13C,0.400000*%
%ADD14C,0.120000*%
G04 APERTURE END LIST*
D10*
D11*
X177002200Y-166007200D02*
X177002200Y-198007200D01*
X285002200Y-198007200D01*
X285002200Y-166007200D01*
X177002200Y-166007200D01*
D10*
D11*
X10000000Y-10000000D02*
X10000000Y-200007200D01*
X287002200Y-200007200D01*
X287002200Y-10000000D01*
X10000000Y-10000000D01*
D10*
D11*
X12000000Y-12000000D02*
X12000000Y-198007200D01*
X285002200Y-198007200D01*
X285002200Y-12000000D01*
X12000000Y-12000000D01*
D10*
D11*
X60000000Y-12000000D02*
X60000000Y-10000000D01*
D10*
D11*
X110000000Y-12000000D02*
X110000000Y-10000000D01*
D10*
D11*
X160000000Y-12000000D02*
X160000000Y-10000000D01*
D10*
D11*
X210000000Y-12000000D02*
X210000000Y-10000000D01*
D10*
D11*
X260000000Y-12000000D02*
X260000000Y-10000000D01*
D10*
D11*
X36065476Y-11588095D02*
X35322619Y-11588095D01*
X35694047Y-11588095D02*
X35694047Y-10288095D01*
X35570238Y-10473809D01*
X35446428Y-10597619D01*
X35322619Y-10659523D01*
D10*
D11*
X85322619Y-10411904D02*
X85384523Y-10350000D01*
X85508333Y-10288095D01*
X85817857Y-10288095D01*
X85941666Y-10350000D01*
X86003571Y-10411904D01*
X86065476Y-10535714D01*
X86065476Y-10659523D01*
X86003571Y-10845238D01*
X85260714Y-11588095D01*
X86065476Y-11588095D01*
D10*
D11*
X135260714Y-10288095D02*
X136065476Y-10288095D01*
X135632142Y-10783333D01*
X135817857Y-10783333D01*
X135941666Y-10845238D01*
X136003571Y-10907142D01*
X136065476Y-11030952D01*
X136065476Y-11340476D01*
X136003571Y-11464285D01*
X135941666Y-11526190D01*
X135817857Y-11588095D01*
X135446428Y-11588095D01*
X135322619Y-11526190D01*
X135260714Y-11464285D01*
D10*
D11*
X185941666Y-10721428D02*
X185941666Y-11588095D01*
X185632142Y-10226190D02*
X185322619Y-11154761D01*
X186127380Y-11154761D01*
D10*
D11*
X236003571Y-10288095D02*
X235384523Y-10288095D01*
X235322619Y-10907142D01*
X235384523Y-10845238D01*
X235508333Y-10783333D01*
X235817857Y-10783333D01*
X235941666Y-10845238D01*
X236003571Y-10907142D01*
X236065476Y-11030952D01*
X236065476Y-11340476D01*
X236003571Y-11464285D01*
X235941666Y-11526190D01*
X235817857Y-11588095D01*
X235508333Y-11588095D01*
X235384523Y-11526190D01*
X235322619Y-11464285D01*
D10*
D11*
X285941666Y-10288095D02*
X285694047Y-10288095D01*
X285570238Y-10350000D01*
X285508333Y-10411904D01*
X285384523Y-10597619D01*
X285322619Y-10845238D01*
X285322619Y-11340476D01*
X285384523Y-11464285D01*
X285446428Y-11526190D01*
X285570238Y-11588095D01*
X285817857Y-11588095D01*
X285941666Y-11526190D01*
X286003571Y-11464285D01*
X286065476Y-11340476D01*
X286065476Y-11030952D01*
X286003571Y-10907142D01*
X285941666Y-10845238D01*
X285817857Y-10783333D01*
X285570238Y-10783333D01*
X285446428Y-10845238D01*
X285384523Y-10907142D01*
X285322619Y-11030952D01*
D10*
D11*
X60000000Y-198007200D02*
X60000000Y-200007200D01*
D10*
D11*
X110000000Y-198007200D02*
X110000000Y-200007200D01*
D10*
D11*
X160000000Y-198007200D02*
X160000000Y-200007200D01*
D10*
D11*
X210000000Y-198007200D02*
X210000000Y-200007200D01*
D10*
D11*
X260000000Y-198007200D02*
X260000000Y-200007200D01*
D10*
D11*
X36065476Y-199595295D02*
X35322619Y-199595295D01*
X35694047Y-199595295D02*
X35694047Y-198295295D01*
X35570238Y-198481009D01*
X35446428Y-198604819D01*
X35322619Y-198666723D01*
D10*
D11*
X85322619Y-198419104D02*
X85384523Y-198357200D01*
X85508333Y-198295295D01*
X85817857Y-198295295D01*
X85941666Y-198357200D01*
X86003571Y-198419104D01*
X86065476Y-198542914D01*
X86065476Y-198666723D01*
X86003571Y-198852438D01*
X85260714Y-199595295D01*
X86065476Y-199595295D01*
D10*
D11*
X135260714Y-198295295D02*
X136065476Y-198295295D01*
X135632142Y-198790533D01*
X135817857Y-198790533D01*
X135941666Y-198852438D01*
X136003571Y-198914342D01*
X136065476Y-199038152D01*
X136065476Y-199347676D01*
X136003571Y-199471485D01*
X135941666Y-199533390D01*
X135817857Y-199595295D01*
X135446428Y-199595295D01*
X135322619Y-199533390D01*
X135260714Y-199471485D01*
D10*
D11*
X185941666Y-198728628D02*
X185941666Y-199595295D01*
X185632142Y-198233390D02*
X185322619Y-199161961D01*
X186127380Y-199161961D01*
D10*
D11*
X236003571Y-198295295D02*
X235384523Y-198295295D01*
X235322619Y-198914342D01*
X235384523Y-198852438D01*
X235508333Y-198790533D01*
X235817857Y-198790533D01*
X235941666Y-198852438D01*
X236003571Y-198914342D01*
X236065476Y-199038152D01*
X236065476Y-199347676D01*
X236003571Y-199471485D01*
X235941666Y-199533390D01*
X235817857Y-199595295D01*
X235508333Y-199595295D01*
X235384523Y-199533390D01*
X235322619Y-199471485D01*
D10*
D11*
X285941666Y-198295295D02*
X285694047Y-198295295D01*
X285570238Y-198357200D01*
X285508333Y-198419104D01*
X285384523Y-198604819D01*
X285322619Y-198852438D01*
X285322619Y-199347676D01*
X285384523Y-199471485D01*
X285446428Y-199533390D01*
X285570238Y-199595295D01*
X285817857Y-199595295D01*
X285941666Y-199533390D01*
X286003571Y-199471485D01*
X286065476Y-199347676D01*
X286065476Y-199038152D01*
X286003571Y-198914342D01*
X285941666Y-198852438D01*
X285817857Y-198790533D01*
X285570238Y-198790533D01*
X285446428Y-198852438D01*
X285384523Y-198914342D01*
X285322619Y-199038152D01*
D10*
D11*
X10000000Y-60000000D02*
X12000000Y-60000000D01*
D10*
D11*
X10000000Y-110000000D02*
X12000000Y-110000000D01*
D10*
D11*
X10000000Y-160000000D02*
X12000000Y-160000000D01*
D10*
D11*
X10690476Y-35216666D02*
X11309523Y-35216666D01*
X10566666Y-35588095D02*
X11000000Y-34288095D01*
X11433333Y-35588095D01*
D10*
D11*
X11092857Y-84907142D02*
X11278571Y-84969047D01*
X11340476Y-85030952D01*
X11402380Y-85154761D01*
X11402380Y-85340476D01*
X11340476Y-85464285D01*
X11278571Y-85526190D01*
X11154761Y-85588095D01*
X10659523Y-85588095D01*
X10659523Y-84288095D01*
X11092857Y-84288095D01*
X11216666Y-84350000D01*
X11278571Y-84411904D01*
X11340476Y-84535714D01*
X11340476Y-84659523D01*
X11278571Y-84783333D01*
X11216666Y-84845238D01*
X11092857Y-84907142D01*
X10659523Y-84907142D01*
D10*
D11*
X11402380Y-135464285D02*
X11340476Y-135526190D01*
X11154761Y-135588095D01*
X11030952Y-135588095D01*
X10845238Y-135526190D01*
X10721428Y-135402380D01*
X10659523Y-135278571D01*
X10597619Y-135030952D01*
X10597619Y-134845238D01*
X10659523Y-134597619D01*
X10721428Y-134473809D01*
X10845238Y-134350000D01*
X11030952Y-134288095D01*
X11154761Y-134288095D01*
X11340476Y-134350000D01*
X11402380Y-134411904D01*
D10*
D11*
X10659523Y-185588095D02*
X10659523Y-184288095D01*
X10969047Y-184288095D01*
X11154761Y-184350000D01*
X11278571Y-184473809D01*
X11340476Y-184597619D01*
X11402380Y-184845238D01*
X11402380Y-185030952D01*
X11340476Y-185278571D01*
X11278571Y-185402380D01*
X11154761Y-185526190D01*
X10969047Y-185588095D01*
X10659523Y-185588095D01*
D10*
D11*
X287002200Y-60000000D02*
X285002200Y-60000000D01*
D10*
D11*
X287002200Y-110000000D02*
X285002200Y-110000000D01*
D10*
D11*
X287002200Y-160000000D02*
X285002200Y-160000000D01*
D10*
D11*
X285692676Y-35216666D02*
X286311723Y-35216666D01*
X285568866Y-35588095D02*
X286002200Y-34288095D01*
X286435533Y-35588095D01*
D10*
D11*
X286095057Y-84907142D02*
X286280771Y-84969047D01*
X286342676Y-85030952D01*
X286404580Y-85154761D01*
X286404580Y-85340476D01*
X286342676Y-85464285D01*
X286280771Y-85526190D01*
X286156961Y-85588095D01*
X285661723Y-85588095D01*
X285661723Y-84288095D01*
X286095057Y-84288095D01*
X286218866Y-84350000D01*
X286280771Y-84411904D01*
X286342676Y-84535714D01*
X286342676Y-84659523D01*
X286280771Y-84783333D01*
X286218866Y-84845238D01*
X286095057Y-84907142D01*
X285661723Y-84907142D01*
D10*
D11*
X286404580Y-135464285D02*
X286342676Y-135526190D01*
X286156961Y-135588095D01*
X286033152Y-135588095D01*
X285847438Y-135526190D01*
X285723628Y-135402380D01*
X285661723Y-135278571D01*
X285599819Y-135030952D01*
X285599819Y-134845238D01*
X285661723Y-134597619D01*
X285723628Y-134473809D01*
X285847438Y-134350000D01*
X286033152Y-134288095D01*
X286156961Y-134288095D01*
X286342676Y-134350000D01*
X286404580Y-134411904D01*
D10*
D11*
X285661723Y-185588095D02*
X285661723Y-184288095D01*
X285971247Y-184288095D01*
X286156961Y-184350000D01*
X286280771Y-184473809D01*
X286342676Y-184597619D01*
X286404580Y-184845238D01*
X286404580Y-185030952D01*
X286342676Y-185278571D01*
X286280771Y-185402380D01*
X286156961Y-185526190D01*
X285971247Y-185588095D01*
X285661723Y-185588095D01*
D10*
D11*
X200434342Y-193785771D02*
X200434342Y-192285771D01*
X200791485Y-192285771D01*
X201005771Y-192357200D01*
X201148628Y-192500057D01*
X201220057Y-192642914D01*
X201291485Y-192928628D01*
X201291485Y-193142914D01*
X201220057Y-193428628D01*
X201148628Y-193571485D01*
X201005771Y-193714342D01*
X200791485Y-193785771D01*
X200434342Y-193785771D01*
X202577200Y-193785771D02*
X202577200Y-193000057D01*
X202505771Y-192857200D01*
X202362914Y-192785771D01*
X202077200Y-192785771D01*
X201934342Y-192857200D01*
X202577200Y-193714342D02*
X202434342Y-193785771D01*
X202077200Y-193785771D01*
X201934342Y-193714342D01*
X201862914Y-193571485D01*
X201862914Y-193428628D01*
X201934342Y-193285771D01*
X202077200Y-193214342D01*
X202434342Y-193214342D01*
X202577200Y-193142914D01*
X203077200Y-192785771D02*
X203648628Y-192785771D01*
X203291485Y-192285771D02*
X203291485Y-193571485D01*
X203362914Y-193714342D01*
X203505771Y-193785771D01*
X203648628Y-193785771D01*
X204720057Y-193714342D02*
X204577200Y-193785771D01*
X204291485Y-193785771D01*
X204148628Y-193714342D01*
X204077200Y-193571485D01*
X204077200Y-193000057D01*
X204148628Y-192857200D01*
X204291485Y-192785771D01*
X204577200Y-192785771D01*
X204720057Y-192857200D01*
X204791485Y-193000057D01*
X204791485Y-193142914D01*
X204077200Y-193285771D01*
X205434342Y-193642914D02*
X205505771Y-193714342D01*
X205434342Y-193785771D01*
X205362914Y-193714342D01*
X205434342Y-193642914D01*
X205434342Y-193785771D01*
X205434342Y-192857200D02*
X205505771Y-192928628D01*
X205434342Y-193000057D01*
X205362914Y-192928628D01*
X205434342Y-192857200D01*
X205434342Y-193000057D01*
D10*
D11*
X177002200Y-194507200D02*
X285002200Y-194507200D01*
D10*
D11*
X178434342Y-196585771D02*
X178434342Y-195085771D01*
X179291485Y-196585771D02*
X178648628Y-195728628D01*
X179291485Y-195085771D02*
X178434342Y-195942914D01*
X179934342Y-196585771D02*
X179934342Y-195585771D01*
X179934342Y-195085771D02*
X179862914Y-195157200D01*
X179934342Y-195228628D01*
X180005771Y-195157200D01*
X179934342Y-195085771D01*
X179934342Y-195228628D01*
X181505771Y-196442914D02*
X181434342Y-196514342D01*
X181220057Y-196585771D01*
X181077200Y-196585771D01*
X180862914Y-196514342D01*
X180720057Y-196371485D01*
X180648628Y-196228628D01*
X180577200Y-195942914D01*
X180577200Y-195728628D01*
X180648628Y-195442914D01*
X180720057Y-195300057D01*
X180862914Y-195157200D01*
X181077200Y-195085771D01*
X181220057Y-195085771D01*
X181434342Y-195157200D01*
X181505771Y-195228628D01*
X182791485Y-196585771D02*
X182791485Y-195800057D01*
X182720057Y-195657200D01*
X182577200Y-195585771D01*
X182291485Y-195585771D01*
X182148628Y-195657200D01*
X182791485Y-196514342D02*
X182648628Y-196585771D01*
X182291485Y-196585771D01*
X182148628Y-196514342D01*
X182077200Y-196371485D01*
X182077200Y-196228628D01*
X182148628Y-196085771D01*
X182291485Y-196014342D01*
X182648628Y-196014342D01*
X182791485Y-195942914D01*
X184148628Y-196585771D02*
X184148628Y-195085771D01*
X184148628Y-196514342D02*
X184005771Y-196585771D01*
X183720057Y-196585771D01*
X183577200Y-196514342D01*
X183505771Y-196442914D01*
X183434342Y-196300057D01*
X183434342Y-195871485D01*
X183505771Y-195728628D01*
X183577200Y-195657200D01*
X183720057Y-195585771D01*
X184005771Y-195585771D01*
X184148628Y-195657200D01*
X186005771Y-195800057D02*
X186505771Y-195800057D01*
X186720057Y-196585771D02*
X186005771Y-196585771D01*
X186005771Y-195085771D01*
X186720057Y-195085771D01*
X187362914Y-196442914D02*
X187434342Y-196514342D01*
X187362914Y-196585771D01*
X187291485Y-196514342D01*
X187362914Y-196442914D01*
X187362914Y-196585771D01*
X188077200Y-196585771D02*
X188077200Y-195085771D01*
X188434342Y-195085771D01*
X188648628Y-195157200D01*
X188791485Y-195300057D01*
X188862914Y-195442914D01*
X188934342Y-195728628D01*
X188934342Y-195942914D01*
X188862914Y-196228628D01*
X188791485Y-196371485D01*
X188648628Y-196514342D01*
X188434342Y-196585771D01*
X188077200Y-196585771D01*
X189577200Y-196442914D02*
X189648628Y-196514342D01*
X189577200Y-196585771D01*
X189505771Y-196514342D01*
X189577200Y-196442914D01*
X189577200Y-196585771D01*
X190220057Y-196157200D02*
X190934342Y-196157200D01*
X190077200Y-196585771D02*
X190577200Y-195085771D01*
X191077200Y-196585771D01*
X191577200Y-196442914D02*
X191648628Y-196514342D01*
X191577200Y-196585771D01*
X191505771Y-196514342D01*
X191577200Y-196442914D01*
X191577200Y-196585771D01*
X194577200Y-196585771D02*
X194577200Y-195085771D01*
X194720057Y-196014342D02*
X195148628Y-196585771D01*
X195148628Y-195585771D02*
X194577200Y-196157200D01*
X195791485Y-196585771D02*
X195791485Y-195585771D01*
X195791485Y-195085771D02*
X195720057Y-195157200D01*
X195791485Y-195228628D01*
X195862914Y-195157200D01*
X195791485Y-195085771D01*
X195791485Y-195228628D01*
X197148628Y-196514342D02*
X197005771Y-196585771D01*
X196720057Y-196585771D01*
X196577200Y-196514342D01*
X196505771Y-196442914D01*
X196434342Y-196300057D01*
X196434342Y-195871485D01*
X196505771Y-195728628D01*
X196577200Y-195657200D01*
X196720057Y-195585771D01*
X197005771Y-195585771D01*
X197148628Y-195657200D01*
X198434342Y-196585771D02*
X198434342Y-195800057D01*
X198362914Y-195657200D01*
X198220057Y-195585771D01*
X197934342Y-195585771D01*
X197791485Y-195657200D01*
X198434342Y-196514342D02*
X198291485Y-196585771D01*
X197934342Y-196585771D01*
X197791485Y-196514342D01*
X197720057Y-196371485D01*
X197720057Y-196228628D01*
X197791485Y-196085771D01*
X197934342Y-196014342D01*
X198291485Y-196014342D01*
X198434342Y-195942914D01*
X199791485Y-196585771D02*
X199791485Y-195085771D01*
X199791485Y-196514342D02*
X199648628Y-196585771D01*
X199362914Y-196585771D01*
X199220057Y-196514342D01*
X199148628Y-196442914D01*
X199077200Y-196300057D01*
X199077200Y-195871485D01*
X199148628Y-195728628D01*
X199220057Y-195657200D01*
X199362914Y-195585771D01*
X199648628Y-195585771D01*
X199791485Y-195657200D01*
X202077200Y-197157200D02*
X202005771Y-197085771D01*
X201862914Y-196871485D01*
X201791485Y-196728628D01*
X201720057Y-196514342D01*
X201648628Y-196157200D01*
X201648628Y-195871485D01*
X201720057Y-195514342D01*
X201791485Y-195300057D01*
X201862914Y-195157200D01*
X202005771Y-194942914D01*
X202077200Y-194871485D01*
X203362914Y-195085771D02*
X202648628Y-195085771D01*
X202577200Y-195800057D01*
X202648628Y-195728628D01*
X202791485Y-195657200D01*
X203148628Y-195657200D01*
X203291485Y-195728628D01*
X203362914Y-195800057D01*
X203434342Y-195942914D01*
X203434342Y-196300057D01*
X203362914Y-196442914D01*
X203291485Y-196514342D01*
X203148628Y-196585771D01*
X202791485Y-196585771D01*
X202648628Y-196514342D01*
X202577200Y-196442914D01*
X204077200Y-196442914D02*
X204148628Y-196514342D01*
X204077200Y-196585771D01*
X204005771Y-196514342D01*
X204077200Y-196442914D01*
X204077200Y-196585771D01*
X205577200Y-196585771D02*
X204720057Y-196585771D01*
X205148628Y-196585771D02*
X205148628Y-195085771D01*
X205005771Y-195300057D01*
X204862914Y-195442914D01*
X204720057Y-195514342D01*
X206220057Y-196442914D02*
X206291485Y-196514342D01*
X206220057Y-196585771D01*
X206148628Y-196514342D01*
X206220057Y-196442914D01*
X206220057Y-196585771D01*
X207720057Y-196585771D02*
X206862914Y-196585771D01*
X207291485Y-196585771D02*
X207291485Y-195085771D01*
X207148628Y-195300057D01*
X207005771Y-195442914D01*
X206862914Y-195514342D01*
X208648628Y-195085771D02*
X208791485Y-195085771D01*
X208934342Y-195157200D01*
X209005771Y-195228628D01*
X209077200Y-195371485D01*
X209148628Y-195657200D01*
X209148628Y-196014342D01*
X209077200Y-196300057D01*
X209005771Y-196442914D01*
X208934342Y-196514342D01*
X208791485Y-196585771D01*
X208648628Y-196585771D01*
X208505771Y-196514342D01*
X208434342Y-196442914D01*
X208362914Y-196300057D01*
X208291485Y-196014342D01*
X208291485Y-195657200D01*
X208362914Y-195371485D01*
X208434342Y-195228628D01*
X208505771Y-195157200D01*
X208648628Y-195085771D01*
X209648628Y-197157200D02*
X209720057Y-197085771D01*
X209862914Y-196871485D01*
X209934342Y-196728628D01*
X210005771Y-196514342D01*
X210077200Y-196157200D01*
X210077200Y-195871485D01*
X210005771Y-195514342D01*
X209934342Y-195300057D01*
X209862914Y-195157200D01*
X209720057Y-194942914D01*
X209648628Y-194871485D01*
X210791485Y-196014342D02*
X211934342Y-196014342D01*
X213434342Y-196585771D02*
X212577200Y-196585771D01*
X213005771Y-196585771D02*
X213005771Y-195085771D01*
X212862914Y-195300057D01*
X212720057Y-195442914D01*
X212577200Y-195514342D01*
D10*
D11*
X177002200Y-191507200D02*
X285002200Y-191507200D01*
D10*
D12*
X264411485Y-193785771D02*
X263911485Y-193071485D01*
X263554342Y-193785771D02*
X263554342Y-192285771D01*
X264125771Y-192285771D01*
X264268628Y-192357200D01*
X264340057Y-192428628D01*
X264411485Y-192571485D01*
X264411485Y-192785771D01*
X264340057Y-192928628D01*
X264268628Y-193000057D01*
X264125771Y-193071485D01*
X263554342Y-193071485D01*
X265625771Y-193714342D02*
X265482914Y-193785771D01*
X265197200Y-193785771D01*
X265054342Y-193714342D01*
X264982914Y-193571485D01*
X264982914Y-193000057D01*
X265054342Y-192857200D01*
X265197200Y-192785771D01*
X265482914Y-192785771D01*
X265625771Y-192857200D01*
X265697200Y-193000057D01*
X265697200Y-193142914D01*
X264982914Y-193285771D01*
X266197200Y-192785771D02*
X266554342Y-193785771D01*
X266911485Y-192785771D01*
X267482914Y-193642914D02*
X267554342Y-193714342D01*
X267482914Y-193785771D01*
X267411485Y-193714342D01*
X267482914Y-193642914D01*
X267482914Y-193785771D01*
X267482914Y-192857200D02*
X267554342Y-192928628D01*
X267482914Y-193000057D01*
X267411485Y-192928628D01*
X267482914Y-192857200D01*
X267482914Y-193000057D01*
D10*
D11*
X178362914Y-193714342D02*
X178577200Y-193785771D01*
X178934342Y-193785771D01*
X179077200Y-193714342D01*
X179148628Y-193642914D01*
X179220057Y-193500057D01*
X179220057Y-193357200D01*
X179148628Y-193214342D01*
X179077200Y-193142914D01*
X178934342Y-193071485D01*
X178648628Y-193000057D01*
X178505771Y-192928628D01*
X178434342Y-192857200D01*
X178362914Y-192714342D01*
X178362914Y-192571485D01*
X178434342Y-192428628D01*
X178505771Y-192357200D01*
X178648628Y-192285771D01*
X179005771Y-192285771D01*
X179220057Y-192357200D01*
X179862914Y-193785771D02*
X179862914Y-192785771D01*
X179862914Y-192285771D02*
X179791485Y-192357200D01*
X179862914Y-192428628D01*
X179934342Y-192357200D01*
X179862914Y-192285771D01*
X179862914Y-192428628D01*
X180434342Y-192785771D02*
X181220057Y-192785771D01*
X180434342Y-193785771D01*
X181220057Y-193785771D01*
X182362914Y-193714342D02*
X182220057Y-193785771D01*
X181934342Y-193785771D01*
X181791485Y-193714342D01*
X181720057Y-193571485D01*
X181720057Y-193000057D01*
X181791485Y-192857200D01*
X181934342Y-192785771D01*
X182220057Y-192785771D01*
X182362914Y-192857200D01*
X182434342Y-193000057D01*
X182434342Y-193142914D01*
X181720057Y-193285771D01*
X183077200Y-193642914D02*
X183148628Y-193714342D01*
X183077200Y-193785771D01*
X183005771Y-193714342D01*
X183077200Y-193642914D01*
X183077200Y-193785771D01*
X183077200Y-192857200D02*
X183148628Y-192928628D01*
X183077200Y-193000057D01*
X183005771Y-192928628D01*
X183077200Y-192857200D01*
X183077200Y-193000057D01*
X184862914Y-193357200D02*
X185577200Y-193357200D01*
X184720057Y-193785771D02*
X185220057Y-192285771D01*
X185720057Y-193785771D01*
X186862914Y-192785771D02*
X186862914Y-193785771D01*
X186505771Y-192214342D02*
X186148628Y-193285771D01*
X187077200Y-193285771D01*
D10*
D11*
X263434342Y-196585771D02*
X263434342Y-195085771D01*
X264791485Y-196585771D02*
X264791485Y-195085771D01*
X264791485Y-196514342D02*
X264648628Y-196585771D01*
X264362914Y-196585771D01*
X264220057Y-196514342D01*
X264148628Y-196442914D01*
X264077200Y-196300057D01*
X264077200Y-195871485D01*
X264148628Y-195728628D01*
X264220057Y-195657200D01*
X264362914Y-195585771D01*
X264648628Y-195585771D01*
X264791485Y-195657200D01*
X265505771Y-196442914D02*
X265577200Y-196514342D01*
X265505771Y-196585771D01*
X265434342Y-196514342D01*
X265505771Y-196442914D01*
X265505771Y-196585771D01*
X265505771Y-195657200D02*
X265577200Y-195728628D01*
X265505771Y-195800057D01*
X265434342Y-195728628D01*
X265505771Y-195657200D01*
X265505771Y-195800057D01*
X268148628Y-196585771D02*
X267291485Y-196585771D01*
X267720057Y-196585771D02*
X267720057Y-195085771D01*
X267577200Y-195300057D01*
X267434342Y-195442914D01*
X267291485Y-195514342D01*
X269862914Y-195014342D02*
X268577200Y-196942914D01*
X271148628Y-196585771D02*
X270291485Y-196585771D01*
X270720057Y-196585771D02*
X270720057Y-195085771D01*
X270577200Y-195300057D01*
X270434342Y-195442914D01*
X270291485Y-195514342D01*
D10*
D11*
X177002200Y-187507200D02*
X285002200Y-187507200D01*
D10*
D13*
X178714580Y-188211961D02*
X179857438Y-188211961D01*
X179036009Y-190211961D02*
X179286009Y-188211961D01*
X180274104Y-190211961D02*
X180440771Y-188878628D01*
X180524104Y-188211961D02*
X180416961Y-188307200D01*
X180500295Y-188402438D01*
X180607438Y-188307200D01*
X180524104Y-188211961D01*
X180500295Y-188402438D01*
X181107438Y-188878628D02*
X181869342Y-188878628D01*
X181476485Y-188211961D02*
X181262200Y-189926247D01*
X181333628Y-190116723D01*
X181512200Y-190211961D01*
X181702676Y-190211961D01*
X182655057Y-190211961D02*
X182476485Y-190116723D01*
X182405057Y-189926247D01*
X182619342Y-188211961D01*
X184190771Y-190116723D02*
X183988390Y-190211961D01*
X183607438Y-190211961D01*
X183428866Y-190116723D01*
X183357438Y-189926247D01*
X183452676Y-189164342D01*
X183571723Y-188973866D01*
X183774104Y-188878628D01*
X184155057Y-188878628D01*
X184333628Y-188973866D01*
X184405057Y-189164342D01*
X184381247Y-189354819D01*
X183405057Y-189545295D01*
X185155057Y-190021485D02*
X185238390Y-190116723D01*
X185131247Y-190211961D01*
X185047914Y-190116723D01*
X185155057Y-190021485D01*
X185131247Y-190211961D01*
X185286009Y-188973866D02*
X185369342Y-189069104D01*
X185262200Y-189164342D01*
X185178866Y-189069104D01*
X185286009Y-188973866D01*
X185262200Y-189164342D01*
D10*
D11*
X178934342Y-185600057D02*
X178434342Y-185600057D01*
X178434342Y-186385771D02*
X178434342Y-184885771D01*
X179148628Y-184885771D01*
X179720057Y-186385771D02*
X179720057Y-185385771D01*
X179720057Y-184885771D02*
X179648628Y-184957200D01*
X179720057Y-185028628D01*
X179791485Y-184957200D01*
X179720057Y-184885771D01*
X179720057Y-185028628D01*
X180648628Y-186385771D02*
X180505771Y-186314342D01*
X180434342Y-186171485D01*
X180434342Y-184885771D01*
X181791485Y-186314342D02*
X181648628Y-186385771D01*
X181362914Y-186385771D01*
X181220057Y-186314342D01*
X181148628Y-186171485D01*
X181148628Y-185600057D01*
X181220057Y-185457200D01*
X181362914Y-185385771D01*
X181648628Y-185385771D01*
X181791485Y-185457200D01*
X181862914Y-185600057D01*
X181862914Y-185742914D01*
X181148628Y-185885771D01*
X182505771Y-186242914D02*
X182577200Y-186314342D01*
X182505771Y-186385771D01*
X182434342Y-186314342D01*
X182505771Y-186242914D01*
X182505771Y-186385771D01*
X182505771Y-185457200D02*
X182577200Y-185528628D01*
X182505771Y-185600057D01*
X182434342Y-185528628D01*
X182505771Y-185457200D01*
X182505771Y-185600057D01*
X184362914Y-186385771D02*
X184362914Y-184885771D01*
X184934342Y-184885771D01*
X185077200Y-184957200D01*
X185148628Y-185028628D01*
X185220057Y-185171485D01*
X185220057Y-185385771D01*
X185148628Y-185528628D01*
X185077200Y-185600057D01*
X184934342Y-185671485D01*
X184362914Y-185671485D01*
X185862914Y-186385771D02*
X185862914Y-185385771D01*
X185862914Y-185671485D02*
X185934342Y-185528628D01*
X186005771Y-185457200D01*
X186148628Y-185385771D01*
X186291485Y-185385771D01*
X187005771Y-186385771D02*
X186862914Y-186314342D01*
X186791485Y-186242914D01*
X186720057Y-186100057D01*
X186720057Y-185671485D01*
X186791485Y-185528628D01*
X186862914Y-185457200D01*
X187005771Y-185385771D01*
X187220057Y-185385771D01*
X187362914Y-185457200D01*
X187434342Y-185528628D01*
X187505771Y-185671485D01*
X187505771Y-186100057D01*
X187434342Y-186242914D01*
X187362914Y-186314342D01*
X187220057Y-186385771D01*
X187005771Y-186385771D01*
X188148628Y-185385771D02*
X188148628Y-186671485D01*
X188077200Y-186814342D01*
X187934342Y-186885771D01*
X187862914Y-186885771D01*
X188148628Y-184885771D02*
X188077200Y-184957200D01*
X188148628Y-185028628D01*
X188220057Y-184957200D01*
X188148628Y-184885771D01*
X188148628Y-185028628D01*
X189434342Y-186314342D02*
X189291485Y-186385771D01*
X189005771Y-186385771D01*
X188862914Y-186314342D01*
X188791485Y-186171485D01*
X188791485Y-185600057D01*
X188862914Y-185457200D01*
X189005771Y-185385771D01*
X189291485Y-185385771D01*
X189434342Y-185457200D01*
X189505771Y-185600057D01*
X189505771Y-185742914D01*
X188791485Y-185885771D01*
X190148628Y-186385771D02*
X190148628Y-184885771D01*
X190291485Y-185814342D02*
X190720057Y-186385771D01*
X190720057Y-185385771D02*
X190148628Y-185957200D01*
X191148628Y-185385771D02*
X191720057Y-185385771D01*
X191362914Y-184885771D02*
X191362914Y-186171485D01*
X191434342Y-186314342D01*
X191577200Y-186385771D01*
X191720057Y-186385771D01*
X193005771Y-186385771D02*
X192148628Y-186385771D01*
X192577200Y-186385771D02*
X192577200Y-184885771D01*
X192434342Y-185100057D01*
X192291485Y-185242914D01*
X192148628Y-185314342D01*
X193648628Y-186242914D02*
X193720057Y-186314342D01*
X193648628Y-186385771D01*
X193577200Y-186314342D01*
X193648628Y-186242914D01*
X193648628Y-186385771D01*
X194362914Y-186385771D02*
X194362914Y-184885771D01*
X194505771Y-185814342D02*
X194934342Y-186385771D01*
X194934342Y-185385771D02*
X194362914Y-185957200D01*
X195577200Y-186385771D02*
X195577200Y-185385771D01*
X195577200Y-184885771D02*
X195505771Y-184957200D01*
X195577200Y-185028628D01*
X195648628Y-184957200D01*
X195577200Y-184885771D01*
X195577200Y-185028628D01*
X196934342Y-186314342D02*
X196791485Y-186385771D01*
X196505771Y-186385771D01*
X196362914Y-186314342D01*
X196291485Y-186242914D01*
X196220057Y-186100057D01*
X196220057Y-185671485D01*
X196291485Y-185528628D01*
X196362914Y-185457200D01*
X196505771Y-185385771D01*
X196791485Y-185385771D01*
X196934342Y-185457200D01*
X198220057Y-186385771D02*
X198220057Y-185600057D01*
X198148628Y-185457200D01*
X198005771Y-185385771D01*
X197720057Y-185385771D01*
X197577200Y-185457200D01*
X198220057Y-186314342D02*
X198077200Y-186385771D01*
X197720057Y-186385771D01*
X197577200Y-186314342D01*
X197505771Y-186171485D01*
X197505771Y-186028628D01*
X197577200Y-185885771D01*
X197720057Y-185814342D01*
X198077200Y-185814342D01*
X198220057Y-185742914D01*
X199577200Y-186385771D02*
X199577200Y-184885771D01*
X199577200Y-186314342D02*
X199434342Y-186385771D01*
X199148628Y-186385771D01*
X199005771Y-186314342D01*
X198934342Y-186242914D01*
X198862914Y-186100057D01*
X198862914Y-185671485D01*
X198934342Y-185528628D01*
X199005771Y-185457200D01*
X199148628Y-185385771D01*
X199434342Y-185385771D01*
X199577200Y-185457200D01*
X199934342Y-186528628D02*
X201077200Y-186528628D01*
X201434342Y-185385771D02*
X201434342Y-186885771D01*
X201434342Y-185457200D02*
X201577200Y-185385771D01*
X201862914Y-185385771D01*
X202005771Y-185457200D01*
X202077200Y-185528628D01*
X202148628Y-185671485D01*
X202148628Y-186100057D01*
X202077200Y-186242914D01*
X202005771Y-186314342D01*
X201862914Y-186385771D01*
X201577200Y-186385771D01*
X201434342Y-186314342D01*
X203434342Y-186314342D02*
X203291485Y-186385771D01*
X203005771Y-186385771D01*
X202862914Y-186314342D01*
X202791485Y-186242914D01*
X202720057Y-186100057D01*
X202720057Y-185671485D01*
X202791485Y-185528628D01*
X202862914Y-185457200D01*
X203005771Y-185385771D01*
X203291485Y-185385771D01*
X203434342Y-185457200D01*
X204077200Y-186385771D02*
X204077200Y-184885771D01*
X204077200Y-185457200D02*
X204220057Y-185385771D01*
X204505771Y-185385771D01*
X204648628Y-185457200D01*
X204720057Y-185528628D01*
X204791485Y-185671485D01*
X204791485Y-186100057D01*
X204720057Y-186242914D01*
X204648628Y-186314342D01*
X204505771Y-186385771D01*
X204220057Y-186385771D01*
X204077200Y-186314342D01*
D10*
D11*
X177002200Y-181507200D02*
X285002200Y-181507200D01*
D10*
D11*
X178362914Y-183614342D02*
X178577200Y-183685771D01*
X178934342Y-183685771D01*
X179077200Y-183614342D01*
X179148628Y-183542914D01*
X179220057Y-183400057D01*
X179220057Y-183257200D01*
X179148628Y-183114342D01*
X179077200Y-183042914D01*
X178934342Y-182971485D01*
X178648628Y-182900057D01*
X178505771Y-182828628D01*
X178434342Y-182757200D01*
X178362914Y-182614342D01*
X178362914Y-182471485D01*
X178434342Y-182328628D01*
X178505771Y-182257200D01*
X178648628Y-182185771D01*
X179005771Y-182185771D01*
X179220057Y-182257200D01*
X179862914Y-183685771D02*
X179862914Y-182185771D01*
X180505771Y-183685771D02*
X180505771Y-182900057D01*
X180434342Y-182757200D01*
X180291485Y-182685771D01*
X180077200Y-182685771D01*
X179934342Y-182757200D01*
X179862914Y-182828628D01*
X181791485Y-183614342D02*
X181648628Y-183685771D01*
X181362914Y-183685771D01*
X181220057Y-183614342D01*
X181148628Y-183471485D01*
X181148628Y-182900057D01*
X181220057Y-182757200D01*
X181362914Y-182685771D01*
X181648628Y-182685771D01*
X181791485Y-182757200D01*
X181862914Y-182900057D01*
X181862914Y-183042914D01*
X181148628Y-183185771D01*
X183077200Y-183614342D02*
X182934342Y-183685771D01*
X182648628Y-183685771D01*
X182505771Y-183614342D01*
X182434342Y-183471485D01*
X182434342Y-182900057D01*
X182505771Y-182757200D01*
X182648628Y-182685771D01*
X182934342Y-182685771D01*
X183077200Y-182757200D01*
X183148628Y-182900057D01*
X183148628Y-183042914D01*
X182434342Y-183185771D01*
X183577200Y-182685771D02*
X184148628Y-182685771D01*
X183791485Y-182185771D02*
X183791485Y-183471485D01*
X183862914Y-183614342D01*
X184005771Y-183685771D01*
X184148628Y-183685771D01*
X184648628Y-183542914D02*
X184720057Y-183614342D01*
X184648628Y-183685771D01*
X184577200Y-183614342D01*
X184648628Y-183542914D01*
X184648628Y-183685771D01*
X184648628Y-182757200D02*
X184720057Y-182828628D01*
X184648628Y-182900057D01*
X184577200Y-182828628D01*
X184648628Y-182757200D01*
X184648628Y-182900057D01*
D10*
D11*
X197002200Y-191507200D02*
X197002200Y-194507200D01*
D10*
D11*
X261002200Y-191507200D02*
X261002200Y-198007200D01*
D14*
%TO.C,D24*%
X143250000Y-115150000D02*
X143250000Y-107850000D01*
X148750000Y-115150000D02*
X148750000Y-107850000D01*
X148750000Y-107850000D02*
X147600000Y-107850000D01*
%TO.C,D23*%
X133750000Y-115150000D02*
X133750000Y-107850000D01*
X139250000Y-115150000D02*
X139250000Y-107850000D01*
X139250000Y-107850000D02*
X138100000Y-107850000D01*
%TO.C,D22*%
X124250000Y-115150000D02*
X124250000Y-107850000D01*
X129750000Y-115150000D02*
X129750000Y-107850000D01*
X129750000Y-107850000D02*
X128600000Y-107850000D01*
%TO.C,D21*%
X114750000Y-115150000D02*
X114750000Y-107850000D01*
X120250000Y-115150000D02*
X120250000Y-107850000D01*
X120250000Y-107850000D02*
X119100000Y-107850000D01*
%TO.C,D16*%
X114750000Y-105650000D02*
X114750000Y-98350000D01*
X120250000Y-105650000D02*
X120250000Y-98350000D01*
X120250000Y-98350000D02*
X119100000Y-98350000D01*
%TO.C,D15*%
X152650000Y-96150000D02*
X152650000Y-88850000D01*
X158150000Y-96150000D02*
X158150000Y-88850000D01*
X158150000Y-88850000D02*
X157000000Y-88850000D01*
%TO.C,D14*%
X143150000Y-96150000D02*
X143150000Y-88850000D01*
X148650000Y-96150000D02*
X148650000Y-88850000D01*
X148650000Y-88850000D02*
X147500000Y-88850000D01*
%TO.C,D13*%
X133650000Y-96150000D02*
X133650000Y-88850000D01*
X139150000Y-96150000D02*
X139150000Y-88850000D01*
X139150000Y-88850000D02*
X138000000Y-88850000D01*
%TO.C,D8*%
X133750000Y-86650000D02*
X133750000Y-79350000D01*
X139250000Y-86650000D02*
X139250000Y-79350000D01*
X139250000Y-79350000D02*
X138100000Y-79350000D01*
%TO.C,D7*%
X124250000Y-86650000D02*
X124250000Y-79350000D01*
X129750000Y-86650000D02*
X129750000Y-79350000D01*
X129750000Y-79350000D02*
X128600000Y-79350000D01*
%TO.C,D6*%
X114750000Y-86650000D02*
X114750000Y-79350000D01*
X120250000Y-86650000D02*
X120250000Y-79350000D01*
X120250000Y-79350000D02*
X119100000Y-79350000D01*
%TO.C,D5*%
X152750000Y-76650000D02*
X152750000Y-69350000D01*
X158250000Y-76650000D02*
X158250000Y-69350000D01*
X158250000Y-69350000D02*
X157100000Y-69350000D01*
%TO.C,C24*%
X130265000Y-102723752D02*
X130265000Y-102201248D01*
X131735000Y-102723752D02*
X131735000Y-102201248D01*
%TO.C,C23*%
X149265000Y-112223752D02*
X149265000Y-111701248D01*
X150735000Y-112223752D02*
X150735000Y-111701248D01*
%TO.C,C22*%
X130265000Y-93723752D02*
X130265000Y-93201248D01*
X131735000Y-93723752D02*
X131735000Y-93201248D01*
%TO.C,C21*%
X139765000Y-93761252D02*
X139765000Y-93238748D01*
X141235000Y-93761252D02*
X141235000Y-93238748D01*
%TO.C,C16*%
X139765000Y-112223752D02*
X139765000Y-111701248D01*
X141235000Y-112223752D02*
X141235000Y-111701248D01*
%TO.C,C15*%
X139765000Y-102723752D02*
X139765000Y-102201248D01*
X141235000Y-102723752D02*
X141235000Y-102201248D01*
%TO.C,C14*%
X120765000Y-112223752D02*
X120765000Y-111701248D01*
X122235000Y-112223752D02*
X122235000Y-111701248D01*
%TO.C,C8*%
X130265000Y-112223752D02*
X130265000Y-111701248D01*
X131735000Y-112223752D02*
X131735000Y-111701248D01*
%TO.C,C7*%
X120765000Y-102798752D02*
X120765000Y-102276248D01*
X122235000Y-102798752D02*
X122235000Y-102276248D01*
%TO.C,C6*%
X149265000Y-93723752D02*
X149265000Y-93201248D01*
X150735000Y-93723752D02*
X150735000Y-93201248D01*
%TO.C,D3*%
X139250000Y-69350000D02*
X138100000Y-69350000D01*
X139250000Y-76650000D02*
X139250000Y-69350000D01*
X133750000Y-76650000D02*
X133750000Y-69350000D01*
%TO.C,D25*%
X158250000Y-107850000D02*
X157100000Y-107850000D01*
X158250000Y-115150000D02*
X158250000Y-107850000D01*
X152750000Y-115150000D02*
X152750000Y-107850000D01*
%TO.C,D20*%
X158250000Y-98350000D02*
X157100000Y-98350000D01*
X158250000Y-105650000D02*
X158250000Y-98350000D01*
X152750000Y-105650000D02*
X152750000Y-98350000D01*
%TO.C,D19*%
X148750000Y-98350000D02*
X147600000Y-98350000D01*
X148750000Y-105650000D02*
X148750000Y-98350000D01*
X143250000Y-105650000D02*
X143250000Y-98350000D01*
%TO.C,D18*%
X139250000Y-98350000D02*
X138100000Y-98350000D01*
X139250000Y-105650000D02*
X139250000Y-98350000D01*
X133750000Y-105650000D02*
X133750000Y-98350000D01*
%TO.C,D17*%
X129750000Y-98350000D02*
X128600000Y-98350000D01*
X129750000Y-105650000D02*
X129750000Y-98350000D01*
X124250000Y-105650000D02*
X124250000Y-98350000D01*
%TO.C,D12*%
X129750000Y-88850000D02*
X128600000Y-88850000D01*
X129750000Y-96150000D02*
X129750000Y-88850000D01*
X124250000Y-96150000D02*
X124250000Y-88850000D01*
%TO.C,D11*%
X120250000Y-88850000D02*
X119100000Y-88850000D01*
X120250000Y-96150000D02*
X120250000Y-88850000D01*
X114750000Y-96150000D02*
X114750000Y-88850000D01*
%TO.C,D10*%
X158250000Y-79350000D02*
X157100000Y-79350000D01*
X158250000Y-86650000D02*
X158250000Y-79350000D01*
X152750000Y-86650000D02*
X152750000Y-79350000D01*
%TO.C,D9*%
X148750000Y-79350000D02*
X147600000Y-79350000D01*
X148750000Y-86650000D02*
X148750000Y-79350000D01*
X143250000Y-86650000D02*
X143250000Y-79350000D01*
%TO.C,D4*%
X148750000Y-69350000D02*
X147600000Y-69350000D01*
X148750000Y-76650000D02*
X148750000Y-69350000D01*
X143250000Y-76650000D02*
X143250000Y-69350000D01*
%TO.C,D2*%
X129750000Y-69350000D02*
X128600000Y-69350000D01*
X129750000Y-76650000D02*
X129750000Y-69350000D01*
X124250000Y-76650000D02*
X124250000Y-69350000D01*
%TO.C,D1*%
X120250000Y-69350000D02*
X119100000Y-69350000D01*
X120250000Y-76650000D02*
X120250000Y-69350000D01*
X114750000Y-76650000D02*
X114750000Y-69350000D01*
%TO.C,C25*%
X122235000Y-93798752D02*
X122235000Y-93276248D01*
X120765000Y-93798752D02*
X120765000Y-93276248D01*
%TO.C,C20*%
X150735000Y-102761252D02*
X150735000Y-102238748D01*
X149265000Y-102761252D02*
X149265000Y-102238748D01*
%TO.C,C18*%
X150735000Y-84261252D02*
X150735000Y-83738748D01*
X149265000Y-84261252D02*
X149265000Y-83738748D01*
%TO.C,C17*%
X141235000Y-84298752D02*
X141235000Y-83776248D01*
X139765000Y-84298752D02*
X139765000Y-83776248D01*
%TO.C,C12*%
X131735000Y-84298752D02*
X131735000Y-83776248D01*
X130265000Y-84298752D02*
X130265000Y-83776248D01*
%TO.C,C11*%
X122235000Y-84298752D02*
X122235000Y-83776248D01*
X120765000Y-84298752D02*
X120765000Y-83776248D01*
%TO.C,C4*%
X150735000Y-74298752D02*
X150735000Y-73776248D01*
X149265000Y-74298752D02*
X149265000Y-73776248D01*
%TO.C,C3*%
X141235000Y-74298752D02*
X141235000Y-73776248D01*
X139765000Y-74298752D02*
X139765000Y-73776248D01*
%TO.C,C2*%
X131735000Y-74223752D02*
X131735000Y-73701248D01*
X130265000Y-74223752D02*
X130265000Y-73701248D01*
%TO.C,C1*%
X122235000Y-74298752D02*
X122235000Y-73776248D01*
X120765000Y-74298752D02*
X120765000Y-73776248D01*
%TO.C,D24*%
D11*
X142952380Y-112714285D02*
X141952380Y-112714285D01*
X141952380Y-112476190D01*
X142000000Y-112333333D01*
X142095238Y-112238095D01*
X142190476Y-112190476D01*
X142380952Y-112142857D01*
X142523809Y-112142857D01*
X142714285Y-112190476D01*
X142809523Y-112238095D01*
X142904761Y-112333333D01*
X142952380Y-112476190D01*
X142952380Y-112714285D01*
X142047619Y-111761904D02*
X142000000Y-111714285D01*
X141952380Y-111619047D01*
X141952380Y-111380952D01*
X142000000Y-111285714D01*
X142047619Y-111238095D01*
X142142857Y-111190476D01*
X142238095Y-111190476D01*
X142380952Y-111238095D01*
X142952380Y-111809523D01*
X142952380Y-111190476D01*
X142285714Y-110333333D02*
X142952380Y-110333333D01*
X141904761Y-110571428D02*
X142619047Y-110809523D01*
X142619047Y-110190476D01*
X144852380Y-115364285D02*
X144852380Y-115935714D01*
X144852380Y-115650000D02*
X143852380Y-115650000D01*
X143995238Y-115745238D01*
X144090476Y-115840476D01*
X144138095Y-115935714D01*
%TO.C,D23*%
X133452380Y-112714285D02*
X132452380Y-112714285D01*
X132452380Y-112476190D01*
X132500000Y-112333333D01*
X132595238Y-112238095D01*
X132690476Y-112190476D01*
X132880952Y-112142857D01*
X133023809Y-112142857D01*
X133214285Y-112190476D01*
X133309523Y-112238095D01*
X133404761Y-112333333D01*
X133452380Y-112476190D01*
X133452380Y-112714285D01*
X132547619Y-111761904D02*
X132500000Y-111714285D01*
X132452380Y-111619047D01*
X132452380Y-111380952D01*
X132500000Y-111285714D01*
X132547619Y-111238095D01*
X132642857Y-111190476D01*
X132738095Y-111190476D01*
X132880952Y-111238095D01*
X133452380Y-111809523D01*
X133452380Y-111190476D01*
X132452380Y-110857142D02*
X132452380Y-110238095D01*
X132833333Y-110571428D01*
X132833333Y-110428571D01*
X132880952Y-110333333D01*
X132928571Y-110285714D01*
X133023809Y-110238095D01*
X133261904Y-110238095D01*
X133357142Y-110285714D01*
X133404761Y-110333333D01*
X133452380Y-110428571D01*
X133452380Y-110714285D01*
X133404761Y-110809523D01*
X133357142Y-110857142D01*
X135352380Y-115364285D02*
X135352380Y-115935714D01*
X135352380Y-115650000D02*
X134352380Y-115650000D01*
X134495238Y-115745238D01*
X134590476Y-115840476D01*
X134638095Y-115935714D01*
%TO.C,D22*%
X123952380Y-112714285D02*
X122952380Y-112714285D01*
X122952380Y-112476190D01*
X123000000Y-112333333D01*
X123095238Y-112238095D01*
X123190476Y-112190476D01*
X123380952Y-112142857D01*
X123523809Y-112142857D01*
X123714285Y-112190476D01*
X123809523Y-112238095D01*
X123904761Y-112333333D01*
X123952380Y-112476190D01*
X123952380Y-112714285D01*
X123047619Y-111761904D02*
X123000000Y-111714285D01*
X122952380Y-111619047D01*
X122952380Y-111380952D01*
X123000000Y-111285714D01*
X123047619Y-111238095D01*
X123142857Y-111190476D01*
X123238095Y-111190476D01*
X123380952Y-111238095D01*
X123952380Y-111809523D01*
X123952380Y-111190476D01*
X123047619Y-110809523D02*
X123000000Y-110761904D01*
X122952380Y-110666666D01*
X122952380Y-110428571D01*
X123000000Y-110333333D01*
X123047619Y-110285714D01*
X123142857Y-110238095D01*
X123238095Y-110238095D01*
X123380952Y-110285714D01*
X123952380Y-110857142D01*
X123952380Y-110238095D01*
X125852380Y-115364285D02*
X125852380Y-115935714D01*
X125852380Y-115650000D02*
X124852380Y-115650000D01*
X124995238Y-115745238D01*
X125090476Y-115840476D01*
X125138095Y-115935714D01*
%TO.C,D21*%
X114452380Y-112714285D02*
X113452380Y-112714285D01*
X113452380Y-112476190D01*
X113500000Y-112333333D01*
X113595238Y-112238095D01*
X113690476Y-112190476D01*
X113880952Y-112142857D01*
X114023809Y-112142857D01*
X114214285Y-112190476D01*
X114309523Y-112238095D01*
X114404761Y-112333333D01*
X114452380Y-112476190D01*
X114452380Y-112714285D01*
X113547619Y-111761904D02*
X113500000Y-111714285D01*
X113452380Y-111619047D01*
X113452380Y-111380952D01*
X113500000Y-111285714D01*
X113547619Y-111238095D01*
X113642857Y-111190476D01*
X113738095Y-111190476D01*
X113880952Y-111238095D01*
X114452380Y-111809523D01*
X114452380Y-111190476D01*
X114452380Y-110238095D02*
X114452380Y-110809523D01*
X114452380Y-110523809D02*
X113452380Y-110523809D01*
X113595238Y-110619047D01*
X113690476Y-110714285D01*
X113738095Y-110809523D01*
X116352380Y-115364285D02*
X116352380Y-115935714D01*
X116352380Y-115650000D02*
X115352380Y-115650000D01*
X115495238Y-115745238D01*
X115590476Y-115840476D01*
X115638095Y-115935714D01*
%TO.C,D16*%
X114452380Y-103214285D02*
X113452380Y-103214285D01*
X113452380Y-102976190D01*
X113500000Y-102833333D01*
X113595238Y-102738095D01*
X113690476Y-102690476D01*
X113880952Y-102642857D01*
X114023809Y-102642857D01*
X114214285Y-102690476D01*
X114309523Y-102738095D01*
X114404761Y-102833333D01*
X114452380Y-102976190D01*
X114452380Y-103214285D01*
X114452380Y-101690476D02*
X114452380Y-102261904D01*
X114452380Y-101976190D02*
X113452380Y-101976190D01*
X113595238Y-102071428D01*
X113690476Y-102166666D01*
X113738095Y-102261904D01*
X113452380Y-100833333D02*
X113452380Y-101023809D01*
X113500000Y-101119047D01*
X113547619Y-101166666D01*
X113690476Y-101261904D01*
X113880952Y-101309523D01*
X114261904Y-101309523D01*
X114357142Y-101261904D01*
X114404761Y-101214285D01*
X114452380Y-101119047D01*
X114452380Y-100928571D01*
X114404761Y-100833333D01*
X114357142Y-100785714D01*
X114261904Y-100738095D01*
X114023809Y-100738095D01*
X113928571Y-100785714D01*
X113880952Y-100833333D01*
X113833333Y-100928571D01*
X113833333Y-101119047D01*
X113880952Y-101214285D01*
X113928571Y-101261904D01*
X114023809Y-101309523D01*
X116352380Y-105864285D02*
X116352380Y-106435714D01*
X116352380Y-106150000D02*
X115352380Y-106150000D01*
X115495238Y-106245238D01*
X115590476Y-106340476D01*
X115638095Y-106435714D01*
%TO.C,D15*%
X152352380Y-93714285D02*
X151352380Y-93714285D01*
X151352380Y-93476190D01*
X151400000Y-93333333D01*
X151495238Y-93238095D01*
X151590476Y-93190476D01*
X151780952Y-93142857D01*
X151923809Y-93142857D01*
X152114285Y-93190476D01*
X152209523Y-93238095D01*
X152304761Y-93333333D01*
X152352380Y-93476190D01*
X152352380Y-93714285D01*
X152352380Y-92190476D02*
X152352380Y-92761904D01*
X152352380Y-92476190D02*
X151352380Y-92476190D01*
X151495238Y-92571428D01*
X151590476Y-92666666D01*
X151638095Y-92761904D01*
X151352380Y-91285714D02*
X151352380Y-91761904D01*
X151828571Y-91809523D01*
X151780952Y-91761904D01*
X151733333Y-91666666D01*
X151733333Y-91428571D01*
X151780952Y-91333333D01*
X151828571Y-91285714D01*
X151923809Y-91238095D01*
X152161904Y-91238095D01*
X152257142Y-91285714D01*
X152304761Y-91333333D01*
X152352380Y-91428571D01*
X152352380Y-91666666D01*
X152304761Y-91761904D01*
X152257142Y-91809523D01*
X154252380Y-96364285D02*
X154252380Y-96935714D01*
X154252380Y-96650000D02*
X153252380Y-96650000D01*
X153395238Y-96745238D01*
X153490476Y-96840476D01*
X153538095Y-96935714D01*
%TO.C,D14*%
X142852380Y-93714285D02*
X141852380Y-93714285D01*
X141852380Y-93476190D01*
X141900000Y-93333333D01*
X141995238Y-93238095D01*
X142090476Y-93190476D01*
X142280952Y-93142857D01*
X142423809Y-93142857D01*
X142614285Y-93190476D01*
X142709523Y-93238095D01*
X142804761Y-93333333D01*
X142852380Y-93476190D01*
X142852380Y-93714285D01*
X142852380Y-92190476D02*
X142852380Y-92761904D01*
X142852380Y-92476190D02*
X141852380Y-92476190D01*
X141995238Y-92571428D01*
X142090476Y-92666666D01*
X142138095Y-92761904D01*
X142185714Y-91333333D02*
X142852380Y-91333333D01*
X141804761Y-91571428D02*
X142519047Y-91809523D01*
X142519047Y-91190476D01*
X144752380Y-96364285D02*
X144752380Y-96935714D01*
X144752380Y-96650000D02*
X143752380Y-96650000D01*
X143895238Y-96745238D01*
X143990476Y-96840476D01*
X144038095Y-96935714D01*
%TO.C,D13*%
X133352380Y-93714285D02*
X132352380Y-93714285D01*
X132352380Y-93476190D01*
X132400000Y-93333333D01*
X132495238Y-93238095D01*
X132590476Y-93190476D01*
X132780952Y-93142857D01*
X132923809Y-93142857D01*
X133114285Y-93190476D01*
X133209523Y-93238095D01*
X133304761Y-93333333D01*
X133352380Y-93476190D01*
X133352380Y-93714285D01*
X133352380Y-92190476D02*
X133352380Y-92761904D01*
X133352380Y-92476190D02*
X132352380Y-92476190D01*
X132495238Y-92571428D01*
X132590476Y-92666666D01*
X132638095Y-92761904D01*
X132352380Y-91857142D02*
X132352380Y-91238095D01*
X132733333Y-91571428D01*
X132733333Y-91428571D01*
X132780952Y-91333333D01*
X132828571Y-91285714D01*
X132923809Y-91238095D01*
X133161904Y-91238095D01*
X133257142Y-91285714D01*
X133304761Y-91333333D01*
X133352380Y-91428571D01*
X133352380Y-91714285D01*
X133304761Y-91809523D01*
X133257142Y-91857142D01*
X135252380Y-96364285D02*
X135252380Y-96935714D01*
X135252380Y-96650000D02*
X134252380Y-96650000D01*
X134395238Y-96745238D01*
X134490476Y-96840476D01*
X134538095Y-96935714D01*
%TO.C,D8*%
X133452380Y-83738095D02*
X132452380Y-83738095D01*
X132452380Y-83500000D01*
X132500000Y-83357142D01*
X132595238Y-83261904D01*
X132690476Y-83214285D01*
X132880952Y-83166666D01*
X133023809Y-83166666D01*
X133214285Y-83214285D01*
X133309523Y-83261904D01*
X133404761Y-83357142D01*
X133452380Y-83500000D01*
X133452380Y-83738095D01*
X132880952Y-82595238D02*
X132833333Y-82690476D01*
X132785714Y-82738095D01*
X132690476Y-82785714D01*
X132642857Y-82785714D01*
X132547619Y-82738095D01*
X132500000Y-82690476D01*
X132452380Y-82595238D01*
X132452380Y-82404761D01*
X132500000Y-82309523D01*
X132547619Y-82261904D01*
X132642857Y-82214285D01*
X132690476Y-82214285D01*
X132785714Y-82261904D01*
X132833333Y-82309523D01*
X132880952Y-82404761D01*
X132880952Y-82595238D01*
X132928571Y-82690476D01*
X132976190Y-82738095D01*
X133071428Y-82785714D01*
X133261904Y-82785714D01*
X133357142Y-82738095D01*
X133404761Y-82690476D01*
X133452380Y-82595238D01*
X133452380Y-82404761D01*
X133404761Y-82309523D01*
X133357142Y-82261904D01*
X133261904Y-82214285D01*
X133071428Y-82214285D01*
X132976190Y-82261904D01*
X132928571Y-82309523D01*
X132880952Y-82404761D01*
X135352380Y-86864285D02*
X135352380Y-87435714D01*
X135352380Y-87150000D02*
X134352380Y-87150000D01*
X134495238Y-87245238D01*
X134590476Y-87340476D01*
X134638095Y-87435714D01*
%TO.C,D7*%
X123952380Y-83738095D02*
X122952380Y-83738095D01*
X122952380Y-83500000D01*
X123000000Y-83357142D01*
X123095238Y-83261904D01*
X123190476Y-83214285D01*
X123380952Y-83166666D01*
X123523809Y-83166666D01*
X123714285Y-83214285D01*
X123809523Y-83261904D01*
X123904761Y-83357142D01*
X123952380Y-83500000D01*
X123952380Y-83738095D01*
X122952380Y-82833333D02*
X122952380Y-82166666D01*
X123952380Y-82595238D01*
X125852380Y-86864285D02*
X125852380Y-87435714D01*
X125852380Y-87150000D02*
X124852380Y-87150000D01*
X124995238Y-87245238D01*
X125090476Y-87340476D01*
X125138095Y-87435714D01*
%TO.C,D6*%
X114452380Y-83738095D02*
X113452380Y-83738095D01*
X113452380Y-83500000D01*
X113500000Y-83357142D01*
X113595238Y-83261904D01*
X113690476Y-83214285D01*
X113880952Y-83166666D01*
X114023809Y-83166666D01*
X114214285Y-83214285D01*
X114309523Y-83261904D01*
X114404761Y-83357142D01*
X114452380Y-83500000D01*
X114452380Y-83738095D01*
X113452380Y-82309523D02*
X113452380Y-82500000D01*
X113500000Y-82595238D01*
X113547619Y-82642857D01*
X113690476Y-82738095D01*
X113880952Y-82785714D01*
X114261904Y-82785714D01*
X114357142Y-82738095D01*
X114404761Y-82690476D01*
X114452380Y-82595238D01*
X114452380Y-82404761D01*
X114404761Y-82309523D01*
X114357142Y-82261904D01*
X114261904Y-82214285D01*
X114023809Y-82214285D01*
X113928571Y-82261904D01*
X113880952Y-82309523D01*
X113833333Y-82404761D01*
X113833333Y-82595238D01*
X113880952Y-82690476D01*
X113928571Y-82738095D01*
X114023809Y-82785714D01*
X116352380Y-86864285D02*
X116352380Y-87435714D01*
X116352380Y-87150000D02*
X115352380Y-87150000D01*
X115495238Y-87245238D01*
X115590476Y-87340476D01*
X115638095Y-87435714D01*
%TO.C,D5*%
X152452380Y-73738095D02*
X151452380Y-73738095D01*
X151452380Y-73500000D01*
X151500000Y-73357142D01*
X151595238Y-73261904D01*
X151690476Y-73214285D01*
X151880952Y-73166666D01*
X152023809Y-73166666D01*
X152214285Y-73214285D01*
X152309523Y-73261904D01*
X152404761Y-73357142D01*
X152452380Y-73500000D01*
X152452380Y-73738095D01*
X151452380Y-72261904D02*
X151452380Y-72738095D01*
X151928571Y-72785714D01*
X151880952Y-72738095D01*
X151833333Y-72642857D01*
X151833333Y-72404761D01*
X151880952Y-72309523D01*
X151928571Y-72261904D01*
X152023809Y-72214285D01*
X152261904Y-72214285D01*
X152357142Y-72261904D01*
X152404761Y-72309523D01*
X152452380Y-72404761D01*
X152452380Y-72642857D01*
X152404761Y-72738095D01*
X152357142Y-72785714D01*
X154352380Y-76864285D02*
X154352380Y-77435714D01*
X154352380Y-77150000D02*
X153352380Y-77150000D01*
X153495238Y-77245238D01*
X153590476Y-77340476D01*
X153638095Y-77435714D01*
%TO.C,C24*%
X129677142Y-103105357D02*
X129724761Y-103152976D01*
X129772380Y-103295833D01*
X129772380Y-103391071D01*
X129724761Y-103533928D01*
X129629523Y-103629166D01*
X129534285Y-103676785D01*
X129343809Y-103724404D01*
X129200952Y-103724404D01*
X129010476Y-103676785D01*
X128915238Y-103629166D01*
X128820000Y-103533928D01*
X128772380Y-103391071D01*
X128772380Y-103295833D01*
X128820000Y-103152976D01*
X128867619Y-103105357D01*
X128867619Y-102724404D02*
X128820000Y-102676785D01*
X128772380Y-102581547D01*
X128772380Y-102343452D01*
X128820000Y-102248214D01*
X128867619Y-102200595D01*
X128962857Y-102152976D01*
X129058095Y-102152976D01*
X129200952Y-102200595D01*
X129772380Y-102772023D01*
X129772380Y-102152976D01*
X129105714Y-101295833D02*
X129772380Y-101295833D01*
X128724761Y-101533928D02*
X129439047Y-101772023D01*
X129439047Y-101152976D01*
%TO.C,C23*%
X148677142Y-112605357D02*
X148724761Y-112652976D01*
X148772380Y-112795833D01*
X148772380Y-112891071D01*
X148724761Y-113033928D01*
X148629523Y-113129166D01*
X148534285Y-113176785D01*
X148343809Y-113224404D01*
X148200952Y-113224404D01*
X148010476Y-113176785D01*
X147915238Y-113129166D01*
X147820000Y-113033928D01*
X147772380Y-112891071D01*
X147772380Y-112795833D01*
X147820000Y-112652976D01*
X147867619Y-112605357D01*
X147867619Y-112224404D02*
X147820000Y-112176785D01*
X147772380Y-112081547D01*
X147772380Y-111843452D01*
X147820000Y-111748214D01*
X147867619Y-111700595D01*
X147962857Y-111652976D01*
X148058095Y-111652976D01*
X148200952Y-111700595D01*
X148772380Y-112272023D01*
X148772380Y-111652976D01*
X147772380Y-111319642D02*
X147772380Y-110700595D01*
X148153333Y-111033928D01*
X148153333Y-110891071D01*
X148200952Y-110795833D01*
X148248571Y-110748214D01*
X148343809Y-110700595D01*
X148581904Y-110700595D01*
X148677142Y-110748214D01*
X148724761Y-110795833D01*
X148772380Y-110891071D01*
X148772380Y-111176785D01*
X148724761Y-111272023D01*
X148677142Y-111319642D01*
%TO.C,C22*%
X129677142Y-94105357D02*
X129724761Y-94152976D01*
X129772380Y-94295833D01*
X129772380Y-94391071D01*
X129724761Y-94533928D01*
X129629523Y-94629166D01*
X129534285Y-94676785D01*
X129343809Y-94724404D01*
X129200952Y-94724404D01*
X129010476Y-94676785D01*
X128915238Y-94629166D01*
X128820000Y-94533928D01*
X128772380Y-94391071D01*
X128772380Y-94295833D01*
X128820000Y-94152976D01*
X128867619Y-94105357D01*
X128867619Y-93724404D02*
X128820000Y-93676785D01*
X128772380Y-93581547D01*
X128772380Y-93343452D01*
X128820000Y-93248214D01*
X128867619Y-93200595D01*
X128962857Y-93152976D01*
X129058095Y-93152976D01*
X129200952Y-93200595D01*
X129772380Y-93772023D01*
X129772380Y-93152976D01*
X128867619Y-92772023D02*
X128820000Y-92724404D01*
X128772380Y-92629166D01*
X128772380Y-92391071D01*
X128820000Y-92295833D01*
X128867619Y-92248214D01*
X128962857Y-92200595D01*
X129058095Y-92200595D01*
X129200952Y-92248214D01*
X129772380Y-92819642D01*
X129772380Y-92200595D01*
%TO.C,C21*%
X139177142Y-94142857D02*
X139224761Y-94190476D01*
X139272380Y-94333333D01*
X139272380Y-94428571D01*
X139224761Y-94571428D01*
X139129523Y-94666666D01*
X139034285Y-94714285D01*
X138843809Y-94761904D01*
X138700952Y-94761904D01*
X138510476Y-94714285D01*
X138415238Y-94666666D01*
X138320000Y-94571428D01*
X138272380Y-94428571D01*
X138272380Y-94333333D01*
X138320000Y-94190476D01*
X138367619Y-94142857D01*
X138367619Y-93761904D02*
X138320000Y-93714285D01*
X138272380Y-93619047D01*
X138272380Y-93380952D01*
X138320000Y-93285714D01*
X138367619Y-93238095D01*
X138462857Y-93190476D01*
X138558095Y-93190476D01*
X138700952Y-93238095D01*
X139272380Y-93809523D01*
X139272380Y-93190476D01*
X139272380Y-92238095D02*
X139272380Y-92809523D01*
X139272380Y-92523809D02*
X138272380Y-92523809D01*
X138415238Y-92619047D01*
X138510476Y-92714285D01*
X138558095Y-92809523D01*
%TO.C,C16*%
X139177142Y-112605357D02*
X139224761Y-112652976D01*
X139272380Y-112795833D01*
X139272380Y-112891071D01*
X139224761Y-113033928D01*
X139129523Y-113129166D01*
X139034285Y-113176785D01*
X138843809Y-113224404D01*
X138700952Y-113224404D01*
X138510476Y-113176785D01*
X138415238Y-113129166D01*
X138320000Y-113033928D01*
X138272380Y-112891071D01*
X138272380Y-112795833D01*
X138320000Y-112652976D01*
X138367619Y-112605357D01*
X139272380Y-111652976D02*
X139272380Y-112224404D01*
X139272380Y-111938690D02*
X138272380Y-111938690D01*
X138415238Y-112033928D01*
X138510476Y-112129166D01*
X138558095Y-112224404D01*
X138272380Y-110795833D02*
X138272380Y-110986309D01*
X138320000Y-111081547D01*
X138367619Y-111129166D01*
X138510476Y-111224404D01*
X138700952Y-111272023D01*
X139081904Y-111272023D01*
X139177142Y-111224404D01*
X139224761Y-111176785D01*
X139272380Y-111081547D01*
X139272380Y-110891071D01*
X139224761Y-110795833D01*
X139177142Y-110748214D01*
X139081904Y-110700595D01*
X138843809Y-110700595D01*
X138748571Y-110748214D01*
X138700952Y-110795833D01*
X138653333Y-110891071D01*
X138653333Y-111081547D01*
X138700952Y-111176785D01*
X138748571Y-111224404D01*
X138843809Y-111272023D01*
%TO.C,C15*%
X139177142Y-103105357D02*
X139224761Y-103152976D01*
X139272380Y-103295833D01*
X139272380Y-103391071D01*
X139224761Y-103533928D01*
X139129523Y-103629166D01*
X139034285Y-103676785D01*
X138843809Y-103724404D01*
X138700952Y-103724404D01*
X138510476Y-103676785D01*
X138415238Y-103629166D01*
X138320000Y-103533928D01*
X138272380Y-103391071D01*
X138272380Y-103295833D01*
X138320000Y-103152976D01*
X138367619Y-103105357D01*
X139272380Y-102152976D02*
X139272380Y-102724404D01*
X139272380Y-102438690D02*
X138272380Y-102438690D01*
X138415238Y-102533928D01*
X138510476Y-102629166D01*
X138558095Y-102724404D01*
X138272380Y-101248214D02*
X138272380Y-101724404D01*
X138748571Y-101772023D01*
X138700952Y-101724404D01*
X138653333Y-101629166D01*
X138653333Y-101391071D01*
X138700952Y-101295833D01*
X138748571Y-101248214D01*
X138843809Y-101200595D01*
X139081904Y-101200595D01*
X139177142Y-101248214D01*
X139224761Y-101295833D01*
X139272380Y-101391071D01*
X139272380Y-101629166D01*
X139224761Y-101724404D01*
X139177142Y-101772023D01*
%TO.C,C14*%
X120177142Y-112605357D02*
X120224761Y-112652976D01*
X120272380Y-112795833D01*
X120272380Y-112891071D01*
X120224761Y-113033928D01*
X120129523Y-113129166D01*
X120034285Y-113176785D01*
X119843809Y-113224404D01*
X119700952Y-113224404D01*
X119510476Y-113176785D01*
X119415238Y-113129166D01*
X119320000Y-113033928D01*
X119272380Y-112891071D01*
X119272380Y-112795833D01*
X119320000Y-112652976D01*
X119367619Y-112605357D01*
X120272380Y-111652976D02*
X120272380Y-112224404D01*
X120272380Y-111938690D02*
X119272380Y-111938690D01*
X119415238Y-112033928D01*
X119510476Y-112129166D01*
X119558095Y-112224404D01*
X119605714Y-110795833D02*
X120272380Y-110795833D01*
X119224761Y-111033928D02*
X119939047Y-111272023D01*
X119939047Y-110652976D01*
%TO.C,C8*%
X129677142Y-112129166D02*
X129724761Y-112176785D01*
X129772380Y-112319642D01*
X129772380Y-112414880D01*
X129724761Y-112557738D01*
X129629523Y-112652976D01*
X129534285Y-112700595D01*
X129343809Y-112748214D01*
X129200952Y-112748214D01*
X129010476Y-112700595D01*
X128915238Y-112652976D01*
X128820000Y-112557738D01*
X128772380Y-112414880D01*
X128772380Y-112319642D01*
X128820000Y-112176785D01*
X128867619Y-112129166D01*
X129200952Y-111557738D02*
X129153333Y-111652976D01*
X129105714Y-111700595D01*
X129010476Y-111748214D01*
X128962857Y-111748214D01*
X128867619Y-111700595D01*
X128820000Y-111652976D01*
X128772380Y-111557738D01*
X128772380Y-111367261D01*
X128820000Y-111272023D01*
X128867619Y-111224404D01*
X128962857Y-111176785D01*
X129010476Y-111176785D01*
X129105714Y-111224404D01*
X129153333Y-111272023D01*
X129200952Y-111367261D01*
X129200952Y-111557738D01*
X129248571Y-111652976D01*
X129296190Y-111700595D01*
X129391428Y-111748214D01*
X129581904Y-111748214D01*
X129677142Y-111700595D01*
X129724761Y-111652976D01*
X129772380Y-111557738D01*
X129772380Y-111367261D01*
X129724761Y-111272023D01*
X129677142Y-111224404D01*
X129581904Y-111176785D01*
X129391428Y-111176785D01*
X129296190Y-111224404D01*
X129248571Y-111272023D01*
X129200952Y-111367261D01*
%TO.C,C7*%
X120177142Y-102704166D02*
X120224761Y-102751785D01*
X120272380Y-102894642D01*
X120272380Y-102989880D01*
X120224761Y-103132738D01*
X120129523Y-103227976D01*
X120034285Y-103275595D01*
X119843809Y-103323214D01*
X119700952Y-103323214D01*
X119510476Y-103275595D01*
X119415238Y-103227976D01*
X119320000Y-103132738D01*
X119272380Y-102989880D01*
X119272380Y-102894642D01*
X119320000Y-102751785D01*
X119367619Y-102704166D01*
X119272380Y-102370833D02*
X119272380Y-101704166D01*
X120272380Y-102132738D01*
%TO.C,C6*%
X148677142Y-93629166D02*
X148724761Y-93676785D01*
X148772380Y-93819642D01*
X148772380Y-93914880D01*
X148724761Y-94057738D01*
X148629523Y-94152976D01*
X148534285Y-94200595D01*
X148343809Y-94248214D01*
X148200952Y-94248214D01*
X148010476Y-94200595D01*
X147915238Y-94152976D01*
X147820000Y-94057738D01*
X147772380Y-93914880D01*
X147772380Y-93819642D01*
X147820000Y-93676785D01*
X147867619Y-93629166D01*
X147772380Y-92772023D02*
X147772380Y-92962500D01*
X147820000Y-93057738D01*
X147867619Y-93105357D01*
X148010476Y-93200595D01*
X148200952Y-93248214D01*
X148581904Y-93248214D01*
X148677142Y-93200595D01*
X148724761Y-93152976D01*
X148772380Y-93057738D01*
X148772380Y-92867261D01*
X148724761Y-92772023D01*
X148677142Y-92724404D01*
X148581904Y-92676785D01*
X148343809Y-92676785D01*
X148248571Y-92724404D01*
X148200952Y-92772023D01*
X148153333Y-92867261D01*
X148153333Y-93057738D01*
X148200952Y-93152976D01*
X148248571Y-93200595D01*
X148343809Y-93248214D01*
%TO.C,D3*%
X133452380Y-73738095D02*
X132452380Y-73738095D01*
X132452380Y-73500000D01*
X132500000Y-73357142D01*
X132595238Y-73261904D01*
X132690476Y-73214285D01*
X132880952Y-73166666D01*
X133023809Y-73166666D01*
X133214285Y-73214285D01*
X133309523Y-73261904D01*
X133404761Y-73357142D01*
X133452380Y-73500000D01*
X133452380Y-73738095D01*
X132452380Y-72833333D02*
X132452380Y-72214285D01*
X132833333Y-72547619D01*
X132833333Y-72404761D01*
X132880952Y-72309523D01*
X132928571Y-72261904D01*
X133023809Y-72214285D01*
X133261904Y-72214285D01*
X133357142Y-72261904D01*
X133404761Y-72309523D01*
X133452380Y-72404761D01*
X133452380Y-72690476D01*
X133404761Y-72785714D01*
X133357142Y-72833333D01*
X135352380Y-76864285D02*
X135352380Y-77435714D01*
X135352380Y-77150000D02*
X134352380Y-77150000D01*
X134495238Y-77245238D01*
X134590476Y-77340476D01*
X134638095Y-77435714D01*
%TO.C,D25*%
X152452380Y-112714285D02*
X151452380Y-112714285D01*
X151452380Y-112476190D01*
X151500000Y-112333333D01*
X151595238Y-112238095D01*
X151690476Y-112190476D01*
X151880952Y-112142857D01*
X152023809Y-112142857D01*
X152214285Y-112190476D01*
X152309523Y-112238095D01*
X152404761Y-112333333D01*
X152452380Y-112476190D01*
X152452380Y-112714285D01*
X151547619Y-111761904D02*
X151500000Y-111714285D01*
X151452380Y-111619047D01*
X151452380Y-111380952D01*
X151500000Y-111285714D01*
X151547619Y-111238095D01*
X151642857Y-111190476D01*
X151738095Y-111190476D01*
X151880952Y-111238095D01*
X152452380Y-111809523D01*
X152452380Y-111190476D01*
X151452380Y-110285714D02*
X151452380Y-110761904D01*
X151928571Y-110809523D01*
X151880952Y-110761904D01*
X151833333Y-110666666D01*
X151833333Y-110428571D01*
X151880952Y-110333333D01*
X151928571Y-110285714D01*
X152023809Y-110238095D01*
X152261904Y-110238095D01*
X152357142Y-110285714D01*
X152404761Y-110333333D01*
X152452380Y-110428571D01*
X152452380Y-110666666D01*
X152404761Y-110761904D01*
X152357142Y-110809523D01*
X154352380Y-115364285D02*
X154352380Y-115935714D01*
X154352380Y-115650000D02*
X153352380Y-115650000D01*
X153495238Y-115745238D01*
X153590476Y-115840476D01*
X153638095Y-115935714D01*
%TO.C,D20*%
X152452380Y-103214285D02*
X151452380Y-103214285D01*
X151452380Y-102976190D01*
X151500000Y-102833333D01*
X151595238Y-102738095D01*
X151690476Y-102690476D01*
X151880952Y-102642857D01*
X152023809Y-102642857D01*
X152214285Y-102690476D01*
X152309523Y-102738095D01*
X152404761Y-102833333D01*
X152452380Y-102976190D01*
X152452380Y-103214285D01*
X151547619Y-102261904D02*
X151500000Y-102214285D01*
X151452380Y-102119047D01*
X151452380Y-101880952D01*
X151500000Y-101785714D01*
X151547619Y-101738095D01*
X151642857Y-101690476D01*
X151738095Y-101690476D01*
X151880952Y-101738095D01*
X152452380Y-102309523D01*
X152452380Y-101690476D01*
X151452380Y-101071428D02*
X151452380Y-100976190D01*
X151500000Y-100880952D01*
X151547619Y-100833333D01*
X151642857Y-100785714D01*
X151833333Y-100738095D01*
X152071428Y-100738095D01*
X152261904Y-100785714D01*
X152357142Y-100833333D01*
X152404761Y-100880952D01*
X152452380Y-100976190D01*
X152452380Y-101071428D01*
X152404761Y-101166666D01*
X152357142Y-101214285D01*
X152261904Y-101261904D01*
X152071428Y-101309523D01*
X151833333Y-101309523D01*
X151642857Y-101261904D01*
X151547619Y-101214285D01*
X151500000Y-101166666D01*
X151452380Y-101071428D01*
X154352380Y-105864285D02*
X154352380Y-106435714D01*
X154352380Y-106150000D02*
X153352380Y-106150000D01*
X153495238Y-106245238D01*
X153590476Y-106340476D01*
X153638095Y-106435714D01*
%TO.C,D19*%
X142952380Y-103214285D02*
X141952380Y-103214285D01*
X141952380Y-102976190D01*
X142000000Y-102833333D01*
X142095238Y-102738095D01*
X142190476Y-102690476D01*
X142380952Y-102642857D01*
X142523809Y-102642857D01*
X142714285Y-102690476D01*
X142809523Y-102738095D01*
X142904761Y-102833333D01*
X142952380Y-102976190D01*
X142952380Y-103214285D01*
X142952380Y-101690476D02*
X142952380Y-102261904D01*
X142952380Y-101976190D02*
X141952380Y-101976190D01*
X142095238Y-102071428D01*
X142190476Y-102166666D01*
X142238095Y-102261904D01*
X142952380Y-101214285D02*
X142952380Y-101023809D01*
X142904761Y-100928571D01*
X142857142Y-100880952D01*
X142714285Y-100785714D01*
X142523809Y-100738095D01*
X142142857Y-100738095D01*
X142047619Y-100785714D01*
X142000000Y-100833333D01*
X141952380Y-100928571D01*
X141952380Y-101119047D01*
X142000000Y-101214285D01*
X142047619Y-101261904D01*
X142142857Y-101309523D01*
X142380952Y-101309523D01*
X142476190Y-101261904D01*
X142523809Y-101214285D01*
X142571428Y-101119047D01*
X142571428Y-100928571D01*
X142523809Y-100833333D01*
X142476190Y-100785714D01*
X142380952Y-100738095D01*
X144852380Y-105864285D02*
X144852380Y-106435714D01*
X144852380Y-106150000D02*
X143852380Y-106150000D01*
X143995238Y-106245238D01*
X144090476Y-106340476D01*
X144138095Y-106435714D01*
%TO.C,D18*%
X133452380Y-103214285D02*
X132452380Y-103214285D01*
X132452380Y-102976190D01*
X132500000Y-102833333D01*
X132595238Y-102738095D01*
X132690476Y-102690476D01*
X132880952Y-102642857D01*
X133023809Y-102642857D01*
X133214285Y-102690476D01*
X133309523Y-102738095D01*
X133404761Y-102833333D01*
X133452380Y-102976190D01*
X133452380Y-103214285D01*
X133452380Y-101690476D02*
X133452380Y-102261904D01*
X133452380Y-101976190D02*
X132452380Y-101976190D01*
X132595238Y-102071428D01*
X132690476Y-102166666D01*
X132738095Y-102261904D01*
X132880952Y-101119047D02*
X132833333Y-101214285D01*
X132785714Y-101261904D01*
X132690476Y-101309523D01*
X132642857Y-101309523D01*
X132547619Y-101261904D01*
X132500000Y-101214285D01*
X132452380Y-101119047D01*
X132452380Y-100928571D01*
X132500000Y-100833333D01*
X132547619Y-100785714D01*
X132642857Y-100738095D01*
X132690476Y-100738095D01*
X132785714Y-100785714D01*
X132833333Y-100833333D01*
X132880952Y-100928571D01*
X132880952Y-101119047D01*
X132928571Y-101214285D01*
X132976190Y-101261904D01*
X133071428Y-101309523D01*
X133261904Y-101309523D01*
X133357142Y-101261904D01*
X133404761Y-101214285D01*
X133452380Y-101119047D01*
X133452380Y-100928571D01*
X133404761Y-100833333D01*
X133357142Y-100785714D01*
X133261904Y-100738095D01*
X133071428Y-100738095D01*
X132976190Y-100785714D01*
X132928571Y-100833333D01*
X132880952Y-100928571D01*
X135352380Y-105864285D02*
X135352380Y-106435714D01*
X135352380Y-106150000D02*
X134352380Y-106150000D01*
X134495238Y-106245238D01*
X134590476Y-106340476D01*
X134638095Y-106435714D01*
%TO.C,D17*%
X123952380Y-103214285D02*
X122952380Y-103214285D01*
X122952380Y-102976190D01*
X123000000Y-102833333D01*
X123095238Y-102738095D01*
X123190476Y-102690476D01*
X123380952Y-102642857D01*
X123523809Y-102642857D01*
X123714285Y-102690476D01*
X123809523Y-102738095D01*
X123904761Y-102833333D01*
X123952380Y-102976190D01*
X123952380Y-103214285D01*
X123952380Y-101690476D02*
X123952380Y-102261904D01*
X123952380Y-101976190D02*
X122952380Y-101976190D01*
X123095238Y-102071428D01*
X123190476Y-102166666D01*
X123238095Y-102261904D01*
X122952380Y-101357142D02*
X122952380Y-100690476D01*
X123952380Y-101119047D01*
X125852380Y-105864285D02*
X125852380Y-106435714D01*
X125852380Y-106150000D02*
X124852380Y-106150000D01*
X124995238Y-106245238D01*
X125090476Y-106340476D01*
X125138095Y-106435714D01*
%TO.C,D12*%
X123952380Y-93714285D02*
X122952380Y-93714285D01*
X122952380Y-93476190D01*
X123000000Y-93333333D01*
X123095238Y-93238095D01*
X123190476Y-93190476D01*
X123380952Y-93142857D01*
X123523809Y-93142857D01*
X123714285Y-93190476D01*
X123809523Y-93238095D01*
X123904761Y-93333333D01*
X123952380Y-93476190D01*
X123952380Y-93714285D01*
X123952380Y-92190476D02*
X123952380Y-92761904D01*
X123952380Y-92476190D02*
X122952380Y-92476190D01*
X123095238Y-92571428D01*
X123190476Y-92666666D01*
X123238095Y-92761904D01*
X123047619Y-91809523D02*
X123000000Y-91761904D01*
X122952380Y-91666666D01*
X122952380Y-91428571D01*
X123000000Y-91333333D01*
X123047619Y-91285714D01*
X123142857Y-91238095D01*
X123238095Y-91238095D01*
X123380952Y-91285714D01*
X123952380Y-91857142D01*
X123952380Y-91238095D01*
X125852380Y-96364285D02*
X125852380Y-96935714D01*
X125852380Y-96650000D02*
X124852380Y-96650000D01*
X124995238Y-96745238D01*
X125090476Y-96840476D01*
X125138095Y-96935714D01*
%TO.C,D11*%
X114452380Y-93714285D02*
X113452380Y-93714285D01*
X113452380Y-93476190D01*
X113500000Y-93333333D01*
X113595238Y-93238095D01*
X113690476Y-93190476D01*
X113880952Y-93142857D01*
X114023809Y-93142857D01*
X114214285Y-93190476D01*
X114309523Y-93238095D01*
X114404761Y-93333333D01*
X114452380Y-93476190D01*
X114452380Y-93714285D01*
X114452380Y-92190476D02*
X114452380Y-92761904D01*
X114452380Y-92476190D02*
X113452380Y-92476190D01*
X113595238Y-92571428D01*
X113690476Y-92666666D01*
X113738095Y-92761904D01*
X114452380Y-91238095D02*
X114452380Y-91809523D01*
X114452380Y-91523809D02*
X113452380Y-91523809D01*
X113595238Y-91619047D01*
X113690476Y-91714285D01*
X113738095Y-91809523D01*
X116352380Y-96364285D02*
X116352380Y-96935714D01*
X116352380Y-96650000D02*
X115352380Y-96650000D01*
X115495238Y-96745238D01*
X115590476Y-96840476D01*
X115638095Y-96935714D01*
%TO.C,D10*%
X152452380Y-84214285D02*
X151452380Y-84214285D01*
X151452380Y-83976190D01*
X151500000Y-83833333D01*
X151595238Y-83738095D01*
X151690476Y-83690476D01*
X151880952Y-83642857D01*
X152023809Y-83642857D01*
X152214285Y-83690476D01*
X152309523Y-83738095D01*
X152404761Y-83833333D01*
X152452380Y-83976190D01*
X152452380Y-84214285D01*
X152452380Y-82690476D02*
X152452380Y-83261904D01*
X152452380Y-82976190D02*
X151452380Y-82976190D01*
X151595238Y-83071428D01*
X151690476Y-83166666D01*
X151738095Y-83261904D01*
X151452380Y-82071428D02*
X151452380Y-81976190D01*
X151500000Y-81880952D01*
X151547619Y-81833333D01*
X151642857Y-81785714D01*
X151833333Y-81738095D01*
X152071428Y-81738095D01*
X152261904Y-81785714D01*
X152357142Y-81833333D01*
X152404761Y-81880952D01*
X152452380Y-81976190D01*
X152452380Y-82071428D01*
X152404761Y-82166666D01*
X152357142Y-82214285D01*
X152261904Y-82261904D01*
X152071428Y-82309523D01*
X151833333Y-82309523D01*
X151642857Y-82261904D01*
X151547619Y-82214285D01*
X151500000Y-82166666D01*
X151452380Y-82071428D01*
X154352380Y-86864285D02*
X154352380Y-87435714D01*
X154352380Y-87150000D02*
X153352380Y-87150000D01*
X153495238Y-87245238D01*
X153590476Y-87340476D01*
X153638095Y-87435714D01*
%TO.C,D9*%
X142952380Y-83738095D02*
X141952380Y-83738095D01*
X141952380Y-83500000D01*
X142000000Y-83357142D01*
X142095238Y-83261904D01*
X142190476Y-83214285D01*
X142380952Y-83166666D01*
X142523809Y-83166666D01*
X142714285Y-83214285D01*
X142809523Y-83261904D01*
X142904761Y-83357142D01*
X142952380Y-83500000D01*
X142952380Y-83738095D01*
X142952380Y-82690476D02*
X142952380Y-82500000D01*
X142904761Y-82404761D01*
X142857142Y-82357142D01*
X142714285Y-82261904D01*
X142523809Y-82214285D01*
X142142857Y-82214285D01*
X142047619Y-82261904D01*
X142000000Y-82309523D01*
X141952380Y-82404761D01*
X141952380Y-82595238D01*
X142000000Y-82690476D01*
X142047619Y-82738095D01*
X142142857Y-82785714D01*
X142380952Y-82785714D01*
X142476190Y-82738095D01*
X142523809Y-82690476D01*
X142571428Y-82595238D01*
X142571428Y-82404761D01*
X142523809Y-82309523D01*
X142476190Y-82261904D01*
X142380952Y-82214285D01*
X144852380Y-86864285D02*
X144852380Y-87435714D01*
X144852380Y-87150000D02*
X143852380Y-87150000D01*
X143995238Y-87245238D01*
X144090476Y-87340476D01*
X144138095Y-87435714D01*
%TO.C,D4*%
X142952380Y-73738095D02*
X141952380Y-73738095D01*
X141952380Y-73500000D01*
X142000000Y-73357142D01*
X142095238Y-73261904D01*
X142190476Y-73214285D01*
X142380952Y-73166666D01*
X142523809Y-73166666D01*
X142714285Y-73214285D01*
X142809523Y-73261904D01*
X142904761Y-73357142D01*
X142952380Y-73500000D01*
X142952380Y-73738095D01*
X142285714Y-72309523D02*
X142952380Y-72309523D01*
X141904761Y-72547619D02*
X142619047Y-72785714D01*
X142619047Y-72166666D01*
X144852380Y-76864285D02*
X144852380Y-77435714D01*
X144852380Y-77150000D02*
X143852380Y-77150000D01*
X143995238Y-77245238D01*
X144090476Y-77340476D01*
X144138095Y-77435714D01*
%TO.C,D2*%
X123952380Y-73738095D02*
X122952380Y-73738095D01*
X122952380Y-73500000D01*
X123000000Y-73357142D01*
X123095238Y-73261904D01*
X123190476Y-73214285D01*
X123380952Y-73166666D01*
X123523809Y-73166666D01*
X123714285Y-73214285D01*
X123809523Y-73261904D01*
X123904761Y-73357142D01*
X123952380Y-73500000D01*
X123952380Y-73738095D01*
X123047619Y-72785714D02*
X123000000Y-72738095D01*
X122952380Y-72642857D01*
X122952380Y-72404761D01*
X123000000Y-72309523D01*
X123047619Y-72261904D01*
X123142857Y-72214285D01*
X123238095Y-72214285D01*
X123380952Y-72261904D01*
X123952380Y-72833333D01*
X123952380Y-72214285D01*
X125852380Y-76864285D02*
X125852380Y-77435714D01*
X125852380Y-77150000D02*
X124852380Y-77150000D01*
X124995238Y-77245238D01*
X125090476Y-77340476D01*
X125138095Y-77435714D01*
%TO.C,D1*%
X114452380Y-73738095D02*
X113452380Y-73738095D01*
X113452380Y-73500000D01*
X113500000Y-73357142D01*
X113595238Y-73261904D01*
X113690476Y-73214285D01*
X113880952Y-73166666D01*
X114023809Y-73166666D01*
X114214285Y-73214285D01*
X114309523Y-73261904D01*
X114404761Y-73357142D01*
X114452380Y-73500000D01*
X114452380Y-73738095D01*
X114452380Y-72214285D02*
X114452380Y-72785714D01*
X114452380Y-72500000D02*
X113452380Y-72500000D01*
X113595238Y-72595238D01*
X113690476Y-72690476D01*
X113738095Y-72785714D01*
X116352380Y-76864285D02*
X116352380Y-77435714D01*
X116352380Y-77150000D02*
X115352380Y-77150000D01*
X115495238Y-77245238D01*
X115590476Y-77340476D01*
X115638095Y-77435714D01*
%TO.C,C25*%
X120177142Y-94180357D02*
X120224761Y-94227976D01*
X120272380Y-94370833D01*
X120272380Y-94466071D01*
X120224761Y-94608928D01*
X120129523Y-94704166D01*
X120034285Y-94751785D01*
X119843809Y-94799404D01*
X119700952Y-94799404D01*
X119510476Y-94751785D01*
X119415238Y-94704166D01*
X119320000Y-94608928D01*
X119272380Y-94466071D01*
X119272380Y-94370833D01*
X119320000Y-94227976D01*
X119367619Y-94180357D01*
X119367619Y-93799404D02*
X119320000Y-93751785D01*
X119272380Y-93656547D01*
X119272380Y-93418452D01*
X119320000Y-93323214D01*
X119367619Y-93275595D01*
X119462857Y-93227976D01*
X119558095Y-93227976D01*
X119700952Y-93275595D01*
X120272380Y-93847023D01*
X120272380Y-93227976D01*
X119272380Y-92323214D02*
X119272380Y-92799404D01*
X119748571Y-92847023D01*
X119700952Y-92799404D01*
X119653333Y-92704166D01*
X119653333Y-92466071D01*
X119700952Y-92370833D01*
X119748571Y-92323214D01*
X119843809Y-92275595D01*
X120081904Y-92275595D01*
X120177142Y-92323214D01*
X120224761Y-92370833D01*
X120272380Y-92466071D01*
X120272380Y-92704166D01*
X120224761Y-92799404D01*
X120177142Y-92847023D01*
%TO.C,C20*%
X148677142Y-103142857D02*
X148724761Y-103190476D01*
X148772380Y-103333333D01*
X148772380Y-103428571D01*
X148724761Y-103571428D01*
X148629523Y-103666666D01*
X148534285Y-103714285D01*
X148343809Y-103761904D01*
X148200952Y-103761904D01*
X148010476Y-103714285D01*
X147915238Y-103666666D01*
X147820000Y-103571428D01*
X147772380Y-103428571D01*
X147772380Y-103333333D01*
X147820000Y-103190476D01*
X147867619Y-103142857D01*
X147867619Y-102761904D02*
X147820000Y-102714285D01*
X147772380Y-102619047D01*
X147772380Y-102380952D01*
X147820000Y-102285714D01*
X147867619Y-102238095D01*
X147962857Y-102190476D01*
X148058095Y-102190476D01*
X148200952Y-102238095D01*
X148772380Y-102809523D01*
X148772380Y-102190476D01*
X147772380Y-101571428D02*
X147772380Y-101476190D01*
X147820000Y-101380952D01*
X147867619Y-101333333D01*
X147962857Y-101285714D01*
X148153333Y-101238095D01*
X148391428Y-101238095D01*
X148581904Y-101285714D01*
X148677142Y-101333333D01*
X148724761Y-101380952D01*
X148772380Y-101476190D01*
X148772380Y-101571428D01*
X148724761Y-101666666D01*
X148677142Y-101714285D01*
X148581904Y-101761904D01*
X148391428Y-101809523D01*
X148153333Y-101809523D01*
X147962857Y-101761904D01*
X147867619Y-101714285D01*
X147820000Y-101666666D01*
X147772380Y-101571428D01*
%TO.C,C18*%
X148677142Y-84642857D02*
X148724761Y-84690476D01*
X148772380Y-84833333D01*
X148772380Y-84928571D01*
X148724761Y-85071428D01*
X148629523Y-85166666D01*
X148534285Y-85214285D01*
X148343809Y-85261904D01*
X148200952Y-85261904D01*
X148010476Y-85214285D01*
X147915238Y-85166666D01*
X147820000Y-85071428D01*
X147772380Y-84928571D01*
X147772380Y-84833333D01*
X147820000Y-84690476D01*
X147867619Y-84642857D01*
X148772380Y-83690476D02*
X148772380Y-84261904D01*
X148772380Y-83976190D02*
X147772380Y-83976190D01*
X147915238Y-84071428D01*
X148010476Y-84166666D01*
X148058095Y-84261904D01*
X148200952Y-83119047D02*
X148153333Y-83214285D01*
X148105714Y-83261904D01*
X148010476Y-83309523D01*
X147962857Y-83309523D01*
X147867619Y-83261904D01*
X147820000Y-83214285D01*
X147772380Y-83119047D01*
X147772380Y-82928571D01*
X147820000Y-82833333D01*
X147867619Y-82785714D01*
X147962857Y-82738095D01*
X148010476Y-82738095D01*
X148105714Y-82785714D01*
X148153333Y-82833333D01*
X148200952Y-82928571D01*
X148200952Y-83119047D01*
X148248571Y-83214285D01*
X148296190Y-83261904D01*
X148391428Y-83309523D01*
X148581904Y-83309523D01*
X148677142Y-83261904D01*
X148724761Y-83214285D01*
X148772380Y-83119047D01*
X148772380Y-82928571D01*
X148724761Y-82833333D01*
X148677142Y-82785714D01*
X148581904Y-82738095D01*
X148391428Y-82738095D01*
X148296190Y-82785714D01*
X148248571Y-82833333D01*
X148200952Y-82928571D01*
%TO.C,C17*%
X139177142Y-84680357D02*
X139224761Y-84727976D01*
X139272380Y-84870833D01*
X139272380Y-84966071D01*
X139224761Y-85108928D01*
X139129523Y-85204166D01*
X139034285Y-85251785D01*
X138843809Y-85299404D01*
X138700952Y-85299404D01*
X138510476Y-85251785D01*
X138415238Y-85204166D01*
X138320000Y-85108928D01*
X138272380Y-84966071D01*
X138272380Y-84870833D01*
X138320000Y-84727976D01*
X138367619Y-84680357D01*
X139272380Y-83727976D02*
X139272380Y-84299404D01*
X139272380Y-84013690D02*
X138272380Y-84013690D01*
X138415238Y-84108928D01*
X138510476Y-84204166D01*
X138558095Y-84299404D01*
X138272380Y-83394642D02*
X138272380Y-82727976D01*
X139272380Y-83156547D01*
%TO.C,C12*%
X129677142Y-84680357D02*
X129724761Y-84727976D01*
X129772380Y-84870833D01*
X129772380Y-84966071D01*
X129724761Y-85108928D01*
X129629523Y-85204166D01*
X129534285Y-85251785D01*
X129343809Y-85299404D01*
X129200952Y-85299404D01*
X129010476Y-85251785D01*
X128915238Y-85204166D01*
X128820000Y-85108928D01*
X128772380Y-84966071D01*
X128772380Y-84870833D01*
X128820000Y-84727976D01*
X128867619Y-84680357D01*
X129772380Y-83727976D02*
X129772380Y-84299404D01*
X129772380Y-84013690D02*
X128772380Y-84013690D01*
X128915238Y-84108928D01*
X129010476Y-84204166D01*
X129058095Y-84299404D01*
X128867619Y-83347023D02*
X128820000Y-83299404D01*
X128772380Y-83204166D01*
X128772380Y-82966071D01*
X128820000Y-82870833D01*
X128867619Y-82823214D01*
X128962857Y-82775595D01*
X129058095Y-82775595D01*
X129200952Y-82823214D01*
X129772380Y-83394642D01*
X129772380Y-82775595D01*
%TO.C,C11*%
X120177142Y-84680357D02*
X120224761Y-84727976D01*
X120272380Y-84870833D01*
X120272380Y-84966071D01*
X120224761Y-85108928D01*
X120129523Y-85204166D01*
X120034285Y-85251785D01*
X119843809Y-85299404D01*
X119700952Y-85299404D01*
X119510476Y-85251785D01*
X119415238Y-85204166D01*
X119320000Y-85108928D01*
X119272380Y-84966071D01*
X119272380Y-84870833D01*
X119320000Y-84727976D01*
X119367619Y-84680357D01*
X120272380Y-83727976D02*
X120272380Y-84299404D01*
X120272380Y-84013690D02*
X119272380Y-84013690D01*
X119415238Y-84108928D01*
X119510476Y-84204166D01*
X119558095Y-84299404D01*
X120272380Y-82775595D02*
X120272380Y-83347023D01*
X120272380Y-83061309D02*
X119272380Y-83061309D01*
X119415238Y-83156547D01*
X119510476Y-83251785D01*
X119558095Y-83347023D01*
%TO.C,C4*%
X148677142Y-74204166D02*
X148724761Y-74251785D01*
X148772380Y-74394642D01*
X148772380Y-74489880D01*
X148724761Y-74632738D01*
X148629523Y-74727976D01*
X148534285Y-74775595D01*
X148343809Y-74823214D01*
X148200952Y-74823214D01*
X148010476Y-74775595D01*
X147915238Y-74727976D01*
X147820000Y-74632738D01*
X147772380Y-74489880D01*
X147772380Y-74394642D01*
X147820000Y-74251785D01*
X147867619Y-74204166D01*
X148105714Y-73347023D02*
X148772380Y-73347023D01*
X147724761Y-73585119D02*
X148439047Y-73823214D01*
X148439047Y-73204166D01*
%TO.C,C3*%
X139177142Y-74204166D02*
X139224761Y-74251785D01*
X139272380Y-74394642D01*
X139272380Y-74489880D01*
X139224761Y-74632738D01*
X139129523Y-74727976D01*
X139034285Y-74775595D01*
X138843809Y-74823214D01*
X138700952Y-74823214D01*
X138510476Y-74775595D01*
X138415238Y-74727976D01*
X138320000Y-74632738D01*
X138272380Y-74489880D01*
X138272380Y-74394642D01*
X138320000Y-74251785D01*
X138367619Y-74204166D01*
X138272380Y-73870833D02*
X138272380Y-73251785D01*
X138653333Y-73585119D01*
X138653333Y-73442261D01*
X138700952Y-73347023D01*
X138748571Y-73299404D01*
X138843809Y-73251785D01*
X139081904Y-73251785D01*
X139177142Y-73299404D01*
X139224761Y-73347023D01*
X139272380Y-73442261D01*
X139272380Y-73727976D01*
X139224761Y-73823214D01*
X139177142Y-73870833D01*
%TO.C,C2*%
X129677142Y-74129166D02*
X129724761Y-74176785D01*
X129772380Y-74319642D01*
X129772380Y-74414880D01*
X129724761Y-74557738D01*
X129629523Y-74652976D01*
X129534285Y-74700595D01*
X129343809Y-74748214D01*
X129200952Y-74748214D01*
X129010476Y-74700595D01*
X128915238Y-74652976D01*
X128820000Y-74557738D01*
X128772380Y-74414880D01*
X128772380Y-74319642D01*
X128820000Y-74176785D01*
X128867619Y-74129166D01*
X128867619Y-73748214D02*
X128820000Y-73700595D01*
X128772380Y-73605357D01*
X128772380Y-73367261D01*
X128820000Y-73272023D01*
X128867619Y-73224404D01*
X128962857Y-73176785D01*
X129058095Y-73176785D01*
X129200952Y-73224404D01*
X129772380Y-73795833D01*
X129772380Y-73176785D01*
%TO.C,C1*%
X120177142Y-74204166D02*
X120224761Y-74251785D01*
X120272380Y-74394642D01*
X120272380Y-74489880D01*
X120224761Y-74632738D01*
X120129523Y-74727976D01*
X120034285Y-74775595D01*
X119843809Y-74823214D01*
X119700952Y-74823214D01*
X119510476Y-74775595D01*
X119415238Y-74727976D01*
X119320000Y-74632738D01*
X119272380Y-74489880D01*
X119272380Y-74394642D01*
X119320000Y-74251785D01*
X119367619Y-74204166D01*
X120272380Y-73251785D02*
X120272380Y-73823214D01*
X120272380Y-73537500D02*
X119272380Y-73537500D01*
X119415238Y-73632738D01*
X119510476Y-73727976D01*
X119558095Y-73823214D01*
%TD*%
M02*
