M48
; DRILL file {KiCad (5.1.10)-1} date 11/12/21 10:05:27
; FORMAT={-:-/ absolute / inch / decimal}
; #@! TF.CreationDate,2021-11-12T10:05:27+01:00
; #@! TF.GenerationSoftware,Kicad,Pcbnew,(5.1.10)-1
; #@! TF.FileFunction,Plated,1,2,PTH
FMAT,2
INCH
T1C0.0157
T2C0.0315
T3C0.0394
%
G90
G05
T1
X4.5866Y-3.6024
X5.0591Y-4.0748
X5.0787Y-2.7953
X5.0984Y-4.4685
X5.1969Y-4.0551
X5.3543Y-3.7402
X5.5512Y-3.0906
X5.5906Y-4.1929
X5.7874Y-3.1693
X6.2598Y-2.7559
X6.2598Y-4.4685
T2
X4.7638Y-2.9331
X4.7638Y-3.0118
X4.7638Y-3.0906
X4.7638Y-3.1693
X4.7638Y-4.0748
X4.7638Y-4.1535
X4.7638Y-4.2323
X4.7638Y-4.311
T3
X5.3937Y-3.5236
X5.3937Y-4.4488
X5.4937Y-3.5236
X5.4937Y-4.4488
X5.5937Y-3.5236
X5.5937Y-4.4488
X5.6937Y-3.5236
X5.6937Y-4.4488
X5.7937Y-3.5236
X5.7937Y-4.4488
X5.8937Y-3.5236
X5.8937Y-4.4488
X5.9937Y-3.5236
X5.9937Y-4.4488
X6.0937Y-3.5236
X6.0937Y-4.4488
T0
M30
