%TF.GenerationSoftware,KiCad,Pcbnew,(5.1.10)-1*%
%TF.CreationDate,2021-11-12T12:38:22+01:00*%
%TF.ProjectId,HRWizzard,48525769-7a7a-4617-9264-2e6b69636164,rev?*%
%TF.SameCoordinates,Original*%
%TF.FileFunction,Copper,L1,Top*%
%TF.FilePolarity,Positive*%
%FSLAX46Y46*%
G04 Gerber Fmt 4.6, Leading zero omitted, Abs format (unit mm)*
G04 Created by KiCad (PCBNEW (5.1.10)-1) date 2021-11-12 12:38:22*
%MOMM*%
%LPD*%
G01*
G04 APERTURE LIST*
%ADD10C,0.100000*%
%ADD11C,0.150000*%
%ADD12C,0.300000*%
%ADD13C,0.400000*%
%TA.AperFunction,ComponentPad*%
%ADD14O,1.350000X1.350000*%
%TD*%
%TA.AperFunction,ComponentPad*%
%ADD15R,1.350000X1.350000*%
%TD*%
%TA.AperFunction,ComponentPad*%
%ADD16O,1.700000X1.700000*%
%TD*%
%TA.AperFunction,SMDPad,CuDef*%
%ADD17R,3.500000X1.700000*%
%TD*%
%TA.AperFunction,ComponentPad*%
%ADD18R,1.700000X1.700000*%
%TD*%
%TA.AperFunction,SMDPad,CuDef*%
%ADD19R,1.700000X3.500000*%
%TD*%
%TA.AperFunction,SMDPad,CuDef*%
%ADD20R,1.400000X2.100000*%
%TD*%
%TA.AperFunction,SMDPad,CuDef*%
%ADD21R,2.100000X1.400000*%
%TD*%
%TA.AperFunction,ViaPad*%
%ADD22C,0.800000*%
%TD*%
%TA.AperFunction,Conductor*%
%ADD23C,0.500000*%
%TD*%
%TA.AperFunction,Conductor*%
%ADD24C,0.254000*%
%TD*%
%TA.AperFunction,Conductor*%
%ADD25C,0.100000*%
%TD*%
G04 APERTURE END LIST*
D10*
D11*
X177002200Y-166007200D02*
X177002200Y-198007200D01*
X285002200Y-198007200D01*
X285002200Y-166007200D01*
X177002200Y-166007200D01*
D10*
D11*
X10000000Y-10000000D02*
X10000000Y-200007200D01*
X287002200Y-200007200D01*
X287002200Y-10000000D01*
X10000000Y-10000000D01*
D10*
D11*
X12000000Y-12000000D02*
X12000000Y-198007200D01*
X285002200Y-198007200D01*
X285002200Y-12000000D01*
X12000000Y-12000000D01*
D10*
D11*
X60000000Y-12000000D02*
X60000000Y-10000000D01*
D10*
D11*
X110000000Y-12000000D02*
X110000000Y-10000000D01*
D10*
D11*
X160000000Y-12000000D02*
X160000000Y-10000000D01*
D10*
D11*
X210000000Y-12000000D02*
X210000000Y-10000000D01*
D10*
D11*
X260000000Y-12000000D02*
X260000000Y-10000000D01*
D10*
D11*
X36065476Y-11588095D02*
X35322619Y-11588095D01*
X35694047Y-11588095D02*
X35694047Y-10288095D01*
X35570238Y-10473809D01*
X35446428Y-10597619D01*
X35322619Y-10659523D01*
D10*
D11*
X85322619Y-10411904D02*
X85384523Y-10350000D01*
X85508333Y-10288095D01*
X85817857Y-10288095D01*
X85941666Y-10350000D01*
X86003571Y-10411904D01*
X86065476Y-10535714D01*
X86065476Y-10659523D01*
X86003571Y-10845238D01*
X85260714Y-11588095D01*
X86065476Y-11588095D01*
D10*
D11*
X135260714Y-10288095D02*
X136065476Y-10288095D01*
X135632142Y-10783333D01*
X135817857Y-10783333D01*
X135941666Y-10845238D01*
X136003571Y-10907142D01*
X136065476Y-11030952D01*
X136065476Y-11340476D01*
X136003571Y-11464285D01*
X135941666Y-11526190D01*
X135817857Y-11588095D01*
X135446428Y-11588095D01*
X135322619Y-11526190D01*
X135260714Y-11464285D01*
D10*
D11*
X185941666Y-10721428D02*
X185941666Y-11588095D01*
X185632142Y-10226190D02*
X185322619Y-11154761D01*
X186127380Y-11154761D01*
D10*
D11*
X236003571Y-10288095D02*
X235384523Y-10288095D01*
X235322619Y-10907142D01*
X235384523Y-10845238D01*
X235508333Y-10783333D01*
X235817857Y-10783333D01*
X235941666Y-10845238D01*
X236003571Y-10907142D01*
X236065476Y-11030952D01*
X236065476Y-11340476D01*
X236003571Y-11464285D01*
X235941666Y-11526190D01*
X235817857Y-11588095D01*
X235508333Y-11588095D01*
X235384523Y-11526190D01*
X235322619Y-11464285D01*
D10*
D11*
X285941666Y-10288095D02*
X285694047Y-10288095D01*
X285570238Y-10350000D01*
X285508333Y-10411904D01*
X285384523Y-10597619D01*
X285322619Y-10845238D01*
X285322619Y-11340476D01*
X285384523Y-11464285D01*
X285446428Y-11526190D01*
X285570238Y-11588095D01*
X285817857Y-11588095D01*
X285941666Y-11526190D01*
X286003571Y-11464285D01*
X286065476Y-11340476D01*
X286065476Y-11030952D01*
X286003571Y-10907142D01*
X285941666Y-10845238D01*
X285817857Y-10783333D01*
X285570238Y-10783333D01*
X285446428Y-10845238D01*
X285384523Y-10907142D01*
X285322619Y-11030952D01*
D10*
D11*
X60000000Y-198007200D02*
X60000000Y-200007200D01*
D10*
D11*
X110000000Y-198007200D02*
X110000000Y-200007200D01*
D10*
D11*
X160000000Y-198007200D02*
X160000000Y-200007200D01*
D10*
D11*
X210000000Y-198007200D02*
X210000000Y-200007200D01*
D10*
D11*
X260000000Y-198007200D02*
X260000000Y-200007200D01*
D10*
D11*
X36065476Y-199595295D02*
X35322619Y-199595295D01*
X35694047Y-199595295D02*
X35694047Y-198295295D01*
X35570238Y-198481009D01*
X35446428Y-198604819D01*
X35322619Y-198666723D01*
D10*
D11*
X85322619Y-198419104D02*
X85384523Y-198357200D01*
X85508333Y-198295295D01*
X85817857Y-198295295D01*
X85941666Y-198357200D01*
X86003571Y-198419104D01*
X86065476Y-198542914D01*
X86065476Y-198666723D01*
X86003571Y-198852438D01*
X85260714Y-199595295D01*
X86065476Y-199595295D01*
D10*
D11*
X135260714Y-198295295D02*
X136065476Y-198295295D01*
X135632142Y-198790533D01*
X135817857Y-198790533D01*
X135941666Y-198852438D01*
X136003571Y-198914342D01*
X136065476Y-199038152D01*
X136065476Y-199347676D01*
X136003571Y-199471485D01*
X135941666Y-199533390D01*
X135817857Y-199595295D01*
X135446428Y-199595295D01*
X135322619Y-199533390D01*
X135260714Y-199471485D01*
D10*
D11*
X185941666Y-198728628D02*
X185941666Y-199595295D01*
X185632142Y-198233390D02*
X185322619Y-199161961D01*
X186127380Y-199161961D01*
D10*
D11*
X236003571Y-198295295D02*
X235384523Y-198295295D01*
X235322619Y-198914342D01*
X235384523Y-198852438D01*
X235508333Y-198790533D01*
X235817857Y-198790533D01*
X235941666Y-198852438D01*
X236003571Y-198914342D01*
X236065476Y-199038152D01*
X236065476Y-199347676D01*
X236003571Y-199471485D01*
X235941666Y-199533390D01*
X235817857Y-199595295D01*
X235508333Y-199595295D01*
X235384523Y-199533390D01*
X235322619Y-199471485D01*
D10*
D11*
X285941666Y-198295295D02*
X285694047Y-198295295D01*
X285570238Y-198357200D01*
X285508333Y-198419104D01*
X285384523Y-198604819D01*
X285322619Y-198852438D01*
X285322619Y-199347676D01*
X285384523Y-199471485D01*
X285446428Y-199533390D01*
X285570238Y-199595295D01*
X285817857Y-199595295D01*
X285941666Y-199533390D01*
X286003571Y-199471485D01*
X286065476Y-199347676D01*
X286065476Y-199038152D01*
X286003571Y-198914342D01*
X285941666Y-198852438D01*
X285817857Y-198790533D01*
X285570238Y-198790533D01*
X285446428Y-198852438D01*
X285384523Y-198914342D01*
X285322619Y-199038152D01*
D10*
D11*
X10000000Y-60000000D02*
X12000000Y-60000000D01*
D10*
D11*
X10000000Y-110000000D02*
X12000000Y-110000000D01*
D10*
D11*
X10000000Y-160000000D02*
X12000000Y-160000000D01*
D10*
D11*
X10690476Y-35216666D02*
X11309523Y-35216666D01*
X10566666Y-35588095D02*
X11000000Y-34288095D01*
X11433333Y-35588095D01*
D10*
D11*
X11092857Y-84907142D02*
X11278571Y-84969047D01*
X11340476Y-85030952D01*
X11402380Y-85154761D01*
X11402380Y-85340476D01*
X11340476Y-85464285D01*
X11278571Y-85526190D01*
X11154761Y-85588095D01*
X10659523Y-85588095D01*
X10659523Y-84288095D01*
X11092857Y-84288095D01*
X11216666Y-84350000D01*
X11278571Y-84411904D01*
X11340476Y-84535714D01*
X11340476Y-84659523D01*
X11278571Y-84783333D01*
X11216666Y-84845238D01*
X11092857Y-84907142D01*
X10659523Y-84907142D01*
D10*
D11*
X11402380Y-135464285D02*
X11340476Y-135526190D01*
X11154761Y-135588095D01*
X11030952Y-135588095D01*
X10845238Y-135526190D01*
X10721428Y-135402380D01*
X10659523Y-135278571D01*
X10597619Y-135030952D01*
X10597619Y-134845238D01*
X10659523Y-134597619D01*
X10721428Y-134473809D01*
X10845238Y-134350000D01*
X11030952Y-134288095D01*
X11154761Y-134288095D01*
X11340476Y-134350000D01*
X11402380Y-134411904D01*
D10*
D11*
X10659523Y-185588095D02*
X10659523Y-184288095D01*
X10969047Y-184288095D01*
X11154761Y-184350000D01*
X11278571Y-184473809D01*
X11340476Y-184597619D01*
X11402380Y-184845238D01*
X11402380Y-185030952D01*
X11340476Y-185278571D01*
X11278571Y-185402380D01*
X11154761Y-185526190D01*
X10969047Y-185588095D01*
X10659523Y-185588095D01*
D10*
D11*
X287002200Y-60000000D02*
X285002200Y-60000000D01*
D10*
D11*
X287002200Y-110000000D02*
X285002200Y-110000000D01*
D10*
D11*
X287002200Y-160000000D02*
X285002200Y-160000000D01*
D10*
D11*
X285692676Y-35216666D02*
X286311723Y-35216666D01*
X285568866Y-35588095D02*
X286002200Y-34288095D01*
X286435533Y-35588095D01*
D10*
D11*
X286095057Y-84907142D02*
X286280771Y-84969047D01*
X286342676Y-85030952D01*
X286404580Y-85154761D01*
X286404580Y-85340476D01*
X286342676Y-85464285D01*
X286280771Y-85526190D01*
X286156961Y-85588095D01*
X285661723Y-85588095D01*
X285661723Y-84288095D01*
X286095057Y-84288095D01*
X286218866Y-84350000D01*
X286280771Y-84411904D01*
X286342676Y-84535714D01*
X286342676Y-84659523D01*
X286280771Y-84783333D01*
X286218866Y-84845238D01*
X286095057Y-84907142D01*
X285661723Y-84907142D01*
D10*
D11*
X286404580Y-135464285D02*
X286342676Y-135526190D01*
X286156961Y-135588095D01*
X286033152Y-135588095D01*
X285847438Y-135526190D01*
X285723628Y-135402380D01*
X285661723Y-135278571D01*
X285599819Y-135030952D01*
X285599819Y-134845238D01*
X285661723Y-134597619D01*
X285723628Y-134473809D01*
X285847438Y-134350000D01*
X286033152Y-134288095D01*
X286156961Y-134288095D01*
X286342676Y-134350000D01*
X286404580Y-134411904D01*
D10*
D11*
X285661723Y-185588095D02*
X285661723Y-184288095D01*
X285971247Y-184288095D01*
X286156961Y-184350000D01*
X286280771Y-184473809D01*
X286342676Y-184597619D01*
X286404580Y-184845238D01*
X286404580Y-185030952D01*
X286342676Y-185278571D01*
X286280771Y-185402380D01*
X286156961Y-185526190D01*
X285971247Y-185588095D01*
X285661723Y-185588095D01*
D10*
D11*
X200434342Y-193785771D02*
X200434342Y-192285771D01*
X200791485Y-192285771D01*
X201005771Y-192357200D01*
X201148628Y-192500057D01*
X201220057Y-192642914D01*
X201291485Y-192928628D01*
X201291485Y-193142914D01*
X201220057Y-193428628D01*
X201148628Y-193571485D01*
X201005771Y-193714342D01*
X200791485Y-193785771D01*
X200434342Y-193785771D01*
X202577200Y-193785771D02*
X202577200Y-193000057D01*
X202505771Y-192857200D01*
X202362914Y-192785771D01*
X202077200Y-192785771D01*
X201934342Y-192857200D01*
X202577200Y-193714342D02*
X202434342Y-193785771D01*
X202077200Y-193785771D01*
X201934342Y-193714342D01*
X201862914Y-193571485D01*
X201862914Y-193428628D01*
X201934342Y-193285771D01*
X202077200Y-193214342D01*
X202434342Y-193214342D01*
X202577200Y-193142914D01*
X203077200Y-192785771D02*
X203648628Y-192785771D01*
X203291485Y-192285771D02*
X203291485Y-193571485D01*
X203362914Y-193714342D01*
X203505771Y-193785771D01*
X203648628Y-193785771D01*
X204720057Y-193714342D02*
X204577200Y-193785771D01*
X204291485Y-193785771D01*
X204148628Y-193714342D01*
X204077200Y-193571485D01*
X204077200Y-193000057D01*
X204148628Y-192857200D01*
X204291485Y-192785771D01*
X204577200Y-192785771D01*
X204720057Y-192857200D01*
X204791485Y-193000057D01*
X204791485Y-193142914D01*
X204077200Y-193285771D01*
X205434342Y-193642914D02*
X205505771Y-193714342D01*
X205434342Y-193785771D01*
X205362914Y-193714342D01*
X205434342Y-193642914D01*
X205434342Y-193785771D01*
X205434342Y-192857200D02*
X205505771Y-192928628D01*
X205434342Y-193000057D01*
X205362914Y-192928628D01*
X205434342Y-192857200D01*
X205434342Y-193000057D01*
D10*
D11*
X177002200Y-194507200D02*
X285002200Y-194507200D01*
D10*
D11*
X178434342Y-196585771D02*
X178434342Y-195085771D01*
X179291485Y-196585771D02*
X178648628Y-195728628D01*
X179291485Y-195085771D02*
X178434342Y-195942914D01*
X179934342Y-196585771D02*
X179934342Y-195585771D01*
X179934342Y-195085771D02*
X179862914Y-195157200D01*
X179934342Y-195228628D01*
X180005771Y-195157200D01*
X179934342Y-195085771D01*
X179934342Y-195228628D01*
X181505771Y-196442914D02*
X181434342Y-196514342D01*
X181220057Y-196585771D01*
X181077200Y-196585771D01*
X180862914Y-196514342D01*
X180720057Y-196371485D01*
X180648628Y-196228628D01*
X180577200Y-195942914D01*
X180577200Y-195728628D01*
X180648628Y-195442914D01*
X180720057Y-195300057D01*
X180862914Y-195157200D01*
X181077200Y-195085771D01*
X181220057Y-195085771D01*
X181434342Y-195157200D01*
X181505771Y-195228628D01*
X182791485Y-196585771D02*
X182791485Y-195800057D01*
X182720057Y-195657200D01*
X182577200Y-195585771D01*
X182291485Y-195585771D01*
X182148628Y-195657200D01*
X182791485Y-196514342D02*
X182648628Y-196585771D01*
X182291485Y-196585771D01*
X182148628Y-196514342D01*
X182077200Y-196371485D01*
X182077200Y-196228628D01*
X182148628Y-196085771D01*
X182291485Y-196014342D01*
X182648628Y-196014342D01*
X182791485Y-195942914D01*
X184148628Y-196585771D02*
X184148628Y-195085771D01*
X184148628Y-196514342D02*
X184005771Y-196585771D01*
X183720057Y-196585771D01*
X183577200Y-196514342D01*
X183505771Y-196442914D01*
X183434342Y-196300057D01*
X183434342Y-195871485D01*
X183505771Y-195728628D01*
X183577200Y-195657200D01*
X183720057Y-195585771D01*
X184005771Y-195585771D01*
X184148628Y-195657200D01*
X186005771Y-195800057D02*
X186505771Y-195800057D01*
X186720057Y-196585771D02*
X186005771Y-196585771D01*
X186005771Y-195085771D01*
X186720057Y-195085771D01*
X187362914Y-196442914D02*
X187434342Y-196514342D01*
X187362914Y-196585771D01*
X187291485Y-196514342D01*
X187362914Y-196442914D01*
X187362914Y-196585771D01*
X188077200Y-196585771D02*
X188077200Y-195085771D01*
X188434342Y-195085771D01*
X188648628Y-195157200D01*
X188791485Y-195300057D01*
X188862914Y-195442914D01*
X188934342Y-195728628D01*
X188934342Y-195942914D01*
X188862914Y-196228628D01*
X188791485Y-196371485D01*
X188648628Y-196514342D01*
X188434342Y-196585771D01*
X188077200Y-196585771D01*
X189577200Y-196442914D02*
X189648628Y-196514342D01*
X189577200Y-196585771D01*
X189505771Y-196514342D01*
X189577200Y-196442914D01*
X189577200Y-196585771D01*
X190220057Y-196157200D02*
X190934342Y-196157200D01*
X190077200Y-196585771D02*
X190577200Y-195085771D01*
X191077200Y-196585771D01*
X191577200Y-196442914D02*
X191648628Y-196514342D01*
X191577200Y-196585771D01*
X191505771Y-196514342D01*
X191577200Y-196442914D01*
X191577200Y-196585771D01*
X194577200Y-196585771D02*
X194577200Y-195085771D01*
X194720057Y-196014342D02*
X195148628Y-196585771D01*
X195148628Y-195585771D02*
X194577200Y-196157200D01*
X195791485Y-196585771D02*
X195791485Y-195585771D01*
X195791485Y-195085771D02*
X195720057Y-195157200D01*
X195791485Y-195228628D01*
X195862914Y-195157200D01*
X195791485Y-195085771D01*
X195791485Y-195228628D01*
X197148628Y-196514342D02*
X197005771Y-196585771D01*
X196720057Y-196585771D01*
X196577200Y-196514342D01*
X196505771Y-196442914D01*
X196434342Y-196300057D01*
X196434342Y-195871485D01*
X196505771Y-195728628D01*
X196577200Y-195657200D01*
X196720057Y-195585771D01*
X197005771Y-195585771D01*
X197148628Y-195657200D01*
X198434342Y-196585771D02*
X198434342Y-195800057D01*
X198362914Y-195657200D01*
X198220057Y-195585771D01*
X197934342Y-195585771D01*
X197791485Y-195657200D01*
X198434342Y-196514342D02*
X198291485Y-196585771D01*
X197934342Y-196585771D01*
X197791485Y-196514342D01*
X197720057Y-196371485D01*
X197720057Y-196228628D01*
X197791485Y-196085771D01*
X197934342Y-196014342D01*
X198291485Y-196014342D01*
X198434342Y-195942914D01*
X199791485Y-196585771D02*
X199791485Y-195085771D01*
X199791485Y-196514342D02*
X199648628Y-196585771D01*
X199362914Y-196585771D01*
X199220057Y-196514342D01*
X199148628Y-196442914D01*
X199077200Y-196300057D01*
X199077200Y-195871485D01*
X199148628Y-195728628D01*
X199220057Y-195657200D01*
X199362914Y-195585771D01*
X199648628Y-195585771D01*
X199791485Y-195657200D01*
X202077200Y-197157200D02*
X202005771Y-197085771D01*
X201862914Y-196871485D01*
X201791485Y-196728628D01*
X201720057Y-196514342D01*
X201648628Y-196157200D01*
X201648628Y-195871485D01*
X201720057Y-195514342D01*
X201791485Y-195300057D01*
X201862914Y-195157200D01*
X202005771Y-194942914D01*
X202077200Y-194871485D01*
X203362914Y-195085771D02*
X202648628Y-195085771D01*
X202577200Y-195800057D01*
X202648628Y-195728628D01*
X202791485Y-195657200D01*
X203148628Y-195657200D01*
X203291485Y-195728628D01*
X203362914Y-195800057D01*
X203434342Y-195942914D01*
X203434342Y-196300057D01*
X203362914Y-196442914D01*
X203291485Y-196514342D01*
X203148628Y-196585771D01*
X202791485Y-196585771D01*
X202648628Y-196514342D01*
X202577200Y-196442914D01*
X204077200Y-196442914D02*
X204148628Y-196514342D01*
X204077200Y-196585771D01*
X204005771Y-196514342D01*
X204077200Y-196442914D01*
X204077200Y-196585771D01*
X205577200Y-196585771D02*
X204720057Y-196585771D01*
X205148628Y-196585771D02*
X205148628Y-195085771D01*
X205005771Y-195300057D01*
X204862914Y-195442914D01*
X204720057Y-195514342D01*
X206220057Y-196442914D02*
X206291485Y-196514342D01*
X206220057Y-196585771D01*
X206148628Y-196514342D01*
X206220057Y-196442914D01*
X206220057Y-196585771D01*
X207720057Y-196585771D02*
X206862914Y-196585771D01*
X207291485Y-196585771D02*
X207291485Y-195085771D01*
X207148628Y-195300057D01*
X207005771Y-195442914D01*
X206862914Y-195514342D01*
X208648628Y-195085771D02*
X208791485Y-195085771D01*
X208934342Y-195157200D01*
X209005771Y-195228628D01*
X209077200Y-195371485D01*
X209148628Y-195657200D01*
X209148628Y-196014342D01*
X209077200Y-196300057D01*
X209005771Y-196442914D01*
X208934342Y-196514342D01*
X208791485Y-196585771D01*
X208648628Y-196585771D01*
X208505771Y-196514342D01*
X208434342Y-196442914D01*
X208362914Y-196300057D01*
X208291485Y-196014342D01*
X208291485Y-195657200D01*
X208362914Y-195371485D01*
X208434342Y-195228628D01*
X208505771Y-195157200D01*
X208648628Y-195085771D01*
X209648628Y-197157200D02*
X209720057Y-197085771D01*
X209862914Y-196871485D01*
X209934342Y-196728628D01*
X210005771Y-196514342D01*
X210077200Y-196157200D01*
X210077200Y-195871485D01*
X210005771Y-195514342D01*
X209934342Y-195300057D01*
X209862914Y-195157200D01*
X209720057Y-194942914D01*
X209648628Y-194871485D01*
X210791485Y-196014342D02*
X211934342Y-196014342D01*
X213434342Y-196585771D02*
X212577200Y-196585771D01*
X213005771Y-196585771D02*
X213005771Y-195085771D01*
X212862914Y-195300057D01*
X212720057Y-195442914D01*
X212577200Y-195514342D01*
D10*
D11*
X177002200Y-191507200D02*
X285002200Y-191507200D01*
D10*
D12*
X264411485Y-193785771D02*
X263911485Y-193071485D01*
X263554342Y-193785771D02*
X263554342Y-192285771D01*
X264125771Y-192285771D01*
X264268628Y-192357200D01*
X264340057Y-192428628D01*
X264411485Y-192571485D01*
X264411485Y-192785771D01*
X264340057Y-192928628D01*
X264268628Y-193000057D01*
X264125771Y-193071485D01*
X263554342Y-193071485D01*
X265625771Y-193714342D02*
X265482914Y-193785771D01*
X265197200Y-193785771D01*
X265054342Y-193714342D01*
X264982914Y-193571485D01*
X264982914Y-193000057D01*
X265054342Y-192857200D01*
X265197200Y-192785771D01*
X265482914Y-192785771D01*
X265625771Y-192857200D01*
X265697200Y-193000057D01*
X265697200Y-193142914D01*
X264982914Y-193285771D01*
X266197200Y-192785771D02*
X266554342Y-193785771D01*
X266911485Y-192785771D01*
X267482914Y-193642914D02*
X267554342Y-193714342D01*
X267482914Y-193785771D01*
X267411485Y-193714342D01*
X267482914Y-193642914D01*
X267482914Y-193785771D01*
X267482914Y-192857200D02*
X267554342Y-192928628D01*
X267482914Y-193000057D01*
X267411485Y-192928628D01*
X267482914Y-192857200D01*
X267482914Y-193000057D01*
D10*
D11*
X178362914Y-193714342D02*
X178577200Y-193785771D01*
X178934342Y-193785771D01*
X179077200Y-193714342D01*
X179148628Y-193642914D01*
X179220057Y-193500057D01*
X179220057Y-193357200D01*
X179148628Y-193214342D01*
X179077200Y-193142914D01*
X178934342Y-193071485D01*
X178648628Y-193000057D01*
X178505771Y-192928628D01*
X178434342Y-192857200D01*
X178362914Y-192714342D01*
X178362914Y-192571485D01*
X178434342Y-192428628D01*
X178505771Y-192357200D01*
X178648628Y-192285771D01*
X179005771Y-192285771D01*
X179220057Y-192357200D01*
X179862914Y-193785771D02*
X179862914Y-192785771D01*
X179862914Y-192285771D02*
X179791485Y-192357200D01*
X179862914Y-192428628D01*
X179934342Y-192357200D01*
X179862914Y-192285771D01*
X179862914Y-192428628D01*
X180434342Y-192785771D02*
X181220057Y-192785771D01*
X180434342Y-193785771D01*
X181220057Y-193785771D01*
X182362914Y-193714342D02*
X182220057Y-193785771D01*
X181934342Y-193785771D01*
X181791485Y-193714342D01*
X181720057Y-193571485D01*
X181720057Y-193000057D01*
X181791485Y-192857200D01*
X181934342Y-192785771D01*
X182220057Y-192785771D01*
X182362914Y-192857200D01*
X182434342Y-193000057D01*
X182434342Y-193142914D01*
X181720057Y-193285771D01*
X183077200Y-193642914D02*
X183148628Y-193714342D01*
X183077200Y-193785771D01*
X183005771Y-193714342D01*
X183077200Y-193642914D01*
X183077200Y-193785771D01*
X183077200Y-192857200D02*
X183148628Y-192928628D01*
X183077200Y-193000057D01*
X183005771Y-192928628D01*
X183077200Y-192857200D01*
X183077200Y-193000057D01*
X184862914Y-193357200D02*
X185577200Y-193357200D01*
X184720057Y-193785771D02*
X185220057Y-192285771D01*
X185720057Y-193785771D01*
X186862914Y-192785771D02*
X186862914Y-193785771D01*
X186505771Y-192214342D02*
X186148628Y-193285771D01*
X187077200Y-193285771D01*
D10*
D11*
X263434342Y-196585771D02*
X263434342Y-195085771D01*
X264791485Y-196585771D02*
X264791485Y-195085771D01*
X264791485Y-196514342D02*
X264648628Y-196585771D01*
X264362914Y-196585771D01*
X264220057Y-196514342D01*
X264148628Y-196442914D01*
X264077200Y-196300057D01*
X264077200Y-195871485D01*
X264148628Y-195728628D01*
X264220057Y-195657200D01*
X264362914Y-195585771D01*
X264648628Y-195585771D01*
X264791485Y-195657200D01*
X265505771Y-196442914D02*
X265577200Y-196514342D01*
X265505771Y-196585771D01*
X265434342Y-196514342D01*
X265505771Y-196442914D01*
X265505771Y-196585771D01*
X265505771Y-195657200D02*
X265577200Y-195728628D01*
X265505771Y-195800057D01*
X265434342Y-195728628D01*
X265505771Y-195657200D01*
X265505771Y-195800057D01*
X268148628Y-196585771D02*
X267291485Y-196585771D01*
X267720057Y-196585771D02*
X267720057Y-195085771D01*
X267577200Y-195300057D01*
X267434342Y-195442914D01*
X267291485Y-195514342D01*
X269862914Y-195014342D02*
X268577200Y-196942914D01*
X271148628Y-196585771D02*
X270291485Y-196585771D01*
X270720057Y-196585771D02*
X270720057Y-195085771D01*
X270577200Y-195300057D01*
X270434342Y-195442914D01*
X270291485Y-195514342D01*
D10*
D11*
X177002200Y-187507200D02*
X285002200Y-187507200D01*
D10*
D13*
X178714580Y-188211961D02*
X179857438Y-188211961D01*
X179036009Y-190211961D02*
X179286009Y-188211961D01*
X180274104Y-190211961D02*
X180440771Y-188878628D01*
X180524104Y-188211961D02*
X180416961Y-188307200D01*
X180500295Y-188402438D01*
X180607438Y-188307200D01*
X180524104Y-188211961D01*
X180500295Y-188402438D01*
X181107438Y-188878628D02*
X181869342Y-188878628D01*
X181476485Y-188211961D02*
X181262200Y-189926247D01*
X181333628Y-190116723D01*
X181512200Y-190211961D01*
X181702676Y-190211961D01*
X182655057Y-190211961D02*
X182476485Y-190116723D01*
X182405057Y-189926247D01*
X182619342Y-188211961D01*
X184190771Y-190116723D02*
X183988390Y-190211961D01*
X183607438Y-190211961D01*
X183428866Y-190116723D01*
X183357438Y-189926247D01*
X183452676Y-189164342D01*
X183571723Y-188973866D01*
X183774104Y-188878628D01*
X184155057Y-188878628D01*
X184333628Y-188973866D01*
X184405057Y-189164342D01*
X184381247Y-189354819D01*
X183405057Y-189545295D01*
X185155057Y-190021485D02*
X185238390Y-190116723D01*
X185131247Y-190211961D01*
X185047914Y-190116723D01*
X185155057Y-190021485D01*
X185131247Y-190211961D01*
X185286009Y-188973866D02*
X185369342Y-189069104D01*
X185262200Y-189164342D01*
X185178866Y-189069104D01*
X185286009Y-188973866D01*
X185262200Y-189164342D01*
D10*
D11*
X178934342Y-185600057D02*
X178434342Y-185600057D01*
X178434342Y-186385771D02*
X178434342Y-184885771D01*
X179148628Y-184885771D01*
X179720057Y-186385771D02*
X179720057Y-185385771D01*
X179720057Y-184885771D02*
X179648628Y-184957200D01*
X179720057Y-185028628D01*
X179791485Y-184957200D01*
X179720057Y-184885771D01*
X179720057Y-185028628D01*
X180648628Y-186385771D02*
X180505771Y-186314342D01*
X180434342Y-186171485D01*
X180434342Y-184885771D01*
X181791485Y-186314342D02*
X181648628Y-186385771D01*
X181362914Y-186385771D01*
X181220057Y-186314342D01*
X181148628Y-186171485D01*
X181148628Y-185600057D01*
X181220057Y-185457200D01*
X181362914Y-185385771D01*
X181648628Y-185385771D01*
X181791485Y-185457200D01*
X181862914Y-185600057D01*
X181862914Y-185742914D01*
X181148628Y-185885771D01*
X182505771Y-186242914D02*
X182577200Y-186314342D01*
X182505771Y-186385771D01*
X182434342Y-186314342D01*
X182505771Y-186242914D01*
X182505771Y-186385771D01*
X182505771Y-185457200D02*
X182577200Y-185528628D01*
X182505771Y-185600057D01*
X182434342Y-185528628D01*
X182505771Y-185457200D01*
X182505771Y-185600057D01*
X184362914Y-186385771D02*
X184362914Y-184885771D01*
X184362914Y-185600057D02*
X185220057Y-185600057D01*
X185220057Y-186385771D02*
X185220057Y-184885771D01*
X186791485Y-186385771D02*
X186291485Y-185671485D01*
X185934342Y-186385771D02*
X185934342Y-184885771D01*
X186505771Y-184885771D01*
X186648628Y-184957200D01*
X186720057Y-185028628D01*
X186791485Y-185171485D01*
X186791485Y-185385771D01*
X186720057Y-185528628D01*
X186648628Y-185600057D01*
X186505771Y-185671485D01*
X185934342Y-185671485D01*
X187291485Y-184885771D02*
X187648628Y-186385771D01*
X187934342Y-185314342D01*
X188220057Y-186385771D01*
X188577200Y-184885771D01*
X189148628Y-186385771D02*
X189148628Y-185385771D01*
X189148628Y-184885771D02*
X189077200Y-184957200D01*
X189148628Y-185028628D01*
X189220057Y-184957200D01*
X189148628Y-184885771D01*
X189148628Y-185028628D01*
X189720057Y-185385771D02*
X190505771Y-185385771D01*
X189720057Y-186385771D01*
X190505771Y-186385771D01*
X190934342Y-185385771D02*
X191720057Y-185385771D01*
X190934342Y-186385771D01*
X191720057Y-186385771D01*
X192934342Y-186385771D02*
X192934342Y-185600057D01*
X192862914Y-185457200D01*
X192720057Y-185385771D01*
X192434342Y-185385771D01*
X192291485Y-185457200D01*
X192934342Y-186314342D02*
X192791485Y-186385771D01*
X192434342Y-186385771D01*
X192291485Y-186314342D01*
X192220057Y-186171485D01*
X192220057Y-186028628D01*
X192291485Y-185885771D01*
X192434342Y-185814342D01*
X192791485Y-185814342D01*
X192934342Y-185742914D01*
X193648628Y-186385771D02*
X193648628Y-185385771D01*
X193648628Y-185671485D02*
X193720057Y-185528628D01*
X193791485Y-185457200D01*
X193934342Y-185385771D01*
X194077200Y-185385771D01*
X195220057Y-186385771D02*
X195220057Y-184885771D01*
X195220057Y-186314342D02*
X195077200Y-186385771D01*
X194791485Y-186385771D01*
X194648628Y-186314342D01*
X194577200Y-186242914D01*
X194505771Y-186100057D01*
X194505771Y-185671485D01*
X194577200Y-185528628D01*
X194648628Y-185457200D01*
X194791485Y-185385771D01*
X195077200Y-185385771D01*
X195220057Y-185457200D01*
X195934342Y-186242914D02*
X196005771Y-186314342D01*
X195934342Y-186385771D01*
X195862914Y-186314342D01*
X195934342Y-186242914D01*
X195934342Y-186385771D01*
X196648628Y-186385771D02*
X196648628Y-184885771D01*
X196791485Y-185814342D02*
X197220057Y-186385771D01*
X197220057Y-185385771D02*
X196648628Y-185957200D01*
X197862914Y-186385771D02*
X197862914Y-185385771D01*
X197862914Y-184885771D02*
X197791485Y-184957200D01*
X197862914Y-185028628D01*
X197934342Y-184957200D01*
X197862914Y-184885771D01*
X197862914Y-185028628D01*
X199220057Y-186314342D02*
X199077200Y-186385771D01*
X198791485Y-186385771D01*
X198648628Y-186314342D01*
X198577200Y-186242914D01*
X198505771Y-186100057D01*
X198505771Y-185671485D01*
X198577200Y-185528628D01*
X198648628Y-185457200D01*
X198791485Y-185385771D01*
X199077200Y-185385771D01*
X199220057Y-185457200D01*
X200505771Y-186385771D02*
X200505771Y-185600057D01*
X200434342Y-185457200D01*
X200291485Y-185385771D01*
X200005771Y-185385771D01*
X199862914Y-185457200D01*
X200505771Y-186314342D02*
X200362914Y-186385771D01*
X200005771Y-186385771D01*
X199862914Y-186314342D01*
X199791485Y-186171485D01*
X199791485Y-186028628D01*
X199862914Y-185885771D01*
X200005771Y-185814342D01*
X200362914Y-185814342D01*
X200505771Y-185742914D01*
X201862914Y-186385771D02*
X201862914Y-184885771D01*
X201862914Y-186314342D02*
X201720057Y-186385771D01*
X201434342Y-186385771D01*
X201291485Y-186314342D01*
X201220057Y-186242914D01*
X201148628Y-186100057D01*
X201148628Y-185671485D01*
X201220057Y-185528628D01*
X201291485Y-185457200D01*
X201434342Y-185385771D01*
X201720057Y-185385771D01*
X201862914Y-185457200D01*
X202220057Y-186528628D02*
X203362914Y-186528628D01*
X203720057Y-185385771D02*
X203720057Y-186885771D01*
X203720057Y-185457200D02*
X203862914Y-185385771D01*
X204148628Y-185385771D01*
X204291485Y-185457200D01*
X204362914Y-185528628D01*
X204434342Y-185671485D01*
X204434342Y-186100057D01*
X204362914Y-186242914D01*
X204291485Y-186314342D01*
X204148628Y-186385771D01*
X203862914Y-186385771D01*
X203720057Y-186314342D01*
X205720057Y-186314342D02*
X205577200Y-186385771D01*
X205291485Y-186385771D01*
X205148628Y-186314342D01*
X205077200Y-186242914D01*
X205005771Y-186100057D01*
X205005771Y-185671485D01*
X205077200Y-185528628D01*
X205148628Y-185457200D01*
X205291485Y-185385771D01*
X205577200Y-185385771D01*
X205720057Y-185457200D01*
X206362914Y-186385771D02*
X206362914Y-184885771D01*
X206362914Y-185457200D02*
X206505771Y-185385771D01*
X206791485Y-185385771D01*
X206934342Y-185457200D01*
X207005771Y-185528628D01*
X207077200Y-185671485D01*
X207077200Y-186100057D01*
X207005771Y-186242914D01*
X206934342Y-186314342D01*
X206791485Y-186385771D01*
X206505771Y-186385771D01*
X206362914Y-186314342D01*
D10*
D11*
X177002200Y-181507200D02*
X285002200Y-181507200D01*
D10*
D11*
X178362914Y-183614342D02*
X178577200Y-183685771D01*
X178934342Y-183685771D01*
X179077200Y-183614342D01*
X179148628Y-183542914D01*
X179220057Y-183400057D01*
X179220057Y-183257200D01*
X179148628Y-183114342D01*
X179077200Y-183042914D01*
X178934342Y-182971485D01*
X178648628Y-182900057D01*
X178505771Y-182828628D01*
X178434342Y-182757200D01*
X178362914Y-182614342D01*
X178362914Y-182471485D01*
X178434342Y-182328628D01*
X178505771Y-182257200D01*
X178648628Y-182185771D01*
X179005771Y-182185771D01*
X179220057Y-182257200D01*
X179862914Y-183685771D02*
X179862914Y-182185771D01*
X180505771Y-183685771D02*
X180505771Y-182900057D01*
X180434342Y-182757200D01*
X180291485Y-182685771D01*
X180077200Y-182685771D01*
X179934342Y-182757200D01*
X179862914Y-182828628D01*
X181791485Y-183614342D02*
X181648628Y-183685771D01*
X181362914Y-183685771D01*
X181220057Y-183614342D01*
X181148628Y-183471485D01*
X181148628Y-182900057D01*
X181220057Y-182757200D01*
X181362914Y-182685771D01*
X181648628Y-182685771D01*
X181791485Y-182757200D01*
X181862914Y-182900057D01*
X181862914Y-183042914D01*
X181148628Y-183185771D01*
X183077200Y-183614342D02*
X182934342Y-183685771D01*
X182648628Y-183685771D01*
X182505771Y-183614342D01*
X182434342Y-183471485D01*
X182434342Y-182900057D01*
X182505771Y-182757200D01*
X182648628Y-182685771D01*
X182934342Y-182685771D01*
X183077200Y-182757200D01*
X183148628Y-182900057D01*
X183148628Y-183042914D01*
X182434342Y-183185771D01*
X183577200Y-182685771D02*
X184148628Y-182685771D01*
X183791485Y-182185771D02*
X183791485Y-183471485D01*
X183862914Y-183614342D01*
X184005771Y-183685771D01*
X184148628Y-183685771D01*
X184648628Y-183542914D02*
X184720057Y-183614342D01*
X184648628Y-183685771D01*
X184577200Y-183614342D01*
X184648628Y-183542914D01*
X184648628Y-183685771D01*
X184648628Y-182757200D02*
X184720057Y-182828628D01*
X184648628Y-182900057D01*
X184577200Y-182828628D01*
X184648628Y-182757200D01*
X184648628Y-182900057D01*
D10*
D11*
X197002200Y-191507200D02*
X197002200Y-194507200D01*
D10*
D11*
X261002200Y-191507200D02*
X261002200Y-198007200D01*
D14*
%TO.P,J4,4*%
%TO.N,SCL*%
X157047000Y-121358000D03*
%TO.P,J4,3*%
%TO.N,SDA*%
X155047000Y-121358000D03*
%TO.P,J4,2*%
%TO.N,+3V3*%
X153047000Y-121358000D03*
D15*
%TO.P,J4,1*%
%TO.N,GND*%
X151047000Y-121358000D03*
%TD*%
D14*
%TO.P,J3,4*%
%TO.N,SCL*%
X140047000Y-121358000D03*
%TO.P,J3,3*%
%TO.N,SDA*%
X138047000Y-121358000D03*
%TO.P,J3,2*%
%TO.N,+3V3*%
X136047000Y-121358000D03*
D15*
%TO.P,J3,1*%
%TO.N,GND*%
X134047000Y-121358000D03*
%TD*%
D14*
%TO.P,J1,4*%
%TO.N,GND*%
X123047000Y-121358000D03*
%TO.P,J1,3*%
%TO.N,+5V*%
X121047000Y-121358000D03*
%TO.P,J1,2*%
%TO.N,NEOPIXEL_OUT*%
X119047000Y-121358000D03*
D15*
%TO.P,J1,1*%
%TO.N,N/C*%
X117047000Y-121358000D03*
%TD*%
%TO.P,R9,2*%
%TO.N,+5V*%
%TA.AperFunction,SMDPad,CuDef*%
G36*
G01*
X116197000Y-115308001D02*
X116197000Y-114407999D01*
G75*
G02*
X116446999Y-114158000I249999J0D01*
G01*
X117147001Y-114158000D01*
G75*
G02*
X117397000Y-114407999I0J-249999D01*
G01*
X117397000Y-115308001D01*
G75*
G02*
X117147001Y-115558000I-249999J0D01*
G01*
X116446999Y-115558000D01*
G75*
G02*
X116197000Y-115308001I0J249999D01*
G01*
G37*
%TD.AperFunction*%
%TO.P,R9,1*%
%TO.N,Net-(D1-Pad2)*%
%TA.AperFunction,SMDPad,CuDef*%
G36*
G01*
X114197000Y-115308001D02*
X114197000Y-114407999D01*
G75*
G02*
X114446999Y-114158000I249999J0D01*
G01*
X115147001Y-114158000D01*
G75*
G02*
X115397000Y-114407999I0J-249999D01*
G01*
X115397000Y-115308001D01*
G75*
G02*
X115147001Y-115558000I-249999J0D01*
G01*
X114446999Y-115558000D01*
G75*
G02*
X114197000Y-115308001I0J249999D01*
G01*
G37*
%TD.AperFunction*%
%TD*%
%TO.P,D1,2*%
%TO.N,Net-(D1-Pad2)*%
%TA.AperFunction,SMDPad,CuDef*%
G36*
G01*
X115347000Y-111907999D02*
X115347000Y-112808001D01*
G75*
G02*
X115097001Y-113058000I-249999J0D01*
G01*
X114446999Y-113058000D01*
G75*
G02*
X114197000Y-112808001I0J249999D01*
G01*
X114197000Y-111907999D01*
G75*
G02*
X114446999Y-111658000I249999J0D01*
G01*
X115097001Y-111658000D01*
G75*
G02*
X115347000Y-111907999I0J-249999D01*
G01*
G37*
%TD.AperFunction*%
%TO.P,D1,1*%
%TO.N,GND*%
%TA.AperFunction,SMDPad,CuDef*%
G36*
G01*
X117397000Y-111907999D02*
X117397000Y-112808001D01*
G75*
G02*
X117147001Y-113058000I-249999J0D01*
G01*
X116496999Y-113058000D01*
G75*
G02*
X116247000Y-112808001I0J249999D01*
G01*
X116247000Y-111907999D01*
G75*
G02*
X116496999Y-111658000I249999J0D01*
G01*
X117147001Y-111658000D01*
G75*
G02*
X117397000Y-111907999I0J-249999D01*
G01*
G37*
%TD.AperFunction*%
%TD*%
D16*
%TO.P,U1,43*%
%TO.N,Net-(U1-Pad43)*%
X160697000Y-94318000D03*
D17*
X161597000Y-94318000D03*
D18*
%TO.P,U1,42*%
%TO.N,Net-(U1-Pad42)*%
X160697000Y-96858000D03*
D17*
X161597000Y-96858000D03*
D16*
%TO.P,U1,41*%
%TO.N,Net-(U1-Pad41)*%
X160697000Y-99398000D03*
D17*
X161597000Y-99398000D03*
D19*
%TO.P,U1,21*%
%TO.N,Button_B*%
X160927000Y-87068000D03*
%TO.P,U1,22*%
%TO.N,Button_A*%
X158387000Y-87068000D03*
%TO.P,U1,23*%
%TO.N,Net-(U1-Pad23)*%
X155847000Y-87068000D03*
%TO.P,U1,24*%
%TO.N,Net-(U1-Pad24)*%
X153307000Y-87068000D03*
%TO.P,U1,25*%
%TO.N,Net-(U1-Pad25)*%
X150767000Y-87068000D03*
%TO.P,U1,26*%
%TO.N,Net-(U1-Pad26)*%
X148227000Y-87068000D03*
%TO.P,U1,27*%
%TO.N,Net-(U1-Pad27)*%
X145687000Y-87068000D03*
%TO.P,U1,28*%
%TO.N,Net-(U1-Pad28)*%
X143147000Y-87068000D03*
%TO.P,U1,29*%
%TO.N,Net-(U1-Pad29)*%
X140607000Y-87068000D03*
%TO.P,U1,30*%
%TO.N,Net-(SW3-Pad1)*%
X138067000Y-87068000D03*
%TO.P,U1,31*%
%TO.N,Net-(U1-Pad31)*%
X135527000Y-87068000D03*
%TO.P,U1,32*%
%TO.N,Net-(U1-Pad32)*%
X132987000Y-87068000D03*
%TO.P,U1,33*%
%TO.N,Net-(U1-Pad33)*%
X130447000Y-87068000D03*
%TO.P,U1,34*%
%TO.N,Net-(U1-Pad34)*%
X127907000Y-87068000D03*
%TO.P,U1,35*%
%TO.N,Net-(U1-Pad35)*%
X125367000Y-87068000D03*
%TO.P,U1,36*%
%TO.N,+3V3*%
X122827000Y-87068000D03*
%TO.P,U1,37*%
%TO.N,Net-(U1-Pad37)*%
X120287000Y-87068000D03*
%TO.P,U1,38*%
%TO.N,GND*%
X117747000Y-87068000D03*
%TO.P,U1,39*%
%TO.N,Net-(U1-Pad39)*%
X115207000Y-87068000D03*
%TO.P,U1,40*%
%TO.N,+5V*%
X112667000Y-87068000D03*
%TO.P,U1,20*%
%TO.N,Button_RIGHT*%
X160927000Y-106648000D03*
%TO.P,U1,19*%
%TO.N,Button_LEFT*%
X158387000Y-106648000D03*
%TO.P,U1,18*%
%TO.N,Net-(U1-Pad18)*%
X155847000Y-106648000D03*
%TO.P,U1,17*%
%TO.N,Button_DOWN*%
X153307000Y-106648000D03*
%TO.P,U1,16*%
%TO.N,Button_UP*%
X150767000Y-106648000D03*
%TO.P,U1,15*%
%TO.N,Net-(U1-Pad15)*%
X148227000Y-106648000D03*
%TO.P,U1,14*%
%TO.N,Net-(U1-Pad14)*%
X145687000Y-106648000D03*
%TO.P,U1,13*%
%TO.N,Net-(U1-Pad13)*%
X143147000Y-106648000D03*
%TO.P,U1,12*%
%TO.N,SCL*%
X140607000Y-106648000D03*
%TO.P,U1,11*%
%TO.N,SDA*%
X138067000Y-106648000D03*
%TO.P,U1,10*%
%TO.N,Net-(U1-Pad10)*%
X135527000Y-106648000D03*
%TO.P,U1,9*%
%TO.N,NEOPIXEL_OUT*%
X132987000Y-106648000D03*
%TO.P,U1,8*%
%TO.N,Net-(U1-Pad8)*%
X130447000Y-106648000D03*
%TO.P,U1,7*%
%TO.N,Net-(U1-Pad7)*%
X127907000Y-106648000D03*
%TO.P,U1,6*%
%TO.N,Net-(U1-Pad6)*%
X125367000Y-106648000D03*
%TO.P,U1,5*%
%TO.N,Net-(U1-Pad5)*%
X122827000Y-106648000D03*
%TO.P,U1,4*%
%TO.N,Net-(U1-Pad4)*%
X120287000Y-106648000D03*
%TO.P,U1,3*%
%TO.N,Net-(U1-Pad3)*%
X117747000Y-106648000D03*
%TO.P,U1,2*%
%TO.N,TX*%
X115207000Y-106648000D03*
%TO.P,U1,1*%
%TO.N,RX*%
X112667000Y-106648000D03*
D16*
%TO.P,U1,40*%
%TO.N,+5V*%
X112667000Y-87968000D03*
%TO.P,U1,39*%
%TO.N,Net-(U1-Pad39)*%
X115207000Y-87968000D03*
D18*
%TO.P,U1,38*%
%TO.N,GND*%
X117747000Y-87968000D03*
D16*
%TO.P,U1,37*%
%TO.N,Net-(U1-Pad37)*%
X120287000Y-87968000D03*
%TO.P,U1,36*%
%TO.N,+3V3*%
X122827000Y-87968000D03*
%TO.P,U1,35*%
%TO.N,Net-(U1-Pad35)*%
X125367000Y-87968000D03*
%TO.P,U1,34*%
%TO.N,Net-(U1-Pad34)*%
X127907000Y-87968000D03*
D18*
%TO.P,U1,33*%
%TO.N,Net-(U1-Pad33)*%
X130447000Y-87968000D03*
D16*
%TO.P,U1,32*%
%TO.N,Net-(U1-Pad32)*%
X132987000Y-87968000D03*
%TO.P,U1,31*%
%TO.N,Net-(U1-Pad31)*%
X135527000Y-87968000D03*
%TO.P,U1,30*%
%TO.N,Net-(SW3-Pad1)*%
X138067000Y-87968000D03*
%TO.P,U1,29*%
%TO.N,Net-(U1-Pad29)*%
X140607000Y-87968000D03*
D18*
%TO.P,U1,28*%
%TO.N,Net-(U1-Pad28)*%
X143147000Y-87968000D03*
D16*
%TO.P,U1,27*%
%TO.N,Net-(U1-Pad27)*%
X145687000Y-87968000D03*
%TO.P,U1,26*%
%TO.N,Net-(U1-Pad26)*%
X148227000Y-87968000D03*
%TO.P,U1,25*%
%TO.N,Net-(U1-Pad25)*%
X150767000Y-87968000D03*
%TO.P,U1,24*%
%TO.N,Net-(U1-Pad24)*%
X153307000Y-87968000D03*
D18*
%TO.P,U1,23*%
%TO.N,Net-(U1-Pad23)*%
X155847000Y-87968000D03*
D16*
%TO.P,U1,22*%
%TO.N,Button_A*%
X158387000Y-87968000D03*
%TO.P,U1,21*%
%TO.N,Button_B*%
X160927000Y-87968000D03*
%TO.P,U1,20*%
%TO.N,Button_RIGHT*%
X160927000Y-105748000D03*
%TO.P,U1,19*%
%TO.N,Button_LEFT*%
X158387000Y-105748000D03*
D18*
%TO.P,U1,18*%
%TO.N,Net-(U1-Pad18)*%
X155847000Y-105748000D03*
D16*
%TO.P,U1,17*%
%TO.N,Button_DOWN*%
X153307000Y-105748000D03*
%TO.P,U1,16*%
%TO.N,Button_UP*%
X150767000Y-105748000D03*
%TO.P,U1,15*%
%TO.N,Net-(U1-Pad15)*%
X148227000Y-105748000D03*
%TO.P,U1,14*%
%TO.N,Net-(U1-Pad14)*%
X145687000Y-105748000D03*
D18*
%TO.P,U1,13*%
%TO.N,Net-(U1-Pad13)*%
X143147000Y-105748000D03*
D16*
%TO.P,U1,12*%
%TO.N,SCL*%
X140607000Y-105748000D03*
%TO.P,U1,11*%
%TO.N,SDA*%
X138067000Y-105748000D03*
%TO.P,U1,10*%
%TO.N,Net-(U1-Pad10)*%
X135527000Y-105748000D03*
%TO.P,U1,9*%
%TO.N,NEOPIXEL_OUT*%
X132987000Y-105748000D03*
D18*
%TO.P,U1,8*%
%TO.N,Net-(U1-Pad8)*%
X130447000Y-105748000D03*
D16*
%TO.P,U1,7*%
%TO.N,Net-(U1-Pad7)*%
X127907000Y-105748000D03*
%TO.P,U1,6*%
%TO.N,Net-(U1-Pad6)*%
X125367000Y-105748000D03*
%TO.P,U1,5*%
%TO.N,Net-(U1-Pad5)*%
X122827000Y-105748000D03*
%TO.P,U1,4*%
%TO.N,Net-(U1-Pad4)*%
X120287000Y-105748000D03*
D18*
%TO.P,U1,3*%
%TO.N,Net-(U1-Pad3)*%
X117747000Y-105748000D03*
D16*
%TO.P,U1,2*%
%TO.N,TX*%
X115207000Y-105748000D03*
%TO.P,U1,1*%
%TO.N,RX*%
X112667000Y-105748000D03*
%TD*%
D20*
%TO.P,SW7,1*%
%TO.N,Button_DOWN*%
X196547000Y-117408000D03*
%TO.P,SW7,3*%
%TO.N,N/C*%
X201047000Y-117408000D03*
%TO.P,SW7,4*%
X201047000Y-108308000D03*
%TO.P,SW7,2*%
%TO.N,+3V3*%
X196547000Y-108308000D03*
%TD*%
D21*
%TO.P,SW6,1*%
%TO.N,Button_RIGHT*%
X193347000Y-106108000D03*
%TO.P,SW6,3*%
%TO.N,N/C*%
X193347000Y-101608000D03*
%TO.P,SW6,4*%
X184247000Y-101608000D03*
%TO.P,SW6,2*%
%TO.N,+3V3*%
X184247000Y-106108000D03*
%TD*%
%TO.P,SW5,1*%
%TO.N,Button_LEFT*%
X193347000Y-124108000D03*
%TO.P,SW5,3*%
%TO.N,N/C*%
X193347000Y-119608000D03*
%TO.P,SW5,4*%
X184247000Y-119608000D03*
%TO.P,SW5,2*%
%TO.N,+3V3*%
X184247000Y-124108000D03*
%TD*%
D20*
%TO.P,SW4,1*%
%TO.N,Button_UP*%
X176547000Y-117408000D03*
%TO.P,SW4,3*%
%TO.N,N/C*%
X181047000Y-117408000D03*
%TO.P,SW4,4*%
X181047000Y-108308000D03*
%TO.P,SW4,2*%
%TO.N,+3V3*%
X176547000Y-108308000D03*
%TD*%
D21*
%TO.P,SW1,1*%
%TO.N,Button_A*%
X197347000Y-96108000D03*
%TO.P,SW1,3*%
%TO.N,N/C*%
X197347000Y-91608000D03*
%TO.P,SW1,4*%
X188247000Y-91608000D03*
%TO.P,SW1,2*%
%TO.N,+3V3*%
X188247000Y-96108000D03*
%TD*%
%TO.P,SW2,1*%
%TO.N,Button_B*%
X189347000Y-87108000D03*
%TO.P,SW2,3*%
%TO.N,N/C*%
X189347000Y-82608000D03*
%TO.P,SW2,4*%
X180247000Y-82608000D03*
%TO.P,SW2,2*%
%TO.N,+3V3*%
X180247000Y-87108000D03*
%TD*%
D20*
%TO.P,SW3,1*%
%TO.N,Net-(SW3-Pad1)*%
X171047000Y-92308000D03*
%TO.P,SW3,3*%
%TO.N,N/C*%
X166547000Y-92308000D03*
%TO.P,SW3,4*%
X166547000Y-101408000D03*
%TO.P,SW3,2*%
%TO.N,GND*%
X171047000Y-101408000D03*
%TD*%
D22*
%TO.N,GND*%
X112797000Y-118858000D03*
X113797000Y-82858000D03*
X168797000Y-124858000D03*
X203797000Y-124858000D03*
X201797000Y-83858000D03*
X168797000Y-84858000D03*
X149297000Y-116358000D03*
X161797000Y-114858000D03*
X121797000Y-95358000D03*
X192797000Y-98858000D03*
%TO.N,+5V*%
X164797000Y-109858000D03*
X116797000Y-116608000D03*
%TO.N,SDA*%
X138047000Y-123608000D03*
%TO.N,Button_A*%
X159797000Y-82858000D03*
X200547000Y-96108000D03*
%TO.N,Button_UP*%
X163547000Y-116358000D03*
X174297000Y-119858000D03*
%TO.N,Button_LEFT*%
X163047000Y-113358000D03*
X168047000Y-118358000D03*
%TO.N,Button_RIGHT*%
X163297000Y-111608000D03*
X196547000Y-105858000D03*
%TO.N,Button_DOWN*%
X159797000Y-112608000D03*
X196547000Y-121108000D03*
%TD*%
D23*
%TO.N,+3V3*%
X128797000Y-94858000D02*
X128797000Y-98858000D01*
X128797000Y-98858000D02*
X132797000Y-102858000D01*
X132797000Y-102858000D02*
X163797000Y-102858000D01*
X163797000Y-102858000D02*
X168797000Y-107858000D01*
X122827000Y-88888000D02*
X128797000Y-94858000D01*
X122827000Y-87968000D02*
X122827000Y-88888000D01*
X180247000Y-87108000D02*
X180247000Y-92308000D01*
X184047000Y-96108000D02*
X188247000Y-96108000D01*
X180247000Y-92308000D02*
X184047000Y-96108000D01*
X188247000Y-102108000D02*
X184247000Y-106108000D01*
X188247000Y-96108000D02*
X188247000Y-102108000D01*
X186447000Y-108308000D02*
X184247000Y-106108000D01*
X196547000Y-108308000D02*
X186447000Y-108308000D01*
X186447000Y-121908000D02*
X186447000Y-108308000D01*
X184247000Y-124108000D02*
X186447000Y-121908000D01*
X176097000Y-107858000D02*
X176547000Y-108308000D01*
X168797000Y-107858000D02*
X176097000Y-107858000D01*
X176547000Y-108308000D02*
X176547000Y-107108000D01*
X177547000Y-106108000D02*
X184247000Y-106108000D01*
X176547000Y-107108000D02*
X177547000Y-106108000D01*
X153047000Y-119608000D02*
X153047000Y-121358000D01*
X154047000Y-118608000D02*
X153047000Y-119608000D01*
X164797000Y-118608000D02*
X154047000Y-118608000D01*
X168797000Y-114608000D02*
X164797000Y-118608000D01*
X168797000Y-107858000D02*
X168797000Y-114608000D01*
%TO.N,+5V*%
X114797000Y-91858000D02*
X123797000Y-91858000D01*
X123797000Y-91858000D02*
X127797000Y-95858000D01*
X127797000Y-95858000D02*
X127797000Y-99858000D01*
X127797000Y-99858000D02*
X131797000Y-103858000D01*
X131797000Y-103858000D02*
X162797000Y-103858000D01*
X164797000Y-105858000D02*
X164797000Y-109858000D01*
X162797000Y-103858000D02*
X164797000Y-105858000D01*
X112667000Y-89728000D02*
X114797000Y-91858000D01*
X112667000Y-87968000D02*
X112667000Y-89728000D01*
X116797000Y-116608000D02*
X116797000Y-114858000D01*
%TO.N,SDA*%
X138067000Y-121338000D02*
X138047000Y-121358000D01*
X138067000Y-105748000D02*
X138067000Y-121338000D01*
X138047000Y-121358000D02*
X138047000Y-123608000D01*
%TO.N,SCL*%
X140607000Y-105748000D02*
X140607000Y-111668000D01*
X140047000Y-117608000D02*
X140047000Y-121358000D01*
X140607000Y-117048000D02*
X140047000Y-117608000D01*
X140607000Y-111668000D02*
X140607000Y-117048000D01*
X157047000Y-123608000D02*
X157047000Y-121358000D01*
X156047000Y-124608000D02*
X157047000Y-123608000D01*
X141047000Y-124608000D02*
X156047000Y-124608000D01*
X140047000Y-123608000D02*
X141047000Y-124608000D01*
X140047000Y-121358000D02*
X140047000Y-123608000D01*
%TO.N,NEOPIXEL_OUT*%
X119047000Y-113358000D02*
X119047000Y-121358000D01*
X120547000Y-111858000D02*
X119047000Y-113358000D01*
X130797000Y-111858000D02*
X120547000Y-111858000D01*
X132987000Y-109668000D02*
X130797000Y-111858000D01*
X132987000Y-105748000D02*
X132987000Y-109668000D01*
%TO.N,Button_B*%
X160927000Y-87968000D02*
X174187000Y-87968000D01*
X174187000Y-87968000D02*
X177297000Y-84858000D01*
X187097000Y-84858000D02*
X189347000Y-87108000D01*
X177297000Y-84858000D02*
X187097000Y-84858000D01*
%TO.N,Button_A*%
X158387000Y-84268000D02*
X159797000Y-82858000D01*
X158387000Y-87968000D02*
X158387000Y-84268000D01*
X200547000Y-96108000D02*
X197347000Y-96108000D01*
%TO.N,Button_UP*%
X150767000Y-105748000D02*
X150767000Y-108828000D01*
X150767000Y-108828000D02*
X152797000Y-110858000D01*
X152797000Y-110858000D02*
X156047000Y-110858000D01*
X161547000Y-116358000D02*
X163547000Y-116358000D01*
X156047000Y-110858000D02*
X161547000Y-116358000D01*
X174297000Y-119658000D02*
X176547000Y-117408000D01*
X174297000Y-119858000D02*
X174297000Y-119658000D01*
%TO.N,Button_LEFT*%
X158387000Y-108698000D02*
X163047000Y-113358000D01*
X158387000Y-105748000D02*
X158387000Y-108698000D01*
X168047000Y-118358000D02*
X176047000Y-126358000D01*
X191097000Y-126358000D02*
X193347000Y-124108000D01*
X176047000Y-126358000D02*
X191097000Y-126358000D01*
%TO.N,Button_RIGHT*%
X160927000Y-109238000D02*
X163297000Y-111608000D01*
X160927000Y-105748000D02*
X160927000Y-109238000D01*
X193597000Y-105858000D02*
X193347000Y-106108000D01*
X196547000Y-105858000D02*
X193597000Y-105858000D01*
%TO.N,Button_DOWN*%
X153307000Y-107428002D02*
X153297000Y-107438002D01*
X153307000Y-105748000D02*
X153307000Y-107428002D01*
X153297000Y-107438002D02*
X153297000Y-108608000D01*
X153297000Y-108608000D02*
X154547000Y-109858000D01*
X157047000Y-109858000D02*
X159797000Y-112608000D01*
X154547000Y-109858000D02*
X157047000Y-109858000D01*
X196547000Y-121108000D02*
X196547000Y-117408000D01*
%TO.N,Net-(SW3-Pad1)*%
X138797000Y-90858000D02*
X163797000Y-90858000D01*
X163797000Y-90858000D02*
X164797000Y-89858000D01*
X164797000Y-89858000D02*
X170797000Y-89858000D01*
X171047000Y-90108000D02*
X170797000Y-89858000D01*
X171047000Y-92308000D02*
X171047000Y-90108000D01*
X138067000Y-87968000D02*
X138067000Y-90128000D01*
X138067000Y-90128000D02*
X138797000Y-90858000D01*
%TO.N,Net-(D1-Pad2)*%
X114797000Y-112383000D02*
X114772000Y-112358000D01*
X114797000Y-114858000D02*
X114797000Y-112383000D01*
%TD*%
D24*
%TO.N,GND*%
X206115001Y-127165000D02*
X191464607Y-127165000D01*
X191591059Y-127097411D01*
X191725817Y-126986817D01*
X191753534Y-126953044D01*
X193260507Y-125446072D01*
X194397000Y-125446072D01*
X194521482Y-125433812D01*
X194641180Y-125397502D01*
X194751494Y-125338537D01*
X194848185Y-125259185D01*
X194927537Y-125162494D01*
X194986502Y-125052180D01*
X195022812Y-124932482D01*
X195035072Y-124808000D01*
X195035072Y-123408000D01*
X195022812Y-123283518D01*
X194986502Y-123163820D01*
X194927537Y-123053506D01*
X194848185Y-122956815D01*
X194751494Y-122877463D01*
X194641180Y-122818498D01*
X194521482Y-122782188D01*
X194397000Y-122769928D01*
X192297000Y-122769928D01*
X192172518Y-122782188D01*
X192052820Y-122818498D01*
X191942506Y-122877463D01*
X191845815Y-122956815D01*
X191766463Y-123053506D01*
X191707498Y-123163820D01*
X191671188Y-123283518D01*
X191658928Y-123408000D01*
X191658928Y-124544493D01*
X190730422Y-125473000D01*
X176413579Y-125473000D01*
X170696640Y-119756061D01*
X173262000Y-119756061D01*
X173262000Y-119959939D01*
X173301774Y-120159898D01*
X173379795Y-120348256D01*
X173493063Y-120517774D01*
X173637226Y-120661937D01*
X173806744Y-120775205D01*
X173995102Y-120853226D01*
X174195061Y-120893000D01*
X174398939Y-120893000D01*
X174598898Y-120853226D01*
X174787256Y-120775205D01*
X174956774Y-120661937D01*
X175100937Y-120517774D01*
X175214205Y-120348256D01*
X175292226Y-120159898D01*
X175332000Y-119959939D01*
X175332000Y-119874578D01*
X176110507Y-119096072D01*
X177247000Y-119096072D01*
X177371482Y-119083812D01*
X177491180Y-119047502D01*
X177601494Y-118988537D01*
X177698185Y-118909185D01*
X177777537Y-118812494D01*
X177836502Y-118702180D01*
X177872812Y-118582482D01*
X177885072Y-118458000D01*
X177885072Y-116358000D01*
X179708928Y-116358000D01*
X179708928Y-118458000D01*
X179721188Y-118582482D01*
X179757498Y-118702180D01*
X179816463Y-118812494D01*
X179895815Y-118909185D01*
X179992506Y-118988537D01*
X180102820Y-119047502D01*
X180222518Y-119083812D01*
X180347000Y-119096072D01*
X181747000Y-119096072D01*
X181871482Y-119083812D01*
X181991180Y-119047502D01*
X182101494Y-118988537D01*
X182198185Y-118909185D01*
X182277537Y-118812494D01*
X182336502Y-118702180D01*
X182372812Y-118582482D01*
X182385072Y-118458000D01*
X182385072Y-116358000D01*
X182372812Y-116233518D01*
X182336502Y-116113820D01*
X182277537Y-116003506D01*
X182198185Y-115906815D01*
X182101494Y-115827463D01*
X181991180Y-115768498D01*
X181871482Y-115732188D01*
X181747000Y-115719928D01*
X180347000Y-115719928D01*
X180222518Y-115732188D01*
X180102820Y-115768498D01*
X179992506Y-115827463D01*
X179895815Y-115906815D01*
X179816463Y-116003506D01*
X179757498Y-116113820D01*
X179721188Y-116233518D01*
X179708928Y-116358000D01*
X177885072Y-116358000D01*
X177872812Y-116233518D01*
X177836502Y-116113820D01*
X177777537Y-116003506D01*
X177698185Y-115906815D01*
X177601494Y-115827463D01*
X177491180Y-115768498D01*
X177371482Y-115732188D01*
X177247000Y-115719928D01*
X175847000Y-115719928D01*
X175722518Y-115732188D01*
X175602820Y-115768498D01*
X175492506Y-115827463D01*
X175395815Y-115906815D01*
X175316463Y-116003506D01*
X175257498Y-116113820D01*
X175221188Y-116233518D01*
X175208928Y-116358000D01*
X175208928Y-117494493D01*
X173701955Y-119001467D01*
X173668183Y-119029183D01*
X173660560Y-119038472D01*
X173637226Y-119054063D01*
X173493063Y-119198226D01*
X173379795Y-119367744D01*
X173301774Y-119556102D01*
X173262000Y-119756061D01*
X170696640Y-119756061D01*
X169053535Y-118112957D01*
X169042226Y-118056102D01*
X168964205Y-117867744D01*
X168850937Y-117698226D01*
X168706774Y-117554063D01*
X168537256Y-117440795D01*
X168348898Y-117362774D01*
X168148939Y-117323000D01*
X167945061Y-117323000D01*
X167745102Y-117362774D01*
X167556744Y-117440795D01*
X167387226Y-117554063D01*
X167243063Y-117698226D01*
X167129795Y-117867744D01*
X167051774Y-118056102D01*
X167012000Y-118256061D01*
X167012000Y-118459939D01*
X167051774Y-118659898D01*
X167129795Y-118848256D01*
X167243063Y-119017774D01*
X167387226Y-119161937D01*
X167556744Y-119275205D01*
X167745102Y-119353226D01*
X167801957Y-119364535D01*
X175390470Y-126953049D01*
X175418183Y-126986817D01*
X175451951Y-127014530D01*
X175451953Y-127014532D01*
X175523452Y-127073210D01*
X175552941Y-127097411D01*
X175679393Y-127165000D01*
X111485000Y-127165000D01*
X111485000Y-111907999D01*
X113558928Y-111907999D01*
X113558928Y-112808001D01*
X113575992Y-112981255D01*
X113626528Y-113147851D01*
X113708595Y-113301387D01*
X113819038Y-113435962D01*
X113912001Y-113512254D01*
X113912000Y-113703746D01*
X113819038Y-113780038D01*
X113708595Y-113914613D01*
X113626528Y-114068149D01*
X113575992Y-114234745D01*
X113558928Y-114407999D01*
X113558928Y-115308001D01*
X113575992Y-115481255D01*
X113626528Y-115647851D01*
X113708595Y-115801387D01*
X113819038Y-115935962D01*
X113953613Y-116046405D01*
X114107149Y-116128472D01*
X114273745Y-116179008D01*
X114446999Y-116196072D01*
X115147001Y-116196072D01*
X115320255Y-116179008D01*
X115486851Y-116128472D01*
X115640387Y-116046405D01*
X115774962Y-115935962D01*
X115797000Y-115909109D01*
X115819038Y-115935962D01*
X115912000Y-116012254D01*
X115912000Y-116069545D01*
X115879795Y-116117744D01*
X115801774Y-116306102D01*
X115762000Y-116506061D01*
X115762000Y-116709939D01*
X115801774Y-116909898D01*
X115879795Y-117098256D01*
X115993063Y-117267774D01*
X116137226Y-117411937D01*
X116306744Y-117525205D01*
X116495102Y-117603226D01*
X116695061Y-117643000D01*
X116898939Y-117643000D01*
X117098898Y-117603226D01*
X117287256Y-117525205D01*
X117456774Y-117411937D01*
X117600937Y-117267774D01*
X117714205Y-117098256D01*
X117792226Y-116909898D01*
X117832000Y-116709939D01*
X117832000Y-116506061D01*
X117792226Y-116306102D01*
X117714205Y-116117744D01*
X117682000Y-116069546D01*
X117682000Y-116012254D01*
X117774962Y-115935962D01*
X117885405Y-115801387D01*
X117967472Y-115647851D01*
X118018008Y-115481255D01*
X118035072Y-115308001D01*
X118035072Y-114407999D01*
X118018008Y-114234745D01*
X117967472Y-114068149D01*
X117885405Y-113914613D01*
X117774962Y-113780038D01*
X117640387Y-113669595D01*
X117614306Y-113655654D01*
X117641180Y-113647502D01*
X117751494Y-113588537D01*
X117848185Y-113509185D01*
X117927537Y-113412494D01*
X117986502Y-113302180D01*
X118022812Y-113182482D01*
X118035072Y-113058000D01*
X118032000Y-112643750D01*
X117873250Y-112485000D01*
X116949000Y-112485000D01*
X116949000Y-112505000D01*
X116695000Y-112505000D01*
X116695000Y-112485000D01*
X116675000Y-112485000D01*
X116675000Y-112231000D01*
X116695000Y-112231000D01*
X116695000Y-111181750D01*
X116949000Y-111181750D01*
X116949000Y-112231000D01*
X117873250Y-112231000D01*
X118032000Y-112072250D01*
X118035072Y-111658000D01*
X118022812Y-111533518D01*
X117986502Y-111413820D01*
X117927537Y-111303506D01*
X117848185Y-111206815D01*
X117751494Y-111127463D01*
X117641180Y-111068498D01*
X117521482Y-111032188D01*
X117397000Y-111019928D01*
X117107750Y-111023000D01*
X116949000Y-111181750D01*
X116695000Y-111181750D01*
X116536250Y-111023000D01*
X116247000Y-111019928D01*
X116122518Y-111032188D01*
X116002820Y-111068498D01*
X115892506Y-111127463D01*
X115795815Y-111206815D01*
X115730342Y-111286594D01*
X115724962Y-111280038D01*
X115590387Y-111169595D01*
X115436851Y-111087528D01*
X115270255Y-111036992D01*
X115097001Y-111019928D01*
X114446999Y-111019928D01*
X114273745Y-111036992D01*
X114107149Y-111087528D01*
X113953613Y-111169595D01*
X113819038Y-111280038D01*
X113708595Y-111414613D01*
X113626528Y-111568149D01*
X113575992Y-111734745D01*
X113558928Y-111907999D01*
X111485000Y-111907999D01*
X111485000Y-108940560D01*
X111572820Y-108987502D01*
X111692518Y-109023812D01*
X111817000Y-109036072D01*
X113517000Y-109036072D01*
X113641482Y-109023812D01*
X113761180Y-108987502D01*
X113871494Y-108928537D01*
X113937000Y-108874778D01*
X114002506Y-108928537D01*
X114112820Y-108987502D01*
X114232518Y-109023812D01*
X114357000Y-109036072D01*
X116057000Y-109036072D01*
X116181482Y-109023812D01*
X116301180Y-108987502D01*
X116411494Y-108928537D01*
X116477000Y-108874778D01*
X116542506Y-108928537D01*
X116652820Y-108987502D01*
X116772518Y-109023812D01*
X116897000Y-109036072D01*
X118597000Y-109036072D01*
X118721482Y-109023812D01*
X118841180Y-108987502D01*
X118951494Y-108928537D01*
X119017000Y-108874778D01*
X119082506Y-108928537D01*
X119192820Y-108987502D01*
X119312518Y-109023812D01*
X119437000Y-109036072D01*
X121137000Y-109036072D01*
X121261482Y-109023812D01*
X121381180Y-108987502D01*
X121491494Y-108928537D01*
X121557000Y-108874778D01*
X121622506Y-108928537D01*
X121732820Y-108987502D01*
X121852518Y-109023812D01*
X121977000Y-109036072D01*
X123677000Y-109036072D01*
X123801482Y-109023812D01*
X123921180Y-108987502D01*
X124031494Y-108928537D01*
X124097000Y-108874778D01*
X124162506Y-108928537D01*
X124272820Y-108987502D01*
X124392518Y-109023812D01*
X124517000Y-109036072D01*
X126217000Y-109036072D01*
X126341482Y-109023812D01*
X126461180Y-108987502D01*
X126571494Y-108928537D01*
X126637000Y-108874778D01*
X126702506Y-108928537D01*
X126812820Y-108987502D01*
X126932518Y-109023812D01*
X127057000Y-109036072D01*
X128757000Y-109036072D01*
X128881482Y-109023812D01*
X129001180Y-108987502D01*
X129111494Y-108928537D01*
X129177000Y-108874778D01*
X129242506Y-108928537D01*
X129352820Y-108987502D01*
X129472518Y-109023812D01*
X129597000Y-109036072D01*
X131297000Y-109036072D01*
X131421482Y-109023812D01*
X131541180Y-108987502D01*
X131651494Y-108928537D01*
X131717000Y-108874778D01*
X131782506Y-108928537D01*
X131892820Y-108987502D01*
X132012518Y-109023812D01*
X132102001Y-109032625D01*
X132102001Y-109301420D01*
X130430422Y-110973000D01*
X120590465Y-110973000D01*
X120546999Y-110968719D01*
X120503533Y-110973000D01*
X120503523Y-110973000D01*
X120373510Y-110985805D01*
X120206687Y-111036411D01*
X120052941Y-111118589D01*
X120052939Y-111118590D01*
X120052940Y-111118590D01*
X119951953Y-111201468D01*
X119951951Y-111201470D01*
X119918183Y-111229183D01*
X119890470Y-111262951D01*
X118451956Y-112701466D01*
X118418183Y-112729183D01*
X118307589Y-112863942D01*
X118225411Y-113017688D01*
X118200971Y-113098256D01*
X118174806Y-113184509D01*
X118174805Y-113184511D01*
X118162000Y-113314524D01*
X118162000Y-113314531D01*
X118157719Y-113358000D01*
X118162000Y-113401469D01*
X118162001Y-120222636D01*
X118076494Y-120152463D01*
X117966180Y-120093498D01*
X117846482Y-120057188D01*
X117722000Y-120044928D01*
X116372000Y-120044928D01*
X116247518Y-120057188D01*
X116127820Y-120093498D01*
X116017506Y-120152463D01*
X115920815Y-120231815D01*
X115841463Y-120328506D01*
X115782498Y-120438820D01*
X115746188Y-120558518D01*
X115733928Y-120683000D01*
X115733928Y-122033000D01*
X115746188Y-122157482D01*
X115782498Y-122277180D01*
X115841463Y-122387494D01*
X115920815Y-122484185D01*
X116017506Y-122563537D01*
X116127820Y-122622502D01*
X116247518Y-122658812D01*
X116372000Y-122671072D01*
X117722000Y-122671072D01*
X117846482Y-122658812D01*
X117966180Y-122622502D01*
X118076494Y-122563537D01*
X118173185Y-122484185D01*
X118244487Y-122397303D01*
X118426482Y-122518907D01*
X118664887Y-122617658D01*
X118917976Y-122668000D01*
X119176024Y-122668000D01*
X119429113Y-122617658D01*
X119667518Y-122518907D01*
X119882077Y-122375544D01*
X120047000Y-122210621D01*
X120211923Y-122375544D01*
X120426482Y-122518907D01*
X120664887Y-122617658D01*
X120917976Y-122668000D01*
X121176024Y-122668000D01*
X121429113Y-122617658D01*
X121667518Y-122518907D01*
X121882077Y-122375544D01*
X122053681Y-122203940D01*
X122175773Y-122336303D01*
X122383371Y-122487473D01*
X122616472Y-122595238D01*
X122717600Y-122625910D01*
X122920000Y-122502224D01*
X122920000Y-121485000D01*
X123174000Y-121485000D01*
X123174000Y-122502224D01*
X123376400Y-122625910D01*
X123477528Y-122595238D01*
X123710629Y-122487473D01*
X123918227Y-122336303D01*
X124092344Y-122147537D01*
X124162363Y-122033000D01*
X132733928Y-122033000D01*
X132746188Y-122157482D01*
X132782498Y-122277180D01*
X132841463Y-122387494D01*
X132920815Y-122484185D01*
X133017506Y-122563537D01*
X133127820Y-122622502D01*
X133247518Y-122658812D01*
X133372000Y-122671072D01*
X133761250Y-122668000D01*
X133920000Y-122509250D01*
X133920000Y-121485000D01*
X132895750Y-121485000D01*
X132737000Y-121643750D01*
X132733928Y-122033000D01*
X124162363Y-122033000D01*
X124226289Y-121928430D01*
X124314915Y-121687401D01*
X124192085Y-121485000D01*
X123174000Y-121485000D01*
X122920000Y-121485000D01*
X122900000Y-121485000D01*
X122900000Y-121231000D01*
X122920000Y-121231000D01*
X122920000Y-120213776D01*
X123174000Y-120213776D01*
X123174000Y-121231000D01*
X124192085Y-121231000D01*
X124314915Y-121028599D01*
X124226289Y-120787570D01*
X124162364Y-120683000D01*
X132733928Y-120683000D01*
X132737000Y-121072250D01*
X132895750Y-121231000D01*
X133920000Y-121231000D01*
X133920000Y-120206750D01*
X133761250Y-120048000D01*
X133372000Y-120044928D01*
X133247518Y-120057188D01*
X133127820Y-120093498D01*
X133017506Y-120152463D01*
X132920815Y-120231815D01*
X132841463Y-120328506D01*
X132782498Y-120438820D01*
X132746188Y-120558518D01*
X132733928Y-120683000D01*
X124162364Y-120683000D01*
X124092344Y-120568463D01*
X123918227Y-120379697D01*
X123710629Y-120228527D01*
X123477528Y-120120762D01*
X123376400Y-120090090D01*
X123174000Y-120213776D01*
X122920000Y-120213776D01*
X122717600Y-120090090D01*
X122616472Y-120120762D01*
X122383371Y-120228527D01*
X122175773Y-120379697D01*
X122053681Y-120512060D01*
X121882077Y-120340456D01*
X121667518Y-120197093D01*
X121429113Y-120098342D01*
X121176024Y-120048000D01*
X120917976Y-120048000D01*
X120664887Y-120098342D01*
X120426482Y-120197093D01*
X120211923Y-120340456D01*
X120047000Y-120505379D01*
X119932000Y-120390379D01*
X119932000Y-113724578D01*
X120913579Y-112743000D01*
X130753531Y-112743000D01*
X130797000Y-112747281D01*
X130840469Y-112743000D01*
X130840477Y-112743000D01*
X130970490Y-112730195D01*
X131137313Y-112679589D01*
X131291059Y-112597411D01*
X131425817Y-112486817D01*
X131453534Y-112453044D01*
X133582049Y-110324530D01*
X133615817Y-110296817D01*
X133671324Y-110229183D01*
X133726411Y-110162059D01*
X133749646Y-110118589D01*
X133808589Y-110008313D01*
X133859195Y-109841490D01*
X133872000Y-109711477D01*
X133872000Y-109711469D01*
X133876281Y-109668000D01*
X133872000Y-109624531D01*
X133872000Y-109032625D01*
X133961482Y-109023812D01*
X134081180Y-108987502D01*
X134191494Y-108928537D01*
X134257000Y-108874778D01*
X134322506Y-108928537D01*
X134432820Y-108987502D01*
X134552518Y-109023812D01*
X134677000Y-109036072D01*
X136377000Y-109036072D01*
X136501482Y-109023812D01*
X136621180Y-108987502D01*
X136731494Y-108928537D01*
X136797000Y-108874778D01*
X136862506Y-108928537D01*
X136972820Y-108987502D01*
X137092518Y-109023812D01*
X137182000Y-109032625D01*
X137182001Y-120370378D01*
X137047000Y-120505379D01*
X136882077Y-120340456D01*
X136667518Y-120197093D01*
X136429113Y-120098342D01*
X136176024Y-120048000D01*
X135917976Y-120048000D01*
X135664887Y-120098342D01*
X135426482Y-120197093D01*
X135244487Y-120318697D01*
X135173185Y-120231815D01*
X135076494Y-120152463D01*
X134966180Y-120093498D01*
X134846482Y-120057188D01*
X134722000Y-120044928D01*
X134332750Y-120048000D01*
X134174000Y-120206750D01*
X134174000Y-121231000D01*
X134194000Y-121231000D01*
X134194000Y-121485000D01*
X134174000Y-121485000D01*
X134174000Y-122509250D01*
X134332750Y-122668000D01*
X134722000Y-122671072D01*
X134846482Y-122658812D01*
X134966180Y-122622502D01*
X135076494Y-122563537D01*
X135173185Y-122484185D01*
X135244487Y-122397303D01*
X135426482Y-122518907D01*
X135664887Y-122617658D01*
X135917976Y-122668000D01*
X136176024Y-122668000D01*
X136429113Y-122617658D01*
X136667518Y-122518907D01*
X136882077Y-122375544D01*
X137047000Y-122210621D01*
X137162000Y-122325621D01*
X137162001Y-123069545D01*
X137129795Y-123117744D01*
X137051774Y-123306102D01*
X137012000Y-123506061D01*
X137012000Y-123709939D01*
X137051774Y-123909898D01*
X137129795Y-124098256D01*
X137243063Y-124267774D01*
X137387226Y-124411937D01*
X137556744Y-124525205D01*
X137745102Y-124603226D01*
X137945061Y-124643000D01*
X138148939Y-124643000D01*
X138348898Y-124603226D01*
X138537256Y-124525205D01*
X138706774Y-124411937D01*
X138850937Y-124267774D01*
X138964205Y-124098256D01*
X139042226Y-123909898D01*
X139082000Y-123709939D01*
X139082000Y-123506061D01*
X139042226Y-123306102D01*
X138964205Y-123117744D01*
X138932000Y-123069546D01*
X138932000Y-122325621D01*
X139047000Y-122210621D01*
X139162000Y-122325621D01*
X139162001Y-123564521D01*
X139157719Y-123608000D01*
X139174805Y-123781490D01*
X139225412Y-123948313D01*
X139307590Y-124102059D01*
X139390468Y-124203046D01*
X139390469Y-124203047D01*
X139418184Y-124236817D01*
X139451951Y-124264529D01*
X140390470Y-125203049D01*
X140418183Y-125236817D01*
X140451951Y-125264530D01*
X140451953Y-125264532D01*
X140552941Y-125347411D01*
X140706686Y-125429589D01*
X140873510Y-125480195D01*
X141003523Y-125493000D01*
X141003531Y-125493000D01*
X141047000Y-125497281D01*
X141090469Y-125493000D01*
X156003531Y-125493000D01*
X156047000Y-125497281D01*
X156090469Y-125493000D01*
X156090477Y-125493000D01*
X156220490Y-125480195D01*
X156387313Y-125429589D01*
X156541059Y-125347411D01*
X156675817Y-125236817D01*
X156703534Y-125203044D01*
X157642050Y-124264529D01*
X157675817Y-124236817D01*
X157703533Y-124203046D01*
X157786411Y-124102059D01*
X157868589Y-123948314D01*
X157919195Y-123781490D01*
X157920554Y-123767687D01*
X157932000Y-123651477D01*
X157932000Y-123651469D01*
X157936281Y-123608000D01*
X157932000Y-123564531D01*
X157932000Y-122325621D01*
X158064544Y-122193077D01*
X158207907Y-121978518D01*
X158306658Y-121740113D01*
X158357000Y-121487024D01*
X158357000Y-121228976D01*
X158306658Y-120975887D01*
X158207907Y-120737482D01*
X158064544Y-120522923D01*
X157882077Y-120340456D01*
X157667518Y-120197093D01*
X157429113Y-120098342D01*
X157176024Y-120048000D01*
X156917976Y-120048000D01*
X156664887Y-120098342D01*
X156426482Y-120197093D01*
X156211923Y-120340456D01*
X156047000Y-120505379D01*
X155882077Y-120340456D01*
X155667518Y-120197093D01*
X155429113Y-120098342D01*
X155176024Y-120048000D01*
X154917976Y-120048000D01*
X154664887Y-120098342D01*
X154426482Y-120197093D01*
X154211923Y-120340456D01*
X154047000Y-120505379D01*
X153932000Y-120390379D01*
X153932000Y-119974578D01*
X154413579Y-119493000D01*
X164753531Y-119493000D01*
X164797000Y-119497281D01*
X164840469Y-119493000D01*
X164840477Y-119493000D01*
X164970490Y-119480195D01*
X165137313Y-119429589D01*
X165291059Y-119347411D01*
X165425817Y-119236817D01*
X165453534Y-119203044D01*
X169392049Y-115264530D01*
X169425817Y-115236817D01*
X169536411Y-115102059D01*
X169618589Y-114948313D01*
X169669195Y-114781490D01*
X169682000Y-114651477D01*
X169682000Y-114651467D01*
X169686281Y-114608001D01*
X169682000Y-114564535D01*
X169682000Y-108743000D01*
X175208928Y-108743000D01*
X175208928Y-109358000D01*
X175221188Y-109482482D01*
X175257498Y-109602180D01*
X175316463Y-109712494D01*
X175395815Y-109809185D01*
X175492506Y-109888537D01*
X175602820Y-109947502D01*
X175722518Y-109983812D01*
X175847000Y-109996072D01*
X177247000Y-109996072D01*
X177371482Y-109983812D01*
X177491180Y-109947502D01*
X177601494Y-109888537D01*
X177698185Y-109809185D01*
X177777537Y-109712494D01*
X177836502Y-109602180D01*
X177872812Y-109482482D01*
X177885072Y-109358000D01*
X177885072Y-107258000D01*
X177872812Y-107133518D01*
X177849595Y-107056983D01*
X177913579Y-106993000D01*
X179768627Y-106993000D01*
X179757498Y-107013820D01*
X179721188Y-107133518D01*
X179708928Y-107258000D01*
X179708928Y-109358000D01*
X179721188Y-109482482D01*
X179757498Y-109602180D01*
X179816463Y-109712494D01*
X179895815Y-109809185D01*
X179992506Y-109888537D01*
X180102820Y-109947502D01*
X180222518Y-109983812D01*
X180347000Y-109996072D01*
X181747000Y-109996072D01*
X181871482Y-109983812D01*
X181991180Y-109947502D01*
X182101494Y-109888537D01*
X182198185Y-109809185D01*
X182277537Y-109712494D01*
X182336502Y-109602180D01*
X182372812Y-109482482D01*
X182385072Y-109358000D01*
X182385072Y-107258000D01*
X182372812Y-107133518D01*
X182336502Y-107013820D01*
X182325373Y-106993000D01*
X182589546Y-106993000D01*
X182607498Y-107052180D01*
X182666463Y-107162494D01*
X182745815Y-107259185D01*
X182842506Y-107338537D01*
X182952820Y-107397502D01*
X183072518Y-107433812D01*
X183197000Y-107446072D01*
X184333494Y-107446072D01*
X185562001Y-108674580D01*
X185562000Y-118329627D01*
X185541180Y-118318498D01*
X185421482Y-118282188D01*
X185297000Y-118269928D01*
X183197000Y-118269928D01*
X183072518Y-118282188D01*
X182952820Y-118318498D01*
X182842506Y-118377463D01*
X182745815Y-118456815D01*
X182666463Y-118553506D01*
X182607498Y-118663820D01*
X182571188Y-118783518D01*
X182558928Y-118908000D01*
X182558928Y-120308000D01*
X182571188Y-120432482D01*
X182607498Y-120552180D01*
X182666463Y-120662494D01*
X182745815Y-120759185D01*
X182842506Y-120838537D01*
X182952820Y-120897502D01*
X183072518Y-120933812D01*
X183197000Y-120946072D01*
X185297000Y-120946072D01*
X185421482Y-120933812D01*
X185541180Y-120897502D01*
X185562000Y-120886373D01*
X185562000Y-121541421D01*
X184333494Y-122769928D01*
X183197000Y-122769928D01*
X183072518Y-122782188D01*
X182952820Y-122818498D01*
X182842506Y-122877463D01*
X182745815Y-122956815D01*
X182666463Y-123053506D01*
X182607498Y-123163820D01*
X182571188Y-123283518D01*
X182558928Y-123408000D01*
X182558928Y-124808000D01*
X182571188Y-124932482D01*
X182607498Y-125052180D01*
X182666463Y-125162494D01*
X182745815Y-125259185D01*
X182842506Y-125338537D01*
X182952820Y-125397502D01*
X183072518Y-125433812D01*
X183197000Y-125446072D01*
X185297000Y-125446072D01*
X185421482Y-125433812D01*
X185541180Y-125397502D01*
X185651494Y-125338537D01*
X185748185Y-125259185D01*
X185827537Y-125162494D01*
X185886502Y-125052180D01*
X185922812Y-124932482D01*
X185935072Y-124808000D01*
X185935072Y-123671506D01*
X187042050Y-122564529D01*
X187075817Y-122536817D01*
X187119012Y-122484185D01*
X187186411Y-122402059D01*
X187268588Y-122248314D01*
X187268589Y-122248313D01*
X187319195Y-122081490D01*
X187332000Y-121951477D01*
X187332000Y-121951469D01*
X187336281Y-121908000D01*
X187332000Y-121864531D01*
X187332000Y-118908000D01*
X191658928Y-118908000D01*
X191658928Y-120308000D01*
X191671188Y-120432482D01*
X191707498Y-120552180D01*
X191766463Y-120662494D01*
X191845815Y-120759185D01*
X191942506Y-120838537D01*
X192052820Y-120897502D01*
X192172518Y-120933812D01*
X192297000Y-120946072D01*
X194397000Y-120946072D01*
X194521482Y-120933812D01*
X194641180Y-120897502D01*
X194751494Y-120838537D01*
X194848185Y-120759185D01*
X194927537Y-120662494D01*
X194986502Y-120552180D01*
X195022812Y-120432482D01*
X195035072Y-120308000D01*
X195035072Y-118908000D01*
X195022812Y-118783518D01*
X194986502Y-118663820D01*
X194927537Y-118553506D01*
X194848185Y-118456815D01*
X194751494Y-118377463D01*
X194641180Y-118318498D01*
X194521482Y-118282188D01*
X194397000Y-118269928D01*
X192297000Y-118269928D01*
X192172518Y-118282188D01*
X192052820Y-118318498D01*
X191942506Y-118377463D01*
X191845815Y-118456815D01*
X191766463Y-118553506D01*
X191707498Y-118663820D01*
X191671188Y-118783518D01*
X191658928Y-118908000D01*
X187332000Y-118908000D01*
X187332000Y-116358000D01*
X195208928Y-116358000D01*
X195208928Y-118458000D01*
X195221188Y-118582482D01*
X195257498Y-118702180D01*
X195316463Y-118812494D01*
X195395815Y-118909185D01*
X195492506Y-118988537D01*
X195602820Y-119047502D01*
X195662001Y-119065454D01*
X195662000Y-120569545D01*
X195629795Y-120617744D01*
X195551774Y-120806102D01*
X195512000Y-121006061D01*
X195512000Y-121209939D01*
X195551774Y-121409898D01*
X195629795Y-121598256D01*
X195743063Y-121767774D01*
X195887226Y-121911937D01*
X196056744Y-122025205D01*
X196245102Y-122103226D01*
X196445061Y-122143000D01*
X196648939Y-122143000D01*
X196848898Y-122103226D01*
X197037256Y-122025205D01*
X197206774Y-121911937D01*
X197350937Y-121767774D01*
X197464205Y-121598256D01*
X197542226Y-121409898D01*
X197582000Y-121209939D01*
X197582000Y-121006061D01*
X197542226Y-120806102D01*
X197464205Y-120617744D01*
X197432000Y-120569546D01*
X197432000Y-119065454D01*
X197491180Y-119047502D01*
X197601494Y-118988537D01*
X197698185Y-118909185D01*
X197777537Y-118812494D01*
X197836502Y-118702180D01*
X197872812Y-118582482D01*
X197885072Y-118458000D01*
X197885072Y-116358000D01*
X199708928Y-116358000D01*
X199708928Y-118458000D01*
X199721188Y-118582482D01*
X199757498Y-118702180D01*
X199816463Y-118812494D01*
X199895815Y-118909185D01*
X199992506Y-118988537D01*
X200102820Y-119047502D01*
X200222518Y-119083812D01*
X200347000Y-119096072D01*
X201747000Y-119096072D01*
X201871482Y-119083812D01*
X201991180Y-119047502D01*
X202101494Y-118988537D01*
X202198185Y-118909185D01*
X202277537Y-118812494D01*
X202336502Y-118702180D01*
X202372812Y-118582482D01*
X202385072Y-118458000D01*
X202385072Y-116358000D01*
X202372812Y-116233518D01*
X202336502Y-116113820D01*
X202277537Y-116003506D01*
X202198185Y-115906815D01*
X202101494Y-115827463D01*
X201991180Y-115768498D01*
X201871482Y-115732188D01*
X201747000Y-115719928D01*
X200347000Y-115719928D01*
X200222518Y-115732188D01*
X200102820Y-115768498D01*
X199992506Y-115827463D01*
X199895815Y-115906815D01*
X199816463Y-116003506D01*
X199757498Y-116113820D01*
X199721188Y-116233518D01*
X199708928Y-116358000D01*
X197885072Y-116358000D01*
X197872812Y-116233518D01*
X197836502Y-116113820D01*
X197777537Y-116003506D01*
X197698185Y-115906815D01*
X197601494Y-115827463D01*
X197491180Y-115768498D01*
X197371482Y-115732188D01*
X197247000Y-115719928D01*
X195847000Y-115719928D01*
X195722518Y-115732188D01*
X195602820Y-115768498D01*
X195492506Y-115827463D01*
X195395815Y-115906815D01*
X195316463Y-116003506D01*
X195257498Y-116113820D01*
X195221188Y-116233518D01*
X195208928Y-116358000D01*
X187332000Y-116358000D01*
X187332000Y-109193000D01*
X195208928Y-109193000D01*
X195208928Y-109358000D01*
X195221188Y-109482482D01*
X195257498Y-109602180D01*
X195316463Y-109712494D01*
X195395815Y-109809185D01*
X195492506Y-109888537D01*
X195602820Y-109947502D01*
X195722518Y-109983812D01*
X195847000Y-109996072D01*
X197247000Y-109996072D01*
X197371482Y-109983812D01*
X197491180Y-109947502D01*
X197601494Y-109888537D01*
X197698185Y-109809185D01*
X197777537Y-109712494D01*
X197836502Y-109602180D01*
X197872812Y-109482482D01*
X197885072Y-109358000D01*
X197885072Y-107258000D01*
X199708928Y-107258000D01*
X199708928Y-109358000D01*
X199721188Y-109482482D01*
X199757498Y-109602180D01*
X199816463Y-109712494D01*
X199895815Y-109809185D01*
X199992506Y-109888537D01*
X200102820Y-109947502D01*
X200222518Y-109983812D01*
X200347000Y-109996072D01*
X201747000Y-109996072D01*
X201871482Y-109983812D01*
X201991180Y-109947502D01*
X202101494Y-109888537D01*
X202198185Y-109809185D01*
X202277537Y-109712494D01*
X202336502Y-109602180D01*
X202372812Y-109482482D01*
X202385072Y-109358000D01*
X202385072Y-107258000D01*
X202372812Y-107133518D01*
X202336502Y-107013820D01*
X202277537Y-106903506D01*
X202198185Y-106806815D01*
X202101494Y-106727463D01*
X201991180Y-106668498D01*
X201871482Y-106632188D01*
X201747000Y-106619928D01*
X200347000Y-106619928D01*
X200222518Y-106632188D01*
X200102820Y-106668498D01*
X199992506Y-106727463D01*
X199895815Y-106806815D01*
X199816463Y-106903506D01*
X199757498Y-107013820D01*
X199721188Y-107133518D01*
X199708928Y-107258000D01*
X197885072Y-107258000D01*
X197872812Y-107133518D01*
X197836502Y-107013820D01*
X197777537Y-106903506D01*
X197698185Y-106806815D01*
X197601494Y-106727463D01*
X197491180Y-106668498D01*
X197371482Y-106632188D01*
X197248623Y-106620088D01*
X197350937Y-106517774D01*
X197464205Y-106348256D01*
X197542226Y-106159898D01*
X197582000Y-105959939D01*
X197582000Y-105756061D01*
X197542226Y-105556102D01*
X197464205Y-105367744D01*
X197350937Y-105198226D01*
X197206774Y-105054063D01*
X197037256Y-104940795D01*
X196848898Y-104862774D01*
X196648939Y-104823000D01*
X196445061Y-104823000D01*
X196245102Y-104862774D01*
X196056744Y-104940795D01*
X196008546Y-104973000D01*
X194861468Y-104973000D01*
X194848185Y-104956815D01*
X194751494Y-104877463D01*
X194641180Y-104818498D01*
X194521482Y-104782188D01*
X194397000Y-104769928D01*
X192297000Y-104769928D01*
X192172518Y-104782188D01*
X192052820Y-104818498D01*
X191942506Y-104877463D01*
X191845815Y-104956815D01*
X191766463Y-105053506D01*
X191707498Y-105163820D01*
X191671188Y-105283518D01*
X191658928Y-105408000D01*
X191658928Y-106808000D01*
X191671188Y-106932482D01*
X191707498Y-107052180D01*
X191766463Y-107162494D01*
X191845815Y-107259185D01*
X191942506Y-107338537D01*
X192052820Y-107397502D01*
X192136876Y-107423000D01*
X186813579Y-107423000D01*
X185935072Y-106544494D01*
X185935072Y-105671506D01*
X188842049Y-102764530D01*
X188875817Y-102736817D01*
X188904244Y-102702180D01*
X188986410Y-102602060D01*
X188996875Y-102582482D01*
X189068589Y-102448313D01*
X189119195Y-102281490D01*
X189132000Y-102151477D01*
X189132000Y-102151467D01*
X189136281Y-102108001D01*
X189132000Y-102064535D01*
X189132000Y-100908000D01*
X191658928Y-100908000D01*
X191658928Y-102308000D01*
X191671188Y-102432482D01*
X191707498Y-102552180D01*
X191766463Y-102662494D01*
X191845815Y-102759185D01*
X191942506Y-102838537D01*
X192052820Y-102897502D01*
X192172518Y-102933812D01*
X192297000Y-102946072D01*
X194397000Y-102946072D01*
X194521482Y-102933812D01*
X194641180Y-102897502D01*
X194751494Y-102838537D01*
X194848185Y-102759185D01*
X194927537Y-102662494D01*
X194986502Y-102552180D01*
X195022812Y-102432482D01*
X195035072Y-102308000D01*
X195035072Y-100908000D01*
X195022812Y-100783518D01*
X194986502Y-100663820D01*
X194927537Y-100553506D01*
X194848185Y-100456815D01*
X194751494Y-100377463D01*
X194641180Y-100318498D01*
X194521482Y-100282188D01*
X194397000Y-100269928D01*
X192297000Y-100269928D01*
X192172518Y-100282188D01*
X192052820Y-100318498D01*
X191942506Y-100377463D01*
X191845815Y-100456815D01*
X191766463Y-100553506D01*
X191707498Y-100663820D01*
X191671188Y-100783518D01*
X191658928Y-100908000D01*
X189132000Y-100908000D01*
X189132000Y-97446072D01*
X189297000Y-97446072D01*
X189421482Y-97433812D01*
X189541180Y-97397502D01*
X189651494Y-97338537D01*
X189748185Y-97259185D01*
X189827537Y-97162494D01*
X189886502Y-97052180D01*
X189922812Y-96932482D01*
X189935072Y-96808000D01*
X189935072Y-95408000D01*
X195658928Y-95408000D01*
X195658928Y-96808000D01*
X195671188Y-96932482D01*
X195707498Y-97052180D01*
X195766463Y-97162494D01*
X195845815Y-97259185D01*
X195942506Y-97338537D01*
X196052820Y-97397502D01*
X196172518Y-97433812D01*
X196297000Y-97446072D01*
X198397000Y-97446072D01*
X198521482Y-97433812D01*
X198641180Y-97397502D01*
X198751494Y-97338537D01*
X198848185Y-97259185D01*
X198927537Y-97162494D01*
X198986502Y-97052180D01*
X199004454Y-96993000D01*
X200008546Y-96993000D01*
X200056744Y-97025205D01*
X200245102Y-97103226D01*
X200445061Y-97143000D01*
X200648939Y-97143000D01*
X200848898Y-97103226D01*
X201037256Y-97025205D01*
X201206774Y-96911937D01*
X201350937Y-96767774D01*
X201464205Y-96598256D01*
X201542226Y-96409898D01*
X201582000Y-96209939D01*
X201582000Y-96006061D01*
X201542226Y-95806102D01*
X201464205Y-95617744D01*
X201350937Y-95448226D01*
X201206774Y-95304063D01*
X201037256Y-95190795D01*
X200848898Y-95112774D01*
X200648939Y-95073000D01*
X200445061Y-95073000D01*
X200245102Y-95112774D01*
X200056744Y-95190795D01*
X200008546Y-95223000D01*
X199004454Y-95223000D01*
X198986502Y-95163820D01*
X198927537Y-95053506D01*
X198848185Y-94956815D01*
X198751494Y-94877463D01*
X198641180Y-94818498D01*
X198521482Y-94782188D01*
X198397000Y-94769928D01*
X196297000Y-94769928D01*
X196172518Y-94782188D01*
X196052820Y-94818498D01*
X195942506Y-94877463D01*
X195845815Y-94956815D01*
X195766463Y-95053506D01*
X195707498Y-95163820D01*
X195671188Y-95283518D01*
X195658928Y-95408000D01*
X189935072Y-95408000D01*
X189922812Y-95283518D01*
X189886502Y-95163820D01*
X189827537Y-95053506D01*
X189748185Y-94956815D01*
X189651494Y-94877463D01*
X189541180Y-94818498D01*
X189421482Y-94782188D01*
X189297000Y-94769928D01*
X187197000Y-94769928D01*
X187072518Y-94782188D01*
X186952820Y-94818498D01*
X186842506Y-94877463D01*
X186745815Y-94956815D01*
X186666463Y-95053506D01*
X186607498Y-95163820D01*
X186589546Y-95223000D01*
X184413579Y-95223000D01*
X181132000Y-91941422D01*
X181132000Y-90908000D01*
X186558928Y-90908000D01*
X186558928Y-92308000D01*
X186571188Y-92432482D01*
X186607498Y-92552180D01*
X186666463Y-92662494D01*
X186745815Y-92759185D01*
X186842506Y-92838537D01*
X186952820Y-92897502D01*
X187072518Y-92933812D01*
X187197000Y-92946072D01*
X189297000Y-92946072D01*
X189421482Y-92933812D01*
X189541180Y-92897502D01*
X189651494Y-92838537D01*
X189748185Y-92759185D01*
X189827537Y-92662494D01*
X189886502Y-92552180D01*
X189922812Y-92432482D01*
X189935072Y-92308000D01*
X189935072Y-90908000D01*
X195658928Y-90908000D01*
X195658928Y-92308000D01*
X195671188Y-92432482D01*
X195707498Y-92552180D01*
X195766463Y-92662494D01*
X195845815Y-92759185D01*
X195942506Y-92838537D01*
X196052820Y-92897502D01*
X196172518Y-92933812D01*
X196297000Y-92946072D01*
X198397000Y-92946072D01*
X198521482Y-92933812D01*
X198641180Y-92897502D01*
X198751494Y-92838537D01*
X198848185Y-92759185D01*
X198927537Y-92662494D01*
X198986502Y-92552180D01*
X199022812Y-92432482D01*
X199035072Y-92308000D01*
X199035072Y-90908000D01*
X199022812Y-90783518D01*
X198986502Y-90663820D01*
X198927537Y-90553506D01*
X198848185Y-90456815D01*
X198751494Y-90377463D01*
X198641180Y-90318498D01*
X198521482Y-90282188D01*
X198397000Y-90269928D01*
X196297000Y-90269928D01*
X196172518Y-90282188D01*
X196052820Y-90318498D01*
X195942506Y-90377463D01*
X195845815Y-90456815D01*
X195766463Y-90553506D01*
X195707498Y-90663820D01*
X195671188Y-90783518D01*
X195658928Y-90908000D01*
X189935072Y-90908000D01*
X189922812Y-90783518D01*
X189886502Y-90663820D01*
X189827537Y-90553506D01*
X189748185Y-90456815D01*
X189651494Y-90377463D01*
X189541180Y-90318498D01*
X189421482Y-90282188D01*
X189297000Y-90269928D01*
X187197000Y-90269928D01*
X187072518Y-90282188D01*
X186952820Y-90318498D01*
X186842506Y-90377463D01*
X186745815Y-90456815D01*
X186666463Y-90553506D01*
X186607498Y-90663820D01*
X186571188Y-90783518D01*
X186558928Y-90908000D01*
X181132000Y-90908000D01*
X181132000Y-88446072D01*
X181297000Y-88446072D01*
X181421482Y-88433812D01*
X181541180Y-88397502D01*
X181651494Y-88338537D01*
X181748185Y-88259185D01*
X181827537Y-88162494D01*
X181886502Y-88052180D01*
X181922812Y-87932482D01*
X181935072Y-87808000D01*
X181935072Y-86408000D01*
X181922812Y-86283518D01*
X181886502Y-86163820D01*
X181827537Y-86053506D01*
X181748185Y-85956815D01*
X181651494Y-85877463D01*
X181541180Y-85818498D01*
X181421482Y-85782188D01*
X181297000Y-85769928D01*
X179197000Y-85769928D01*
X179072518Y-85782188D01*
X178952820Y-85818498D01*
X178842506Y-85877463D01*
X178745815Y-85956815D01*
X178666463Y-86053506D01*
X178607498Y-86163820D01*
X178571188Y-86283518D01*
X178558928Y-86408000D01*
X178558928Y-87808000D01*
X178571188Y-87932482D01*
X178607498Y-88052180D01*
X178666463Y-88162494D01*
X178745815Y-88259185D01*
X178842506Y-88338537D01*
X178952820Y-88397502D01*
X179072518Y-88433812D01*
X179197000Y-88446072D01*
X179362000Y-88446072D01*
X179362001Y-92264521D01*
X179357719Y-92308000D01*
X179374805Y-92481490D01*
X179425412Y-92648313D01*
X179507590Y-92802059D01*
X179590468Y-92903046D01*
X179590471Y-92903049D01*
X179618184Y-92936817D01*
X179651951Y-92964530D01*
X183390470Y-96703049D01*
X183418183Y-96736817D01*
X183451951Y-96764530D01*
X183451953Y-96764532D01*
X183552941Y-96847411D01*
X183706686Y-96929589D01*
X183873510Y-96980195D01*
X184003523Y-96993000D01*
X184003531Y-96993000D01*
X184047000Y-96997281D01*
X184090469Y-96993000D01*
X186589546Y-96993000D01*
X186607498Y-97052180D01*
X186666463Y-97162494D01*
X186745815Y-97259185D01*
X186842506Y-97338537D01*
X186952820Y-97397502D01*
X187072518Y-97433812D01*
X187197000Y-97446072D01*
X187362000Y-97446072D01*
X187362001Y-101741420D01*
X184333494Y-104769928D01*
X183197000Y-104769928D01*
X183072518Y-104782188D01*
X182952820Y-104818498D01*
X182842506Y-104877463D01*
X182745815Y-104956815D01*
X182666463Y-105053506D01*
X182607498Y-105163820D01*
X182589546Y-105223000D01*
X177590469Y-105223000D01*
X177547000Y-105218719D01*
X177503531Y-105223000D01*
X177503523Y-105223000D01*
X177373510Y-105235805D01*
X177206686Y-105286411D01*
X177052941Y-105368589D01*
X176951953Y-105451468D01*
X176951951Y-105451470D01*
X176918183Y-105479183D01*
X176890470Y-105512951D01*
X175951951Y-106451471D01*
X175918184Y-106479183D01*
X175890471Y-106512951D01*
X175890468Y-106512954D01*
X175807590Y-106613941D01*
X175802022Y-106624358D01*
X175722518Y-106632188D01*
X175602820Y-106668498D01*
X175492506Y-106727463D01*
X175395815Y-106806815D01*
X175316463Y-106903506D01*
X175279317Y-106973000D01*
X169163579Y-106973000D01*
X164453534Y-102262956D01*
X164425817Y-102229183D01*
X164291059Y-102118589D01*
X164137313Y-102036411D01*
X163970490Y-101985805D01*
X163840477Y-101973000D01*
X163840469Y-101973000D01*
X163797000Y-101968719D01*
X163753531Y-101973000D01*
X133163579Y-101973000D01*
X129682000Y-98491422D01*
X129682000Y-94901469D01*
X129686281Y-94858000D01*
X129682000Y-94814531D01*
X129682000Y-94814523D01*
X129669195Y-94684510D01*
X129618589Y-94517687D01*
X129536411Y-94363941D01*
X129425817Y-94229183D01*
X129392051Y-94201472D01*
X128658579Y-93468000D01*
X159208928Y-93468000D01*
X159208928Y-95168000D01*
X159221188Y-95292482D01*
X159257498Y-95412180D01*
X159316463Y-95522494D01*
X159370222Y-95588000D01*
X159316463Y-95653506D01*
X159257498Y-95763820D01*
X159221188Y-95883518D01*
X159208928Y-96008000D01*
X159208928Y-97708000D01*
X159221188Y-97832482D01*
X159257498Y-97952180D01*
X159316463Y-98062494D01*
X159370222Y-98128000D01*
X159316463Y-98193506D01*
X159257498Y-98303820D01*
X159221188Y-98423518D01*
X159208928Y-98548000D01*
X159208928Y-100248000D01*
X159221188Y-100372482D01*
X159257498Y-100492180D01*
X159316463Y-100602494D01*
X159395815Y-100699185D01*
X159492506Y-100778537D01*
X159602820Y-100837502D01*
X159722518Y-100873812D01*
X159847000Y-100886072D01*
X163347000Y-100886072D01*
X163471482Y-100873812D01*
X163591180Y-100837502D01*
X163701494Y-100778537D01*
X163798185Y-100699185D01*
X163877537Y-100602494D01*
X163936502Y-100492180D01*
X163972812Y-100372482D01*
X163974238Y-100358000D01*
X165208928Y-100358000D01*
X165208928Y-102458000D01*
X165221188Y-102582482D01*
X165257498Y-102702180D01*
X165316463Y-102812494D01*
X165395815Y-102909185D01*
X165492506Y-102988537D01*
X165602820Y-103047502D01*
X165722518Y-103083812D01*
X165847000Y-103096072D01*
X167247000Y-103096072D01*
X167371482Y-103083812D01*
X167491180Y-103047502D01*
X167601494Y-102988537D01*
X167698185Y-102909185D01*
X167777537Y-102812494D01*
X167836502Y-102702180D01*
X167872812Y-102582482D01*
X167885072Y-102458000D01*
X169708928Y-102458000D01*
X169721188Y-102582482D01*
X169757498Y-102702180D01*
X169816463Y-102812494D01*
X169895815Y-102909185D01*
X169992506Y-102988537D01*
X170102820Y-103047502D01*
X170222518Y-103083812D01*
X170347000Y-103096072D01*
X170761250Y-103093000D01*
X170920000Y-102934250D01*
X170920000Y-101535000D01*
X171174000Y-101535000D01*
X171174000Y-102934250D01*
X171332750Y-103093000D01*
X171747000Y-103096072D01*
X171871482Y-103083812D01*
X171991180Y-103047502D01*
X172101494Y-102988537D01*
X172198185Y-102909185D01*
X172277537Y-102812494D01*
X172336502Y-102702180D01*
X172372812Y-102582482D01*
X172385072Y-102458000D01*
X172382000Y-101693750D01*
X172223250Y-101535000D01*
X171174000Y-101535000D01*
X170920000Y-101535000D01*
X169870750Y-101535000D01*
X169712000Y-101693750D01*
X169708928Y-102458000D01*
X167885072Y-102458000D01*
X167885072Y-100358000D01*
X169708928Y-100358000D01*
X169712000Y-101122250D01*
X169870750Y-101281000D01*
X170920000Y-101281000D01*
X170920000Y-99881750D01*
X171174000Y-99881750D01*
X171174000Y-101281000D01*
X172223250Y-101281000D01*
X172382000Y-101122250D01*
X172382861Y-100908000D01*
X182558928Y-100908000D01*
X182558928Y-102308000D01*
X182571188Y-102432482D01*
X182607498Y-102552180D01*
X182666463Y-102662494D01*
X182745815Y-102759185D01*
X182842506Y-102838537D01*
X182952820Y-102897502D01*
X183072518Y-102933812D01*
X183197000Y-102946072D01*
X185297000Y-102946072D01*
X185421482Y-102933812D01*
X185541180Y-102897502D01*
X185651494Y-102838537D01*
X185748185Y-102759185D01*
X185827537Y-102662494D01*
X185886502Y-102552180D01*
X185922812Y-102432482D01*
X185935072Y-102308000D01*
X185935072Y-100908000D01*
X185922812Y-100783518D01*
X185886502Y-100663820D01*
X185827537Y-100553506D01*
X185748185Y-100456815D01*
X185651494Y-100377463D01*
X185541180Y-100318498D01*
X185421482Y-100282188D01*
X185297000Y-100269928D01*
X183197000Y-100269928D01*
X183072518Y-100282188D01*
X182952820Y-100318498D01*
X182842506Y-100377463D01*
X182745815Y-100456815D01*
X182666463Y-100553506D01*
X182607498Y-100663820D01*
X182571188Y-100783518D01*
X182558928Y-100908000D01*
X172382861Y-100908000D01*
X172385072Y-100358000D01*
X172372812Y-100233518D01*
X172336502Y-100113820D01*
X172277537Y-100003506D01*
X172198185Y-99906815D01*
X172101494Y-99827463D01*
X171991180Y-99768498D01*
X171871482Y-99732188D01*
X171747000Y-99719928D01*
X171332750Y-99723000D01*
X171174000Y-99881750D01*
X170920000Y-99881750D01*
X170761250Y-99723000D01*
X170347000Y-99719928D01*
X170222518Y-99732188D01*
X170102820Y-99768498D01*
X169992506Y-99827463D01*
X169895815Y-99906815D01*
X169816463Y-100003506D01*
X169757498Y-100113820D01*
X169721188Y-100233518D01*
X169708928Y-100358000D01*
X167885072Y-100358000D01*
X167872812Y-100233518D01*
X167836502Y-100113820D01*
X167777537Y-100003506D01*
X167698185Y-99906815D01*
X167601494Y-99827463D01*
X167491180Y-99768498D01*
X167371482Y-99732188D01*
X167247000Y-99719928D01*
X165847000Y-99719928D01*
X165722518Y-99732188D01*
X165602820Y-99768498D01*
X165492506Y-99827463D01*
X165395815Y-99906815D01*
X165316463Y-100003506D01*
X165257498Y-100113820D01*
X165221188Y-100233518D01*
X165208928Y-100358000D01*
X163974238Y-100358000D01*
X163985072Y-100248000D01*
X163985072Y-98548000D01*
X163972812Y-98423518D01*
X163936502Y-98303820D01*
X163877537Y-98193506D01*
X163823778Y-98128000D01*
X163877537Y-98062494D01*
X163936502Y-97952180D01*
X163972812Y-97832482D01*
X163985072Y-97708000D01*
X163985072Y-96008000D01*
X163972812Y-95883518D01*
X163936502Y-95763820D01*
X163877537Y-95653506D01*
X163823778Y-95588000D01*
X163877537Y-95522494D01*
X163936502Y-95412180D01*
X163972812Y-95292482D01*
X163985072Y-95168000D01*
X163985072Y-93468000D01*
X163972812Y-93343518D01*
X163936502Y-93223820D01*
X163877537Y-93113506D01*
X163798185Y-93016815D01*
X163701494Y-92937463D01*
X163591180Y-92878498D01*
X163471482Y-92842188D01*
X163347000Y-92829928D01*
X159847000Y-92829928D01*
X159722518Y-92842188D01*
X159602820Y-92878498D01*
X159492506Y-92937463D01*
X159395815Y-93016815D01*
X159316463Y-93113506D01*
X159257498Y-93223820D01*
X159221188Y-93343518D01*
X159208928Y-93468000D01*
X128658579Y-93468000D01*
X124646650Y-89456072D01*
X126217000Y-89456072D01*
X126341482Y-89443812D01*
X126461180Y-89407502D01*
X126571494Y-89348537D01*
X126637000Y-89294778D01*
X126702506Y-89348537D01*
X126812820Y-89407502D01*
X126932518Y-89443812D01*
X127057000Y-89456072D01*
X128757000Y-89456072D01*
X128881482Y-89443812D01*
X129001180Y-89407502D01*
X129111494Y-89348537D01*
X129177000Y-89294778D01*
X129242506Y-89348537D01*
X129352820Y-89407502D01*
X129472518Y-89443812D01*
X129597000Y-89456072D01*
X131297000Y-89456072D01*
X131421482Y-89443812D01*
X131541180Y-89407502D01*
X131651494Y-89348537D01*
X131717000Y-89294778D01*
X131782506Y-89348537D01*
X131892820Y-89407502D01*
X132012518Y-89443812D01*
X132137000Y-89456072D01*
X133837000Y-89456072D01*
X133961482Y-89443812D01*
X134081180Y-89407502D01*
X134191494Y-89348537D01*
X134257000Y-89294778D01*
X134322506Y-89348537D01*
X134432820Y-89407502D01*
X134552518Y-89443812D01*
X134677000Y-89456072D01*
X136377000Y-89456072D01*
X136501482Y-89443812D01*
X136621180Y-89407502D01*
X136731494Y-89348537D01*
X136797000Y-89294778D01*
X136862506Y-89348537D01*
X136972820Y-89407502D01*
X137092518Y-89443812D01*
X137182001Y-89452625D01*
X137182001Y-90084521D01*
X137177719Y-90128000D01*
X137194805Y-90301490D01*
X137245412Y-90468313D01*
X137327590Y-90622059D01*
X137410468Y-90723046D01*
X137410471Y-90723049D01*
X137438184Y-90756817D01*
X137471951Y-90784529D01*
X138140470Y-91453049D01*
X138168183Y-91486817D01*
X138201951Y-91514530D01*
X138201953Y-91514532D01*
X138267823Y-91568590D01*
X138302941Y-91597411D01*
X138456687Y-91679589D01*
X138623510Y-91730195D01*
X138753523Y-91743000D01*
X138753531Y-91743000D01*
X138797000Y-91747281D01*
X138840469Y-91743000D01*
X163753531Y-91743000D01*
X163797000Y-91747281D01*
X163840469Y-91743000D01*
X163840477Y-91743000D01*
X163970490Y-91730195D01*
X164137313Y-91679589D01*
X164291059Y-91597411D01*
X164425817Y-91486817D01*
X164453534Y-91453044D01*
X165163579Y-90743000D01*
X165473574Y-90743000D01*
X165395815Y-90806815D01*
X165316463Y-90903506D01*
X165257498Y-91013820D01*
X165221188Y-91133518D01*
X165208928Y-91258000D01*
X165208928Y-93358000D01*
X165221188Y-93482482D01*
X165257498Y-93602180D01*
X165316463Y-93712494D01*
X165395815Y-93809185D01*
X165492506Y-93888537D01*
X165602820Y-93947502D01*
X165722518Y-93983812D01*
X165847000Y-93996072D01*
X167247000Y-93996072D01*
X167371482Y-93983812D01*
X167491180Y-93947502D01*
X167601494Y-93888537D01*
X167698185Y-93809185D01*
X167777537Y-93712494D01*
X167836502Y-93602180D01*
X167872812Y-93482482D01*
X167885072Y-93358000D01*
X167885072Y-91258000D01*
X167872812Y-91133518D01*
X167836502Y-91013820D01*
X167777537Y-90903506D01*
X167698185Y-90806815D01*
X167620426Y-90743000D01*
X169973574Y-90743000D01*
X169895815Y-90806815D01*
X169816463Y-90903506D01*
X169757498Y-91013820D01*
X169721188Y-91133518D01*
X169708928Y-91258000D01*
X169708928Y-93358000D01*
X169721188Y-93482482D01*
X169757498Y-93602180D01*
X169816463Y-93712494D01*
X169895815Y-93809185D01*
X169992506Y-93888537D01*
X170102820Y-93947502D01*
X170222518Y-93983812D01*
X170347000Y-93996072D01*
X171747000Y-93996072D01*
X171871482Y-93983812D01*
X171991180Y-93947502D01*
X172101494Y-93888537D01*
X172198185Y-93809185D01*
X172277537Y-93712494D01*
X172336502Y-93602180D01*
X172372812Y-93482482D01*
X172385072Y-93358000D01*
X172385072Y-91258000D01*
X172372812Y-91133518D01*
X172336502Y-91013820D01*
X172277537Y-90903506D01*
X172198185Y-90806815D01*
X172101494Y-90727463D01*
X171991180Y-90668498D01*
X171932000Y-90650546D01*
X171932000Y-90151465D01*
X171936281Y-90107999D01*
X171932000Y-90064533D01*
X171932000Y-90064523D01*
X171919195Y-89934510D01*
X171868589Y-89767687D01*
X171786411Y-89613941D01*
X171675817Y-89479183D01*
X171642044Y-89451466D01*
X171453534Y-89262956D01*
X171425817Y-89229183D01*
X171291059Y-89118589D01*
X171137313Y-89036411D01*
X170970490Y-88985805D01*
X170840477Y-88973000D01*
X170840469Y-88973000D01*
X170797000Y-88968719D01*
X170753531Y-88973000D01*
X164840469Y-88973000D01*
X164797000Y-88968719D01*
X164753531Y-88973000D01*
X164753523Y-88973000D01*
X164623510Y-88985805D01*
X164456686Y-89036411D01*
X164302941Y-89118589D01*
X164201953Y-89201468D01*
X164201951Y-89201470D01*
X164168183Y-89229183D01*
X164140470Y-89262951D01*
X163430422Y-89973000D01*
X139163579Y-89973000D01*
X138952000Y-89761422D01*
X138952000Y-89452625D01*
X139041482Y-89443812D01*
X139161180Y-89407502D01*
X139271494Y-89348537D01*
X139337000Y-89294778D01*
X139402506Y-89348537D01*
X139512820Y-89407502D01*
X139632518Y-89443812D01*
X139757000Y-89456072D01*
X141457000Y-89456072D01*
X141581482Y-89443812D01*
X141701180Y-89407502D01*
X141811494Y-89348537D01*
X141877000Y-89294778D01*
X141942506Y-89348537D01*
X142052820Y-89407502D01*
X142172518Y-89443812D01*
X142297000Y-89456072D01*
X143997000Y-89456072D01*
X144121482Y-89443812D01*
X144241180Y-89407502D01*
X144351494Y-89348537D01*
X144417000Y-89294778D01*
X144482506Y-89348537D01*
X144592820Y-89407502D01*
X144712518Y-89443812D01*
X144837000Y-89456072D01*
X146537000Y-89456072D01*
X146661482Y-89443812D01*
X146781180Y-89407502D01*
X146891494Y-89348537D01*
X146957000Y-89294778D01*
X147022506Y-89348537D01*
X147132820Y-89407502D01*
X147252518Y-89443812D01*
X147377000Y-89456072D01*
X149077000Y-89456072D01*
X149201482Y-89443812D01*
X149321180Y-89407502D01*
X149431494Y-89348537D01*
X149497000Y-89294778D01*
X149562506Y-89348537D01*
X149672820Y-89407502D01*
X149792518Y-89443812D01*
X149917000Y-89456072D01*
X151617000Y-89456072D01*
X151741482Y-89443812D01*
X151861180Y-89407502D01*
X151971494Y-89348537D01*
X152037000Y-89294778D01*
X152102506Y-89348537D01*
X152212820Y-89407502D01*
X152332518Y-89443812D01*
X152457000Y-89456072D01*
X154157000Y-89456072D01*
X154281482Y-89443812D01*
X154401180Y-89407502D01*
X154511494Y-89348537D01*
X154577000Y-89294778D01*
X154642506Y-89348537D01*
X154752820Y-89407502D01*
X154872518Y-89443812D01*
X154997000Y-89456072D01*
X156697000Y-89456072D01*
X156821482Y-89443812D01*
X156941180Y-89407502D01*
X157051494Y-89348537D01*
X157117000Y-89294778D01*
X157182506Y-89348537D01*
X157292820Y-89407502D01*
X157412518Y-89443812D01*
X157537000Y-89456072D01*
X159237000Y-89456072D01*
X159361482Y-89443812D01*
X159481180Y-89407502D01*
X159591494Y-89348537D01*
X159657000Y-89294778D01*
X159722506Y-89348537D01*
X159832820Y-89407502D01*
X159952518Y-89443812D01*
X160077000Y-89456072D01*
X161777000Y-89456072D01*
X161901482Y-89443812D01*
X162021180Y-89407502D01*
X162131494Y-89348537D01*
X162228185Y-89269185D01*
X162307537Y-89172494D01*
X162366502Y-89062180D01*
X162402812Y-88942482D01*
X162411625Y-88853000D01*
X174143531Y-88853000D01*
X174187000Y-88857281D01*
X174230469Y-88853000D01*
X174230477Y-88853000D01*
X174360490Y-88840195D01*
X174527313Y-88789589D01*
X174681059Y-88707411D01*
X174815817Y-88596817D01*
X174843534Y-88563044D01*
X177663579Y-85743000D01*
X186730422Y-85743000D01*
X187658928Y-86671507D01*
X187658928Y-87808000D01*
X187671188Y-87932482D01*
X187707498Y-88052180D01*
X187766463Y-88162494D01*
X187845815Y-88259185D01*
X187942506Y-88338537D01*
X188052820Y-88397502D01*
X188172518Y-88433812D01*
X188297000Y-88446072D01*
X190397000Y-88446072D01*
X190521482Y-88433812D01*
X190641180Y-88397502D01*
X190751494Y-88338537D01*
X190848185Y-88259185D01*
X190927537Y-88162494D01*
X190986502Y-88052180D01*
X191022812Y-87932482D01*
X191035072Y-87808000D01*
X191035072Y-86408000D01*
X191022812Y-86283518D01*
X190986502Y-86163820D01*
X190927537Y-86053506D01*
X190848185Y-85956815D01*
X190751494Y-85877463D01*
X190641180Y-85818498D01*
X190521482Y-85782188D01*
X190397000Y-85769928D01*
X189260507Y-85769928D01*
X187753534Y-84262956D01*
X187725817Y-84229183D01*
X187591059Y-84118589D01*
X187437313Y-84036411D01*
X187270490Y-83985805D01*
X187140477Y-83973000D01*
X187140469Y-83973000D01*
X187097000Y-83968719D01*
X187053531Y-83973000D01*
X177340465Y-83973000D01*
X177296999Y-83968719D01*
X177253533Y-83973000D01*
X177253523Y-83973000D01*
X177123510Y-83985805D01*
X176956687Y-84036411D01*
X176802941Y-84118589D01*
X176802939Y-84118590D01*
X176802940Y-84118590D01*
X176701953Y-84201468D01*
X176701951Y-84201470D01*
X176668183Y-84229183D01*
X176640470Y-84262951D01*
X173820422Y-87083000D01*
X162415072Y-87083000D01*
X162415072Y-85318000D01*
X162402812Y-85193518D01*
X162366502Y-85073820D01*
X162307537Y-84963506D01*
X162228185Y-84866815D01*
X162131494Y-84787463D01*
X162021180Y-84728498D01*
X161901482Y-84692188D01*
X161777000Y-84679928D01*
X160077000Y-84679928D01*
X159952518Y-84692188D01*
X159832820Y-84728498D01*
X159722506Y-84787463D01*
X159657000Y-84841222D01*
X159591494Y-84787463D01*
X159481180Y-84728498D01*
X159361482Y-84692188D01*
X159272000Y-84683375D01*
X159272000Y-84634578D01*
X160042044Y-83864535D01*
X160098898Y-83853226D01*
X160287256Y-83775205D01*
X160456774Y-83661937D01*
X160600937Y-83517774D01*
X160714205Y-83348256D01*
X160792226Y-83159898D01*
X160832000Y-82959939D01*
X160832000Y-82756061D01*
X160792226Y-82556102D01*
X160714205Y-82367744D01*
X160600937Y-82198226D01*
X160456774Y-82054063D01*
X160287256Y-81940795D01*
X160208083Y-81908000D01*
X178558928Y-81908000D01*
X178558928Y-83308000D01*
X178571188Y-83432482D01*
X178607498Y-83552180D01*
X178666463Y-83662494D01*
X178745815Y-83759185D01*
X178842506Y-83838537D01*
X178952820Y-83897502D01*
X179072518Y-83933812D01*
X179197000Y-83946072D01*
X181297000Y-83946072D01*
X181421482Y-83933812D01*
X181541180Y-83897502D01*
X181651494Y-83838537D01*
X181748185Y-83759185D01*
X181827537Y-83662494D01*
X181886502Y-83552180D01*
X181922812Y-83432482D01*
X181935072Y-83308000D01*
X181935072Y-81908000D01*
X187658928Y-81908000D01*
X187658928Y-83308000D01*
X187671188Y-83432482D01*
X187707498Y-83552180D01*
X187766463Y-83662494D01*
X187845815Y-83759185D01*
X187942506Y-83838537D01*
X188052820Y-83897502D01*
X188172518Y-83933812D01*
X188297000Y-83946072D01*
X190397000Y-83946072D01*
X190521482Y-83933812D01*
X190641180Y-83897502D01*
X190751494Y-83838537D01*
X190848185Y-83759185D01*
X190927537Y-83662494D01*
X190986502Y-83552180D01*
X191022812Y-83432482D01*
X191035072Y-83308000D01*
X191035072Y-81908000D01*
X191022812Y-81783518D01*
X190986502Y-81663820D01*
X190927537Y-81553506D01*
X190848185Y-81456815D01*
X190751494Y-81377463D01*
X190641180Y-81318498D01*
X190521482Y-81282188D01*
X190397000Y-81269928D01*
X188297000Y-81269928D01*
X188172518Y-81282188D01*
X188052820Y-81318498D01*
X187942506Y-81377463D01*
X187845815Y-81456815D01*
X187766463Y-81553506D01*
X187707498Y-81663820D01*
X187671188Y-81783518D01*
X187658928Y-81908000D01*
X181935072Y-81908000D01*
X181922812Y-81783518D01*
X181886502Y-81663820D01*
X181827537Y-81553506D01*
X181748185Y-81456815D01*
X181651494Y-81377463D01*
X181541180Y-81318498D01*
X181421482Y-81282188D01*
X181297000Y-81269928D01*
X179197000Y-81269928D01*
X179072518Y-81282188D01*
X178952820Y-81318498D01*
X178842506Y-81377463D01*
X178745815Y-81456815D01*
X178666463Y-81553506D01*
X178607498Y-81663820D01*
X178571188Y-81783518D01*
X178558928Y-81908000D01*
X160208083Y-81908000D01*
X160098898Y-81862774D01*
X159898939Y-81823000D01*
X159695061Y-81823000D01*
X159495102Y-81862774D01*
X159306744Y-81940795D01*
X159137226Y-82054063D01*
X158993063Y-82198226D01*
X158879795Y-82367744D01*
X158801774Y-82556102D01*
X158790465Y-82612956D01*
X157791951Y-83611471D01*
X157758184Y-83639183D01*
X157730471Y-83672951D01*
X157730468Y-83672954D01*
X157647590Y-83773941D01*
X157565412Y-83927687D01*
X157514805Y-84094510D01*
X157497719Y-84268000D01*
X157502001Y-84311479D01*
X157502001Y-84683375D01*
X157412518Y-84692188D01*
X157292820Y-84728498D01*
X157182506Y-84787463D01*
X157117000Y-84841222D01*
X157051494Y-84787463D01*
X156941180Y-84728498D01*
X156821482Y-84692188D01*
X156697000Y-84679928D01*
X154997000Y-84679928D01*
X154872518Y-84692188D01*
X154752820Y-84728498D01*
X154642506Y-84787463D01*
X154577000Y-84841222D01*
X154511494Y-84787463D01*
X154401180Y-84728498D01*
X154281482Y-84692188D01*
X154157000Y-84679928D01*
X152457000Y-84679928D01*
X152332518Y-84692188D01*
X152212820Y-84728498D01*
X152102506Y-84787463D01*
X152037000Y-84841222D01*
X151971494Y-84787463D01*
X151861180Y-84728498D01*
X151741482Y-84692188D01*
X151617000Y-84679928D01*
X149917000Y-84679928D01*
X149792518Y-84692188D01*
X149672820Y-84728498D01*
X149562506Y-84787463D01*
X149497000Y-84841222D01*
X149431494Y-84787463D01*
X149321180Y-84728498D01*
X149201482Y-84692188D01*
X149077000Y-84679928D01*
X147377000Y-84679928D01*
X147252518Y-84692188D01*
X147132820Y-84728498D01*
X147022506Y-84787463D01*
X146957000Y-84841222D01*
X146891494Y-84787463D01*
X146781180Y-84728498D01*
X146661482Y-84692188D01*
X146537000Y-84679928D01*
X144837000Y-84679928D01*
X144712518Y-84692188D01*
X144592820Y-84728498D01*
X144482506Y-84787463D01*
X144417000Y-84841222D01*
X144351494Y-84787463D01*
X144241180Y-84728498D01*
X144121482Y-84692188D01*
X143997000Y-84679928D01*
X142297000Y-84679928D01*
X142172518Y-84692188D01*
X142052820Y-84728498D01*
X141942506Y-84787463D01*
X141877000Y-84841222D01*
X141811494Y-84787463D01*
X141701180Y-84728498D01*
X141581482Y-84692188D01*
X141457000Y-84679928D01*
X139757000Y-84679928D01*
X139632518Y-84692188D01*
X139512820Y-84728498D01*
X139402506Y-84787463D01*
X139337000Y-84841222D01*
X139271494Y-84787463D01*
X139161180Y-84728498D01*
X139041482Y-84692188D01*
X138917000Y-84679928D01*
X137217000Y-84679928D01*
X137092518Y-84692188D01*
X136972820Y-84728498D01*
X136862506Y-84787463D01*
X136797000Y-84841222D01*
X136731494Y-84787463D01*
X136621180Y-84728498D01*
X136501482Y-84692188D01*
X136377000Y-84679928D01*
X134677000Y-84679928D01*
X134552518Y-84692188D01*
X134432820Y-84728498D01*
X134322506Y-84787463D01*
X134257000Y-84841222D01*
X134191494Y-84787463D01*
X134081180Y-84728498D01*
X133961482Y-84692188D01*
X133837000Y-84679928D01*
X132137000Y-84679928D01*
X132012518Y-84692188D01*
X131892820Y-84728498D01*
X131782506Y-84787463D01*
X131717000Y-84841222D01*
X131651494Y-84787463D01*
X131541180Y-84728498D01*
X131421482Y-84692188D01*
X131297000Y-84679928D01*
X129597000Y-84679928D01*
X129472518Y-84692188D01*
X129352820Y-84728498D01*
X129242506Y-84787463D01*
X129177000Y-84841222D01*
X129111494Y-84787463D01*
X129001180Y-84728498D01*
X128881482Y-84692188D01*
X128757000Y-84679928D01*
X127057000Y-84679928D01*
X126932518Y-84692188D01*
X126812820Y-84728498D01*
X126702506Y-84787463D01*
X126637000Y-84841222D01*
X126571494Y-84787463D01*
X126461180Y-84728498D01*
X126341482Y-84692188D01*
X126217000Y-84679928D01*
X124517000Y-84679928D01*
X124392518Y-84692188D01*
X124272820Y-84728498D01*
X124162506Y-84787463D01*
X124097000Y-84841222D01*
X124031494Y-84787463D01*
X123921180Y-84728498D01*
X123801482Y-84692188D01*
X123677000Y-84679928D01*
X121977000Y-84679928D01*
X121852518Y-84692188D01*
X121732820Y-84728498D01*
X121622506Y-84787463D01*
X121557000Y-84841222D01*
X121491494Y-84787463D01*
X121381180Y-84728498D01*
X121261482Y-84692188D01*
X121137000Y-84679928D01*
X119437000Y-84679928D01*
X119312518Y-84692188D01*
X119192820Y-84728498D01*
X119082506Y-84787463D01*
X119017000Y-84841222D01*
X118951494Y-84787463D01*
X118841180Y-84728498D01*
X118721482Y-84692188D01*
X118597000Y-84679928D01*
X118032750Y-84683000D01*
X117874000Y-84841750D01*
X117874000Y-89294250D01*
X118032750Y-89453000D01*
X118597000Y-89456072D01*
X118721482Y-89443812D01*
X118841180Y-89407502D01*
X118951494Y-89348537D01*
X119017000Y-89294778D01*
X119082506Y-89348537D01*
X119192820Y-89407502D01*
X119312518Y-89443812D01*
X119437000Y-89456072D01*
X121137000Y-89456072D01*
X121261482Y-89443812D01*
X121381180Y-89407502D01*
X121491494Y-89348537D01*
X121557000Y-89294778D01*
X121622506Y-89348537D01*
X121732820Y-89407502D01*
X121852518Y-89443812D01*
X121977000Y-89456072D01*
X122148331Y-89456072D01*
X122170468Y-89483046D01*
X122170471Y-89483049D01*
X122198184Y-89516817D01*
X122231952Y-89544530D01*
X123660422Y-90973000D01*
X115163579Y-90973000D01*
X113635026Y-89444448D01*
X113641482Y-89443812D01*
X113761180Y-89407502D01*
X113871494Y-89348537D01*
X113937000Y-89294778D01*
X114002506Y-89348537D01*
X114112820Y-89407502D01*
X114232518Y-89443812D01*
X114357000Y-89456072D01*
X116057000Y-89456072D01*
X116181482Y-89443812D01*
X116301180Y-89407502D01*
X116411494Y-89348537D01*
X116477000Y-89294778D01*
X116542506Y-89348537D01*
X116652820Y-89407502D01*
X116772518Y-89443812D01*
X116897000Y-89456072D01*
X117461250Y-89453000D01*
X117620000Y-89294250D01*
X117620000Y-84841750D01*
X117461250Y-84683000D01*
X116897000Y-84679928D01*
X116772518Y-84692188D01*
X116652820Y-84728498D01*
X116542506Y-84787463D01*
X116477000Y-84841222D01*
X116411494Y-84787463D01*
X116301180Y-84728498D01*
X116181482Y-84692188D01*
X116057000Y-84679928D01*
X114357000Y-84679928D01*
X114232518Y-84692188D01*
X114112820Y-84728498D01*
X114002506Y-84787463D01*
X113937000Y-84841222D01*
X113871494Y-84787463D01*
X113761180Y-84728498D01*
X113641482Y-84692188D01*
X113517000Y-84679928D01*
X111817000Y-84679928D01*
X111692518Y-84692188D01*
X111572820Y-84728498D01*
X111485000Y-84775440D01*
X111485000Y-80535000D01*
X206115000Y-80535000D01*
X206115001Y-127165000D01*
%TA.AperFunction,Conductor*%
D25*
G36*
X206115001Y-127165000D02*
G01*
X191464607Y-127165000D01*
X191591059Y-127097411D01*
X191725817Y-126986817D01*
X191753534Y-126953044D01*
X193260507Y-125446072D01*
X194397000Y-125446072D01*
X194521482Y-125433812D01*
X194641180Y-125397502D01*
X194751494Y-125338537D01*
X194848185Y-125259185D01*
X194927537Y-125162494D01*
X194986502Y-125052180D01*
X195022812Y-124932482D01*
X195035072Y-124808000D01*
X195035072Y-123408000D01*
X195022812Y-123283518D01*
X194986502Y-123163820D01*
X194927537Y-123053506D01*
X194848185Y-122956815D01*
X194751494Y-122877463D01*
X194641180Y-122818498D01*
X194521482Y-122782188D01*
X194397000Y-122769928D01*
X192297000Y-122769928D01*
X192172518Y-122782188D01*
X192052820Y-122818498D01*
X191942506Y-122877463D01*
X191845815Y-122956815D01*
X191766463Y-123053506D01*
X191707498Y-123163820D01*
X191671188Y-123283518D01*
X191658928Y-123408000D01*
X191658928Y-124544493D01*
X190730422Y-125473000D01*
X176413579Y-125473000D01*
X170696640Y-119756061D01*
X173262000Y-119756061D01*
X173262000Y-119959939D01*
X173301774Y-120159898D01*
X173379795Y-120348256D01*
X173493063Y-120517774D01*
X173637226Y-120661937D01*
X173806744Y-120775205D01*
X173995102Y-120853226D01*
X174195061Y-120893000D01*
X174398939Y-120893000D01*
X174598898Y-120853226D01*
X174787256Y-120775205D01*
X174956774Y-120661937D01*
X175100937Y-120517774D01*
X175214205Y-120348256D01*
X175292226Y-120159898D01*
X175332000Y-119959939D01*
X175332000Y-119874578D01*
X176110507Y-119096072D01*
X177247000Y-119096072D01*
X177371482Y-119083812D01*
X177491180Y-119047502D01*
X177601494Y-118988537D01*
X177698185Y-118909185D01*
X177777537Y-118812494D01*
X177836502Y-118702180D01*
X177872812Y-118582482D01*
X177885072Y-118458000D01*
X177885072Y-116358000D01*
X179708928Y-116358000D01*
X179708928Y-118458000D01*
X179721188Y-118582482D01*
X179757498Y-118702180D01*
X179816463Y-118812494D01*
X179895815Y-118909185D01*
X179992506Y-118988537D01*
X180102820Y-119047502D01*
X180222518Y-119083812D01*
X180347000Y-119096072D01*
X181747000Y-119096072D01*
X181871482Y-119083812D01*
X181991180Y-119047502D01*
X182101494Y-118988537D01*
X182198185Y-118909185D01*
X182277537Y-118812494D01*
X182336502Y-118702180D01*
X182372812Y-118582482D01*
X182385072Y-118458000D01*
X182385072Y-116358000D01*
X182372812Y-116233518D01*
X182336502Y-116113820D01*
X182277537Y-116003506D01*
X182198185Y-115906815D01*
X182101494Y-115827463D01*
X181991180Y-115768498D01*
X181871482Y-115732188D01*
X181747000Y-115719928D01*
X180347000Y-115719928D01*
X180222518Y-115732188D01*
X180102820Y-115768498D01*
X179992506Y-115827463D01*
X179895815Y-115906815D01*
X179816463Y-116003506D01*
X179757498Y-116113820D01*
X179721188Y-116233518D01*
X179708928Y-116358000D01*
X177885072Y-116358000D01*
X177872812Y-116233518D01*
X177836502Y-116113820D01*
X177777537Y-116003506D01*
X177698185Y-115906815D01*
X177601494Y-115827463D01*
X177491180Y-115768498D01*
X177371482Y-115732188D01*
X177247000Y-115719928D01*
X175847000Y-115719928D01*
X175722518Y-115732188D01*
X175602820Y-115768498D01*
X175492506Y-115827463D01*
X175395815Y-115906815D01*
X175316463Y-116003506D01*
X175257498Y-116113820D01*
X175221188Y-116233518D01*
X175208928Y-116358000D01*
X175208928Y-117494493D01*
X173701955Y-119001467D01*
X173668183Y-119029183D01*
X173660560Y-119038472D01*
X173637226Y-119054063D01*
X173493063Y-119198226D01*
X173379795Y-119367744D01*
X173301774Y-119556102D01*
X173262000Y-119756061D01*
X170696640Y-119756061D01*
X169053535Y-118112957D01*
X169042226Y-118056102D01*
X168964205Y-117867744D01*
X168850937Y-117698226D01*
X168706774Y-117554063D01*
X168537256Y-117440795D01*
X168348898Y-117362774D01*
X168148939Y-117323000D01*
X167945061Y-117323000D01*
X167745102Y-117362774D01*
X167556744Y-117440795D01*
X167387226Y-117554063D01*
X167243063Y-117698226D01*
X167129795Y-117867744D01*
X167051774Y-118056102D01*
X167012000Y-118256061D01*
X167012000Y-118459939D01*
X167051774Y-118659898D01*
X167129795Y-118848256D01*
X167243063Y-119017774D01*
X167387226Y-119161937D01*
X167556744Y-119275205D01*
X167745102Y-119353226D01*
X167801957Y-119364535D01*
X175390470Y-126953049D01*
X175418183Y-126986817D01*
X175451951Y-127014530D01*
X175451953Y-127014532D01*
X175523452Y-127073210D01*
X175552941Y-127097411D01*
X175679393Y-127165000D01*
X111485000Y-127165000D01*
X111485000Y-111907999D01*
X113558928Y-111907999D01*
X113558928Y-112808001D01*
X113575992Y-112981255D01*
X113626528Y-113147851D01*
X113708595Y-113301387D01*
X113819038Y-113435962D01*
X113912001Y-113512254D01*
X113912000Y-113703746D01*
X113819038Y-113780038D01*
X113708595Y-113914613D01*
X113626528Y-114068149D01*
X113575992Y-114234745D01*
X113558928Y-114407999D01*
X113558928Y-115308001D01*
X113575992Y-115481255D01*
X113626528Y-115647851D01*
X113708595Y-115801387D01*
X113819038Y-115935962D01*
X113953613Y-116046405D01*
X114107149Y-116128472D01*
X114273745Y-116179008D01*
X114446999Y-116196072D01*
X115147001Y-116196072D01*
X115320255Y-116179008D01*
X115486851Y-116128472D01*
X115640387Y-116046405D01*
X115774962Y-115935962D01*
X115797000Y-115909109D01*
X115819038Y-115935962D01*
X115912000Y-116012254D01*
X115912000Y-116069545D01*
X115879795Y-116117744D01*
X115801774Y-116306102D01*
X115762000Y-116506061D01*
X115762000Y-116709939D01*
X115801774Y-116909898D01*
X115879795Y-117098256D01*
X115993063Y-117267774D01*
X116137226Y-117411937D01*
X116306744Y-117525205D01*
X116495102Y-117603226D01*
X116695061Y-117643000D01*
X116898939Y-117643000D01*
X117098898Y-117603226D01*
X117287256Y-117525205D01*
X117456774Y-117411937D01*
X117600937Y-117267774D01*
X117714205Y-117098256D01*
X117792226Y-116909898D01*
X117832000Y-116709939D01*
X117832000Y-116506061D01*
X117792226Y-116306102D01*
X117714205Y-116117744D01*
X117682000Y-116069546D01*
X117682000Y-116012254D01*
X117774962Y-115935962D01*
X117885405Y-115801387D01*
X117967472Y-115647851D01*
X118018008Y-115481255D01*
X118035072Y-115308001D01*
X118035072Y-114407999D01*
X118018008Y-114234745D01*
X117967472Y-114068149D01*
X117885405Y-113914613D01*
X117774962Y-113780038D01*
X117640387Y-113669595D01*
X117614306Y-113655654D01*
X117641180Y-113647502D01*
X117751494Y-113588537D01*
X117848185Y-113509185D01*
X117927537Y-113412494D01*
X117986502Y-113302180D01*
X118022812Y-113182482D01*
X118035072Y-113058000D01*
X118032000Y-112643750D01*
X117873250Y-112485000D01*
X116949000Y-112485000D01*
X116949000Y-112505000D01*
X116695000Y-112505000D01*
X116695000Y-112485000D01*
X116675000Y-112485000D01*
X116675000Y-112231000D01*
X116695000Y-112231000D01*
X116695000Y-111181750D01*
X116949000Y-111181750D01*
X116949000Y-112231000D01*
X117873250Y-112231000D01*
X118032000Y-112072250D01*
X118035072Y-111658000D01*
X118022812Y-111533518D01*
X117986502Y-111413820D01*
X117927537Y-111303506D01*
X117848185Y-111206815D01*
X117751494Y-111127463D01*
X117641180Y-111068498D01*
X117521482Y-111032188D01*
X117397000Y-111019928D01*
X117107750Y-111023000D01*
X116949000Y-111181750D01*
X116695000Y-111181750D01*
X116536250Y-111023000D01*
X116247000Y-111019928D01*
X116122518Y-111032188D01*
X116002820Y-111068498D01*
X115892506Y-111127463D01*
X115795815Y-111206815D01*
X115730342Y-111286594D01*
X115724962Y-111280038D01*
X115590387Y-111169595D01*
X115436851Y-111087528D01*
X115270255Y-111036992D01*
X115097001Y-111019928D01*
X114446999Y-111019928D01*
X114273745Y-111036992D01*
X114107149Y-111087528D01*
X113953613Y-111169595D01*
X113819038Y-111280038D01*
X113708595Y-111414613D01*
X113626528Y-111568149D01*
X113575992Y-111734745D01*
X113558928Y-111907999D01*
X111485000Y-111907999D01*
X111485000Y-108940560D01*
X111572820Y-108987502D01*
X111692518Y-109023812D01*
X111817000Y-109036072D01*
X113517000Y-109036072D01*
X113641482Y-109023812D01*
X113761180Y-108987502D01*
X113871494Y-108928537D01*
X113937000Y-108874778D01*
X114002506Y-108928537D01*
X114112820Y-108987502D01*
X114232518Y-109023812D01*
X114357000Y-109036072D01*
X116057000Y-109036072D01*
X116181482Y-109023812D01*
X116301180Y-108987502D01*
X116411494Y-108928537D01*
X116477000Y-108874778D01*
X116542506Y-108928537D01*
X116652820Y-108987502D01*
X116772518Y-109023812D01*
X116897000Y-109036072D01*
X118597000Y-109036072D01*
X118721482Y-109023812D01*
X118841180Y-108987502D01*
X118951494Y-108928537D01*
X119017000Y-108874778D01*
X119082506Y-108928537D01*
X119192820Y-108987502D01*
X119312518Y-109023812D01*
X119437000Y-109036072D01*
X121137000Y-109036072D01*
X121261482Y-109023812D01*
X121381180Y-108987502D01*
X121491494Y-108928537D01*
X121557000Y-108874778D01*
X121622506Y-108928537D01*
X121732820Y-108987502D01*
X121852518Y-109023812D01*
X121977000Y-109036072D01*
X123677000Y-109036072D01*
X123801482Y-109023812D01*
X123921180Y-108987502D01*
X124031494Y-108928537D01*
X124097000Y-108874778D01*
X124162506Y-108928537D01*
X124272820Y-108987502D01*
X124392518Y-109023812D01*
X124517000Y-109036072D01*
X126217000Y-109036072D01*
X126341482Y-109023812D01*
X126461180Y-108987502D01*
X126571494Y-108928537D01*
X126637000Y-108874778D01*
X126702506Y-108928537D01*
X126812820Y-108987502D01*
X126932518Y-109023812D01*
X127057000Y-109036072D01*
X128757000Y-109036072D01*
X128881482Y-109023812D01*
X129001180Y-108987502D01*
X129111494Y-108928537D01*
X129177000Y-108874778D01*
X129242506Y-108928537D01*
X129352820Y-108987502D01*
X129472518Y-109023812D01*
X129597000Y-109036072D01*
X131297000Y-109036072D01*
X131421482Y-109023812D01*
X131541180Y-108987502D01*
X131651494Y-108928537D01*
X131717000Y-108874778D01*
X131782506Y-108928537D01*
X131892820Y-108987502D01*
X132012518Y-109023812D01*
X132102001Y-109032625D01*
X132102001Y-109301420D01*
X130430422Y-110973000D01*
X120590465Y-110973000D01*
X120546999Y-110968719D01*
X120503533Y-110973000D01*
X120503523Y-110973000D01*
X120373510Y-110985805D01*
X120206687Y-111036411D01*
X120052941Y-111118589D01*
X120052939Y-111118590D01*
X120052940Y-111118590D01*
X119951953Y-111201468D01*
X119951951Y-111201470D01*
X119918183Y-111229183D01*
X119890470Y-111262951D01*
X118451956Y-112701466D01*
X118418183Y-112729183D01*
X118307589Y-112863942D01*
X118225411Y-113017688D01*
X118200971Y-113098256D01*
X118174806Y-113184509D01*
X118174805Y-113184511D01*
X118162000Y-113314524D01*
X118162000Y-113314531D01*
X118157719Y-113358000D01*
X118162000Y-113401469D01*
X118162001Y-120222636D01*
X118076494Y-120152463D01*
X117966180Y-120093498D01*
X117846482Y-120057188D01*
X117722000Y-120044928D01*
X116372000Y-120044928D01*
X116247518Y-120057188D01*
X116127820Y-120093498D01*
X116017506Y-120152463D01*
X115920815Y-120231815D01*
X115841463Y-120328506D01*
X115782498Y-120438820D01*
X115746188Y-120558518D01*
X115733928Y-120683000D01*
X115733928Y-122033000D01*
X115746188Y-122157482D01*
X115782498Y-122277180D01*
X115841463Y-122387494D01*
X115920815Y-122484185D01*
X116017506Y-122563537D01*
X116127820Y-122622502D01*
X116247518Y-122658812D01*
X116372000Y-122671072D01*
X117722000Y-122671072D01*
X117846482Y-122658812D01*
X117966180Y-122622502D01*
X118076494Y-122563537D01*
X118173185Y-122484185D01*
X118244487Y-122397303D01*
X118426482Y-122518907D01*
X118664887Y-122617658D01*
X118917976Y-122668000D01*
X119176024Y-122668000D01*
X119429113Y-122617658D01*
X119667518Y-122518907D01*
X119882077Y-122375544D01*
X120047000Y-122210621D01*
X120211923Y-122375544D01*
X120426482Y-122518907D01*
X120664887Y-122617658D01*
X120917976Y-122668000D01*
X121176024Y-122668000D01*
X121429113Y-122617658D01*
X121667518Y-122518907D01*
X121882077Y-122375544D01*
X122053681Y-122203940D01*
X122175773Y-122336303D01*
X122383371Y-122487473D01*
X122616472Y-122595238D01*
X122717600Y-122625910D01*
X122920000Y-122502224D01*
X122920000Y-121485000D01*
X123174000Y-121485000D01*
X123174000Y-122502224D01*
X123376400Y-122625910D01*
X123477528Y-122595238D01*
X123710629Y-122487473D01*
X123918227Y-122336303D01*
X124092344Y-122147537D01*
X124162363Y-122033000D01*
X132733928Y-122033000D01*
X132746188Y-122157482D01*
X132782498Y-122277180D01*
X132841463Y-122387494D01*
X132920815Y-122484185D01*
X133017506Y-122563537D01*
X133127820Y-122622502D01*
X133247518Y-122658812D01*
X133372000Y-122671072D01*
X133761250Y-122668000D01*
X133920000Y-122509250D01*
X133920000Y-121485000D01*
X132895750Y-121485000D01*
X132737000Y-121643750D01*
X132733928Y-122033000D01*
X124162363Y-122033000D01*
X124226289Y-121928430D01*
X124314915Y-121687401D01*
X124192085Y-121485000D01*
X123174000Y-121485000D01*
X122920000Y-121485000D01*
X122900000Y-121485000D01*
X122900000Y-121231000D01*
X122920000Y-121231000D01*
X122920000Y-120213776D01*
X123174000Y-120213776D01*
X123174000Y-121231000D01*
X124192085Y-121231000D01*
X124314915Y-121028599D01*
X124226289Y-120787570D01*
X124162364Y-120683000D01*
X132733928Y-120683000D01*
X132737000Y-121072250D01*
X132895750Y-121231000D01*
X133920000Y-121231000D01*
X133920000Y-120206750D01*
X133761250Y-120048000D01*
X133372000Y-120044928D01*
X133247518Y-120057188D01*
X133127820Y-120093498D01*
X133017506Y-120152463D01*
X132920815Y-120231815D01*
X132841463Y-120328506D01*
X132782498Y-120438820D01*
X132746188Y-120558518D01*
X132733928Y-120683000D01*
X124162364Y-120683000D01*
X124092344Y-120568463D01*
X123918227Y-120379697D01*
X123710629Y-120228527D01*
X123477528Y-120120762D01*
X123376400Y-120090090D01*
X123174000Y-120213776D01*
X122920000Y-120213776D01*
X122717600Y-120090090D01*
X122616472Y-120120762D01*
X122383371Y-120228527D01*
X122175773Y-120379697D01*
X122053681Y-120512060D01*
X121882077Y-120340456D01*
X121667518Y-120197093D01*
X121429113Y-120098342D01*
X121176024Y-120048000D01*
X120917976Y-120048000D01*
X120664887Y-120098342D01*
X120426482Y-120197093D01*
X120211923Y-120340456D01*
X120047000Y-120505379D01*
X119932000Y-120390379D01*
X119932000Y-113724578D01*
X120913579Y-112743000D01*
X130753531Y-112743000D01*
X130797000Y-112747281D01*
X130840469Y-112743000D01*
X130840477Y-112743000D01*
X130970490Y-112730195D01*
X131137313Y-112679589D01*
X131291059Y-112597411D01*
X131425817Y-112486817D01*
X131453534Y-112453044D01*
X133582049Y-110324530D01*
X133615817Y-110296817D01*
X133671324Y-110229183D01*
X133726411Y-110162059D01*
X133749646Y-110118589D01*
X133808589Y-110008313D01*
X133859195Y-109841490D01*
X133872000Y-109711477D01*
X133872000Y-109711469D01*
X133876281Y-109668000D01*
X133872000Y-109624531D01*
X133872000Y-109032625D01*
X133961482Y-109023812D01*
X134081180Y-108987502D01*
X134191494Y-108928537D01*
X134257000Y-108874778D01*
X134322506Y-108928537D01*
X134432820Y-108987502D01*
X134552518Y-109023812D01*
X134677000Y-109036072D01*
X136377000Y-109036072D01*
X136501482Y-109023812D01*
X136621180Y-108987502D01*
X136731494Y-108928537D01*
X136797000Y-108874778D01*
X136862506Y-108928537D01*
X136972820Y-108987502D01*
X137092518Y-109023812D01*
X137182000Y-109032625D01*
X137182001Y-120370378D01*
X137047000Y-120505379D01*
X136882077Y-120340456D01*
X136667518Y-120197093D01*
X136429113Y-120098342D01*
X136176024Y-120048000D01*
X135917976Y-120048000D01*
X135664887Y-120098342D01*
X135426482Y-120197093D01*
X135244487Y-120318697D01*
X135173185Y-120231815D01*
X135076494Y-120152463D01*
X134966180Y-120093498D01*
X134846482Y-120057188D01*
X134722000Y-120044928D01*
X134332750Y-120048000D01*
X134174000Y-120206750D01*
X134174000Y-121231000D01*
X134194000Y-121231000D01*
X134194000Y-121485000D01*
X134174000Y-121485000D01*
X134174000Y-122509250D01*
X134332750Y-122668000D01*
X134722000Y-122671072D01*
X134846482Y-122658812D01*
X134966180Y-122622502D01*
X135076494Y-122563537D01*
X135173185Y-122484185D01*
X135244487Y-122397303D01*
X135426482Y-122518907D01*
X135664887Y-122617658D01*
X135917976Y-122668000D01*
X136176024Y-122668000D01*
X136429113Y-122617658D01*
X136667518Y-122518907D01*
X136882077Y-122375544D01*
X137047000Y-122210621D01*
X137162000Y-122325621D01*
X137162001Y-123069545D01*
X137129795Y-123117744D01*
X137051774Y-123306102D01*
X137012000Y-123506061D01*
X137012000Y-123709939D01*
X137051774Y-123909898D01*
X137129795Y-124098256D01*
X137243063Y-124267774D01*
X137387226Y-124411937D01*
X137556744Y-124525205D01*
X137745102Y-124603226D01*
X137945061Y-124643000D01*
X138148939Y-124643000D01*
X138348898Y-124603226D01*
X138537256Y-124525205D01*
X138706774Y-124411937D01*
X138850937Y-124267774D01*
X138964205Y-124098256D01*
X139042226Y-123909898D01*
X139082000Y-123709939D01*
X139082000Y-123506061D01*
X139042226Y-123306102D01*
X138964205Y-123117744D01*
X138932000Y-123069546D01*
X138932000Y-122325621D01*
X139047000Y-122210621D01*
X139162000Y-122325621D01*
X139162001Y-123564521D01*
X139157719Y-123608000D01*
X139174805Y-123781490D01*
X139225412Y-123948313D01*
X139307590Y-124102059D01*
X139390468Y-124203046D01*
X139390469Y-124203047D01*
X139418184Y-124236817D01*
X139451951Y-124264529D01*
X140390470Y-125203049D01*
X140418183Y-125236817D01*
X140451951Y-125264530D01*
X140451953Y-125264532D01*
X140552941Y-125347411D01*
X140706686Y-125429589D01*
X140873510Y-125480195D01*
X141003523Y-125493000D01*
X141003531Y-125493000D01*
X141047000Y-125497281D01*
X141090469Y-125493000D01*
X156003531Y-125493000D01*
X156047000Y-125497281D01*
X156090469Y-125493000D01*
X156090477Y-125493000D01*
X156220490Y-125480195D01*
X156387313Y-125429589D01*
X156541059Y-125347411D01*
X156675817Y-125236817D01*
X156703534Y-125203044D01*
X157642050Y-124264529D01*
X157675817Y-124236817D01*
X157703533Y-124203046D01*
X157786411Y-124102059D01*
X157868589Y-123948314D01*
X157919195Y-123781490D01*
X157920554Y-123767687D01*
X157932000Y-123651477D01*
X157932000Y-123651469D01*
X157936281Y-123608000D01*
X157932000Y-123564531D01*
X157932000Y-122325621D01*
X158064544Y-122193077D01*
X158207907Y-121978518D01*
X158306658Y-121740113D01*
X158357000Y-121487024D01*
X158357000Y-121228976D01*
X158306658Y-120975887D01*
X158207907Y-120737482D01*
X158064544Y-120522923D01*
X157882077Y-120340456D01*
X157667518Y-120197093D01*
X157429113Y-120098342D01*
X157176024Y-120048000D01*
X156917976Y-120048000D01*
X156664887Y-120098342D01*
X156426482Y-120197093D01*
X156211923Y-120340456D01*
X156047000Y-120505379D01*
X155882077Y-120340456D01*
X155667518Y-120197093D01*
X155429113Y-120098342D01*
X155176024Y-120048000D01*
X154917976Y-120048000D01*
X154664887Y-120098342D01*
X154426482Y-120197093D01*
X154211923Y-120340456D01*
X154047000Y-120505379D01*
X153932000Y-120390379D01*
X153932000Y-119974578D01*
X154413579Y-119493000D01*
X164753531Y-119493000D01*
X164797000Y-119497281D01*
X164840469Y-119493000D01*
X164840477Y-119493000D01*
X164970490Y-119480195D01*
X165137313Y-119429589D01*
X165291059Y-119347411D01*
X165425817Y-119236817D01*
X165453534Y-119203044D01*
X169392049Y-115264530D01*
X169425817Y-115236817D01*
X169536411Y-115102059D01*
X169618589Y-114948313D01*
X169669195Y-114781490D01*
X169682000Y-114651477D01*
X169682000Y-114651467D01*
X169686281Y-114608001D01*
X169682000Y-114564535D01*
X169682000Y-108743000D01*
X175208928Y-108743000D01*
X175208928Y-109358000D01*
X175221188Y-109482482D01*
X175257498Y-109602180D01*
X175316463Y-109712494D01*
X175395815Y-109809185D01*
X175492506Y-109888537D01*
X175602820Y-109947502D01*
X175722518Y-109983812D01*
X175847000Y-109996072D01*
X177247000Y-109996072D01*
X177371482Y-109983812D01*
X177491180Y-109947502D01*
X177601494Y-109888537D01*
X177698185Y-109809185D01*
X177777537Y-109712494D01*
X177836502Y-109602180D01*
X177872812Y-109482482D01*
X177885072Y-109358000D01*
X177885072Y-107258000D01*
X177872812Y-107133518D01*
X177849595Y-107056983D01*
X177913579Y-106993000D01*
X179768627Y-106993000D01*
X179757498Y-107013820D01*
X179721188Y-107133518D01*
X179708928Y-107258000D01*
X179708928Y-109358000D01*
X179721188Y-109482482D01*
X179757498Y-109602180D01*
X179816463Y-109712494D01*
X179895815Y-109809185D01*
X179992506Y-109888537D01*
X180102820Y-109947502D01*
X180222518Y-109983812D01*
X180347000Y-109996072D01*
X181747000Y-109996072D01*
X181871482Y-109983812D01*
X181991180Y-109947502D01*
X182101494Y-109888537D01*
X182198185Y-109809185D01*
X182277537Y-109712494D01*
X182336502Y-109602180D01*
X182372812Y-109482482D01*
X182385072Y-109358000D01*
X182385072Y-107258000D01*
X182372812Y-107133518D01*
X182336502Y-107013820D01*
X182325373Y-106993000D01*
X182589546Y-106993000D01*
X182607498Y-107052180D01*
X182666463Y-107162494D01*
X182745815Y-107259185D01*
X182842506Y-107338537D01*
X182952820Y-107397502D01*
X183072518Y-107433812D01*
X183197000Y-107446072D01*
X184333494Y-107446072D01*
X185562001Y-108674580D01*
X185562000Y-118329627D01*
X185541180Y-118318498D01*
X185421482Y-118282188D01*
X185297000Y-118269928D01*
X183197000Y-118269928D01*
X183072518Y-118282188D01*
X182952820Y-118318498D01*
X182842506Y-118377463D01*
X182745815Y-118456815D01*
X182666463Y-118553506D01*
X182607498Y-118663820D01*
X182571188Y-118783518D01*
X182558928Y-118908000D01*
X182558928Y-120308000D01*
X182571188Y-120432482D01*
X182607498Y-120552180D01*
X182666463Y-120662494D01*
X182745815Y-120759185D01*
X182842506Y-120838537D01*
X182952820Y-120897502D01*
X183072518Y-120933812D01*
X183197000Y-120946072D01*
X185297000Y-120946072D01*
X185421482Y-120933812D01*
X185541180Y-120897502D01*
X185562000Y-120886373D01*
X185562000Y-121541421D01*
X184333494Y-122769928D01*
X183197000Y-122769928D01*
X183072518Y-122782188D01*
X182952820Y-122818498D01*
X182842506Y-122877463D01*
X182745815Y-122956815D01*
X182666463Y-123053506D01*
X182607498Y-123163820D01*
X182571188Y-123283518D01*
X182558928Y-123408000D01*
X182558928Y-124808000D01*
X182571188Y-124932482D01*
X182607498Y-125052180D01*
X182666463Y-125162494D01*
X182745815Y-125259185D01*
X182842506Y-125338537D01*
X182952820Y-125397502D01*
X183072518Y-125433812D01*
X183197000Y-125446072D01*
X185297000Y-125446072D01*
X185421482Y-125433812D01*
X185541180Y-125397502D01*
X185651494Y-125338537D01*
X185748185Y-125259185D01*
X185827537Y-125162494D01*
X185886502Y-125052180D01*
X185922812Y-124932482D01*
X185935072Y-124808000D01*
X185935072Y-123671506D01*
X187042050Y-122564529D01*
X187075817Y-122536817D01*
X187119012Y-122484185D01*
X187186411Y-122402059D01*
X187268588Y-122248314D01*
X187268589Y-122248313D01*
X187319195Y-122081490D01*
X187332000Y-121951477D01*
X187332000Y-121951469D01*
X187336281Y-121908000D01*
X187332000Y-121864531D01*
X187332000Y-118908000D01*
X191658928Y-118908000D01*
X191658928Y-120308000D01*
X191671188Y-120432482D01*
X191707498Y-120552180D01*
X191766463Y-120662494D01*
X191845815Y-120759185D01*
X191942506Y-120838537D01*
X192052820Y-120897502D01*
X192172518Y-120933812D01*
X192297000Y-120946072D01*
X194397000Y-120946072D01*
X194521482Y-120933812D01*
X194641180Y-120897502D01*
X194751494Y-120838537D01*
X194848185Y-120759185D01*
X194927537Y-120662494D01*
X194986502Y-120552180D01*
X195022812Y-120432482D01*
X195035072Y-120308000D01*
X195035072Y-118908000D01*
X195022812Y-118783518D01*
X194986502Y-118663820D01*
X194927537Y-118553506D01*
X194848185Y-118456815D01*
X194751494Y-118377463D01*
X194641180Y-118318498D01*
X194521482Y-118282188D01*
X194397000Y-118269928D01*
X192297000Y-118269928D01*
X192172518Y-118282188D01*
X192052820Y-118318498D01*
X191942506Y-118377463D01*
X191845815Y-118456815D01*
X191766463Y-118553506D01*
X191707498Y-118663820D01*
X191671188Y-118783518D01*
X191658928Y-118908000D01*
X187332000Y-118908000D01*
X187332000Y-116358000D01*
X195208928Y-116358000D01*
X195208928Y-118458000D01*
X195221188Y-118582482D01*
X195257498Y-118702180D01*
X195316463Y-118812494D01*
X195395815Y-118909185D01*
X195492506Y-118988537D01*
X195602820Y-119047502D01*
X195662001Y-119065454D01*
X195662000Y-120569545D01*
X195629795Y-120617744D01*
X195551774Y-120806102D01*
X195512000Y-121006061D01*
X195512000Y-121209939D01*
X195551774Y-121409898D01*
X195629795Y-121598256D01*
X195743063Y-121767774D01*
X195887226Y-121911937D01*
X196056744Y-122025205D01*
X196245102Y-122103226D01*
X196445061Y-122143000D01*
X196648939Y-122143000D01*
X196848898Y-122103226D01*
X197037256Y-122025205D01*
X197206774Y-121911937D01*
X197350937Y-121767774D01*
X197464205Y-121598256D01*
X197542226Y-121409898D01*
X197582000Y-121209939D01*
X197582000Y-121006061D01*
X197542226Y-120806102D01*
X197464205Y-120617744D01*
X197432000Y-120569546D01*
X197432000Y-119065454D01*
X197491180Y-119047502D01*
X197601494Y-118988537D01*
X197698185Y-118909185D01*
X197777537Y-118812494D01*
X197836502Y-118702180D01*
X197872812Y-118582482D01*
X197885072Y-118458000D01*
X197885072Y-116358000D01*
X199708928Y-116358000D01*
X199708928Y-118458000D01*
X199721188Y-118582482D01*
X199757498Y-118702180D01*
X199816463Y-118812494D01*
X199895815Y-118909185D01*
X199992506Y-118988537D01*
X200102820Y-119047502D01*
X200222518Y-119083812D01*
X200347000Y-119096072D01*
X201747000Y-119096072D01*
X201871482Y-119083812D01*
X201991180Y-119047502D01*
X202101494Y-118988537D01*
X202198185Y-118909185D01*
X202277537Y-118812494D01*
X202336502Y-118702180D01*
X202372812Y-118582482D01*
X202385072Y-118458000D01*
X202385072Y-116358000D01*
X202372812Y-116233518D01*
X202336502Y-116113820D01*
X202277537Y-116003506D01*
X202198185Y-115906815D01*
X202101494Y-115827463D01*
X201991180Y-115768498D01*
X201871482Y-115732188D01*
X201747000Y-115719928D01*
X200347000Y-115719928D01*
X200222518Y-115732188D01*
X200102820Y-115768498D01*
X199992506Y-115827463D01*
X199895815Y-115906815D01*
X199816463Y-116003506D01*
X199757498Y-116113820D01*
X199721188Y-116233518D01*
X199708928Y-116358000D01*
X197885072Y-116358000D01*
X197872812Y-116233518D01*
X197836502Y-116113820D01*
X197777537Y-116003506D01*
X197698185Y-115906815D01*
X197601494Y-115827463D01*
X197491180Y-115768498D01*
X197371482Y-115732188D01*
X197247000Y-115719928D01*
X195847000Y-115719928D01*
X195722518Y-115732188D01*
X195602820Y-115768498D01*
X195492506Y-115827463D01*
X195395815Y-115906815D01*
X195316463Y-116003506D01*
X195257498Y-116113820D01*
X195221188Y-116233518D01*
X195208928Y-116358000D01*
X187332000Y-116358000D01*
X187332000Y-109193000D01*
X195208928Y-109193000D01*
X195208928Y-109358000D01*
X195221188Y-109482482D01*
X195257498Y-109602180D01*
X195316463Y-109712494D01*
X195395815Y-109809185D01*
X195492506Y-109888537D01*
X195602820Y-109947502D01*
X195722518Y-109983812D01*
X195847000Y-109996072D01*
X197247000Y-109996072D01*
X197371482Y-109983812D01*
X197491180Y-109947502D01*
X197601494Y-109888537D01*
X197698185Y-109809185D01*
X197777537Y-109712494D01*
X197836502Y-109602180D01*
X197872812Y-109482482D01*
X197885072Y-109358000D01*
X197885072Y-107258000D01*
X199708928Y-107258000D01*
X199708928Y-109358000D01*
X199721188Y-109482482D01*
X199757498Y-109602180D01*
X199816463Y-109712494D01*
X199895815Y-109809185D01*
X199992506Y-109888537D01*
X200102820Y-109947502D01*
X200222518Y-109983812D01*
X200347000Y-109996072D01*
X201747000Y-109996072D01*
X201871482Y-109983812D01*
X201991180Y-109947502D01*
X202101494Y-109888537D01*
X202198185Y-109809185D01*
X202277537Y-109712494D01*
X202336502Y-109602180D01*
X202372812Y-109482482D01*
X202385072Y-109358000D01*
X202385072Y-107258000D01*
X202372812Y-107133518D01*
X202336502Y-107013820D01*
X202277537Y-106903506D01*
X202198185Y-106806815D01*
X202101494Y-106727463D01*
X201991180Y-106668498D01*
X201871482Y-106632188D01*
X201747000Y-106619928D01*
X200347000Y-106619928D01*
X200222518Y-106632188D01*
X200102820Y-106668498D01*
X199992506Y-106727463D01*
X199895815Y-106806815D01*
X199816463Y-106903506D01*
X199757498Y-107013820D01*
X199721188Y-107133518D01*
X199708928Y-107258000D01*
X197885072Y-107258000D01*
X197872812Y-107133518D01*
X197836502Y-107013820D01*
X197777537Y-106903506D01*
X197698185Y-106806815D01*
X197601494Y-106727463D01*
X197491180Y-106668498D01*
X197371482Y-106632188D01*
X197248623Y-106620088D01*
X197350937Y-106517774D01*
X197464205Y-106348256D01*
X197542226Y-106159898D01*
X197582000Y-105959939D01*
X197582000Y-105756061D01*
X197542226Y-105556102D01*
X197464205Y-105367744D01*
X197350937Y-105198226D01*
X197206774Y-105054063D01*
X197037256Y-104940795D01*
X196848898Y-104862774D01*
X196648939Y-104823000D01*
X196445061Y-104823000D01*
X196245102Y-104862774D01*
X196056744Y-104940795D01*
X196008546Y-104973000D01*
X194861468Y-104973000D01*
X194848185Y-104956815D01*
X194751494Y-104877463D01*
X194641180Y-104818498D01*
X194521482Y-104782188D01*
X194397000Y-104769928D01*
X192297000Y-104769928D01*
X192172518Y-104782188D01*
X192052820Y-104818498D01*
X191942506Y-104877463D01*
X191845815Y-104956815D01*
X191766463Y-105053506D01*
X191707498Y-105163820D01*
X191671188Y-105283518D01*
X191658928Y-105408000D01*
X191658928Y-106808000D01*
X191671188Y-106932482D01*
X191707498Y-107052180D01*
X191766463Y-107162494D01*
X191845815Y-107259185D01*
X191942506Y-107338537D01*
X192052820Y-107397502D01*
X192136876Y-107423000D01*
X186813579Y-107423000D01*
X185935072Y-106544494D01*
X185935072Y-105671506D01*
X188842049Y-102764530D01*
X188875817Y-102736817D01*
X188904244Y-102702180D01*
X188986410Y-102602060D01*
X188996875Y-102582482D01*
X189068589Y-102448313D01*
X189119195Y-102281490D01*
X189132000Y-102151477D01*
X189132000Y-102151467D01*
X189136281Y-102108001D01*
X189132000Y-102064535D01*
X189132000Y-100908000D01*
X191658928Y-100908000D01*
X191658928Y-102308000D01*
X191671188Y-102432482D01*
X191707498Y-102552180D01*
X191766463Y-102662494D01*
X191845815Y-102759185D01*
X191942506Y-102838537D01*
X192052820Y-102897502D01*
X192172518Y-102933812D01*
X192297000Y-102946072D01*
X194397000Y-102946072D01*
X194521482Y-102933812D01*
X194641180Y-102897502D01*
X194751494Y-102838537D01*
X194848185Y-102759185D01*
X194927537Y-102662494D01*
X194986502Y-102552180D01*
X195022812Y-102432482D01*
X195035072Y-102308000D01*
X195035072Y-100908000D01*
X195022812Y-100783518D01*
X194986502Y-100663820D01*
X194927537Y-100553506D01*
X194848185Y-100456815D01*
X194751494Y-100377463D01*
X194641180Y-100318498D01*
X194521482Y-100282188D01*
X194397000Y-100269928D01*
X192297000Y-100269928D01*
X192172518Y-100282188D01*
X192052820Y-100318498D01*
X191942506Y-100377463D01*
X191845815Y-100456815D01*
X191766463Y-100553506D01*
X191707498Y-100663820D01*
X191671188Y-100783518D01*
X191658928Y-100908000D01*
X189132000Y-100908000D01*
X189132000Y-97446072D01*
X189297000Y-97446072D01*
X189421482Y-97433812D01*
X189541180Y-97397502D01*
X189651494Y-97338537D01*
X189748185Y-97259185D01*
X189827537Y-97162494D01*
X189886502Y-97052180D01*
X189922812Y-96932482D01*
X189935072Y-96808000D01*
X189935072Y-95408000D01*
X195658928Y-95408000D01*
X195658928Y-96808000D01*
X195671188Y-96932482D01*
X195707498Y-97052180D01*
X195766463Y-97162494D01*
X195845815Y-97259185D01*
X195942506Y-97338537D01*
X196052820Y-97397502D01*
X196172518Y-97433812D01*
X196297000Y-97446072D01*
X198397000Y-97446072D01*
X198521482Y-97433812D01*
X198641180Y-97397502D01*
X198751494Y-97338537D01*
X198848185Y-97259185D01*
X198927537Y-97162494D01*
X198986502Y-97052180D01*
X199004454Y-96993000D01*
X200008546Y-96993000D01*
X200056744Y-97025205D01*
X200245102Y-97103226D01*
X200445061Y-97143000D01*
X200648939Y-97143000D01*
X200848898Y-97103226D01*
X201037256Y-97025205D01*
X201206774Y-96911937D01*
X201350937Y-96767774D01*
X201464205Y-96598256D01*
X201542226Y-96409898D01*
X201582000Y-96209939D01*
X201582000Y-96006061D01*
X201542226Y-95806102D01*
X201464205Y-95617744D01*
X201350937Y-95448226D01*
X201206774Y-95304063D01*
X201037256Y-95190795D01*
X200848898Y-95112774D01*
X200648939Y-95073000D01*
X200445061Y-95073000D01*
X200245102Y-95112774D01*
X200056744Y-95190795D01*
X200008546Y-95223000D01*
X199004454Y-95223000D01*
X198986502Y-95163820D01*
X198927537Y-95053506D01*
X198848185Y-94956815D01*
X198751494Y-94877463D01*
X198641180Y-94818498D01*
X198521482Y-94782188D01*
X198397000Y-94769928D01*
X196297000Y-94769928D01*
X196172518Y-94782188D01*
X196052820Y-94818498D01*
X195942506Y-94877463D01*
X195845815Y-94956815D01*
X195766463Y-95053506D01*
X195707498Y-95163820D01*
X195671188Y-95283518D01*
X195658928Y-95408000D01*
X189935072Y-95408000D01*
X189922812Y-95283518D01*
X189886502Y-95163820D01*
X189827537Y-95053506D01*
X189748185Y-94956815D01*
X189651494Y-94877463D01*
X189541180Y-94818498D01*
X189421482Y-94782188D01*
X189297000Y-94769928D01*
X187197000Y-94769928D01*
X187072518Y-94782188D01*
X186952820Y-94818498D01*
X186842506Y-94877463D01*
X186745815Y-94956815D01*
X186666463Y-95053506D01*
X186607498Y-95163820D01*
X186589546Y-95223000D01*
X184413579Y-95223000D01*
X181132000Y-91941422D01*
X181132000Y-90908000D01*
X186558928Y-90908000D01*
X186558928Y-92308000D01*
X186571188Y-92432482D01*
X186607498Y-92552180D01*
X186666463Y-92662494D01*
X186745815Y-92759185D01*
X186842506Y-92838537D01*
X186952820Y-92897502D01*
X187072518Y-92933812D01*
X187197000Y-92946072D01*
X189297000Y-92946072D01*
X189421482Y-92933812D01*
X189541180Y-92897502D01*
X189651494Y-92838537D01*
X189748185Y-92759185D01*
X189827537Y-92662494D01*
X189886502Y-92552180D01*
X189922812Y-92432482D01*
X189935072Y-92308000D01*
X189935072Y-90908000D01*
X195658928Y-90908000D01*
X195658928Y-92308000D01*
X195671188Y-92432482D01*
X195707498Y-92552180D01*
X195766463Y-92662494D01*
X195845815Y-92759185D01*
X195942506Y-92838537D01*
X196052820Y-92897502D01*
X196172518Y-92933812D01*
X196297000Y-92946072D01*
X198397000Y-92946072D01*
X198521482Y-92933812D01*
X198641180Y-92897502D01*
X198751494Y-92838537D01*
X198848185Y-92759185D01*
X198927537Y-92662494D01*
X198986502Y-92552180D01*
X199022812Y-92432482D01*
X199035072Y-92308000D01*
X199035072Y-90908000D01*
X199022812Y-90783518D01*
X198986502Y-90663820D01*
X198927537Y-90553506D01*
X198848185Y-90456815D01*
X198751494Y-90377463D01*
X198641180Y-90318498D01*
X198521482Y-90282188D01*
X198397000Y-90269928D01*
X196297000Y-90269928D01*
X196172518Y-90282188D01*
X196052820Y-90318498D01*
X195942506Y-90377463D01*
X195845815Y-90456815D01*
X195766463Y-90553506D01*
X195707498Y-90663820D01*
X195671188Y-90783518D01*
X195658928Y-90908000D01*
X189935072Y-90908000D01*
X189922812Y-90783518D01*
X189886502Y-90663820D01*
X189827537Y-90553506D01*
X189748185Y-90456815D01*
X189651494Y-90377463D01*
X189541180Y-90318498D01*
X189421482Y-90282188D01*
X189297000Y-90269928D01*
X187197000Y-90269928D01*
X187072518Y-90282188D01*
X186952820Y-90318498D01*
X186842506Y-90377463D01*
X186745815Y-90456815D01*
X186666463Y-90553506D01*
X186607498Y-90663820D01*
X186571188Y-90783518D01*
X186558928Y-90908000D01*
X181132000Y-90908000D01*
X181132000Y-88446072D01*
X181297000Y-88446072D01*
X181421482Y-88433812D01*
X181541180Y-88397502D01*
X181651494Y-88338537D01*
X181748185Y-88259185D01*
X181827537Y-88162494D01*
X181886502Y-88052180D01*
X181922812Y-87932482D01*
X181935072Y-87808000D01*
X181935072Y-86408000D01*
X181922812Y-86283518D01*
X181886502Y-86163820D01*
X181827537Y-86053506D01*
X181748185Y-85956815D01*
X181651494Y-85877463D01*
X181541180Y-85818498D01*
X181421482Y-85782188D01*
X181297000Y-85769928D01*
X179197000Y-85769928D01*
X179072518Y-85782188D01*
X178952820Y-85818498D01*
X178842506Y-85877463D01*
X178745815Y-85956815D01*
X178666463Y-86053506D01*
X178607498Y-86163820D01*
X178571188Y-86283518D01*
X178558928Y-86408000D01*
X178558928Y-87808000D01*
X178571188Y-87932482D01*
X178607498Y-88052180D01*
X178666463Y-88162494D01*
X178745815Y-88259185D01*
X178842506Y-88338537D01*
X178952820Y-88397502D01*
X179072518Y-88433812D01*
X179197000Y-88446072D01*
X179362000Y-88446072D01*
X179362001Y-92264521D01*
X179357719Y-92308000D01*
X179374805Y-92481490D01*
X179425412Y-92648313D01*
X179507590Y-92802059D01*
X179590468Y-92903046D01*
X179590471Y-92903049D01*
X179618184Y-92936817D01*
X179651951Y-92964530D01*
X183390470Y-96703049D01*
X183418183Y-96736817D01*
X183451951Y-96764530D01*
X183451953Y-96764532D01*
X183552941Y-96847411D01*
X183706686Y-96929589D01*
X183873510Y-96980195D01*
X184003523Y-96993000D01*
X184003531Y-96993000D01*
X184047000Y-96997281D01*
X184090469Y-96993000D01*
X186589546Y-96993000D01*
X186607498Y-97052180D01*
X186666463Y-97162494D01*
X186745815Y-97259185D01*
X186842506Y-97338537D01*
X186952820Y-97397502D01*
X187072518Y-97433812D01*
X187197000Y-97446072D01*
X187362000Y-97446072D01*
X187362001Y-101741420D01*
X184333494Y-104769928D01*
X183197000Y-104769928D01*
X183072518Y-104782188D01*
X182952820Y-104818498D01*
X182842506Y-104877463D01*
X182745815Y-104956815D01*
X182666463Y-105053506D01*
X182607498Y-105163820D01*
X182589546Y-105223000D01*
X177590469Y-105223000D01*
X177547000Y-105218719D01*
X177503531Y-105223000D01*
X177503523Y-105223000D01*
X177373510Y-105235805D01*
X177206686Y-105286411D01*
X177052941Y-105368589D01*
X176951953Y-105451468D01*
X176951951Y-105451470D01*
X176918183Y-105479183D01*
X176890470Y-105512951D01*
X175951951Y-106451471D01*
X175918184Y-106479183D01*
X175890471Y-106512951D01*
X175890468Y-106512954D01*
X175807590Y-106613941D01*
X175802022Y-106624358D01*
X175722518Y-106632188D01*
X175602820Y-106668498D01*
X175492506Y-106727463D01*
X175395815Y-106806815D01*
X175316463Y-106903506D01*
X175279317Y-106973000D01*
X169163579Y-106973000D01*
X164453534Y-102262956D01*
X164425817Y-102229183D01*
X164291059Y-102118589D01*
X164137313Y-102036411D01*
X163970490Y-101985805D01*
X163840477Y-101973000D01*
X163840469Y-101973000D01*
X163797000Y-101968719D01*
X163753531Y-101973000D01*
X133163579Y-101973000D01*
X129682000Y-98491422D01*
X129682000Y-94901469D01*
X129686281Y-94858000D01*
X129682000Y-94814531D01*
X129682000Y-94814523D01*
X129669195Y-94684510D01*
X129618589Y-94517687D01*
X129536411Y-94363941D01*
X129425817Y-94229183D01*
X129392051Y-94201472D01*
X128658579Y-93468000D01*
X159208928Y-93468000D01*
X159208928Y-95168000D01*
X159221188Y-95292482D01*
X159257498Y-95412180D01*
X159316463Y-95522494D01*
X159370222Y-95588000D01*
X159316463Y-95653506D01*
X159257498Y-95763820D01*
X159221188Y-95883518D01*
X159208928Y-96008000D01*
X159208928Y-97708000D01*
X159221188Y-97832482D01*
X159257498Y-97952180D01*
X159316463Y-98062494D01*
X159370222Y-98128000D01*
X159316463Y-98193506D01*
X159257498Y-98303820D01*
X159221188Y-98423518D01*
X159208928Y-98548000D01*
X159208928Y-100248000D01*
X159221188Y-100372482D01*
X159257498Y-100492180D01*
X159316463Y-100602494D01*
X159395815Y-100699185D01*
X159492506Y-100778537D01*
X159602820Y-100837502D01*
X159722518Y-100873812D01*
X159847000Y-100886072D01*
X163347000Y-100886072D01*
X163471482Y-100873812D01*
X163591180Y-100837502D01*
X163701494Y-100778537D01*
X163798185Y-100699185D01*
X163877537Y-100602494D01*
X163936502Y-100492180D01*
X163972812Y-100372482D01*
X163974238Y-100358000D01*
X165208928Y-100358000D01*
X165208928Y-102458000D01*
X165221188Y-102582482D01*
X165257498Y-102702180D01*
X165316463Y-102812494D01*
X165395815Y-102909185D01*
X165492506Y-102988537D01*
X165602820Y-103047502D01*
X165722518Y-103083812D01*
X165847000Y-103096072D01*
X167247000Y-103096072D01*
X167371482Y-103083812D01*
X167491180Y-103047502D01*
X167601494Y-102988537D01*
X167698185Y-102909185D01*
X167777537Y-102812494D01*
X167836502Y-102702180D01*
X167872812Y-102582482D01*
X167885072Y-102458000D01*
X169708928Y-102458000D01*
X169721188Y-102582482D01*
X169757498Y-102702180D01*
X169816463Y-102812494D01*
X169895815Y-102909185D01*
X169992506Y-102988537D01*
X170102820Y-103047502D01*
X170222518Y-103083812D01*
X170347000Y-103096072D01*
X170761250Y-103093000D01*
X170920000Y-102934250D01*
X170920000Y-101535000D01*
X171174000Y-101535000D01*
X171174000Y-102934250D01*
X171332750Y-103093000D01*
X171747000Y-103096072D01*
X171871482Y-103083812D01*
X171991180Y-103047502D01*
X172101494Y-102988537D01*
X172198185Y-102909185D01*
X172277537Y-102812494D01*
X172336502Y-102702180D01*
X172372812Y-102582482D01*
X172385072Y-102458000D01*
X172382000Y-101693750D01*
X172223250Y-101535000D01*
X171174000Y-101535000D01*
X170920000Y-101535000D01*
X169870750Y-101535000D01*
X169712000Y-101693750D01*
X169708928Y-102458000D01*
X167885072Y-102458000D01*
X167885072Y-100358000D01*
X169708928Y-100358000D01*
X169712000Y-101122250D01*
X169870750Y-101281000D01*
X170920000Y-101281000D01*
X170920000Y-99881750D01*
X171174000Y-99881750D01*
X171174000Y-101281000D01*
X172223250Y-101281000D01*
X172382000Y-101122250D01*
X172382861Y-100908000D01*
X182558928Y-100908000D01*
X182558928Y-102308000D01*
X182571188Y-102432482D01*
X182607498Y-102552180D01*
X182666463Y-102662494D01*
X182745815Y-102759185D01*
X182842506Y-102838537D01*
X182952820Y-102897502D01*
X183072518Y-102933812D01*
X183197000Y-102946072D01*
X185297000Y-102946072D01*
X185421482Y-102933812D01*
X185541180Y-102897502D01*
X185651494Y-102838537D01*
X185748185Y-102759185D01*
X185827537Y-102662494D01*
X185886502Y-102552180D01*
X185922812Y-102432482D01*
X185935072Y-102308000D01*
X185935072Y-100908000D01*
X185922812Y-100783518D01*
X185886502Y-100663820D01*
X185827537Y-100553506D01*
X185748185Y-100456815D01*
X185651494Y-100377463D01*
X185541180Y-100318498D01*
X185421482Y-100282188D01*
X185297000Y-100269928D01*
X183197000Y-100269928D01*
X183072518Y-100282188D01*
X182952820Y-100318498D01*
X182842506Y-100377463D01*
X182745815Y-100456815D01*
X182666463Y-100553506D01*
X182607498Y-100663820D01*
X182571188Y-100783518D01*
X182558928Y-100908000D01*
X172382861Y-100908000D01*
X172385072Y-100358000D01*
X172372812Y-100233518D01*
X172336502Y-100113820D01*
X172277537Y-100003506D01*
X172198185Y-99906815D01*
X172101494Y-99827463D01*
X171991180Y-99768498D01*
X171871482Y-99732188D01*
X171747000Y-99719928D01*
X171332750Y-99723000D01*
X171174000Y-99881750D01*
X170920000Y-99881750D01*
X170761250Y-99723000D01*
X170347000Y-99719928D01*
X170222518Y-99732188D01*
X170102820Y-99768498D01*
X169992506Y-99827463D01*
X169895815Y-99906815D01*
X169816463Y-100003506D01*
X169757498Y-100113820D01*
X169721188Y-100233518D01*
X169708928Y-100358000D01*
X167885072Y-100358000D01*
X167872812Y-100233518D01*
X167836502Y-100113820D01*
X167777537Y-100003506D01*
X167698185Y-99906815D01*
X167601494Y-99827463D01*
X167491180Y-99768498D01*
X167371482Y-99732188D01*
X167247000Y-99719928D01*
X165847000Y-99719928D01*
X165722518Y-99732188D01*
X165602820Y-99768498D01*
X165492506Y-99827463D01*
X165395815Y-99906815D01*
X165316463Y-100003506D01*
X165257498Y-100113820D01*
X165221188Y-100233518D01*
X165208928Y-100358000D01*
X163974238Y-100358000D01*
X163985072Y-100248000D01*
X163985072Y-98548000D01*
X163972812Y-98423518D01*
X163936502Y-98303820D01*
X163877537Y-98193506D01*
X163823778Y-98128000D01*
X163877537Y-98062494D01*
X163936502Y-97952180D01*
X163972812Y-97832482D01*
X163985072Y-97708000D01*
X163985072Y-96008000D01*
X163972812Y-95883518D01*
X163936502Y-95763820D01*
X163877537Y-95653506D01*
X163823778Y-95588000D01*
X163877537Y-95522494D01*
X163936502Y-95412180D01*
X163972812Y-95292482D01*
X163985072Y-95168000D01*
X163985072Y-93468000D01*
X163972812Y-93343518D01*
X163936502Y-93223820D01*
X163877537Y-93113506D01*
X163798185Y-93016815D01*
X163701494Y-92937463D01*
X163591180Y-92878498D01*
X163471482Y-92842188D01*
X163347000Y-92829928D01*
X159847000Y-92829928D01*
X159722518Y-92842188D01*
X159602820Y-92878498D01*
X159492506Y-92937463D01*
X159395815Y-93016815D01*
X159316463Y-93113506D01*
X159257498Y-93223820D01*
X159221188Y-93343518D01*
X159208928Y-93468000D01*
X128658579Y-93468000D01*
X124646650Y-89456072D01*
X126217000Y-89456072D01*
X126341482Y-89443812D01*
X126461180Y-89407502D01*
X126571494Y-89348537D01*
X126637000Y-89294778D01*
X126702506Y-89348537D01*
X126812820Y-89407502D01*
X126932518Y-89443812D01*
X127057000Y-89456072D01*
X128757000Y-89456072D01*
X128881482Y-89443812D01*
X129001180Y-89407502D01*
X129111494Y-89348537D01*
X129177000Y-89294778D01*
X129242506Y-89348537D01*
X129352820Y-89407502D01*
X129472518Y-89443812D01*
X129597000Y-89456072D01*
X131297000Y-89456072D01*
X131421482Y-89443812D01*
X131541180Y-89407502D01*
X131651494Y-89348537D01*
X131717000Y-89294778D01*
X131782506Y-89348537D01*
X131892820Y-89407502D01*
X132012518Y-89443812D01*
X132137000Y-89456072D01*
X133837000Y-89456072D01*
X133961482Y-89443812D01*
X134081180Y-89407502D01*
X134191494Y-89348537D01*
X134257000Y-89294778D01*
X134322506Y-89348537D01*
X134432820Y-89407502D01*
X134552518Y-89443812D01*
X134677000Y-89456072D01*
X136377000Y-89456072D01*
X136501482Y-89443812D01*
X136621180Y-89407502D01*
X136731494Y-89348537D01*
X136797000Y-89294778D01*
X136862506Y-89348537D01*
X136972820Y-89407502D01*
X137092518Y-89443812D01*
X137182001Y-89452625D01*
X137182001Y-90084521D01*
X137177719Y-90128000D01*
X137194805Y-90301490D01*
X137245412Y-90468313D01*
X137327590Y-90622059D01*
X137410468Y-90723046D01*
X137410471Y-90723049D01*
X137438184Y-90756817D01*
X137471951Y-90784529D01*
X138140470Y-91453049D01*
X138168183Y-91486817D01*
X138201951Y-91514530D01*
X138201953Y-91514532D01*
X138267823Y-91568590D01*
X138302941Y-91597411D01*
X138456687Y-91679589D01*
X138623510Y-91730195D01*
X138753523Y-91743000D01*
X138753531Y-91743000D01*
X138797000Y-91747281D01*
X138840469Y-91743000D01*
X163753531Y-91743000D01*
X163797000Y-91747281D01*
X163840469Y-91743000D01*
X163840477Y-91743000D01*
X163970490Y-91730195D01*
X164137313Y-91679589D01*
X164291059Y-91597411D01*
X164425817Y-91486817D01*
X164453534Y-91453044D01*
X165163579Y-90743000D01*
X165473574Y-90743000D01*
X165395815Y-90806815D01*
X165316463Y-90903506D01*
X165257498Y-91013820D01*
X165221188Y-91133518D01*
X165208928Y-91258000D01*
X165208928Y-93358000D01*
X165221188Y-93482482D01*
X165257498Y-93602180D01*
X165316463Y-93712494D01*
X165395815Y-93809185D01*
X165492506Y-93888537D01*
X165602820Y-93947502D01*
X165722518Y-93983812D01*
X165847000Y-93996072D01*
X167247000Y-93996072D01*
X167371482Y-93983812D01*
X167491180Y-93947502D01*
X167601494Y-93888537D01*
X167698185Y-93809185D01*
X167777537Y-93712494D01*
X167836502Y-93602180D01*
X167872812Y-93482482D01*
X167885072Y-93358000D01*
X167885072Y-91258000D01*
X167872812Y-91133518D01*
X167836502Y-91013820D01*
X167777537Y-90903506D01*
X167698185Y-90806815D01*
X167620426Y-90743000D01*
X169973574Y-90743000D01*
X169895815Y-90806815D01*
X169816463Y-90903506D01*
X169757498Y-91013820D01*
X169721188Y-91133518D01*
X169708928Y-91258000D01*
X169708928Y-93358000D01*
X169721188Y-93482482D01*
X169757498Y-93602180D01*
X169816463Y-93712494D01*
X169895815Y-93809185D01*
X169992506Y-93888537D01*
X170102820Y-93947502D01*
X170222518Y-93983812D01*
X170347000Y-93996072D01*
X171747000Y-93996072D01*
X171871482Y-93983812D01*
X171991180Y-93947502D01*
X172101494Y-93888537D01*
X172198185Y-93809185D01*
X172277537Y-93712494D01*
X172336502Y-93602180D01*
X172372812Y-93482482D01*
X172385072Y-93358000D01*
X172385072Y-91258000D01*
X172372812Y-91133518D01*
X172336502Y-91013820D01*
X172277537Y-90903506D01*
X172198185Y-90806815D01*
X172101494Y-90727463D01*
X171991180Y-90668498D01*
X171932000Y-90650546D01*
X171932000Y-90151465D01*
X171936281Y-90107999D01*
X171932000Y-90064533D01*
X171932000Y-90064523D01*
X171919195Y-89934510D01*
X171868589Y-89767687D01*
X171786411Y-89613941D01*
X171675817Y-89479183D01*
X171642044Y-89451466D01*
X171453534Y-89262956D01*
X171425817Y-89229183D01*
X171291059Y-89118589D01*
X171137313Y-89036411D01*
X170970490Y-88985805D01*
X170840477Y-88973000D01*
X170840469Y-88973000D01*
X170797000Y-88968719D01*
X170753531Y-88973000D01*
X164840469Y-88973000D01*
X164797000Y-88968719D01*
X164753531Y-88973000D01*
X164753523Y-88973000D01*
X164623510Y-88985805D01*
X164456686Y-89036411D01*
X164302941Y-89118589D01*
X164201953Y-89201468D01*
X164201951Y-89201470D01*
X164168183Y-89229183D01*
X164140470Y-89262951D01*
X163430422Y-89973000D01*
X139163579Y-89973000D01*
X138952000Y-89761422D01*
X138952000Y-89452625D01*
X139041482Y-89443812D01*
X139161180Y-89407502D01*
X139271494Y-89348537D01*
X139337000Y-89294778D01*
X139402506Y-89348537D01*
X139512820Y-89407502D01*
X139632518Y-89443812D01*
X139757000Y-89456072D01*
X141457000Y-89456072D01*
X141581482Y-89443812D01*
X141701180Y-89407502D01*
X141811494Y-89348537D01*
X141877000Y-89294778D01*
X141942506Y-89348537D01*
X142052820Y-89407502D01*
X142172518Y-89443812D01*
X142297000Y-89456072D01*
X143997000Y-89456072D01*
X144121482Y-89443812D01*
X144241180Y-89407502D01*
X144351494Y-89348537D01*
X144417000Y-89294778D01*
X144482506Y-89348537D01*
X144592820Y-89407502D01*
X144712518Y-89443812D01*
X144837000Y-89456072D01*
X146537000Y-89456072D01*
X146661482Y-89443812D01*
X146781180Y-89407502D01*
X146891494Y-89348537D01*
X146957000Y-89294778D01*
X147022506Y-89348537D01*
X147132820Y-89407502D01*
X147252518Y-89443812D01*
X147377000Y-89456072D01*
X149077000Y-89456072D01*
X149201482Y-89443812D01*
X149321180Y-89407502D01*
X149431494Y-89348537D01*
X149497000Y-89294778D01*
X149562506Y-89348537D01*
X149672820Y-89407502D01*
X149792518Y-89443812D01*
X149917000Y-89456072D01*
X151617000Y-89456072D01*
X151741482Y-89443812D01*
X151861180Y-89407502D01*
X151971494Y-89348537D01*
X152037000Y-89294778D01*
X152102506Y-89348537D01*
X152212820Y-89407502D01*
X152332518Y-89443812D01*
X152457000Y-89456072D01*
X154157000Y-89456072D01*
X154281482Y-89443812D01*
X154401180Y-89407502D01*
X154511494Y-89348537D01*
X154577000Y-89294778D01*
X154642506Y-89348537D01*
X154752820Y-89407502D01*
X154872518Y-89443812D01*
X154997000Y-89456072D01*
X156697000Y-89456072D01*
X156821482Y-89443812D01*
X156941180Y-89407502D01*
X157051494Y-89348537D01*
X157117000Y-89294778D01*
X157182506Y-89348537D01*
X157292820Y-89407502D01*
X157412518Y-89443812D01*
X157537000Y-89456072D01*
X159237000Y-89456072D01*
X159361482Y-89443812D01*
X159481180Y-89407502D01*
X159591494Y-89348537D01*
X159657000Y-89294778D01*
X159722506Y-89348537D01*
X159832820Y-89407502D01*
X159952518Y-89443812D01*
X160077000Y-89456072D01*
X161777000Y-89456072D01*
X161901482Y-89443812D01*
X162021180Y-89407502D01*
X162131494Y-89348537D01*
X162228185Y-89269185D01*
X162307537Y-89172494D01*
X162366502Y-89062180D01*
X162402812Y-88942482D01*
X162411625Y-88853000D01*
X174143531Y-88853000D01*
X174187000Y-88857281D01*
X174230469Y-88853000D01*
X174230477Y-88853000D01*
X174360490Y-88840195D01*
X174527313Y-88789589D01*
X174681059Y-88707411D01*
X174815817Y-88596817D01*
X174843534Y-88563044D01*
X177663579Y-85743000D01*
X186730422Y-85743000D01*
X187658928Y-86671507D01*
X187658928Y-87808000D01*
X187671188Y-87932482D01*
X187707498Y-88052180D01*
X187766463Y-88162494D01*
X187845815Y-88259185D01*
X187942506Y-88338537D01*
X188052820Y-88397502D01*
X188172518Y-88433812D01*
X188297000Y-88446072D01*
X190397000Y-88446072D01*
X190521482Y-88433812D01*
X190641180Y-88397502D01*
X190751494Y-88338537D01*
X190848185Y-88259185D01*
X190927537Y-88162494D01*
X190986502Y-88052180D01*
X191022812Y-87932482D01*
X191035072Y-87808000D01*
X191035072Y-86408000D01*
X191022812Y-86283518D01*
X190986502Y-86163820D01*
X190927537Y-86053506D01*
X190848185Y-85956815D01*
X190751494Y-85877463D01*
X190641180Y-85818498D01*
X190521482Y-85782188D01*
X190397000Y-85769928D01*
X189260507Y-85769928D01*
X187753534Y-84262956D01*
X187725817Y-84229183D01*
X187591059Y-84118589D01*
X187437313Y-84036411D01*
X187270490Y-83985805D01*
X187140477Y-83973000D01*
X187140469Y-83973000D01*
X187097000Y-83968719D01*
X187053531Y-83973000D01*
X177340465Y-83973000D01*
X177296999Y-83968719D01*
X177253533Y-83973000D01*
X177253523Y-83973000D01*
X177123510Y-83985805D01*
X176956687Y-84036411D01*
X176802941Y-84118589D01*
X176802939Y-84118590D01*
X176802940Y-84118590D01*
X176701953Y-84201468D01*
X176701951Y-84201470D01*
X176668183Y-84229183D01*
X176640470Y-84262951D01*
X173820422Y-87083000D01*
X162415072Y-87083000D01*
X162415072Y-85318000D01*
X162402812Y-85193518D01*
X162366502Y-85073820D01*
X162307537Y-84963506D01*
X162228185Y-84866815D01*
X162131494Y-84787463D01*
X162021180Y-84728498D01*
X161901482Y-84692188D01*
X161777000Y-84679928D01*
X160077000Y-84679928D01*
X159952518Y-84692188D01*
X159832820Y-84728498D01*
X159722506Y-84787463D01*
X159657000Y-84841222D01*
X159591494Y-84787463D01*
X159481180Y-84728498D01*
X159361482Y-84692188D01*
X159272000Y-84683375D01*
X159272000Y-84634578D01*
X160042044Y-83864535D01*
X160098898Y-83853226D01*
X160287256Y-83775205D01*
X160456774Y-83661937D01*
X160600937Y-83517774D01*
X160714205Y-83348256D01*
X160792226Y-83159898D01*
X160832000Y-82959939D01*
X160832000Y-82756061D01*
X160792226Y-82556102D01*
X160714205Y-82367744D01*
X160600937Y-82198226D01*
X160456774Y-82054063D01*
X160287256Y-81940795D01*
X160208083Y-81908000D01*
X178558928Y-81908000D01*
X178558928Y-83308000D01*
X178571188Y-83432482D01*
X178607498Y-83552180D01*
X178666463Y-83662494D01*
X178745815Y-83759185D01*
X178842506Y-83838537D01*
X178952820Y-83897502D01*
X179072518Y-83933812D01*
X179197000Y-83946072D01*
X181297000Y-83946072D01*
X181421482Y-83933812D01*
X181541180Y-83897502D01*
X181651494Y-83838537D01*
X181748185Y-83759185D01*
X181827537Y-83662494D01*
X181886502Y-83552180D01*
X181922812Y-83432482D01*
X181935072Y-83308000D01*
X181935072Y-81908000D01*
X187658928Y-81908000D01*
X187658928Y-83308000D01*
X187671188Y-83432482D01*
X187707498Y-83552180D01*
X187766463Y-83662494D01*
X187845815Y-83759185D01*
X187942506Y-83838537D01*
X188052820Y-83897502D01*
X188172518Y-83933812D01*
X188297000Y-83946072D01*
X190397000Y-83946072D01*
X190521482Y-83933812D01*
X190641180Y-83897502D01*
X190751494Y-83838537D01*
X190848185Y-83759185D01*
X190927537Y-83662494D01*
X190986502Y-83552180D01*
X191022812Y-83432482D01*
X191035072Y-83308000D01*
X191035072Y-81908000D01*
X191022812Y-81783518D01*
X190986502Y-81663820D01*
X190927537Y-81553506D01*
X190848185Y-81456815D01*
X190751494Y-81377463D01*
X190641180Y-81318498D01*
X190521482Y-81282188D01*
X190397000Y-81269928D01*
X188297000Y-81269928D01*
X188172518Y-81282188D01*
X188052820Y-81318498D01*
X187942506Y-81377463D01*
X187845815Y-81456815D01*
X187766463Y-81553506D01*
X187707498Y-81663820D01*
X187671188Y-81783518D01*
X187658928Y-81908000D01*
X181935072Y-81908000D01*
X181922812Y-81783518D01*
X181886502Y-81663820D01*
X181827537Y-81553506D01*
X181748185Y-81456815D01*
X181651494Y-81377463D01*
X181541180Y-81318498D01*
X181421482Y-81282188D01*
X181297000Y-81269928D01*
X179197000Y-81269928D01*
X179072518Y-81282188D01*
X178952820Y-81318498D01*
X178842506Y-81377463D01*
X178745815Y-81456815D01*
X178666463Y-81553506D01*
X178607498Y-81663820D01*
X178571188Y-81783518D01*
X178558928Y-81908000D01*
X160208083Y-81908000D01*
X160098898Y-81862774D01*
X159898939Y-81823000D01*
X159695061Y-81823000D01*
X159495102Y-81862774D01*
X159306744Y-81940795D01*
X159137226Y-82054063D01*
X158993063Y-82198226D01*
X158879795Y-82367744D01*
X158801774Y-82556102D01*
X158790465Y-82612956D01*
X157791951Y-83611471D01*
X157758184Y-83639183D01*
X157730471Y-83672951D01*
X157730468Y-83672954D01*
X157647590Y-83773941D01*
X157565412Y-83927687D01*
X157514805Y-84094510D01*
X157497719Y-84268000D01*
X157502001Y-84311479D01*
X157502001Y-84683375D01*
X157412518Y-84692188D01*
X157292820Y-84728498D01*
X157182506Y-84787463D01*
X157117000Y-84841222D01*
X157051494Y-84787463D01*
X156941180Y-84728498D01*
X156821482Y-84692188D01*
X156697000Y-84679928D01*
X154997000Y-84679928D01*
X154872518Y-84692188D01*
X154752820Y-84728498D01*
X154642506Y-84787463D01*
X154577000Y-84841222D01*
X154511494Y-84787463D01*
X154401180Y-84728498D01*
X154281482Y-84692188D01*
X154157000Y-84679928D01*
X152457000Y-84679928D01*
X152332518Y-84692188D01*
X152212820Y-84728498D01*
X152102506Y-84787463D01*
X152037000Y-84841222D01*
X151971494Y-84787463D01*
X151861180Y-84728498D01*
X151741482Y-84692188D01*
X151617000Y-84679928D01*
X149917000Y-84679928D01*
X149792518Y-84692188D01*
X149672820Y-84728498D01*
X149562506Y-84787463D01*
X149497000Y-84841222D01*
X149431494Y-84787463D01*
X149321180Y-84728498D01*
X149201482Y-84692188D01*
X149077000Y-84679928D01*
X147377000Y-84679928D01*
X147252518Y-84692188D01*
X147132820Y-84728498D01*
X147022506Y-84787463D01*
X146957000Y-84841222D01*
X146891494Y-84787463D01*
X146781180Y-84728498D01*
X146661482Y-84692188D01*
X146537000Y-84679928D01*
X144837000Y-84679928D01*
X144712518Y-84692188D01*
X144592820Y-84728498D01*
X144482506Y-84787463D01*
X144417000Y-84841222D01*
X144351494Y-84787463D01*
X144241180Y-84728498D01*
X144121482Y-84692188D01*
X143997000Y-84679928D01*
X142297000Y-84679928D01*
X142172518Y-84692188D01*
X142052820Y-84728498D01*
X141942506Y-84787463D01*
X141877000Y-84841222D01*
X141811494Y-84787463D01*
X141701180Y-84728498D01*
X141581482Y-84692188D01*
X141457000Y-84679928D01*
X139757000Y-84679928D01*
X139632518Y-84692188D01*
X139512820Y-84728498D01*
X139402506Y-84787463D01*
X139337000Y-84841222D01*
X139271494Y-84787463D01*
X139161180Y-84728498D01*
X139041482Y-84692188D01*
X138917000Y-84679928D01*
X137217000Y-84679928D01*
X137092518Y-84692188D01*
X136972820Y-84728498D01*
X136862506Y-84787463D01*
X136797000Y-84841222D01*
X136731494Y-84787463D01*
X136621180Y-84728498D01*
X136501482Y-84692188D01*
X136377000Y-84679928D01*
X134677000Y-84679928D01*
X134552518Y-84692188D01*
X134432820Y-84728498D01*
X134322506Y-84787463D01*
X134257000Y-84841222D01*
X134191494Y-84787463D01*
X134081180Y-84728498D01*
X133961482Y-84692188D01*
X133837000Y-84679928D01*
X132137000Y-84679928D01*
X132012518Y-84692188D01*
X131892820Y-84728498D01*
X131782506Y-84787463D01*
X131717000Y-84841222D01*
X131651494Y-84787463D01*
X131541180Y-84728498D01*
X131421482Y-84692188D01*
X131297000Y-84679928D01*
X129597000Y-84679928D01*
X129472518Y-84692188D01*
X129352820Y-84728498D01*
X129242506Y-84787463D01*
X129177000Y-84841222D01*
X129111494Y-84787463D01*
X129001180Y-84728498D01*
X128881482Y-84692188D01*
X128757000Y-84679928D01*
X127057000Y-84679928D01*
X126932518Y-84692188D01*
X126812820Y-84728498D01*
X126702506Y-84787463D01*
X126637000Y-84841222D01*
X126571494Y-84787463D01*
X126461180Y-84728498D01*
X126341482Y-84692188D01*
X126217000Y-84679928D01*
X124517000Y-84679928D01*
X124392518Y-84692188D01*
X124272820Y-84728498D01*
X124162506Y-84787463D01*
X124097000Y-84841222D01*
X124031494Y-84787463D01*
X123921180Y-84728498D01*
X123801482Y-84692188D01*
X123677000Y-84679928D01*
X121977000Y-84679928D01*
X121852518Y-84692188D01*
X121732820Y-84728498D01*
X121622506Y-84787463D01*
X121557000Y-84841222D01*
X121491494Y-84787463D01*
X121381180Y-84728498D01*
X121261482Y-84692188D01*
X121137000Y-84679928D01*
X119437000Y-84679928D01*
X119312518Y-84692188D01*
X119192820Y-84728498D01*
X119082506Y-84787463D01*
X119017000Y-84841222D01*
X118951494Y-84787463D01*
X118841180Y-84728498D01*
X118721482Y-84692188D01*
X118597000Y-84679928D01*
X118032750Y-84683000D01*
X117874000Y-84841750D01*
X117874000Y-89294250D01*
X118032750Y-89453000D01*
X118597000Y-89456072D01*
X118721482Y-89443812D01*
X118841180Y-89407502D01*
X118951494Y-89348537D01*
X119017000Y-89294778D01*
X119082506Y-89348537D01*
X119192820Y-89407502D01*
X119312518Y-89443812D01*
X119437000Y-89456072D01*
X121137000Y-89456072D01*
X121261482Y-89443812D01*
X121381180Y-89407502D01*
X121491494Y-89348537D01*
X121557000Y-89294778D01*
X121622506Y-89348537D01*
X121732820Y-89407502D01*
X121852518Y-89443812D01*
X121977000Y-89456072D01*
X122148331Y-89456072D01*
X122170468Y-89483046D01*
X122170471Y-89483049D01*
X122198184Y-89516817D01*
X122231952Y-89544530D01*
X123660422Y-90973000D01*
X115163579Y-90973000D01*
X113635026Y-89444448D01*
X113641482Y-89443812D01*
X113761180Y-89407502D01*
X113871494Y-89348537D01*
X113937000Y-89294778D01*
X114002506Y-89348537D01*
X114112820Y-89407502D01*
X114232518Y-89443812D01*
X114357000Y-89456072D01*
X116057000Y-89456072D01*
X116181482Y-89443812D01*
X116301180Y-89407502D01*
X116411494Y-89348537D01*
X116477000Y-89294778D01*
X116542506Y-89348537D01*
X116652820Y-89407502D01*
X116772518Y-89443812D01*
X116897000Y-89456072D01*
X117461250Y-89453000D01*
X117620000Y-89294250D01*
X117620000Y-84841750D01*
X117461250Y-84683000D01*
X116897000Y-84679928D01*
X116772518Y-84692188D01*
X116652820Y-84728498D01*
X116542506Y-84787463D01*
X116477000Y-84841222D01*
X116411494Y-84787463D01*
X116301180Y-84728498D01*
X116181482Y-84692188D01*
X116057000Y-84679928D01*
X114357000Y-84679928D01*
X114232518Y-84692188D01*
X114112820Y-84728498D01*
X114002506Y-84787463D01*
X113937000Y-84841222D01*
X113871494Y-84787463D01*
X113761180Y-84728498D01*
X113641482Y-84692188D01*
X113517000Y-84679928D01*
X111817000Y-84679928D01*
X111692518Y-84692188D01*
X111572820Y-84728498D01*
X111485000Y-84775440D01*
X111485000Y-80535000D01*
X206115000Y-80535000D01*
X206115001Y-127165000D01*
G37*
%TD.AperFunction*%
D24*
X163912000Y-106224579D02*
X163912001Y-109319544D01*
X163879795Y-109367744D01*
X163801774Y-109556102D01*
X163762000Y-109756061D01*
X163762000Y-109959939D01*
X163801774Y-110159898D01*
X163879795Y-110348256D01*
X163993063Y-110517774D01*
X164137226Y-110661937D01*
X164306744Y-110775205D01*
X164495102Y-110853226D01*
X164695061Y-110893000D01*
X164898939Y-110893000D01*
X165098898Y-110853226D01*
X165287256Y-110775205D01*
X165456774Y-110661937D01*
X165600937Y-110517774D01*
X165714205Y-110348256D01*
X165792226Y-110159898D01*
X165832000Y-109959939D01*
X165832000Y-109756061D01*
X165792226Y-109556102D01*
X165714205Y-109367744D01*
X165682000Y-109319546D01*
X165682000Y-105994579D01*
X167912000Y-108224579D01*
X167912001Y-114241420D01*
X164430422Y-117723000D01*
X154090469Y-117723000D01*
X154047000Y-117718719D01*
X154003531Y-117723000D01*
X154003523Y-117723000D01*
X153873510Y-117735805D01*
X153706686Y-117786411D01*
X153552941Y-117868589D01*
X153451953Y-117951468D01*
X153451951Y-117951470D01*
X153418183Y-117979183D01*
X153390470Y-118012951D01*
X152451956Y-118951466D01*
X152418183Y-118979183D01*
X152307589Y-119113942D01*
X152225411Y-119267688D01*
X152174805Y-119434511D01*
X152162000Y-119564524D01*
X152162000Y-119564531D01*
X152157719Y-119608000D01*
X152162000Y-119651469D01*
X152162000Y-120222636D01*
X152076494Y-120152463D01*
X151966180Y-120093498D01*
X151846482Y-120057188D01*
X151722000Y-120044928D01*
X151332750Y-120048000D01*
X151174000Y-120206750D01*
X151174000Y-121231000D01*
X151194000Y-121231000D01*
X151194000Y-121485000D01*
X151174000Y-121485000D01*
X151174000Y-122509250D01*
X151332750Y-122668000D01*
X151722000Y-122671072D01*
X151846482Y-122658812D01*
X151966180Y-122622502D01*
X152076494Y-122563537D01*
X152173185Y-122484185D01*
X152244487Y-122397303D01*
X152426482Y-122518907D01*
X152664887Y-122617658D01*
X152917976Y-122668000D01*
X153176024Y-122668000D01*
X153429113Y-122617658D01*
X153667518Y-122518907D01*
X153882077Y-122375544D01*
X154047000Y-122210621D01*
X154211923Y-122375544D01*
X154426482Y-122518907D01*
X154664887Y-122617658D01*
X154917976Y-122668000D01*
X155176024Y-122668000D01*
X155429113Y-122617658D01*
X155667518Y-122518907D01*
X155882077Y-122375544D01*
X156047000Y-122210621D01*
X156162001Y-122325622D01*
X156162000Y-123241421D01*
X155680422Y-123723000D01*
X141413579Y-123723000D01*
X140932000Y-123241422D01*
X140932000Y-122325621D01*
X141064544Y-122193077D01*
X141171503Y-122033000D01*
X149733928Y-122033000D01*
X149746188Y-122157482D01*
X149782498Y-122277180D01*
X149841463Y-122387494D01*
X149920815Y-122484185D01*
X150017506Y-122563537D01*
X150127820Y-122622502D01*
X150247518Y-122658812D01*
X150372000Y-122671072D01*
X150761250Y-122668000D01*
X150920000Y-122509250D01*
X150920000Y-121485000D01*
X149895750Y-121485000D01*
X149737000Y-121643750D01*
X149733928Y-122033000D01*
X141171503Y-122033000D01*
X141207907Y-121978518D01*
X141306658Y-121740113D01*
X141357000Y-121487024D01*
X141357000Y-121228976D01*
X141306658Y-120975887D01*
X141207907Y-120737482D01*
X141171504Y-120683000D01*
X149733928Y-120683000D01*
X149737000Y-121072250D01*
X149895750Y-121231000D01*
X150920000Y-121231000D01*
X150920000Y-120206750D01*
X150761250Y-120048000D01*
X150372000Y-120044928D01*
X150247518Y-120057188D01*
X150127820Y-120093498D01*
X150017506Y-120152463D01*
X149920815Y-120231815D01*
X149841463Y-120328506D01*
X149782498Y-120438820D01*
X149746188Y-120558518D01*
X149733928Y-120683000D01*
X141171504Y-120683000D01*
X141064544Y-120522923D01*
X140932000Y-120390379D01*
X140932000Y-117974578D01*
X141202044Y-117704534D01*
X141235817Y-117676817D01*
X141346411Y-117542059D01*
X141403896Y-117434511D01*
X141428589Y-117388314D01*
X141479195Y-117221490D01*
X141489787Y-117113942D01*
X141492000Y-117091477D01*
X141492000Y-117091469D01*
X141496281Y-117048000D01*
X141492000Y-117004531D01*
X141492000Y-109032625D01*
X141581482Y-109023812D01*
X141701180Y-108987502D01*
X141811494Y-108928537D01*
X141877000Y-108874778D01*
X141942506Y-108928537D01*
X142052820Y-108987502D01*
X142172518Y-109023812D01*
X142297000Y-109036072D01*
X143997000Y-109036072D01*
X144121482Y-109023812D01*
X144241180Y-108987502D01*
X144351494Y-108928537D01*
X144417000Y-108874778D01*
X144482506Y-108928537D01*
X144592820Y-108987502D01*
X144712518Y-109023812D01*
X144837000Y-109036072D01*
X146537000Y-109036072D01*
X146661482Y-109023812D01*
X146781180Y-108987502D01*
X146891494Y-108928537D01*
X146957000Y-108874778D01*
X147022506Y-108928537D01*
X147132820Y-108987502D01*
X147252518Y-109023812D01*
X147377000Y-109036072D01*
X149077000Y-109036072D01*
X149201482Y-109023812D01*
X149321180Y-108987502D01*
X149431494Y-108928537D01*
X149497000Y-108874778D01*
X149562506Y-108928537D01*
X149672820Y-108987502D01*
X149792518Y-109023812D01*
X149904935Y-109034884D01*
X149945412Y-109168313D01*
X150027590Y-109322059D01*
X150110468Y-109423046D01*
X150110471Y-109423049D01*
X150138184Y-109456817D01*
X150171951Y-109484529D01*
X152140470Y-111453049D01*
X152168183Y-111486817D01*
X152201951Y-111514530D01*
X152201953Y-111514532D01*
X152302941Y-111597411D01*
X152456686Y-111679589D01*
X152528811Y-111701468D01*
X152623510Y-111730195D01*
X152753523Y-111743000D01*
X152753531Y-111743000D01*
X152797000Y-111747281D01*
X152840469Y-111743000D01*
X155680422Y-111743000D01*
X160890470Y-116953049D01*
X160918183Y-116986817D01*
X160951951Y-117014530D01*
X160951953Y-117014532D01*
X161052941Y-117097411D01*
X161206686Y-117179589D01*
X161344814Y-117221490D01*
X161373510Y-117230195D01*
X161503523Y-117243000D01*
X161503531Y-117243000D01*
X161547000Y-117247281D01*
X161590469Y-117243000D01*
X163008546Y-117243000D01*
X163056744Y-117275205D01*
X163245102Y-117353226D01*
X163445061Y-117393000D01*
X163648939Y-117393000D01*
X163848898Y-117353226D01*
X164037256Y-117275205D01*
X164206774Y-117161937D01*
X164350937Y-117017774D01*
X164464205Y-116848256D01*
X164542226Y-116659898D01*
X164582000Y-116459939D01*
X164582000Y-116256061D01*
X164542226Y-116056102D01*
X164464205Y-115867744D01*
X164350937Y-115698226D01*
X164206774Y-115554063D01*
X164037256Y-115440795D01*
X163848898Y-115362774D01*
X163648939Y-115323000D01*
X163445061Y-115323000D01*
X163245102Y-115362774D01*
X163056744Y-115440795D01*
X163008546Y-115473000D01*
X161913579Y-115473000D01*
X160052945Y-113612367D01*
X160098898Y-113603226D01*
X160287256Y-113525205D01*
X160456774Y-113411937D01*
X160600937Y-113267774D01*
X160714205Y-113098256D01*
X160792226Y-112909898D01*
X160832000Y-112709939D01*
X160832000Y-112506061D01*
X160804319Y-112366898D01*
X162040465Y-113603044D01*
X162051774Y-113659898D01*
X162129795Y-113848256D01*
X162243063Y-114017774D01*
X162387226Y-114161937D01*
X162556744Y-114275205D01*
X162745102Y-114353226D01*
X162945061Y-114393000D01*
X163148939Y-114393000D01*
X163348898Y-114353226D01*
X163537256Y-114275205D01*
X163706774Y-114161937D01*
X163850937Y-114017774D01*
X163964205Y-113848256D01*
X164042226Y-113659898D01*
X164082000Y-113459939D01*
X164082000Y-113256061D01*
X164042226Y-113056102D01*
X163964205Y-112867744D01*
X163850937Y-112698226D01*
X163709941Y-112557230D01*
X163787256Y-112525205D01*
X163956774Y-112411937D01*
X164100937Y-112267774D01*
X164214205Y-112098256D01*
X164292226Y-111909898D01*
X164332000Y-111709939D01*
X164332000Y-111506061D01*
X164292226Y-111306102D01*
X164214205Y-111117744D01*
X164100937Y-110948226D01*
X163956774Y-110804063D01*
X163787256Y-110690795D01*
X163598898Y-110612774D01*
X163542044Y-110601465D01*
X161949749Y-109009170D01*
X162021180Y-108987502D01*
X162131494Y-108928537D01*
X162228185Y-108849185D01*
X162307537Y-108752494D01*
X162366502Y-108642180D01*
X162402812Y-108522482D01*
X162415072Y-108398000D01*
X162415072Y-104898000D01*
X162402812Y-104773518D01*
X162393554Y-104743000D01*
X162430422Y-104743000D01*
X163912000Y-106224579D01*
%TA.AperFunction,Conductor*%
D25*
G36*
X163912000Y-106224579D02*
G01*
X163912001Y-109319544D01*
X163879795Y-109367744D01*
X163801774Y-109556102D01*
X163762000Y-109756061D01*
X163762000Y-109959939D01*
X163801774Y-110159898D01*
X163879795Y-110348256D01*
X163993063Y-110517774D01*
X164137226Y-110661937D01*
X164306744Y-110775205D01*
X164495102Y-110853226D01*
X164695061Y-110893000D01*
X164898939Y-110893000D01*
X165098898Y-110853226D01*
X165287256Y-110775205D01*
X165456774Y-110661937D01*
X165600937Y-110517774D01*
X165714205Y-110348256D01*
X165792226Y-110159898D01*
X165832000Y-109959939D01*
X165832000Y-109756061D01*
X165792226Y-109556102D01*
X165714205Y-109367744D01*
X165682000Y-109319546D01*
X165682000Y-105994579D01*
X167912000Y-108224579D01*
X167912001Y-114241420D01*
X164430422Y-117723000D01*
X154090469Y-117723000D01*
X154047000Y-117718719D01*
X154003531Y-117723000D01*
X154003523Y-117723000D01*
X153873510Y-117735805D01*
X153706686Y-117786411D01*
X153552941Y-117868589D01*
X153451953Y-117951468D01*
X153451951Y-117951470D01*
X153418183Y-117979183D01*
X153390470Y-118012951D01*
X152451956Y-118951466D01*
X152418183Y-118979183D01*
X152307589Y-119113942D01*
X152225411Y-119267688D01*
X152174805Y-119434511D01*
X152162000Y-119564524D01*
X152162000Y-119564531D01*
X152157719Y-119608000D01*
X152162000Y-119651469D01*
X152162000Y-120222636D01*
X152076494Y-120152463D01*
X151966180Y-120093498D01*
X151846482Y-120057188D01*
X151722000Y-120044928D01*
X151332750Y-120048000D01*
X151174000Y-120206750D01*
X151174000Y-121231000D01*
X151194000Y-121231000D01*
X151194000Y-121485000D01*
X151174000Y-121485000D01*
X151174000Y-122509250D01*
X151332750Y-122668000D01*
X151722000Y-122671072D01*
X151846482Y-122658812D01*
X151966180Y-122622502D01*
X152076494Y-122563537D01*
X152173185Y-122484185D01*
X152244487Y-122397303D01*
X152426482Y-122518907D01*
X152664887Y-122617658D01*
X152917976Y-122668000D01*
X153176024Y-122668000D01*
X153429113Y-122617658D01*
X153667518Y-122518907D01*
X153882077Y-122375544D01*
X154047000Y-122210621D01*
X154211923Y-122375544D01*
X154426482Y-122518907D01*
X154664887Y-122617658D01*
X154917976Y-122668000D01*
X155176024Y-122668000D01*
X155429113Y-122617658D01*
X155667518Y-122518907D01*
X155882077Y-122375544D01*
X156047000Y-122210621D01*
X156162001Y-122325622D01*
X156162000Y-123241421D01*
X155680422Y-123723000D01*
X141413579Y-123723000D01*
X140932000Y-123241422D01*
X140932000Y-122325621D01*
X141064544Y-122193077D01*
X141171503Y-122033000D01*
X149733928Y-122033000D01*
X149746188Y-122157482D01*
X149782498Y-122277180D01*
X149841463Y-122387494D01*
X149920815Y-122484185D01*
X150017506Y-122563537D01*
X150127820Y-122622502D01*
X150247518Y-122658812D01*
X150372000Y-122671072D01*
X150761250Y-122668000D01*
X150920000Y-122509250D01*
X150920000Y-121485000D01*
X149895750Y-121485000D01*
X149737000Y-121643750D01*
X149733928Y-122033000D01*
X141171503Y-122033000D01*
X141207907Y-121978518D01*
X141306658Y-121740113D01*
X141357000Y-121487024D01*
X141357000Y-121228976D01*
X141306658Y-120975887D01*
X141207907Y-120737482D01*
X141171504Y-120683000D01*
X149733928Y-120683000D01*
X149737000Y-121072250D01*
X149895750Y-121231000D01*
X150920000Y-121231000D01*
X150920000Y-120206750D01*
X150761250Y-120048000D01*
X150372000Y-120044928D01*
X150247518Y-120057188D01*
X150127820Y-120093498D01*
X150017506Y-120152463D01*
X149920815Y-120231815D01*
X149841463Y-120328506D01*
X149782498Y-120438820D01*
X149746188Y-120558518D01*
X149733928Y-120683000D01*
X141171504Y-120683000D01*
X141064544Y-120522923D01*
X140932000Y-120390379D01*
X140932000Y-117974578D01*
X141202044Y-117704534D01*
X141235817Y-117676817D01*
X141346411Y-117542059D01*
X141403896Y-117434511D01*
X141428589Y-117388314D01*
X141479195Y-117221490D01*
X141489787Y-117113942D01*
X141492000Y-117091477D01*
X141492000Y-117091469D01*
X141496281Y-117048000D01*
X141492000Y-117004531D01*
X141492000Y-109032625D01*
X141581482Y-109023812D01*
X141701180Y-108987502D01*
X141811494Y-108928537D01*
X141877000Y-108874778D01*
X141942506Y-108928537D01*
X142052820Y-108987502D01*
X142172518Y-109023812D01*
X142297000Y-109036072D01*
X143997000Y-109036072D01*
X144121482Y-109023812D01*
X144241180Y-108987502D01*
X144351494Y-108928537D01*
X144417000Y-108874778D01*
X144482506Y-108928537D01*
X144592820Y-108987502D01*
X144712518Y-109023812D01*
X144837000Y-109036072D01*
X146537000Y-109036072D01*
X146661482Y-109023812D01*
X146781180Y-108987502D01*
X146891494Y-108928537D01*
X146957000Y-108874778D01*
X147022506Y-108928537D01*
X147132820Y-108987502D01*
X147252518Y-109023812D01*
X147377000Y-109036072D01*
X149077000Y-109036072D01*
X149201482Y-109023812D01*
X149321180Y-108987502D01*
X149431494Y-108928537D01*
X149497000Y-108874778D01*
X149562506Y-108928537D01*
X149672820Y-108987502D01*
X149792518Y-109023812D01*
X149904935Y-109034884D01*
X149945412Y-109168313D01*
X150027590Y-109322059D01*
X150110468Y-109423046D01*
X150110471Y-109423049D01*
X150138184Y-109456817D01*
X150171951Y-109484529D01*
X152140470Y-111453049D01*
X152168183Y-111486817D01*
X152201951Y-111514530D01*
X152201953Y-111514532D01*
X152302941Y-111597411D01*
X152456686Y-111679589D01*
X152528811Y-111701468D01*
X152623510Y-111730195D01*
X152753523Y-111743000D01*
X152753531Y-111743000D01*
X152797000Y-111747281D01*
X152840469Y-111743000D01*
X155680422Y-111743000D01*
X160890470Y-116953049D01*
X160918183Y-116986817D01*
X160951951Y-117014530D01*
X160951953Y-117014532D01*
X161052941Y-117097411D01*
X161206686Y-117179589D01*
X161344814Y-117221490D01*
X161373510Y-117230195D01*
X161503523Y-117243000D01*
X161503531Y-117243000D01*
X161547000Y-117247281D01*
X161590469Y-117243000D01*
X163008546Y-117243000D01*
X163056744Y-117275205D01*
X163245102Y-117353226D01*
X163445061Y-117393000D01*
X163648939Y-117393000D01*
X163848898Y-117353226D01*
X164037256Y-117275205D01*
X164206774Y-117161937D01*
X164350937Y-117017774D01*
X164464205Y-116848256D01*
X164542226Y-116659898D01*
X164582000Y-116459939D01*
X164582000Y-116256061D01*
X164542226Y-116056102D01*
X164464205Y-115867744D01*
X164350937Y-115698226D01*
X164206774Y-115554063D01*
X164037256Y-115440795D01*
X163848898Y-115362774D01*
X163648939Y-115323000D01*
X163445061Y-115323000D01*
X163245102Y-115362774D01*
X163056744Y-115440795D01*
X163008546Y-115473000D01*
X161913579Y-115473000D01*
X160052945Y-113612367D01*
X160098898Y-113603226D01*
X160287256Y-113525205D01*
X160456774Y-113411937D01*
X160600937Y-113267774D01*
X160714205Y-113098256D01*
X160792226Y-112909898D01*
X160832000Y-112709939D01*
X160832000Y-112506061D01*
X160804319Y-112366898D01*
X162040465Y-113603044D01*
X162051774Y-113659898D01*
X162129795Y-113848256D01*
X162243063Y-114017774D01*
X162387226Y-114161937D01*
X162556744Y-114275205D01*
X162745102Y-114353226D01*
X162945061Y-114393000D01*
X163148939Y-114393000D01*
X163348898Y-114353226D01*
X163537256Y-114275205D01*
X163706774Y-114161937D01*
X163850937Y-114017774D01*
X163964205Y-113848256D01*
X164042226Y-113659898D01*
X164082000Y-113459939D01*
X164082000Y-113256061D01*
X164042226Y-113056102D01*
X163964205Y-112867744D01*
X163850937Y-112698226D01*
X163709941Y-112557230D01*
X163787256Y-112525205D01*
X163956774Y-112411937D01*
X164100937Y-112267774D01*
X164214205Y-112098256D01*
X164292226Y-111909898D01*
X164332000Y-111709939D01*
X164332000Y-111506061D01*
X164292226Y-111306102D01*
X164214205Y-111117744D01*
X164100937Y-110948226D01*
X163956774Y-110804063D01*
X163787256Y-110690795D01*
X163598898Y-110612774D01*
X163542044Y-110601465D01*
X161949749Y-109009170D01*
X162021180Y-108987502D01*
X162131494Y-108928537D01*
X162228185Y-108849185D01*
X162307537Y-108752494D01*
X162366502Y-108642180D01*
X162402812Y-108522482D01*
X162415072Y-108398000D01*
X162415072Y-104898000D01*
X162402812Y-104773518D01*
X162393554Y-104743000D01*
X162430422Y-104743000D01*
X163912000Y-106224579D01*
G37*
%TD.AperFunction*%
D24*
X111572820Y-89407502D02*
X111692518Y-89443812D01*
X111782001Y-89452625D01*
X111782001Y-89684521D01*
X111777719Y-89728000D01*
X111794805Y-89901490D01*
X111845412Y-90068313D01*
X111927590Y-90222059D01*
X112010468Y-90323046D01*
X112010471Y-90323049D01*
X112038184Y-90356817D01*
X112071951Y-90384529D01*
X114140470Y-92453049D01*
X114168183Y-92486817D01*
X114201951Y-92514530D01*
X114201953Y-92514532D01*
X114247827Y-92552180D01*
X114302941Y-92597411D01*
X114456687Y-92679589D01*
X114623510Y-92730195D01*
X114753523Y-92743000D01*
X114753531Y-92743000D01*
X114797000Y-92747281D01*
X114840469Y-92743000D01*
X123430422Y-92743000D01*
X126912000Y-96224579D01*
X126912001Y-99814521D01*
X126907719Y-99858000D01*
X126924805Y-100031490D01*
X126975412Y-100198313D01*
X127057590Y-100352059D01*
X127140468Y-100453046D01*
X127140471Y-100453049D01*
X127168184Y-100486817D01*
X127201951Y-100514530D01*
X130947349Y-104259928D01*
X129597000Y-104259928D01*
X129472518Y-104272188D01*
X129352820Y-104308498D01*
X129242506Y-104367463D01*
X129177000Y-104421222D01*
X129111494Y-104367463D01*
X129001180Y-104308498D01*
X128881482Y-104272188D01*
X128757000Y-104259928D01*
X127057000Y-104259928D01*
X126932518Y-104272188D01*
X126812820Y-104308498D01*
X126702506Y-104367463D01*
X126637000Y-104421222D01*
X126571494Y-104367463D01*
X126461180Y-104308498D01*
X126341482Y-104272188D01*
X126217000Y-104259928D01*
X124517000Y-104259928D01*
X124392518Y-104272188D01*
X124272820Y-104308498D01*
X124162506Y-104367463D01*
X124097000Y-104421222D01*
X124031494Y-104367463D01*
X123921180Y-104308498D01*
X123801482Y-104272188D01*
X123677000Y-104259928D01*
X121977000Y-104259928D01*
X121852518Y-104272188D01*
X121732820Y-104308498D01*
X121622506Y-104367463D01*
X121557000Y-104421222D01*
X121491494Y-104367463D01*
X121381180Y-104308498D01*
X121261482Y-104272188D01*
X121137000Y-104259928D01*
X119437000Y-104259928D01*
X119312518Y-104272188D01*
X119192820Y-104308498D01*
X119082506Y-104367463D01*
X119017000Y-104421222D01*
X118951494Y-104367463D01*
X118841180Y-104308498D01*
X118721482Y-104272188D01*
X118597000Y-104259928D01*
X116897000Y-104259928D01*
X116772518Y-104272188D01*
X116652820Y-104308498D01*
X116542506Y-104367463D01*
X116477000Y-104421222D01*
X116411494Y-104367463D01*
X116301180Y-104308498D01*
X116181482Y-104272188D01*
X116057000Y-104259928D01*
X114357000Y-104259928D01*
X114232518Y-104272188D01*
X114112820Y-104308498D01*
X114002506Y-104367463D01*
X113937000Y-104421222D01*
X113871494Y-104367463D01*
X113761180Y-104308498D01*
X113641482Y-104272188D01*
X113517000Y-104259928D01*
X111817000Y-104259928D01*
X111692518Y-104272188D01*
X111572820Y-104308498D01*
X111485000Y-104355440D01*
X111485000Y-100382379D01*
X111604688Y-100561505D01*
X111818495Y-100775312D01*
X112069905Y-100943299D01*
X112349257Y-101059011D01*
X112645816Y-101118000D01*
X112948184Y-101118000D01*
X113244743Y-101059011D01*
X113524095Y-100943299D01*
X113775505Y-100775312D01*
X113989312Y-100561505D01*
X114157299Y-100310095D01*
X114273011Y-100030743D01*
X114332000Y-99734184D01*
X114332000Y-99431816D01*
X114275266Y-99146589D01*
X114442000Y-99146589D01*
X114442000Y-99419411D01*
X114495225Y-99686989D01*
X114599629Y-99939043D01*
X114751201Y-100165886D01*
X114944114Y-100358799D01*
X115170957Y-100510371D01*
X115423011Y-100614775D01*
X115690589Y-100668000D01*
X115963411Y-100668000D01*
X116230989Y-100614775D01*
X116483043Y-100510371D01*
X116709886Y-100358799D01*
X116902799Y-100165886D01*
X117054371Y-99939043D01*
X117158775Y-99686989D01*
X117212000Y-99419411D01*
X117212000Y-99146589D01*
X117158775Y-98879011D01*
X117054371Y-98626957D01*
X116902799Y-98400114D01*
X116709886Y-98207201D01*
X116483043Y-98055629D01*
X116230989Y-97951225D01*
X115963411Y-97898000D01*
X115690589Y-97898000D01*
X115423011Y-97951225D01*
X115170957Y-98055629D01*
X114944114Y-98207201D01*
X114751201Y-98400114D01*
X114599629Y-98626957D01*
X114495225Y-98879011D01*
X114442000Y-99146589D01*
X114275266Y-99146589D01*
X114273011Y-99135257D01*
X114157299Y-98855905D01*
X113989312Y-98604495D01*
X113775505Y-98390688D01*
X113524095Y-98222701D01*
X113244743Y-98106989D01*
X112948184Y-98048000D01*
X112645816Y-98048000D01*
X112349257Y-98106989D01*
X112069905Y-98222701D01*
X111818495Y-98390688D01*
X111604688Y-98604495D01*
X111485000Y-98783621D01*
X111485000Y-94932379D01*
X111604688Y-95111505D01*
X111818495Y-95325312D01*
X112069905Y-95493299D01*
X112349257Y-95609011D01*
X112645816Y-95668000D01*
X112948184Y-95668000D01*
X113244743Y-95609011D01*
X113524095Y-95493299D01*
X113775505Y-95325312D01*
X113989312Y-95111505D01*
X114157299Y-94860095D01*
X114273011Y-94580743D01*
X114329532Y-94296589D01*
X114442000Y-94296589D01*
X114442000Y-94569411D01*
X114495225Y-94836989D01*
X114599629Y-95089043D01*
X114751201Y-95315886D01*
X114944114Y-95508799D01*
X115170957Y-95660371D01*
X115423011Y-95764775D01*
X115690589Y-95818000D01*
X115963411Y-95818000D01*
X116230989Y-95764775D01*
X116483043Y-95660371D01*
X116709886Y-95508799D01*
X116902799Y-95315886D01*
X117054371Y-95089043D01*
X117158775Y-94836989D01*
X117212000Y-94569411D01*
X117212000Y-94296589D01*
X117158775Y-94029011D01*
X117054371Y-93776957D01*
X116902799Y-93550114D01*
X116709886Y-93357201D01*
X116483043Y-93205629D01*
X116230989Y-93101225D01*
X115963411Y-93048000D01*
X115690589Y-93048000D01*
X115423011Y-93101225D01*
X115170957Y-93205629D01*
X114944114Y-93357201D01*
X114751201Y-93550114D01*
X114599629Y-93776957D01*
X114495225Y-94029011D01*
X114442000Y-94296589D01*
X114329532Y-94296589D01*
X114332000Y-94284184D01*
X114332000Y-93981816D01*
X114273011Y-93685257D01*
X114157299Y-93405905D01*
X113989312Y-93154495D01*
X113775505Y-92940688D01*
X113524095Y-92772701D01*
X113244743Y-92656989D01*
X112948184Y-92598000D01*
X112645816Y-92598000D01*
X112349257Y-92656989D01*
X112069905Y-92772701D01*
X111818495Y-92940688D01*
X111604688Y-93154495D01*
X111485000Y-93333621D01*
X111485000Y-89360560D01*
X111572820Y-89407502D01*
%TA.AperFunction,Conductor*%
D25*
G36*
X111572820Y-89407502D02*
G01*
X111692518Y-89443812D01*
X111782001Y-89452625D01*
X111782001Y-89684521D01*
X111777719Y-89728000D01*
X111794805Y-89901490D01*
X111845412Y-90068313D01*
X111927590Y-90222059D01*
X112010468Y-90323046D01*
X112010471Y-90323049D01*
X112038184Y-90356817D01*
X112071951Y-90384529D01*
X114140470Y-92453049D01*
X114168183Y-92486817D01*
X114201951Y-92514530D01*
X114201953Y-92514532D01*
X114247827Y-92552180D01*
X114302941Y-92597411D01*
X114456687Y-92679589D01*
X114623510Y-92730195D01*
X114753523Y-92743000D01*
X114753531Y-92743000D01*
X114797000Y-92747281D01*
X114840469Y-92743000D01*
X123430422Y-92743000D01*
X126912000Y-96224579D01*
X126912001Y-99814521D01*
X126907719Y-99858000D01*
X126924805Y-100031490D01*
X126975412Y-100198313D01*
X127057590Y-100352059D01*
X127140468Y-100453046D01*
X127140471Y-100453049D01*
X127168184Y-100486817D01*
X127201951Y-100514530D01*
X130947349Y-104259928D01*
X129597000Y-104259928D01*
X129472518Y-104272188D01*
X129352820Y-104308498D01*
X129242506Y-104367463D01*
X129177000Y-104421222D01*
X129111494Y-104367463D01*
X129001180Y-104308498D01*
X128881482Y-104272188D01*
X128757000Y-104259928D01*
X127057000Y-104259928D01*
X126932518Y-104272188D01*
X126812820Y-104308498D01*
X126702506Y-104367463D01*
X126637000Y-104421222D01*
X126571494Y-104367463D01*
X126461180Y-104308498D01*
X126341482Y-104272188D01*
X126217000Y-104259928D01*
X124517000Y-104259928D01*
X124392518Y-104272188D01*
X124272820Y-104308498D01*
X124162506Y-104367463D01*
X124097000Y-104421222D01*
X124031494Y-104367463D01*
X123921180Y-104308498D01*
X123801482Y-104272188D01*
X123677000Y-104259928D01*
X121977000Y-104259928D01*
X121852518Y-104272188D01*
X121732820Y-104308498D01*
X121622506Y-104367463D01*
X121557000Y-104421222D01*
X121491494Y-104367463D01*
X121381180Y-104308498D01*
X121261482Y-104272188D01*
X121137000Y-104259928D01*
X119437000Y-104259928D01*
X119312518Y-104272188D01*
X119192820Y-104308498D01*
X119082506Y-104367463D01*
X119017000Y-104421222D01*
X118951494Y-104367463D01*
X118841180Y-104308498D01*
X118721482Y-104272188D01*
X118597000Y-104259928D01*
X116897000Y-104259928D01*
X116772518Y-104272188D01*
X116652820Y-104308498D01*
X116542506Y-104367463D01*
X116477000Y-104421222D01*
X116411494Y-104367463D01*
X116301180Y-104308498D01*
X116181482Y-104272188D01*
X116057000Y-104259928D01*
X114357000Y-104259928D01*
X114232518Y-104272188D01*
X114112820Y-104308498D01*
X114002506Y-104367463D01*
X113937000Y-104421222D01*
X113871494Y-104367463D01*
X113761180Y-104308498D01*
X113641482Y-104272188D01*
X113517000Y-104259928D01*
X111817000Y-104259928D01*
X111692518Y-104272188D01*
X111572820Y-104308498D01*
X111485000Y-104355440D01*
X111485000Y-100382379D01*
X111604688Y-100561505D01*
X111818495Y-100775312D01*
X112069905Y-100943299D01*
X112349257Y-101059011D01*
X112645816Y-101118000D01*
X112948184Y-101118000D01*
X113244743Y-101059011D01*
X113524095Y-100943299D01*
X113775505Y-100775312D01*
X113989312Y-100561505D01*
X114157299Y-100310095D01*
X114273011Y-100030743D01*
X114332000Y-99734184D01*
X114332000Y-99431816D01*
X114275266Y-99146589D01*
X114442000Y-99146589D01*
X114442000Y-99419411D01*
X114495225Y-99686989D01*
X114599629Y-99939043D01*
X114751201Y-100165886D01*
X114944114Y-100358799D01*
X115170957Y-100510371D01*
X115423011Y-100614775D01*
X115690589Y-100668000D01*
X115963411Y-100668000D01*
X116230989Y-100614775D01*
X116483043Y-100510371D01*
X116709886Y-100358799D01*
X116902799Y-100165886D01*
X117054371Y-99939043D01*
X117158775Y-99686989D01*
X117212000Y-99419411D01*
X117212000Y-99146589D01*
X117158775Y-98879011D01*
X117054371Y-98626957D01*
X116902799Y-98400114D01*
X116709886Y-98207201D01*
X116483043Y-98055629D01*
X116230989Y-97951225D01*
X115963411Y-97898000D01*
X115690589Y-97898000D01*
X115423011Y-97951225D01*
X115170957Y-98055629D01*
X114944114Y-98207201D01*
X114751201Y-98400114D01*
X114599629Y-98626957D01*
X114495225Y-98879011D01*
X114442000Y-99146589D01*
X114275266Y-99146589D01*
X114273011Y-99135257D01*
X114157299Y-98855905D01*
X113989312Y-98604495D01*
X113775505Y-98390688D01*
X113524095Y-98222701D01*
X113244743Y-98106989D01*
X112948184Y-98048000D01*
X112645816Y-98048000D01*
X112349257Y-98106989D01*
X112069905Y-98222701D01*
X111818495Y-98390688D01*
X111604688Y-98604495D01*
X111485000Y-98783621D01*
X111485000Y-94932379D01*
X111604688Y-95111505D01*
X111818495Y-95325312D01*
X112069905Y-95493299D01*
X112349257Y-95609011D01*
X112645816Y-95668000D01*
X112948184Y-95668000D01*
X113244743Y-95609011D01*
X113524095Y-95493299D01*
X113775505Y-95325312D01*
X113989312Y-95111505D01*
X114157299Y-94860095D01*
X114273011Y-94580743D01*
X114329532Y-94296589D01*
X114442000Y-94296589D01*
X114442000Y-94569411D01*
X114495225Y-94836989D01*
X114599629Y-95089043D01*
X114751201Y-95315886D01*
X114944114Y-95508799D01*
X115170957Y-95660371D01*
X115423011Y-95764775D01*
X115690589Y-95818000D01*
X115963411Y-95818000D01*
X116230989Y-95764775D01*
X116483043Y-95660371D01*
X116709886Y-95508799D01*
X116902799Y-95315886D01*
X117054371Y-95089043D01*
X117158775Y-94836989D01*
X117212000Y-94569411D01*
X117212000Y-94296589D01*
X117158775Y-94029011D01*
X117054371Y-93776957D01*
X116902799Y-93550114D01*
X116709886Y-93357201D01*
X116483043Y-93205629D01*
X116230989Y-93101225D01*
X115963411Y-93048000D01*
X115690589Y-93048000D01*
X115423011Y-93101225D01*
X115170957Y-93205629D01*
X114944114Y-93357201D01*
X114751201Y-93550114D01*
X114599629Y-93776957D01*
X114495225Y-94029011D01*
X114442000Y-94296589D01*
X114329532Y-94296589D01*
X114332000Y-94284184D01*
X114332000Y-93981816D01*
X114273011Y-93685257D01*
X114157299Y-93405905D01*
X113989312Y-93154495D01*
X113775505Y-92940688D01*
X113524095Y-92772701D01*
X113244743Y-92656989D01*
X112948184Y-92598000D01*
X112645816Y-92598000D01*
X112349257Y-92656989D01*
X112069905Y-92772701D01*
X111818495Y-92940688D01*
X111604688Y-93154495D01*
X111485000Y-93333621D01*
X111485000Y-89360560D01*
X111572820Y-89407502D01*
G37*
%TD.AperFunction*%
%TD*%
M02*
