%TF.GenerationSoftware,KiCad,Pcbnew,(5.1.10)-1*%
%TF.CreationDate,2021-11-12T12:38:22+01:00*%
%TF.ProjectId,HRWizzard,48525769-7a7a-4617-9264-2e6b69636164,rev?*%
%TF.SameCoordinates,Original*%
%TF.FileFunction,Copper,L2,Bot*%
%TF.FilePolarity,Positive*%
%FSLAX46Y46*%
G04 Gerber Fmt 4.6, Leading zero omitted, Abs format (unit mm)*
G04 Created by KiCad (PCBNEW (5.1.10)-1) date 2021-11-12 12:38:22*
%MOMM*%
%LPD*%
G01*
G04 APERTURE LIST*
%ADD10C,0.100000*%
%ADD11C,0.150000*%
%ADD12C,0.300000*%
%ADD13C,0.400000*%
%TA.AperFunction,ComponentPad*%
%ADD14O,1.350000X1.350000*%
%TD*%
%TA.AperFunction,ComponentPad*%
%ADD15R,1.350000X1.350000*%
%TD*%
%TA.AperFunction,ComponentPad*%
%ADD16O,1.700000X1.700000*%
%TD*%
%TA.AperFunction,ComponentPad*%
%ADD17R,1.700000X1.700000*%
%TD*%
%TA.AperFunction,ViaPad*%
%ADD18C,0.800000*%
%TD*%
%TA.AperFunction,Conductor*%
%ADD19C,0.500000*%
%TD*%
%TA.AperFunction,Conductor*%
%ADD20C,0.254000*%
%TD*%
%TA.AperFunction,Conductor*%
%ADD21C,0.100000*%
%TD*%
G04 APERTURE END LIST*
D10*
D11*
X177002200Y-166007200D02*
X177002200Y-198007200D01*
X285002200Y-198007200D01*
X285002200Y-166007200D01*
X177002200Y-166007200D01*
D10*
D11*
X10000000Y-10000000D02*
X10000000Y-200007200D01*
X287002200Y-200007200D01*
X287002200Y-10000000D01*
X10000000Y-10000000D01*
D10*
D11*
X12000000Y-12000000D02*
X12000000Y-198007200D01*
X285002200Y-198007200D01*
X285002200Y-12000000D01*
X12000000Y-12000000D01*
D10*
D11*
X60000000Y-12000000D02*
X60000000Y-10000000D01*
D10*
D11*
X110000000Y-12000000D02*
X110000000Y-10000000D01*
D10*
D11*
X160000000Y-12000000D02*
X160000000Y-10000000D01*
D10*
D11*
X210000000Y-12000000D02*
X210000000Y-10000000D01*
D10*
D11*
X260000000Y-12000000D02*
X260000000Y-10000000D01*
D10*
D11*
X36065476Y-11588095D02*
X35322619Y-11588095D01*
X35694047Y-11588095D02*
X35694047Y-10288095D01*
X35570238Y-10473809D01*
X35446428Y-10597619D01*
X35322619Y-10659523D01*
D10*
D11*
X85322619Y-10411904D02*
X85384523Y-10350000D01*
X85508333Y-10288095D01*
X85817857Y-10288095D01*
X85941666Y-10350000D01*
X86003571Y-10411904D01*
X86065476Y-10535714D01*
X86065476Y-10659523D01*
X86003571Y-10845238D01*
X85260714Y-11588095D01*
X86065476Y-11588095D01*
D10*
D11*
X135260714Y-10288095D02*
X136065476Y-10288095D01*
X135632142Y-10783333D01*
X135817857Y-10783333D01*
X135941666Y-10845238D01*
X136003571Y-10907142D01*
X136065476Y-11030952D01*
X136065476Y-11340476D01*
X136003571Y-11464285D01*
X135941666Y-11526190D01*
X135817857Y-11588095D01*
X135446428Y-11588095D01*
X135322619Y-11526190D01*
X135260714Y-11464285D01*
D10*
D11*
X185941666Y-10721428D02*
X185941666Y-11588095D01*
X185632142Y-10226190D02*
X185322619Y-11154761D01*
X186127380Y-11154761D01*
D10*
D11*
X236003571Y-10288095D02*
X235384523Y-10288095D01*
X235322619Y-10907142D01*
X235384523Y-10845238D01*
X235508333Y-10783333D01*
X235817857Y-10783333D01*
X235941666Y-10845238D01*
X236003571Y-10907142D01*
X236065476Y-11030952D01*
X236065476Y-11340476D01*
X236003571Y-11464285D01*
X235941666Y-11526190D01*
X235817857Y-11588095D01*
X235508333Y-11588095D01*
X235384523Y-11526190D01*
X235322619Y-11464285D01*
D10*
D11*
X285941666Y-10288095D02*
X285694047Y-10288095D01*
X285570238Y-10350000D01*
X285508333Y-10411904D01*
X285384523Y-10597619D01*
X285322619Y-10845238D01*
X285322619Y-11340476D01*
X285384523Y-11464285D01*
X285446428Y-11526190D01*
X285570238Y-11588095D01*
X285817857Y-11588095D01*
X285941666Y-11526190D01*
X286003571Y-11464285D01*
X286065476Y-11340476D01*
X286065476Y-11030952D01*
X286003571Y-10907142D01*
X285941666Y-10845238D01*
X285817857Y-10783333D01*
X285570238Y-10783333D01*
X285446428Y-10845238D01*
X285384523Y-10907142D01*
X285322619Y-11030952D01*
D10*
D11*
X60000000Y-198007200D02*
X60000000Y-200007200D01*
D10*
D11*
X110000000Y-198007200D02*
X110000000Y-200007200D01*
D10*
D11*
X160000000Y-198007200D02*
X160000000Y-200007200D01*
D10*
D11*
X210000000Y-198007200D02*
X210000000Y-200007200D01*
D10*
D11*
X260000000Y-198007200D02*
X260000000Y-200007200D01*
D10*
D11*
X36065476Y-199595295D02*
X35322619Y-199595295D01*
X35694047Y-199595295D02*
X35694047Y-198295295D01*
X35570238Y-198481009D01*
X35446428Y-198604819D01*
X35322619Y-198666723D01*
D10*
D11*
X85322619Y-198419104D02*
X85384523Y-198357200D01*
X85508333Y-198295295D01*
X85817857Y-198295295D01*
X85941666Y-198357200D01*
X86003571Y-198419104D01*
X86065476Y-198542914D01*
X86065476Y-198666723D01*
X86003571Y-198852438D01*
X85260714Y-199595295D01*
X86065476Y-199595295D01*
D10*
D11*
X135260714Y-198295295D02*
X136065476Y-198295295D01*
X135632142Y-198790533D01*
X135817857Y-198790533D01*
X135941666Y-198852438D01*
X136003571Y-198914342D01*
X136065476Y-199038152D01*
X136065476Y-199347676D01*
X136003571Y-199471485D01*
X135941666Y-199533390D01*
X135817857Y-199595295D01*
X135446428Y-199595295D01*
X135322619Y-199533390D01*
X135260714Y-199471485D01*
D10*
D11*
X185941666Y-198728628D02*
X185941666Y-199595295D01*
X185632142Y-198233390D02*
X185322619Y-199161961D01*
X186127380Y-199161961D01*
D10*
D11*
X236003571Y-198295295D02*
X235384523Y-198295295D01*
X235322619Y-198914342D01*
X235384523Y-198852438D01*
X235508333Y-198790533D01*
X235817857Y-198790533D01*
X235941666Y-198852438D01*
X236003571Y-198914342D01*
X236065476Y-199038152D01*
X236065476Y-199347676D01*
X236003571Y-199471485D01*
X235941666Y-199533390D01*
X235817857Y-199595295D01*
X235508333Y-199595295D01*
X235384523Y-199533390D01*
X235322619Y-199471485D01*
D10*
D11*
X285941666Y-198295295D02*
X285694047Y-198295295D01*
X285570238Y-198357200D01*
X285508333Y-198419104D01*
X285384523Y-198604819D01*
X285322619Y-198852438D01*
X285322619Y-199347676D01*
X285384523Y-199471485D01*
X285446428Y-199533390D01*
X285570238Y-199595295D01*
X285817857Y-199595295D01*
X285941666Y-199533390D01*
X286003571Y-199471485D01*
X286065476Y-199347676D01*
X286065476Y-199038152D01*
X286003571Y-198914342D01*
X285941666Y-198852438D01*
X285817857Y-198790533D01*
X285570238Y-198790533D01*
X285446428Y-198852438D01*
X285384523Y-198914342D01*
X285322619Y-199038152D01*
D10*
D11*
X10000000Y-60000000D02*
X12000000Y-60000000D01*
D10*
D11*
X10000000Y-110000000D02*
X12000000Y-110000000D01*
D10*
D11*
X10000000Y-160000000D02*
X12000000Y-160000000D01*
D10*
D11*
X10690476Y-35216666D02*
X11309523Y-35216666D01*
X10566666Y-35588095D02*
X11000000Y-34288095D01*
X11433333Y-35588095D01*
D10*
D11*
X11092857Y-84907142D02*
X11278571Y-84969047D01*
X11340476Y-85030952D01*
X11402380Y-85154761D01*
X11402380Y-85340476D01*
X11340476Y-85464285D01*
X11278571Y-85526190D01*
X11154761Y-85588095D01*
X10659523Y-85588095D01*
X10659523Y-84288095D01*
X11092857Y-84288095D01*
X11216666Y-84350000D01*
X11278571Y-84411904D01*
X11340476Y-84535714D01*
X11340476Y-84659523D01*
X11278571Y-84783333D01*
X11216666Y-84845238D01*
X11092857Y-84907142D01*
X10659523Y-84907142D01*
D10*
D11*
X11402380Y-135464285D02*
X11340476Y-135526190D01*
X11154761Y-135588095D01*
X11030952Y-135588095D01*
X10845238Y-135526190D01*
X10721428Y-135402380D01*
X10659523Y-135278571D01*
X10597619Y-135030952D01*
X10597619Y-134845238D01*
X10659523Y-134597619D01*
X10721428Y-134473809D01*
X10845238Y-134350000D01*
X11030952Y-134288095D01*
X11154761Y-134288095D01*
X11340476Y-134350000D01*
X11402380Y-134411904D01*
D10*
D11*
X10659523Y-185588095D02*
X10659523Y-184288095D01*
X10969047Y-184288095D01*
X11154761Y-184350000D01*
X11278571Y-184473809D01*
X11340476Y-184597619D01*
X11402380Y-184845238D01*
X11402380Y-185030952D01*
X11340476Y-185278571D01*
X11278571Y-185402380D01*
X11154761Y-185526190D01*
X10969047Y-185588095D01*
X10659523Y-185588095D01*
D10*
D11*
X287002200Y-60000000D02*
X285002200Y-60000000D01*
D10*
D11*
X287002200Y-110000000D02*
X285002200Y-110000000D01*
D10*
D11*
X287002200Y-160000000D02*
X285002200Y-160000000D01*
D10*
D11*
X285692676Y-35216666D02*
X286311723Y-35216666D01*
X285568866Y-35588095D02*
X286002200Y-34288095D01*
X286435533Y-35588095D01*
D10*
D11*
X286095057Y-84907142D02*
X286280771Y-84969047D01*
X286342676Y-85030952D01*
X286404580Y-85154761D01*
X286404580Y-85340476D01*
X286342676Y-85464285D01*
X286280771Y-85526190D01*
X286156961Y-85588095D01*
X285661723Y-85588095D01*
X285661723Y-84288095D01*
X286095057Y-84288095D01*
X286218866Y-84350000D01*
X286280771Y-84411904D01*
X286342676Y-84535714D01*
X286342676Y-84659523D01*
X286280771Y-84783333D01*
X286218866Y-84845238D01*
X286095057Y-84907142D01*
X285661723Y-84907142D01*
D10*
D11*
X286404580Y-135464285D02*
X286342676Y-135526190D01*
X286156961Y-135588095D01*
X286033152Y-135588095D01*
X285847438Y-135526190D01*
X285723628Y-135402380D01*
X285661723Y-135278571D01*
X285599819Y-135030952D01*
X285599819Y-134845238D01*
X285661723Y-134597619D01*
X285723628Y-134473809D01*
X285847438Y-134350000D01*
X286033152Y-134288095D01*
X286156961Y-134288095D01*
X286342676Y-134350000D01*
X286404580Y-134411904D01*
D10*
D11*
X285661723Y-185588095D02*
X285661723Y-184288095D01*
X285971247Y-184288095D01*
X286156961Y-184350000D01*
X286280771Y-184473809D01*
X286342676Y-184597619D01*
X286404580Y-184845238D01*
X286404580Y-185030952D01*
X286342676Y-185278571D01*
X286280771Y-185402380D01*
X286156961Y-185526190D01*
X285971247Y-185588095D01*
X285661723Y-185588095D01*
D10*
D11*
X200434342Y-193785771D02*
X200434342Y-192285771D01*
X200791485Y-192285771D01*
X201005771Y-192357200D01*
X201148628Y-192500057D01*
X201220057Y-192642914D01*
X201291485Y-192928628D01*
X201291485Y-193142914D01*
X201220057Y-193428628D01*
X201148628Y-193571485D01*
X201005771Y-193714342D01*
X200791485Y-193785771D01*
X200434342Y-193785771D01*
X202577200Y-193785771D02*
X202577200Y-193000057D01*
X202505771Y-192857200D01*
X202362914Y-192785771D01*
X202077200Y-192785771D01*
X201934342Y-192857200D01*
X202577200Y-193714342D02*
X202434342Y-193785771D01*
X202077200Y-193785771D01*
X201934342Y-193714342D01*
X201862914Y-193571485D01*
X201862914Y-193428628D01*
X201934342Y-193285771D01*
X202077200Y-193214342D01*
X202434342Y-193214342D01*
X202577200Y-193142914D01*
X203077200Y-192785771D02*
X203648628Y-192785771D01*
X203291485Y-192285771D02*
X203291485Y-193571485D01*
X203362914Y-193714342D01*
X203505771Y-193785771D01*
X203648628Y-193785771D01*
X204720057Y-193714342D02*
X204577200Y-193785771D01*
X204291485Y-193785771D01*
X204148628Y-193714342D01*
X204077200Y-193571485D01*
X204077200Y-193000057D01*
X204148628Y-192857200D01*
X204291485Y-192785771D01*
X204577200Y-192785771D01*
X204720057Y-192857200D01*
X204791485Y-193000057D01*
X204791485Y-193142914D01*
X204077200Y-193285771D01*
X205434342Y-193642914D02*
X205505771Y-193714342D01*
X205434342Y-193785771D01*
X205362914Y-193714342D01*
X205434342Y-193642914D01*
X205434342Y-193785771D01*
X205434342Y-192857200D02*
X205505771Y-192928628D01*
X205434342Y-193000057D01*
X205362914Y-192928628D01*
X205434342Y-192857200D01*
X205434342Y-193000057D01*
D10*
D11*
X177002200Y-194507200D02*
X285002200Y-194507200D01*
D10*
D11*
X178434342Y-196585771D02*
X178434342Y-195085771D01*
X179291485Y-196585771D02*
X178648628Y-195728628D01*
X179291485Y-195085771D02*
X178434342Y-195942914D01*
X179934342Y-196585771D02*
X179934342Y-195585771D01*
X179934342Y-195085771D02*
X179862914Y-195157200D01*
X179934342Y-195228628D01*
X180005771Y-195157200D01*
X179934342Y-195085771D01*
X179934342Y-195228628D01*
X181505771Y-196442914D02*
X181434342Y-196514342D01*
X181220057Y-196585771D01*
X181077200Y-196585771D01*
X180862914Y-196514342D01*
X180720057Y-196371485D01*
X180648628Y-196228628D01*
X180577200Y-195942914D01*
X180577200Y-195728628D01*
X180648628Y-195442914D01*
X180720057Y-195300057D01*
X180862914Y-195157200D01*
X181077200Y-195085771D01*
X181220057Y-195085771D01*
X181434342Y-195157200D01*
X181505771Y-195228628D01*
X182791485Y-196585771D02*
X182791485Y-195800057D01*
X182720057Y-195657200D01*
X182577200Y-195585771D01*
X182291485Y-195585771D01*
X182148628Y-195657200D01*
X182791485Y-196514342D02*
X182648628Y-196585771D01*
X182291485Y-196585771D01*
X182148628Y-196514342D01*
X182077200Y-196371485D01*
X182077200Y-196228628D01*
X182148628Y-196085771D01*
X182291485Y-196014342D01*
X182648628Y-196014342D01*
X182791485Y-195942914D01*
X184148628Y-196585771D02*
X184148628Y-195085771D01*
X184148628Y-196514342D02*
X184005771Y-196585771D01*
X183720057Y-196585771D01*
X183577200Y-196514342D01*
X183505771Y-196442914D01*
X183434342Y-196300057D01*
X183434342Y-195871485D01*
X183505771Y-195728628D01*
X183577200Y-195657200D01*
X183720057Y-195585771D01*
X184005771Y-195585771D01*
X184148628Y-195657200D01*
X186005771Y-195800057D02*
X186505771Y-195800057D01*
X186720057Y-196585771D02*
X186005771Y-196585771D01*
X186005771Y-195085771D01*
X186720057Y-195085771D01*
X187362914Y-196442914D02*
X187434342Y-196514342D01*
X187362914Y-196585771D01*
X187291485Y-196514342D01*
X187362914Y-196442914D01*
X187362914Y-196585771D01*
X188077200Y-196585771D02*
X188077200Y-195085771D01*
X188434342Y-195085771D01*
X188648628Y-195157200D01*
X188791485Y-195300057D01*
X188862914Y-195442914D01*
X188934342Y-195728628D01*
X188934342Y-195942914D01*
X188862914Y-196228628D01*
X188791485Y-196371485D01*
X188648628Y-196514342D01*
X188434342Y-196585771D01*
X188077200Y-196585771D01*
X189577200Y-196442914D02*
X189648628Y-196514342D01*
X189577200Y-196585771D01*
X189505771Y-196514342D01*
X189577200Y-196442914D01*
X189577200Y-196585771D01*
X190220057Y-196157200D02*
X190934342Y-196157200D01*
X190077200Y-196585771D02*
X190577200Y-195085771D01*
X191077200Y-196585771D01*
X191577200Y-196442914D02*
X191648628Y-196514342D01*
X191577200Y-196585771D01*
X191505771Y-196514342D01*
X191577200Y-196442914D01*
X191577200Y-196585771D01*
X194577200Y-196585771D02*
X194577200Y-195085771D01*
X194720057Y-196014342D02*
X195148628Y-196585771D01*
X195148628Y-195585771D02*
X194577200Y-196157200D01*
X195791485Y-196585771D02*
X195791485Y-195585771D01*
X195791485Y-195085771D02*
X195720057Y-195157200D01*
X195791485Y-195228628D01*
X195862914Y-195157200D01*
X195791485Y-195085771D01*
X195791485Y-195228628D01*
X197148628Y-196514342D02*
X197005771Y-196585771D01*
X196720057Y-196585771D01*
X196577200Y-196514342D01*
X196505771Y-196442914D01*
X196434342Y-196300057D01*
X196434342Y-195871485D01*
X196505771Y-195728628D01*
X196577200Y-195657200D01*
X196720057Y-195585771D01*
X197005771Y-195585771D01*
X197148628Y-195657200D01*
X198434342Y-196585771D02*
X198434342Y-195800057D01*
X198362914Y-195657200D01*
X198220057Y-195585771D01*
X197934342Y-195585771D01*
X197791485Y-195657200D01*
X198434342Y-196514342D02*
X198291485Y-196585771D01*
X197934342Y-196585771D01*
X197791485Y-196514342D01*
X197720057Y-196371485D01*
X197720057Y-196228628D01*
X197791485Y-196085771D01*
X197934342Y-196014342D01*
X198291485Y-196014342D01*
X198434342Y-195942914D01*
X199791485Y-196585771D02*
X199791485Y-195085771D01*
X199791485Y-196514342D02*
X199648628Y-196585771D01*
X199362914Y-196585771D01*
X199220057Y-196514342D01*
X199148628Y-196442914D01*
X199077200Y-196300057D01*
X199077200Y-195871485D01*
X199148628Y-195728628D01*
X199220057Y-195657200D01*
X199362914Y-195585771D01*
X199648628Y-195585771D01*
X199791485Y-195657200D01*
X202077200Y-197157200D02*
X202005771Y-197085771D01*
X201862914Y-196871485D01*
X201791485Y-196728628D01*
X201720057Y-196514342D01*
X201648628Y-196157200D01*
X201648628Y-195871485D01*
X201720057Y-195514342D01*
X201791485Y-195300057D01*
X201862914Y-195157200D01*
X202005771Y-194942914D01*
X202077200Y-194871485D01*
X203362914Y-195085771D02*
X202648628Y-195085771D01*
X202577200Y-195800057D01*
X202648628Y-195728628D01*
X202791485Y-195657200D01*
X203148628Y-195657200D01*
X203291485Y-195728628D01*
X203362914Y-195800057D01*
X203434342Y-195942914D01*
X203434342Y-196300057D01*
X203362914Y-196442914D01*
X203291485Y-196514342D01*
X203148628Y-196585771D01*
X202791485Y-196585771D01*
X202648628Y-196514342D01*
X202577200Y-196442914D01*
X204077200Y-196442914D02*
X204148628Y-196514342D01*
X204077200Y-196585771D01*
X204005771Y-196514342D01*
X204077200Y-196442914D01*
X204077200Y-196585771D01*
X205577200Y-196585771D02*
X204720057Y-196585771D01*
X205148628Y-196585771D02*
X205148628Y-195085771D01*
X205005771Y-195300057D01*
X204862914Y-195442914D01*
X204720057Y-195514342D01*
X206220057Y-196442914D02*
X206291485Y-196514342D01*
X206220057Y-196585771D01*
X206148628Y-196514342D01*
X206220057Y-196442914D01*
X206220057Y-196585771D01*
X207720057Y-196585771D02*
X206862914Y-196585771D01*
X207291485Y-196585771D02*
X207291485Y-195085771D01*
X207148628Y-195300057D01*
X207005771Y-195442914D01*
X206862914Y-195514342D01*
X208648628Y-195085771D02*
X208791485Y-195085771D01*
X208934342Y-195157200D01*
X209005771Y-195228628D01*
X209077200Y-195371485D01*
X209148628Y-195657200D01*
X209148628Y-196014342D01*
X209077200Y-196300057D01*
X209005771Y-196442914D01*
X208934342Y-196514342D01*
X208791485Y-196585771D01*
X208648628Y-196585771D01*
X208505771Y-196514342D01*
X208434342Y-196442914D01*
X208362914Y-196300057D01*
X208291485Y-196014342D01*
X208291485Y-195657200D01*
X208362914Y-195371485D01*
X208434342Y-195228628D01*
X208505771Y-195157200D01*
X208648628Y-195085771D01*
X209648628Y-197157200D02*
X209720057Y-197085771D01*
X209862914Y-196871485D01*
X209934342Y-196728628D01*
X210005771Y-196514342D01*
X210077200Y-196157200D01*
X210077200Y-195871485D01*
X210005771Y-195514342D01*
X209934342Y-195300057D01*
X209862914Y-195157200D01*
X209720057Y-194942914D01*
X209648628Y-194871485D01*
X210791485Y-196014342D02*
X211934342Y-196014342D01*
X213434342Y-196585771D02*
X212577200Y-196585771D01*
X213005771Y-196585771D02*
X213005771Y-195085771D01*
X212862914Y-195300057D01*
X212720057Y-195442914D01*
X212577200Y-195514342D01*
D10*
D11*
X177002200Y-191507200D02*
X285002200Y-191507200D01*
D10*
D12*
X264411485Y-193785771D02*
X263911485Y-193071485D01*
X263554342Y-193785771D02*
X263554342Y-192285771D01*
X264125771Y-192285771D01*
X264268628Y-192357200D01*
X264340057Y-192428628D01*
X264411485Y-192571485D01*
X264411485Y-192785771D01*
X264340057Y-192928628D01*
X264268628Y-193000057D01*
X264125771Y-193071485D01*
X263554342Y-193071485D01*
X265625771Y-193714342D02*
X265482914Y-193785771D01*
X265197200Y-193785771D01*
X265054342Y-193714342D01*
X264982914Y-193571485D01*
X264982914Y-193000057D01*
X265054342Y-192857200D01*
X265197200Y-192785771D01*
X265482914Y-192785771D01*
X265625771Y-192857200D01*
X265697200Y-193000057D01*
X265697200Y-193142914D01*
X264982914Y-193285771D01*
X266197200Y-192785771D02*
X266554342Y-193785771D01*
X266911485Y-192785771D01*
X267482914Y-193642914D02*
X267554342Y-193714342D01*
X267482914Y-193785771D01*
X267411485Y-193714342D01*
X267482914Y-193642914D01*
X267482914Y-193785771D01*
X267482914Y-192857200D02*
X267554342Y-192928628D01*
X267482914Y-193000057D01*
X267411485Y-192928628D01*
X267482914Y-192857200D01*
X267482914Y-193000057D01*
D10*
D11*
X178362914Y-193714342D02*
X178577200Y-193785771D01*
X178934342Y-193785771D01*
X179077200Y-193714342D01*
X179148628Y-193642914D01*
X179220057Y-193500057D01*
X179220057Y-193357200D01*
X179148628Y-193214342D01*
X179077200Y-193142914D01*
X178934342Y-193071485D01*
X178648628Y-193000057D01*
X178505771Y-192928628D01*
X178434342Y-192857200D01*
X178362914Y-192714342D01*
X178362914Y-192571485D01*
X178434342Y-192428628D01*
X178505771Y-192357200D01*
X178648628Y-192285771D01*
X179005771Y-192285771D01*
X179220057Y-192357200D01*
X179862914Y-193785771D02*
X179862914Y-192785771D01*
X179862914Y-192285771D02*
X179791485Y-192357200D01*
X179862914Y-192428628D01*
X179934342Y-192357200D01*
X179862914Y-192285771D01*
X179862914Y-192428628D01*
X180434342Y-192785771D02*
X181220057Y-192785771D01*
X180434342Y-193785771D01*
X181220057Y-193785771D01*
X182362914Y-193714342D02*
X182220057Y-193785771D01*
X181934342Y-193785771D01*
X181791485Y-193714342D01*
X181720057Y-193571485D01*
X181720057Y-193000057D01*
X181791485Y-192857200D01*
X181934342Y-192785771D01*
X182220057Y-192785771D01*
X182362914Y-192857200D01*
X182434342Y-193000057D01*
X182434342Y-193142914D01*
X181720057Y-193285771D01*
X183077200Y-193642914D02*
X183148628Y-193714342D01*
X183077200Y-193785771D01*
X183005771Y-193714342D01*
X183077200Y-193642914D01*
X183077200Y-193785771D01*
X183077200Y-192857200D02*
X183148628Y-192928628D01*
X183077200Y-193000057D01*
X183005771Y-192928628D01*
X183077200Y-192857200D01*
X183077200Y-193000057D01*
X184862914Y-193357200D02*
X185577200Y-193357200D01*
X184720057Y-193785771D02*
X185220057Y-192285771D01*
X185720057Y-193785771D01*
X186862914Y-192785771D02*
X186862914Y-193785771D01*
X186505771Y-192214342D02*
X186148628Y-193285771D01*
X187077200Y-193285771D01*
D10*
D11*
X263434342Y-196585771D02*
X263434342Y-195085771D01*
X264791485Y-196585771D02*
X264791485Y-195085771D01*
X264791485Y-196514342D02*
X264648628Y-196585771D01*
X264362914Y-196585771D01*
X264220057Y-196514342D01*
X264148628Y-196442914D01*
X264077200Y-196300057D01*
X264077200Y-195871485D01*
X264148628Y-195728628D01*
X264220057Y-195657200D01*
X264362914Y-195585771D01*
X264648628Y-195585771D01*
X264791485Y-195657200D01*
X265505771Y-196442914D02*
X265577200Y-196514342D01*
X265505771Y-196585771D01*
X265434342Y-196514342D01*
X265505771Y-196442914D01*
X265505771Y-196585771D01*
X265505771Y-195657200D02*
X265577200Y-195728628D01*
X265505771Y-195800057D01*
X265434342Y-195728628D01*
X265505771Y-195657200D01*
X265505771Y-195800057D01*
X268148628Y-196585771D02*
X267291485Y-196585771D01*
X267720057Y-196585771D02*
X267720057Y-195085771D01*
X267577200Y-195300057D01*
X267434342Y-195442914D01*
X267291485Y-195514342D01*
X269862914Y-195014342D02*
X268577200Y-196942914D01*
X271148628Y-196585771D02*
X270291485Y-196585771D01*
X270720057Y-196585771D02*
X270720057Y-195085771D01*
X270577200Y-195300057D01*
X270434342Y-195442914D01*
X270291485Y-195514342D01*
D10*
D11*
X177002200Y-187507200D02*
X285002200Y-187507200D01*
D10*
D13*
X178714580Y-188211961D02*
X179857438Y-188211961D01*
X179036009Y-190211961D02*
X179286009Y-188211961D01*
X180274104Y-190211961D02*
X180440771Y-188878628D01*
X180524104Y-188211961D02*
X180416961Y-188307200D01*
X180500295Y-188402438D01*
X180607438Y-188307200D01*
X180524104Y-188211961D01*
X180500295Y-188402438D01*
X181107438Y-188878628D02*
X181869342Y-188878628D01*
X181476485Y-188211961D02*
X181262200Y-189926247D01*
X181333628Y-190116723D01*
X181512200Y-190211961D01*
X181702676Y-190211961D01*
X182655057Y-190211961D02*
X182476485Y-190116723D01*
X182405057Y-189926247D01*
X182619342Y-188211961D01*
X184190771Y-190116723D02*
X183988390Y-190211961D01*
X183607438Y-190211961D01*
X183428866Y-190116723D01*
X183357438Y-189926247D01*
X183452676Y-189164342D01*
X183571723Y-188973866D01*
X183774104Y-188878628D01*
X184155057Y-188878628D01*
X184333628Y-188973866D01*
X184405057Y-189164342D01*
X184381247Y-189354819D01*
X183405057Y-189545295D01*
X185155057Y-190021485D02*
X185238390Y-190116723D01*
X185131247Y-190211961D01*
X185047914Y-190116723D01*
X185155057Y-190021485D01*
X185131247Y-190211961D01*
X185286009Y-188973866D02*
X185369342Y-189069104D01*
X185262200Y-189164342D01*
X185178866Y-189069104D01*
X185286009Y-188973866D01*
X185262200Y-189164342D01*
D10*
D11*
X178934342Y-185600057D02*
X178434342Y-185600057D01*
X178434342Y-186385771D02*
X178434342Y-184885771D01*
X179148628Y-184885771D01*
X179720057Y-186385771D02*
X179720057Y-185385771D01*
X179720057Y-184885771D02*
X179648628Y-184957200D01*
X179720057Y-185028628D01*
X179791485Y-184957200D01*
X179720057Y-184885771D01*
X179720057Y-185028628D01*
X180648628Y-186385771D02*
X180505771Y-186314342D01*
X180434342Y-186171485D01*
X180434342Y-184885771D01*
X181791485Y-186314342D02*
X181648628Y-186385771D01*
X181362914Y-186385771D01*
X181220057Y-186314342D01*
X181148628Y-186171485D01*
X181148628Y-185600057D01*
X181220057Y-185457200D01*
X181362914Y-185385771D01*
X181648628Y-185385771D01*
X181791485Y-185457200D01*
X181862914Y-185600057D01*
X181862914Y-185742914D01*
X181148628Y-185885771D01*
X182505771Y-186242914D02*
X182577200Y-186314342D01*
X182505771Y-186385771D01*
X182434342Y-186314342D01*
X182505771Y-186242914D01*
X182505771Y-186385771D01*
X182505771Y-185457200D02*
X182577200Y-185528628D01*
X182505771Y-185600057D01*
X182434342Y-185528628D01*
X182505771Y-185457200D01*
X182505771Y-185600057D01*
X184362914Y-186385771D02*
X184362914Y-184885771D01*
X184362914Y-185600057D02*
X185220057Y-185600057D01*
X185220057Y-186385771D02*
X185220057Y-184885771D01*
X186791485Y-186385771D02*
X186291485Y-185671485D01*
X185934342Y-186385771D02*
X185934342Y-184885771D01*
X186505771Y-184885771D01*
X186648628Y-184957200D01*
X186720057Y-185028628D01*
X186791485Y-185171485D01*
X186791485Y-185385771D01*
X186720057Y-185528628D01*
X186648628Y-185600057D01*
X186505771Y-185671485D01*
X185934342Y-185671485D01*
X187291485Y-184885771D02*
X187648628Y-186385771D01*
X187934342Y-185314342D01*
X188220057Y-186385771D01*
X188577200Y-184885771D01*
X189148628Y-186385771D02*
X189148628Y-185385771D01*
X189148628Y-184885771D02*
X189077200Y-184957200D01*
X189148628Y-185028628D01*
X189220057Y-184957200D01*
X189148628Y-184885771D01*
X189148628Y-185028628D01*
X189720057Y-185385771D02*
X190505771Y-185385771D01*
X189720057Y-186385771D01*
X190505771Y-186385771D01*
X190934342Y-185385771D02*
X191720057Y-185385771D01*
X190934342Y-186385771D01*
X191720057Y-186385771D01*
X192934342Y-186385771D02*
X192934342Y-185600057D01*
X192862914Y-185457200D01*
X192720057Y-185385771D01*
X192434342Y-185385771D01*
X192291485Y-185457200D01*
X192934342Y-186314342D02*
X192791485Y-186385771D01*
X192434342Y-186385771D01*
X192291485Y-186314342D01*
X192220057Y-186171485D01*
X192220057Y-186028628D01*
X192291485Y-185885771D01*
X192434342Y-185814342D01*
X192791485Y-185814342D01*
X192934342Y-185742914D01*
X193648628Y-186385771D02*
X193648628Y-185385771D01*
X193648628Y-185671485D02*
X193720057Y-185528628D01*
X193791485Y-185457200D01*
X193934342Y-185385771D01*
X194077200Y-185385771D01*
X195220057Y-186385771D02*
X195220057Y-184885771D01*
X195220057Y-186314342D02*
X195077200Y-186385771D01*
X194791485Y-186385771D01*
X194648628Y-186314342D01*
X194577200Y-186242914D01*
X194505771Y-186100057D01*
X194505771Y-185671485D01*
X194577200Y-185528628D01*
X194648628Y-185457200D01*
X194791485Y-185385771D01*
X195077200Y-185385771D01*
X195220057Y-185457200D01*
X195934342Y-186242914D02*
X196005771Y-186314342D01*
X195934342Y-186385771D01*
X195862914Y-186314342D01*
X195934342Y-186242914D01*
X195934342Y-186385771D01*
X196648628Y-186385771D02*
X196648628Y-184885771D01*
X196791485Y-185814342D02*
X197220057Y-186385771D01*
X197220057Y-185385771D02*
X196648628Y-185957200D01*
X197862914Y-186385771D02*
X197862914Y-185385771D01*
X197862914Y-184885771D02*
X197791485Y-184957200D01*
X197862914Y-185028628D01*
X197934342Y-184957200D01*
X197862914Y-184885771D01*
X197862914Y-185028628D01*
X199220057Y-186314342D02*
X199077200Y-186385771D01*
X198791485Y-186385771D01*
X198648628Y-186314342D01*
X198577200Y-186242914D01*
X198505771Y-186100057D01*
X198505771Y-185671485D01*
X198577200Y-185528628D01*
X198648628Y-185457200D01*
X198791485Y-185385771D01*
X199077200Y-185385771D01*
X199220057Y-185457200D01*
X200505771Y-186385771D02*
X200505771Y-185600057D01*
X200434342Y-185457200D01*
X200291485Y-185385771D01*
X200005771Y-185385771D01*
X199862914Y-185457200D01*
X200505771Y-186314342D02*
X200362914Y-186385771D01*
X200005771Y-186385771D01*
X199862914Y-186314342D01*
X199791485Y-186171485D01*
X199791485Y-186028628D01*
X199862914Y-185885771D01*
X200005771Y-185814342D01*
X200362914Y-185814342D01*
X200505771Y-185742914D01*
X201862914Y-186385771D02*
X201862914Y-184885771D01*
X201862914Y-186314342D02*
X201720057Y-186385771D01*
X201434342Y-186385771D01*
X201291485Y-186314342D01*
X201220057Y-186242914D01*
X201148628Y-186100057D01*
X201148628Y-185671485D01*
X201220057Y-185528628D01*
X201291485Y-185457200D01*
X201434342Y-185385771D01*
X201720057Y-185385771D01*
X201862914Y-185457200D01*
X202220057Y-186528628D02*
X203362914Y-186528628D01*
X203720057Y-185385771D02*
X203720057Y-186885771D01*
X203720057Y-185457200D02*
X203862914Y-185385771D01*
X204148628Y-185385771D01*
X204291485Y-185457200D01*
X204362914Y-185528628D01*
X204434342Y-185671485D01*
X204434342Y-186100057D01*
X204362914Y-186242914D01*
X204291485Y-186314342D01*
X204148628Y-186385771D01*
X203862914Y-186385771D01*
X203720057Y-186314342D01*
X205720057Y-186314342D02*
X205577200Y-186385771D01*
X205291485Y-186385771D01*
X205148628Y-186314342D01*
X205077200Y-186242914D01*
X205005771Y-186100057D01*
X205005771Y-185671485D01*
X205077200Y-185528628D01*
X205148628Y-185457200D01*
X205291485Y-185385771D01*
X205577200Y-185385771D01*
X205720057Y-185457200D01*
X206362914Y-186385771D02*
X206362914Y-184885771D01*
X206362914Y-185457200D02*
X206505771Y-185385771D01*
X206791485Y-185385771D01*
X206934342Y-185457200D01*
X207005771Y-185528628D01*
X207077200Y-185671485D01*
X207077200Y-186100057D01*
X207005771Y-186242914D01*
X206934342Y-186314342D01*
X206791485Y-186385771D01*
X206505771Y-186385771D01*
X206362914Y-186314342D01*
D10*
D11*
X177002200Y-181507200D02*
X285002200Y-181507200D01*
D10*
D11*
X178362914Y-183614342D02*
X178577200Y-183685771D01*
X178934342Y-183685771D01*
X179077200Y-183614342D01*
X179148628Y-183542914D01*
X179220057Y-183400057D01*
X179220057Y-183257200D01*
X179148628Y-183114342D01*
X179077200Y-183042914D01*
X178934342Y-182971485D01*
X178648628Y-182900057D01*
X178505771Y-182828628D01*
X178434342Y-182757200D01*
X178362914Y-182614342D01*
X178362914Y-182471485D01*
X178434342Y-182328628D01*
X178505771Y-182257200D01*
X178648628Y-182185771D01*
X179005771Y-182185771D01*
X179220057Y-182257200D01*
X179862914Y-183685771D02*
X179862914Y-182185771D01*
X180505771Y-183685771D02*
X180505771Y-182900057D01*
X180434342Y-182757200D01*
X180291485Y-182685771D01*
X180077200Y-182685771D01*
X179934342Y-182757200D01*
X179862914Y-182828628D01*
X181791485Y-183614342D02*
X181648628Y-183685771D01*
X181362914Y-183685771D01*
X181220057Y-183614342D01*
X181148628Y-183471485D01*
X181148628Y-182900057D01*
X181220057Y-182757200D01*
X181362914Y-182685771D01*
X181648628Y-182685771D01*
X181791485Y-182757200D01*
X181862914Y-182900057D01*
X181862914Y-183042914D01*
X181148628Y-183185771D01*
X183077200Y-183614342D02*
X182934342Y-183685771D01*
X182648628Y-183685771D01*
X182505771Y-183614342D01*
X182434342Y-183471485D01*
X182434342Y-182900057D01*
X182505771Y-182757200D01*
X182648628Y-182685771D01*
X182934342Y-182685771D01*
X183077200Y-182757200D01*
X183148628Y-182900057D01*
X183148628Y-183042914D01*
X182434342Y-183185771D01*
X183577200Y-182685771D02*
X184148628Y-182685771D01*
X183791485Y-182185771D02*
X183791485Y-183471485D01*
X183862914Y-183614342D01*
X184005771Y-183685771D01*
X184148628Y-183685771D01*
X184648628Y-183542914D02*
X184720057Y-183614342D01*
X184648628Y-183685771D01*
X184577200Y-183614342D01*
X184648628Y-183542914D01*
X184648628Y-183685771D01*
X184648628Y-182757200D02*
X184720057Y-182828628D01*
X184648628Y-182900057D01*
X184577200Y-182828628D01*
X184648628Y-182757200D01*
X184648628Y-182900057D01*
D10*
D11*
X197002200Y-191507200D02*
X197002200Y-194507200D01*
D10*
D11*
X261002200Y-191507200D02*
X261002200Y-198007200D01*
D14*
%TO.P,J4,4*%
%TO.N,SCL*%
X157047000Y-121358000D03*
%TO.P,J4,3*%
%TO.N,SDA*%
X155047000Y-121358000D03*
%TO.P,J4,2*%
%TO.N,+3V3*%
X153047000Y-121358000D03*
D15*
%TO.P,J4,1*%
%TO.N,GND*%
X151047000Y-121358000D03*
%TD*%
D14*
%TO.P,J3,4*%
%TO.N,SCL*%
X140047000Y-121358000D03*
%TO.P,J3,3*%
%TO.N,SDA*%
X138047000Y-121358000D03*
%TO.P,J3,2*%
%TO.N,+3V3*%
X136047000Y-121358000D03*
D15*
%TO.P,J3,1*%
%TO.N,GND*%
X134047000Y-121358000D03*
%TD*%
D14*
%TO.P,J1,4*%
%TO.N,GND*%
X123047000Y-121358000D03*
%TO.P,J1,3*%
%TO.N,+5V*%
X121047000Y-121358000D03*
%TO.P,J1,2*%
%TO.N,NEOPIXEL_OUT*%
X119047000Y-121358000D03*
D15*
%TO.P,J1,1*%
%TO.N,N/C*%
X117047000Y-121358000D03*
%TD*%
D16*
%TO.P,U1,43*%
%TO.N,Net-(U1-Pad43)*%
X160697000Y-94318000D03*
D17*
%TO.P,U1,42*%
%TO.N,Net-(U1-Pad42)*%
X160697000Y-96858000D03*
D16*
%TO.P,U1,41*%
%TO.N,Net-(U1-Pad41)*%
X160697000Y-99398000D03*
%TO.P,U1,40*%
%TO.N,+5V*%
X112667000Y-87968000D03*
%TO.P,U1,39*%
%TO.N,Net-(U1-Pad39)*%
X115207000Y-87968000D03*
D17*
%TO.P,U1,38*%
%TO.N,GND*%
X117747000Y-87968000D03*
D16*
%TO.P,U1,37*%
%TO.N,Net-(U1-Pad37)*%
X120287000Y-87968000D03*
%TO.P,U1,36*%
%TO.N,+3V3*%
X122827000Y-87968000D03*
%TO.P,U1,35*%
%TO.N,Net-(U1-Pad35)*%
X125367000Y-87968000D03*
%TO.P,U1,34*%
%TO.N,Net-(U1-Pad34)*%
X127907000Y-87968000D03*
D17*
%TO.P,U1,33*%
%TO.N,Net-(U1-Pad33)*%
X130447000Y-87968000D03*
D16*
%TO.P,U1,32*%
%TO.N,Net-(U1-Pad32)*%
X132987000Y-87968000D03*
%TO.P,U1,31*%
%TO.N,Net-(U1-Pad31)*%
X135527000Y-87968000D03*
%TO.P,U1,30*%
%TO.N,Net-(SW3-Pad1)*%
X138067000Y-87968000D03*
%TO.P,U1,29*%
%TO.N,Net-(U1-Pad29)*%
X140607000Y-87968000D03*
D17*
%TO.P,U1,28*%
%TO.N,Net-(U1-Pad28)*%
X143147000Y-87968000D03*
D16*
%TO.P,U1,27*%
%TO.N,Net-(U1-Pad27)*%
X145687000Y-87968000D03*
%TO.P,U1,26*%
%TO.N,Net-(U1-Pad26)*%
X148227000Y-87968000D03*
%TO.P,U1,25*%
%TO.N,Net-(U1-Pad25)*%
X150767000Y-87968000D03*
%TO.P,U1,24*%
%TO.N,Net-(U1-Pad24)*%
X153307000Y-87968000D03*
D17*
%TO.P,U1,23*%
%TO.N,Net-(U1-Pad23)*%
X155847000Y-87968000D03*
D16*
%TO.P,U1,22*%
%TO.N,Button_A*%
X158387000Y-87968000D03*
%TO.P,U1,21*%
%TO.N,Button_B*%
X160927000Y-87968000D03*
%TO.P,U1,20*%
%TO.N,Button_RIGHT*%
X160927000Y-105748000D03*
%TO.P,U1,19*%
%TO.N,Button_LEFT*%
X158387000Y-105748000D03*
D17*
%TO.P,U1,18*%
%TO.N,Net-(U1-Pad18)*%
X155847000Y-105748000D03*
D16*
%TO.P,U1,17*%
%TO.N,Button_DOWN*%
X153307000Y-105748000D03*
%TO.P,U1,16*%
%TO.N,Button_UP*%
X150767000Y-105748000D03*
%TO.P,U1,15*%
%TO.N,Net-(U1-Pad15)*%
X148227000Y-105748000D03*
%TO.P,U1,14*%
%TO.N,Net-(U1-Pad14)*%
X145687000Y-105748000D03*
D17*
%TO.P,U1,13*%
%TO.N,Net-(U1-Pad13)*%
X143147000Y-105748000D03*
D16*
%TO.P,U1,12*%
%TO.N,SCL*%
X140607000Y-105748000D03*
%TO.P,U1,11*%
%TO.N,SDA*%
X138067000Y-105748000D03*
%TO.P,U1,10*%
%TO.N,Net-(U1-Pad10)*%
X135527000Y-105748000D03*
%TO.P,U1,9*%
%TO.N,NEOPIXEL_OUT*%
X132987000Y-105748000D03*
D17*
%TO.P,U1,8*%
%TO.N,Net-(U1-Pad8)*%
X130447000Y-105748000D03*
D16*
%TO.P,U1,7*%
%TO.N,Net-(U1-Pad7)*%
X127907000Y-105748000D03*
%TO.P,U1,6*%
%TO.N,Net-(U1-Pad6)*%
X125367000Y-105748000D03*
%TO.P,U1,5*%
%TO.N,Net-(U1-Pad5)*%
X122827000Y-105748000D03*
%TO.P,U1,4*%
%TO.N,Net-(U1-Pad4)*%
X120287000Y-105748000D03*
D17*
%TO.P,U1,3*%
%TO.N,Net-(U1-Pad3)*%
X117747000Y-105748000D03*
D16*
%TO.P,U1,2*%
%TO.N,TX*%
X115207000Y-105748000D03*
%TO.P,U1,1*%
%TO.N,RX*%
X112667000Y-105748000D03*
%TD*%
D18*
%TO.N,GND*%
X112797000Y-118858000D03*
X113797000Y-82858000D03*
X168797000Y-124858000D03*
X203797000Y-124858000D03*
X201797000Y-83858000D03*
X168797000Y-84858000D03*
X149297000Y-116358000D03*
X161797000Y-114858000D03*
X121797000Y-95358000D03*
X192797000Y-98858000D03*
%TO.N,+5V*%
X164797000Y-109858000D03*
X116797000Y-116608000D03*
%TO.N,SDA*%
X138047000Y-123608000D03*
%TO.N,Button_A*%
X159797000Y-82858000D03*
X200547000Y-96108000D03*
%TO.N,Button_UP*%
X163547000Y-116358000D03*
X174297000Y-119858000D03*
%TO.N,Button_LEFT*%
X163047000Y-113358000D03*
X168047000Y-118358000D03*
%TO.N,Button_RIGHT*%
X163297000Y-111608000D03*
X196547000Y-105858000D03*
%TO.N,Button_DOWN*%
X159797000Y-112608000D03*
X196547000Y-121108000D03*
%TD*%
D19*
%TO.N,+3V3*%
X136047000Y-121358000D02*
X136047000Y-120108000D01*
X136047000Y-120108000D02*
X137047000Y-119108000D01*
X137047000Y-119108000D02*
X152297000Y-119108000D01*
X153047000Y-119858000D02*
X153047000Y-121358000D01*
X152297000Y-119108000D02*
X153047000Y-119858000D01*
%TO.N,+5V*%
X164797000Y-109858000D02*
X125797000Y-109858000D01*
X125797000Y-109858000D02*
X118047000Y-109858000D01*
X118047000Y-109858000D02*
X117547000Y-109858000D01*
X116797000Y-110608000D02*
X116797000Y-116608000D01*
X117547000Y-109858000D02*
X116797000Y-110608000D01*
X116797000Y-116608000D02*
X119797000Y-116608000D01*
X121047000Y-117858000D02*
X121047000Y-121358000D01*
X119797000Y-116608000D02*
X121047000Y-117858000D01*
%TO.N,SDA*%
X138047000Y-123608000D02*
X139047000Y-124608000D01*
X139047000Y-124608000D02*
X154797000Y-124608000D01*
X155047000Y-124358000D02*
X154797000Y-124608000D01*
X155047000Y-121358000D02*
X155047000Y-124358000D01*
%TO.N,Button_A*%
X159797000Y-82858000D02*
X195297000Y-82858000D01*
X195297000Y-82858000D02*
X195797000Y-82858000D01*
X195797000Y-82858000D02*
X197047000Y-82858000D01*
X200547000Y-86358000D02*
X200547000Y-96108000D01*
X197047000Y-82858000D02*
X200547000Y-86358000D01*
%TO.N,Button_UP*%
X167047000Y-119858000D02*
X174297000Y-119858000D01*
X163547000Y-116358000D02*
X167047000Y-119858000D01*
%TO.N,Button_LEFT*%
X163047000Y-113358000D02*
X168047000Y-118358000D01*
%TO.N,Button_RIGHT*%
X190797000Y-111608000D02*
X196547000Y-105858000D01*
X163297000Y-111608000D02*
X190797000Y-111608000D01*
%TO.N,Button_DOWN*%
X159797000Y-112608000D02*
X159797000Y-115608000D01*
X165297000Y-121108000D02*
X196547000Y-121108000D01*
X159797000Y-115608000D02*
X165297000Y-121108000D01*
%TD*%
D20*
%TO.N,GND*%
X206115001Y-127165000D02*
X111485000Y-127165000D01*
X111485000Y-120683000D01*
X115733928Y-120683000D01*
X115733928Y-122033000D01*
X115746188Y-122157482D01*
X115782498Y-122277180D01*
X115841463Y-122387494D01*
X115920815Y-122484185D01*
X116017506Y-122563537D01*
X116127820Y-122622502D01*
X116247518Y-122658812D01*
X116372000Y-122671072D01*
X117722000Y-122671072D01*
X117846482Y-122658812D01*
X117966180Y-122622502D01*
X118076494Y-122563537D01*
X118173185Y-122484185D01*
X118244487Y-122397303D01*
X118426482Y-122518907D01*
X118664887Y-122617658D01*
X118917976Y-122668000D01*
X119176024Y-122668000D01*
X119429113Y-122617658D01*
X119667518Y-122518907D01*
X119882077Y-122375544D01*
X120047000Y-122210621D01*
X120211923Y-122375544D01*
X120426482Y-122518907D01*
X120664887Y-122617658D01*
X120917976Y-122668000D01*
X121176024Y-122668000D01*
X121429113Y-122617658D01*
X121667518Y-122518907D01*
X121882077Y-122375544D01*
X122053681Y-122203940D01*
X122175773Y-122336303D01*
X122383371Y-122487473D01*
X122616472Y-122595238D01*
X122717600Y-122625910D01*
X122920000Y-122502224D01*
X122920000Y-121485000D01*
X123174000Y-121485000D01*
X123174000Y-122502224D01*
X123376400Y-122625910D01*
X123477528Y-122595238D01*
X123710629Y-122487473D01*
X123918227Y-122336303D01*
X124092344Y-122147537D01*
X124162363Y-122033000D01*
X132733928Y-122033000D01*
X132746188Y-122157482D01*
X132782498Y-122277180D01*
X132841463Y-122387494D01*
X132920815Y-122484185D01*
X133017506Y-122563537D01*
X133127820Y-122622502D01*
X133247518Y-122658812D01*
X133372000Y-122671072D01*
X133761250Y-122668000D01*
X133920000Y-122509250D01*
X133920000Y-121485000D01*
X132895750Y-121485000D01*
X132737000Y-121643750D01*
X132733928Y-122033000D01*
X124162363Y-122033000D01*
X124226289Y-121928430D01*
X124314915Y-121687401D01*
X124192085Y-121485000D01*
X123174000Y-121485000D01*
X122920000Y-121485000D01*
X122900000Y-121485000D01*
X122900000Y-121231000D01*
X122920000Y-121231000D01*
X122920000Y-120213776D01*
X123174000Y-120213776D01*
X123174000Y-121231000D01*
X124192085Y-121231000D01*
X124314915Y-121028599D01*
X124226289Y-120787570D01*
X124162364Y-120683000D01*
X132733928Y-120683000D01*
X132737000Y-121072250D01*
X132895750Y-121231000D01*
X133920000Y-121231000D01*
X133920000Y-120206750D01*
X134174000Y-120206750D01*
X134174000Y-121231000D01*
X134194000Y-121231000D01*
X134194000Y-121485000D01*
X134174000Y-121485000D01*
X134174000Y-122509250D01*
X134332750Y-122668000D01*
X134722000Y-122671072D01*
X134846482Y-122658812D01*
X134966180Y-122622502D01*
X135076494Y-122563537D01*
X135173185Y-122484185D01*
X135244487Y-122397303D01*
X135426482Y-122518907D01*
X135664887Y-122617658D01*
X135917976Y-122668000D01*
X136176024Y-122668000D01*
X136429113Y-122617658D01*
X136667518Y-122518907D01*
X136882077Y-122375544D01*
X137047000Y-122210621D01*
X137211923Y-122375544D01*
X137426482Y-122518907D01*
X137664887Y-122617658D01*
X137711113Y-122626853D01*
X137556744Y-122690795D01*
X137387226Y-122804063D01*
X137243063Y-122948226D01*
X137129795Y-123117744D01*
X137051774Y-123306102D01*
X137012000Y-123506061D01*
X137012000Y-123709939D01*
X137051774Y-123909898D01*
X137129795Y-124098256D01*
X137243063Y-124267774D01*
X137387226Y-124411937D01*
X137556744Y-124525205D01*
X137745102Y-124603226D01*
X137801957Y-124614535D01*
X138390470Y-125203049D01*
X138418183Y-125236817D01*
X138451951Y-125264530D01*
X138451953Y-125264532D01*
X138552941Y-125347411D01*
X138706686Y-125429589D01*
X138873510Y-125480195D01*
X139003523Y-125493000D01*
X139003531Y-125493000D01*
X139047000Y-125497281D01*
X139090469Y-125493000D01*
X154753531Y-125493000D01*
X154797000Y-125497281D01*
X154840469Y-125493000D01*
X154840477Y-125493000D01*
X154970490Y-125480195D01*
X155137313Y-125429589D01*
X155291059Y-125347411D01*
X155425817Y-125236817D01*
X155453534Y-125203044D01*
X155642044Y-125014534D01*
X155675817Y-124986817D01*
X155786411Y-124852059D01*
X155868589Y-124698313D01*
X155919195Y-124531490D01*
X155932000Y-124401477D01*
X155932000Y-124401467D01*
X155936281Y-124358001D01*
X155932000Y-124314535D01*
X155932000Y-122325621D01*
X156047000Y-122210621D01*
X156211923Y-122375544D01*
X156426482Y-122518907D01*
X156664887Y-122617658D01*
X156917976Y-122668000D01*
X157176024Y-122668000D01*
X157429113Y-122617658D01*
X157667518Y-122518907D01*
X157882077Y-122375544D01*
X158064544Y-122193077D01*
X158207907Y-121978518D01*
X158306658Y-121740113D01*
X158357000Y-121487024D01*
X158357000Y-121228976D01*
X158306658Y-120975887D01*
X158207907Y-120737482D01*
X158064544Y-120522923D01*
X157882077Y-120340456D01*
X157667518Y-120197093D01*
X157429113Y-120098342D01*
X157176024Y-120048000D01*
X156917976Y-120048000D01*
X156664887Y-120098342D01*
X156426482Y-120197093D01*
X156211923Y-120340456D01*
X156047000Y-120505379D01*
X155882077Y-120340456D01*
X155667518Y-120197093D01*
X155429113Y-120098342D01*
X155176024Y-120048000D01*
X154917976Y-120048000D01*
X154664887Y-120098342D01*
X154426482Y-120197093D01*
X154211923Y-120340456D01*
X154047000Y-120505379D01*
X153932000Y-120390379D01*
X153932000Y-119901465D01*
X153936281Y-119857999D01*
X153932000Y-119814533D01*
X153932000Y-119814523D01*
X153919195Y-119684510D01*
X153868589Y-119517687D01*
X153786411Y-119363941D01*
X153762210Y-119334452D01*
X153703532Y-119262953D01*
X153703530Y-119262951D01*
X153675817Y-119229183D01*
X153642050Y-119201471D01*
X152953534Y-118512956D01*
X152925817Y-118479183D01*
X152791059Y-118368589D01*
X152637313Y-118286411D01*
X152470490Y-118235805D01*
X152340477Y-118223000D01*
X152340469Y-118223000D01*
X152297000Y-118218719D01*
X152253531Y-118223000D01*
X137090469Y-118223000D01*
X137047000Y-118218719D01*
X137003531Y-118223000D01*
X137003523Y-118223000D01*
X136873510Y-118235805D01*
X136706686Y-118286411D01*
X136552941Y-118368589D01*
X136451953Y-118451468D01*
X136451951Y-118451470D01*
X136418183Y-118479183D01*
X136390470Y-118512951D01*
X135451951Y-119451471D01*
X135418184Y-119479183D01*
X135390471Y-119512951D01*
X135390468Y-119512954D01*
X135307590Y-119613941D01*
X135225412Y-119767687D01*
X135174805Y-119934510D01*
X135157719Y-120108000D01*
X135162001Y-120151478D01*
X135162001Y-120222636D01*
X135076494Y-120152463D01*
X134966180Y-120093498D01*
X134846482Y-120057188D01*
X134722000Y-120044928D01*
X134332750Y-120048000D01*
X134174000Y-120206750D01*
X133920000Y-120206750D01*
X133761250Y-120048000D01*
X133372000Y-120044928D01*
X133247518Y-120057188D01*
X133127820Y-120093498D01*
X133017506Y-120152463D01*
X132920815Y-120231815D01*
X132841463Y-120328506D01*
X132782498Y-120438820D01*
X132746188Y-120558518D01*
X132733928Y-120683000D01*
X124162364Y-120683000D01*
X124092344Y-120568463D01*
X123918227Y-120379697D01*
X123710629Y-120228527D01*
X123477528Y-120120762D01*
X123376400Y-120090090D01*
X123174000Y-120213776D01*
X122920000Y-120213776D01*
X122717600Y-120090090D01*
X122616472Y-120120762D01*
X122383371Y-120228527D01*
X122175773Y-120379697D01*
X122053681Y-120512060D01*
X121932000Y-120390379D01*
X121932000Y-117901469D01*
X121936281Y-117858000D01*
X121932000Y-117814531D01*
X121932000Y-117814523D01*
X121919195Y-117684510D01*
X121868589Y-117517687D01*
X121786411Y-117363941D01*
X121675817Y-117229183D01*
X121642050Y-117201471D01*
X120453534Y-116012956D01*
X120425817Y-115979183D01*
X120291059Y-115868589D01*
X120137313Y-115786411D01*
X119970490Y-115735805D01*
X119840477Y-115723000D01*
X119840469Y-115723000D01*
X119797000Y-115718719D01*
X119753531Y-115723000D01*
X117682000Y-115723000D01*
X117682000Y-110974578D01*
X117913579Y-110743000D01*
X162728613Y-110743000D01*
X162637226Y-110804063D01*
X162493063Y-110948226D01*
X162379795Y-111117744D01*
X162301774Y-111306102D01*
X162262000Y-111506061D01*
X162262000Y-111709939D01*
X162301774Y-111909898D01*
X162379795Y-112098256D01*
X162493063Y-112267774D01*
X162634059Y-112408770D01*
X162556744Y-112440795D01*
X162387226Y-112554063D01*
X162243063Y-112698226D01*
X162129795Y-112867744D01*
X162051774Y-113056102D01*
X162012000Y-113256061D01*
X162012000Y-113459939D01*
X162051774Y-113659898D01*
X162129795Y-113848256D01*
X162243063Y-114017774D01*
X162387226Y-114161937D01*
X162556744Y-114275205D01*
X162745102Y-114353226D01*
X162801957Y-114364535D01*
X163788103Y-115350681D01*
X163648939Y-115323000D01*
X163445061Y-115323000D01*
X163245102Y-115362774D01*
X163056744Y-115440795D01*
X162887226Y-115554063D01*
X162743063Y-115698226D01*
X162629795Y-115867744D01*
X162551774Y-116056102D01*
X162512000Y-116256061D01*
X162512000Y-116459939D01*
X162551774Y-116659898D01*
X162629795Y-116848256D01*
X162743063Y-117017774D01*
X162887226Y-117161937D01*
X163056744Y-117275205D01*
X163245102Y-117353226D01*
X163301957Y-117364535D01*
X166160421Y-120223000D01*
X165663579Y-120223000D01*
X160682000Y-115241422D01*
X160682000Y-113146454D01*
X160714205Y-113098256D01*
X160792226Y-112909898D01*
X160832000Y-112709939D01*
X160832000Y-112506061D01*
X160792226Y-112306102D01*
X160714205Y-112117744D01*
X160600937Y-111948226D01*
X160456774Y-111804063D01*
X160287256Y-111690795D01*
X160098898Y-111612774D01*
X159898939Y-111573000D01*
X159695061Y-111573000D01*
X159495102Y-111612774D01*
X159306744Y-111690795D01*
X159137226Y-111804063D01*
X158993063Y-111948226D01*
X158879795Y-112117744D01*
X158801774Y-112306102D01*
X158762000Y-112506061D01*
X158762000Y-112709939D01*
X158801774Y-112909898D01*
X158879795Y-113098256D01*
X158912000Y-113146455D01*
X158912001Y-115564521D01*
X158907719Y-115608000D01*
X158924805Y-115781490D01*
X158975412Y-115948313D01*
X159057590Y-116102059D01*
X159140468Y-116203046D01*
X159140471Y-116203049D01*
X159168184Y-116236817D01*
X159201952Y-116264530D01*
X164640470Y-121703049D01*
X164668183Y-121736817D01*
X164701951Y-121764530D01*
X164701953Y-121764532D01*
X164802941Y-121847411D01*
X164956686Y-121929589D01*
X165117982Y-121978518D01*
X165123510Y-121980195D01*
X165253523Y-121993000D01*
X165253531Y-121993000D01*
X165297000Y-121997281D01*
X165340469Y-121993000D01*
X196008546Y-121993000D01*
X196056744Y-122025205D01*
X196245102Y-122103226D01*
X196445061Y-122143000D01*
X196648939Y-122143000D01*
X196848898Y-122103226D01*
X197037256Y-122025205D01*
X197206774Y-121911937D01*
X197350937Y-121767774D01*
X197464205Y-121598256D01*
X197542226Y-121409898D01*
X197582000Y-121209939D01*
X197582000Y-121006061D01*
X197542226Y-120806102D01*
X197464205Y-120617744D01*
X197350937Y-120448226D01*
X197206774Y-120304063D01*
X197037256Y-120190795D01*
X196848898Y-120112774D01*
X196648939Y-120073000D01*
X196445061Y-120073000D01*
X196245102Y-120112774D01*
X196056744Y-120190795D01*
X196008546Y-120223000D01*
X175266088Y-120223000D01*
X175292226Y-120159898D01*
X175332000Y-119959939D01*
X175332000Y-119756061D01*
X175292226Y-119556102D01*
X175214205Y-119367744D01*
X175100937Y-119198226D01*
X174956774Y-119054063D01*
X174787256Y-118940795D01*
X174598898Y-118862774D01*
X174398939Y-118823000D01*
X174195061Y-118823000D01*
X173995102Y-118862774D01*
X173806744Y-118940795D01*
X173758546Y-118973000D01*
X168880854Y-118973000D01*
X168964205Y-118848256D01*
X169042226Y-118659898D01*
X169082000Y-118459939D01*
X169082000Y-118256061D01*
X169042226Y-118056102D01*
X168964205Y-117867744D01*
X168850937Y-117698226D01*
X168706774Y-117554063D01*
X168537256Y-117440795D01*
X168348898Y-117362774D01*
X168292044Y-117351465D01*
X164053535Y-113112957D01*
X164042226Y-113056102D01*
X163964205Y-112867744D01*
X163850937Y-112698226D01*
X163709941Y-112557230D01*
X163787256Y-112525205D01*
X163835454Y-112493000D01*
X190753531Y-112493000D01*
X190797000Y-112497281D01*
X190840469Y-112493000D01*
X190840477Y-112493000D01*
X190970490Y-112480195D01*
X191137313Y-112429589D01*
X191291059Y-112347411D01*
X191425817Y-112236817D01*
X191453534Y-112203044D01*
X196792044Y-106864535D01*
X196848898Y-106853226D01*
X197037256Y-106775205D01*
X197206774Y-106661937D01*
X197350937Y-106517774D01*
X197464205Y-106348256D01*
X197542226Y-106159898D01*
X197582000Y-105959939D01*
X197582000Y-105756061D01*
X197542226Y-105556102D01*
X197464205Y-105367744D01*
X197350937Y-105198226D01*
X197206774Y-105054063D01*
X197037256Y-104940795D01*
X196848898Y-104862774D01*
X196648939Y-104823000D01*
X196445061Y-104823000D01*
X196245102Y-104862774D01*
X196056744Y-104940795D01*
X195887226Y-105054063D01*
X195743063Y-105198226D01*
X195629795Y-105367744D01*
X195551774Y-105556102D01*
X195540465Y-105612956D01*
X190430422Y-110723000D01*
X165365387Y-110723000D01*
X165456774Y-110661937D01*
X165600937Y-110517774D01*
X165714205Y-110348256D01*
X165792226Y-110159898D01*
X165832000Y-109959939D01*
X165832000Y-109756061D01*
X165792226Y-109556102D01*
X165714205Y-109367744D01*
X165600937Y-109198226D01*
X165456774Y-109054063D01*
X165287256Y-108940795D01*
X165098898Y-108862774D01*
X164898939Y-108823000D01*
X164695061Y-108823000D01*
X164495102Y-108862774D01*
X164306744Y-108940795D01*
X164258546Y-108973000D01*
X117590465Y-108973000D01*
X117546999Y-108968719D01*
X117503533Y-108973000D01*
X117503523Y-108973000D01*
X117373510Y-108985805D01*
X117206687Y-109036411D01*
X117052941Y-109118589D01*
X117052939Y-109118590D01*
X117052940Y-109118590D01*
X116951953Y-109201468D01*
X116951951Y-109201470D01*
X116918183Y-109229183D01*
X116890470Y-109262951D01*
X116201956Y-109951466D01*
X116168183Y-109979183D01*
X116057589Y-110113942D01*
X115975411Y-110267688D01*
X115924805Y-110434511D01*
X115912000Y-110564524D01*
X115912000Y-110564531D01*
X115907719Y-110608000D01*
X115912000Y-110651469D01*
X115912001Y-116069544D01*
X115879795Y-116117744D01*
X115801774Y-116306102D01*
X115762000Y-116506061D01*
X115762000Y-116709939D01*
X115801774Y-116909898D01*
X115879795Y-117098256D01*
X115993063Y-117267774D01*
X116137226Y-117411937D01*
X116306744Y-117525205D01*
X116495102Y-117603226D01*
X116695061Y-117643000D01*
X116898939Y-117643000D01*
X117098898Y-117603226D01*
X117287256Y-117525205D01*
X117335454Y-117493000D01*
X119430422Y-117493000D01*
X120162000Y-118224579D01*
X120162001Y-120390378D01*
X120047000Y-120505379D01*
X119882077Y-120340456D01*
X119667518Y-120197093D01*
X119429113Y-120098342D01*
X119176024Y-120048000D01*
X118917976Y-120048000D01*
X118664887Y-120098342D01*
X118426482Y-120197093D01*
X118244487Y-120318697D01*
X118173185Y-120231815D01*
X118076494Y-120152463D01*
X117966180Y-120093498D01*
X117846482Y-120057188D01*
X117722000Y-120044928D01*
X116372000Y-120044928D01*
X116247518Y-120057188D01*
X116127820Y-120093498D01*
X116017506Y-120152463D01*
X115920815Y-120231815D01*
X115841463Y-120328506D01*
X115782498Y-120438820D01*
X115746188Y-120558518D01*
X115733928Y-120683000D01*
X111485000Y-120683000D01*
X111485000Y-106651941D01*
X111513525Y-106694632D01*
X111720368Y-106901475D01*
X111963589Y-107063990D01*
X112233842Y-107175932D01*
X112520740Y-107233000D01*
X112813260Y-107233000D01*
X113100158Y-107175932D01*
X113370411Y-107063990D01*
X113613632Y-106901475D01*
X113820475Y-106694632D01*
X113937000Y-106520240D01*
X114053525Y-106694632D01*
X114260368Y-106901475D01*
X114503589Y-107063990D01*
X114773842Y-107175932D01*
X115060740Y-107233000D01*
X115353260Y-107233000D01*
X115640158Y-107175932D01*
X115910411Y-107063990D01*
X116153632Y-106901475D01*
X116285487Y-106769620D01*
X116307498Y-106842180D01*
X116366463Y-106952494D01*
X116445815Y-107049185D01*
X116542506Y-107128537D01*
X116652820Y-107187502D01*
X116772518Y-107223812D01*
X116897000Y-107236072D01*
X118597000Y-107236072D01*
X118721482Y-107223812D01*
X118841180Y-107187502D01*
X118951494Y-107128537D01*
X119048185Y-107049185D01*
X119127537Y-106952494D01*
X119186502Y-106842180D01*
X119208513Y-106769620D01*
X119340368Y-106901475D01*
X119583589Y-107063990D01*
X119853842Y-107175932D01*
X120140740Y-107233000D01*
X120433260Y-107233000D01*
X120720158Y-107175932D01*
X120990411Y-107063990D01*
X121233632Y-106901475D01*
X121440475Y-106694632D01*
X121557000Y-106520240D01*
X121673525Y-106694632D01*
X121880368Y-106901475D01*
X122123589Y-107063990D01*
X122393842Y-107175932D01*
X122680740Y-107233000D01*
X122973260Y-107233000D01*
X123260158Y-107175932D01*
X123530411Y-107063990D01*
X123773632Y-106901475D01*
X123980475Y-106694632D01*
X124097000Y-106520240D01*
X124213525Y-106694632D01*
X124420368Y-106901475D01*
X124663589Y-107063990D01*
X124933842Y-107175932D01*
X125220740Y-107233000D01*
X125513260Y-107233000D01*
X125800158Y-107175932D01*
X126070411Y-107063990D01*
X126313632Y-106901475D01*
X126520475Y-106694632D01*
X126637000Y-106520240D01*
X126753525Y-106694632D01*
X126960368Y-106901475D01*
X127203589Y-107063990D01*
X127473842Y-107175932D01*
X127760740Y-107233000D01*
X128053260Y-107233000D01*
X128340158Y-107175932D01*
X128610411Y-107063990D01*
X128853632Y-106901475D01*
X128985487Y-106769620D01*
X129007498Y-106842180D01*
X129066463Y-106952494D01*
X129145815Y-107049185D01*
X129242506Y-107128537D01*
X129352820Y-107187502D01*
X129472518Y-107223812D01*
X129597000Y-107236072D01*
X131297000Y-107236072D01*
X131421482Y-107223812D01*
X131541180Y-107187502D01*
X131651494Y-107128537D01*
X131748185Y-107049185D01*
X131827537Y-106952494D01*
X131886502Y-106842180D01*
X131908513Y-106769620D01*
X132040368Y-106901475D01*
X132283589Y-107063990D01*
X132553842Y-107175932D01*
X132840740Y-107233000D01*
X133133260Y-107233000D01*
X133420158Y-107175932D01*
X133690411Y-107063990D01*
X133933632Y-106901475D01*
X134140475Y-106694632D01*
X134257000Y-106520240D01*
X134373525Y-106694632D01*
X134580368Y-106901475D01*
X134823589Y-107063990D01*
X135093842Y-107175932D01*
X135380740Y-107233000D01*
X135673260Y-107233000D01*
X135960158Y-107175932D01*
X136230411Y-107063990D01*
X136473632Y-106901475D01*
X136680475Y-106694632D01*
X136797000Y-106520240D01*
X136913525Y-106694632D01*
X137120368Y-106901475D01*
X137363589Y-107063990D01*
X137633842Y-107175932D01*
X137920740Y-107233000D01*
X138213260Y-107233000D01*
X138500158Y-107175932D01*
X138770411Y-107063990D01*
X139013632Y-106901475D01*
X139220475Y-106694632D01*
X139337000Y-106520240D01*
X139453525Y-106694632D01*
X139660368Y-106901475D01*
X139903589Y-107063990D01*
X140173842Y-107175932D01*
X140460740Y-107233000D01*
X140753260Y-107233000D01*
X141040158Y-107175932D01*
X141310411Y-107063990D01*
X141553632Y-106901475D01*
X141685487Y-106769620D01*
X141707498Y-106842180D01*
X141766463Y-106952494D01*
X141845815Y-107049185D01*
X141942506Y-107128537D01*
X142052820Y-107187502D01*
X142172518Y-107223812D01*
X142297000Y-107236072D01*
X143997000Y-107236072D01*
X144121482Y-107223812D01*
X144241180Y-107187502D01*
X144351494Y-107128537D01*
X144448185Y-107049185D01*
X144527537Y-106952494D01*
X144586502Y-106842180D01*
X144608513Y-106769620D01*
X144740368Y-106901475D01*
X144983589Y-107063990D01*
X145253842Y-107175932D01*
X145540740Y-107233000D01*
X145833260Y-107233000D01*
X146120158Y-107175932D01*
X146390411Y-107063990D01*
X146633632Y-106901475D01*
X146840475Y-106694632D01*
X146957000Y-106520240D01*
X147073525Y-106694632D01*
X147280368Y-106901475D01*
X147523589Y-107063990D01*
X147793842Y-107175932D01*
X148080740Y-107233000D01*
X148373260Y-107233000D01*
X148660158Y-107175932D01*
X148930411Y-107063990D01*
X149173632Y-106901475D01*
X149380475Y-106694632D01*
X149497000Y-106520240D01*
X149613525Y-106694632D01*
X149820368Y-106901475D01*
X150063589Y-107063990D01*
X150333842Y-107175932D01*
X150620740Y-107233000D01*
X150913260Y-107233000D01*
X151200158Y-107175932D01*
X151470411Y-107063990D01*
X151713632Y-106901475D01*
X151920475Y-106694632D01*
X152037000Y-106520240D01*
X152153525Y-106694632D01*
X152360368Y-106901475D01*
X152603589Y-107063990D01*
X152873842Y-107175932D01*
X153160740Y-107233000D01*
X153453260Y-107233000D01*
X153740158Y-107175932D01*
X154010411Y-107063990D01*
X154253632Y-106901475D01*
X154385487Y-106769620D01*
X154407498Y-106842180D01*
X154466463Y-106952494D01*
X154545815Y-107049185D01*
X154642506Y-107128537D01*
X154752820Y-107187502D01*
X154872518Y-107223812D01*
X154997000Y-107236072D01*
X156697000Y-107236072D01*
X156821482Y-107223812D01*
X156941180Y-107187502D01*
X157051494Y-107128537D01*
X157148185Y-107049185D01*
X157227537Y-106952494D01*
X157286502Y-106842180D01*
X157308513Y-106769620D01*
X157440368Y-106901475D01*
X157683589Y-107063990D01*
X157953842Y-107175932D01*
X158240740Y-107233000D01*
X158533260Y-107233000D01*
X158820158Y-107175932D01*
X159090411Y-107063990D01*
X159333632Y-106901475D01*
X159540475Y-106694632D01*
X159657000Y-106520240D01*
X159773525Y-106694632D01*
X159980368Y-106901475D01*
X160223589Y-107063990D01*
X160493842Y-107175932D01*
X160780740Y-107233000D01*
X161073260Y-107233000D01*
X161360158Y-107175932D01*
X161630411Y-107063990D01*
X161873632Y-106901475D01*
X162080475Y-106694632D01*
X162242990Y-106451411D01*
X162354932Y-106181158D01*
X162412000Y-105894260D01*
X162412000Y-105601740D01*
X162354932Y-105314842D01*
X162242990Y-105044589D01*
X162080475Y-104801368D01*
X161873632Y-104594525D01*
X161630411Y-104432010D01*
X161360158Y-104320068D01*
X161073260Y-104263000D01*
X160780740Y-104263000D01*
X160493842Y-104320068D01*
X160223589Y-104432010D01*
X159980368Y-104594525D01*
X159773525Y-104801368D01*
X159657000Y-104975760D01*
X159540475Y-104801368D01*
X159333632Y-104594525D01*
X159090411Y-104432010D01*
X158820158Y-104320068D01*
X158533260Y-104263000D01*
X158240740Y-104263000D01*
X157953842Y-104320068D01*
X157683589Y-104432010D01*
X157440368Y-104594525D01*
X157308513Y-104726380D01*
X157286502Y-104653820D01*
X157227537Y-104543506D01*
X157148185Y-104446815D01*
X157051494Y-104367463D01*
X156941180Y-104308498D01*
X156821482Y-104272188D01*
X156697000Y-104259928D01*
X154997000Y-104259928D01*
X154872518Y-104272188D01*
X154752820Y-104308498D01*
X154642506Y-104367463D01*
X154545815Y-104446815D01*
X154466463Y-104543506D01*
X154407498Y-104653820D01*
X154385487Y-104726380D01*
X154253632Y-104594525D01*
X154010411Y-104432010D01*
X153740158Y-104320068D01*
X153453260Y-104263000D01*
X153160740Y-104263000D01*
X152873842Y-104320068D01*
X152603589Y-104432010D01*
X152360368Y-104594525D01*
X152153525Y-104801368D01*
X152037000Y-104975760D01*
X151920475Y-104801368D01*
X151713632Y-104594525D01*
X151470411Y-104432010D01*
X151200158Y-104320068D01*
X150913260Y-104263000D01*
X150620740Y-104263000D01*
X150333842Y-104320068D01*
X150063589Y-104432010D01*
X149820368Y-104594525D01*
X149613525Y-104801368D01*
X149497000Y-104975760D01*
X149380475Y-104801368D01*
X149173632Y-104594525D01*
X148930411Y-104432010D01*
X148660158Y-104320068D01*
X148373260Y-104263000D01*
X148080740Y-104263000D01*
X147793842Y-104320068D01*
X147523589Y-104432010D01*
X147280368Y-104594525D01*
X147073525Y-104801368D01*
X146957000Y-104975760D01*
X146840475Y-104801368D01*
X146633632Y-104594525D01*
X146390411Y-104432010D01*
X146120158Y-104320068D01*
X145833260Y-104263000D01*
X145540740Y-104263000D01*
X145253842Y-104320068D01*
X144983589Y-104432010D01*
X144740368Y-104594525D01*
X144608513Y-104726380D01*
X144586502Y-104653820D01*
X144527537Y-104543506D01*
X144448185Y-104446815D01*
X144351494Y-104367463D01*
X144241180Y-104308498D01*
X144121482Y-104272188D01*
X143997000Y-104259928D01*
X142297000Y-104259928D01*
X142172518Y-104272188D01*
X142052820Y-104308498D01*
X141942506Y-104367463D01*
X141845815Y-104446815D01*
X141766463Y-104543506D01*
X141707498Y-104653820D01*
X141685487Y-104726380D01*
X141553632Y-104594525D01*
X141310411Y-104432010D01*
X141040158Y-104320068D01*
X140753260Y-104263000D01*
X140460740Y-104263000D01*
X140173842Y-104320068D01*
X139903589Y-104432010D01*
X139660368Y-104594525D01*
X139453525Y-104801368D01*
X139337000Y-104975760D01*
X139220475Y-104801368D01*
X139013632Y-104594525D01*
X138770411Y-104432010D01*
X138500158Y-104320068D01*
X138213260Y-104263000D01*
X137920740Y-104263000D01*
X137633842Y-104320068D01*
X137363589Y-104432010D01*
X137120368Y-104594525D01*
X136913525Y-104801368D01*
X136797000Y-104975760D01*
X136680475Y-104801368D01*
X136473632Y-104594525D01*
X136230411Y-104432010D01*
X135960158Y-104320068D01*
X135673260Y-104263000D01*
X135380740Y-104263000D01*
X135093842Y-104320068D01*
X134823589Y-104432010D01*
X134580368Y-104594525D01*
X134373525Y-104801368D01*
X134257000Y-104975760D01*
X134140475Y-104801368D01*
X133933632Y-104594525D01*
X133690411Y-104432010D01*
X133420158Y-104320068D01*
X133133260Y-104263000D01*
X132840740Y-104263000D01*
X132553842Y-104320068D01*
X132283589Y-104432010D01*
X132040368Y-104594525D01*
X131908513Y-104726380D01*
X131886502Y-104653820D01*
X131827537Y-104543506D01*
X131748185Y-104446815D01*
X131651494Y-104367463D01*
X131541180Y-104308498D01*
X131421482Y-104272188D01*
X131297000Y-104259928D01*
X129597000Y-104259928D01*
X129472518Y-104272188D01*
X129352820Y-104308498D01*
X129242506Y-104367463D01*
X129145815Y-104446815D01*
X129066463Y-104543506D01*
X129007498Y-104653820D01*
X128985487Y-104726380D01*
X128853632Y-104594525D01*
X128610411Y-104432010D01*
X128340158Y-104320068D01*
X128053260Y-104263000D01*
X127760740Y-104263000D01*
X127473842Y-104320068D01*
X127203589Y-104432010D01*
X126960368Y-104594525D01*
X126753525Y-104801368D01*
X126637000Y-104975760D01*
X126520475Y-104801368D01*
X126313632Y-104594525D01*
X126070411Y-104432010D01*
X125800158Y-104320068D01*
X125513260Y-104263000D01*
X125220740Y-104263000D01*
X124933842Y-104320068D01*
X124663589Y-104432010D01*
X124420368Y-104594525D01*
X124213525Y-104801368D01*
X124097000Y-104975760D01*
X123980475Y-104801368D01*
X123773632Y-104594525D01*
X123530411Y-104432010D01*
X123260158Y-104320068D01*
X122973260Y-104263000D01*
X122680740Y-104263000D01*
X122393842Y-104320068D01*
X122123589Y-104432010D01*
X121880368Y-104594525D01*
X121673525Y-104801368D01*
X121557000Y-104975760D01*
X121440475Y-104801368D01*
X121233632Y-104594525D01*
X120990411Y-104432010D01*
X120720158Y-104320068D01*
X120433260Y-104263000D01*
X120140740Y-104263000D01*
X119853842Y-104320068D01*
X119583589Y-104432010D01*
X119340368Y-104594525D01*
X119208513Y-104726380D01*
X119186502Y-104653820D01*
X119127537Y-104543506D01*
X119048185Y-104446815D01*
X118951494Y-104367463D01*
X118841180Y-104308498D01*
X118721482Y-104272188D01*
X118597000Y-104259928D01*
X116897000Y-104259928D01*
X116772518Y-104272188D01*
X116652820Y-104308498D01*
X116542506Y-104367463D01*
X116445815Y-104446815D01*
X116366463Y-104543506D01*
X116307498Y-104653820D01*
X116285487Y-104726380D01*
X116153632Y-104594525D01*
X115910411Y-104432010D01*
X115640158Y-104320068D01*
X115353260Y-104263000D01*
X115060740Y-104263000D01*
X114773842Y-104320068D01*
X114503589Y-104432010D01*
X114260368Y-104594525D01*
X114053525Y-104801368D01*
X113937000Y-104975760D01*
X113820475Y-104801368D01*
X113613632Y-104594525D01*
X113370411Y-104432010D01*
X113100158Y-104320068D01*
X112813260Y-104263000D01*
X112520740Y-104263000D01*
X112233842Y-104320068D01*
X111963589Y-104432010D01*
X111720368Y-104594525D01*
X111513525Y-104801368D01*
X111485000Y-104844059D01*
X111485000Y-100382379D01*
X111604688Y-100561505D01*
X111818495Y-100775312D01*
X112069905Y-100943299D01*
X112349257Y-101059011D01*
X112645816Y-101118000D01*
X112948184Y-101118000D01*
X113244743Y-101059011D01*
X113524095Y-100943299D01*
X113775505Y-100775312D01*
X113989312Y-100561505D01*
X114157299Y-100310095D01*
X114273011Y-100030743D01*
X114332000Y-99734184D01*
X114332000Y-99431816D01*
X114275266Y-99146589D01*
X114442000Y-99146589D01*
X114442000Y-99419411D01*
X114495225Y-99686989D01*
X114599629Y-99939043D01*
X114751201Y-100165886D01*
X114944114Y-100358799D01*
X115170957Y-100510371D01*
X115423011Y-100614775D01*
X115690589Y-100668000D01*
X115963411Y-100668000D01*
X116230989Y-100614775D01*
X116483043Y-100510371D01*
X116709886Y-100358799D01*
X116902799Y-100165886D01*
X117054371Y-99939043D01*
X117158775Y-99686989D01*
X117212000Y-99419411D01*
X117212000Y-99146589D01*
X117158775Y-98879011D01*
X117054371Y-98626957D01*
X116902799Y-98400114D01*
X116709886Y-98207201D01*
X116483043Y-98055629D01*
X116230989Y-97951225D01*
X115963411Y-97898000D01*
X115690589Y-97898000D01*
X115423011Y-97951225D01*
X115170957Y-98055629D01*
X114944114Y-98207201D01*
X114751201Y-98400114D01*
X114599629Y-98626957D01*
X114495225Y-98879011D01*
X114442000Y-99146589D01*
X114275266Y-99146589D01*
X114273011Y-99135257D01*
X114157299Y-98855905D01*
X113989312Y-98604495D01*
X113775505Y-98390688D01*
X113524095Y-98222701D01*
X113244743Y-98106989D01*
X112948184Y-98048000D01*
X112645816Y-98048000D01*
X112349257Y-98106989D01*
X112069905Y-98222701D01*
X111818495Y-98390688D01*
X111604688Y-98604495D01*
X111485000Y-98783621D01*
X111485000Y-96008000D01*
X159208928Y-96008000D01*
X159208928Y-97708000D01*
X159221188Y-97832482D01*
X159257498Y-97952180D01*
X159316463Y-98062494D01*
X159395815Y-98159185D01*
X159492506Y-98238537D01*
X159602820Y-98297502D01*
X159675380Y-98319513D01*
X159543525Y-98451368D01*
X159381010Y-98694589D01*
X159269068Y-98964842D01*
X159212000Y-99251740D01*
X159212000Y-99544260D01*
X159269068Y-99831158D01*
X159381010Y-100101411D01*
X159543525Y-100344632D01*
X159750368Y-100551475D01*
X159993589Y-100713990D01*
X160263842Y-100825932D01*
X160550740Y-100883000D01*
X160843260Y-100883000D01*
X161130158Y-100825932D01*
X161400411Y-100713990D01*
X161643632Y-100551475D01*
X161850475Y-100344632D01*
X162012990Y-100101411D01*
X162124932Y-99831158D01*
X162182000Y-99544260D01*
X162182000Y-99251740D01*
X162124932Y-98964842D01*
X162012990Y-98694589D01*
X161850475Y-98451368D01*
X161718620Y-98319513D01*
X161791180Y-98297502D01*
X161901494Y-98238537D01*
X161998185Y-98159185D01*
X162077537Y-98062494D01*
X162136502Y-97952180D01*
X162172812Y-97832482D01*
X162185072Y-97708000D01*
X162185072Y-96008000D01*
X162172812Y-95883518D01*
X162136502Y-95763820D01*
X162077537Y-95653506D01*
X161998185Y-95556815D01*
X161901494Y-95477463D01*
X161791180Y-95418498D01*
X161718620Y-95396487D01*
X161850475Y-95264632D01*
X162012990Y-95021411D01*
X162124932Y-94751158D01*
X162182000Y-94464260D01*
X162182000Y-94171740D01*
X162124932Y-93884842D01*
X162012990Y-93614589D01*
X161850475Y-93371368D01*
X161643632Y-93164525D01*
X161400411Y-93002010D01*
X161130158Y-92890068D01*
X160843260Y-92833000D01*
X160550740Y-92833000D01*
X160263842Y-92890068D01*
X159993589Y-93002010D01*
X159750368Y-93164525D01*
X159543525Y-93371368D01*
X159381010Y-93614589D01*
X159269068Y-93884842D01*
X159212000Y-94171740D01*
X159212000Y-94464260D01*
X159269068Y-94751158D01*
X159381010Y-95021411D01*
X159543525Y-95264632D01*
X159675380Y-95396487D01*
X159602820Y-95418498D01*
X159492506Y-95477463D01*
X159395815Y-95556815D01*
X159316463Y-95653506D01*
X159257498Y-95763820D01*
X159221188Y-95883518D01*
X159208928Y-96008000D01*
X111485000Y-96008000D01*
X111485000Y-94932379D01*
X111604688Y-95111505D01*
X111818495Y-95325312D01*
X112069905Y-95493299D01*
X112349257Y-95609011D01*
X112645816Y-95668000D01*
X112948184Y-95668000D01*
X113244743Y-95609011D01*
X113524095Y-95493299D01*
X113775505Y-95325312D01*
X113989312Y-95111505D01*
X114157299Y-94860095D01*
X114273011Y-94580743D01*
X114329532Y-94296589D01*
X114442000Y-94296589D01*
X114442000Y-94569411D01*
X114495225Y-94836989D01*
X114599629Y-95089043D01*
X114751201Y-95315886D01*
X114944114Y-95508799D01*
X115170957Y-95660371D01*
X115423011Y-95764775D01*
X115690589Y-95818000D01*
X115963411Y-95818000D01*
X116230989Y-95764775D01*
X116483043Y-95660371D01*
X116709886Y-95508799D01*
X116902799Y-95315886D01*
X117054371Y-95089043D01*
X117158775Y-94836989D01*
X117212000Y-94569411D01*
X117212000Y-94296589D01*
X117158775Y-94029011D01*
X117054371Y-93776957D01*
X116902799Y-93550114D01*
X116709886Y-93357201D01*
X116483043Y-93205629D01*
X116230989Y-93101225D01*
X115963411Y-93048000D01*
X115690589Y-93048000D01*
X115423011Y-93101225D01*
X115170957Y-93205629D01*
X114944114Y-93357201D01*
X114751201Y-93550114D01*
X114599629Y-93776957D01*
X114495225Y-94029011D01*
X114442000Y-94296589D01*
X114329532Y-94296589D01*
X114332000Y-94284184D01*
X114332000Y-93981816D01*
X114273011Y-93685257D01*
X114157299Y-93405905D01*
X113989312Y-93154495D01*
X113775505Y-92940688D01*
X113524095Y-92772701D01*
X113244743Y-92656989D01*
X112948184Y-92598000D01*
X112645816Y-92598000D01*
X112349257Y-92656989D01*
X112069905Y-92772701D01*
X111818495Y-92940688D01*
X111604688Y-93154495D01*
X111485000Y-93333621D01*
X111485000Y-88871941D01*
X111513525Y-88914632D01*
X111720368Y-89121475D01*
X111963589Y-89283990D01*
X112233842Y-89395932D01*
X112520740Y-89453000D01*
X112813260Y-89453000D01*
X113100158Y-89395932D01*
X113370411Y-89283990D01*
X113613632Y-89121475D01*
X113820475Y-88914632D01*
X113937000Y-88740240D01*
X114053525Y-88914632D01*
X114260368Y-89121475D01*
X114503589Y-89283990D01*
X114773842Y-89395932D01*
X115060740Y-89453000D01*
X115353260Y-89453000D01*
X115640158Y-89395932D01*
X115910411Y-89283990D01*
X116153632Y-89121475D01*
X116285487Y-88989620D01*
X116307498Y-89062180D01*
X116366463Y-89172494D01*
X116445815Y-89269185D01*
X116542506Y-89348537D01*
X116652820Y-89407502D01*
X116772518Y-89443812D01*
X116897000Y-89456072D01*
X117461250Y-89453000D01*
X117620000Y-89294250D01*
X117620000Y-88095000D01*
X117600000Y-88095000D01*
X117600000Y-87841000D01*
X117620000Y-87841000D01*
X117620000Y-86641750D01*
X117874000Y-86641750D01*
X117874000Y-87841000D01*
X117894000Y-87841000D01*
X117894000Y-88095000D01*
X117874000Y-88095000D01*
X117874000Y-89294250D01*
X118032750Y-89453000D01*
X118597000Y-89456072D01*
X118721482Y-89443812D01*
X118841180Y-89407502D01*
X118951494Y-89348537D01*
X119048185Y-89269185D01*
X119127537Y-89172494D01*
X119186502Y-89062180D01*
X119208513Y-88989620D01*
X119340368Y-89121475D01*
X119583589Y-89283990D01*
X119853842Y-89395932D01*
X120140740Y-89453000D01*
X120433260Y-89453000D01*
X120720158Y-89395932D01*
X120990411Y-89283990D01*
X121233632Y-89121475D01*
X121440475Y-88914632D01*
X121557000Y-88740240D01*
X121673525Y-88914632D01*
X121880368Y-89121475D01*
X122123589Y-89283990D01*
X122393842Y-89395932D01*
X122680740Y-89453000D01*
X122973260Y-89453000D01*
X123260158Y-89395932D01*
X123530411Y-89283990D01*
X123773632Y-89121475D01*
X123980475Y-88914632D01*
X124097000Y-88740240D01*
X124213525Y-88914632D01*
X124420368Y-89121475D01*
X124663589Y-89283990D01*
X124933842Y-89395932D01*
X125220740Y-89453000D01*
X125513260Y-89453000D01*
X125800158Y-89395932D01*
X126070411Y-89283990D01*
X126313632Y-89121475D01*
X126520475Y-88914632D01*
X126637000Y-88740240D01*
X126753525Y-88914632D01*
X126960368Y-89121475D01*
X127203589Y-89283990D01*
X127473842Y-89395932D01*
X127760740Y-89453000D01*
X128053260Y-89453000D01*
X128340158Y-89395932D01*
X128610411Y-89283990D01*
X128853632Y-89121475D01*
X128985487Y-88989620D01*
X129007498Y-89062180D01*
X129066463Y-89172494D01*
X129145815Y-89269185D01*
X129242506Y-89348537D01*
X129352820Y-89407502D01*
X129472518Y-89443812D01*
X129597000Y-89456072D01*
X131297000Y-89456072D01*
X131421482Y-89443812D01*
X131541180Y-89407502D01*
X131651494Y-89348537D01*
X131748185Y-89269185D01*
X131827537Y-89172494D01*
X131886502Y-89062180D01*
X131908513Y-88989620D01*
X132040368Y-89121475D01*
X132283589Y-89283990D01*
X132553842Y-89395932D01*
X132840740Y-89453000D01*
X133133260Y-89453000D01*
X133420158Y-89395932D01*
X133690411Y-89283990D01*
X133933632Y-89121475D01*
X134140475Y-88914632D01*
X134257000Y-88740240D01*
X134373525Y-88914632D01*
X134580368Y-89121475D01*
X134823589Y-89283990D01*
X135093842Y-89395932D01*
X135380740Y-89453000D01*
X135673260Y-89453000D01*
X135960158Y-89395932D01*
X136230411Y-89283990D01*
X136473632Y-89121475D01*
X136680475Y-88914632D01*
X136797000Y-88740240D01*
X136913525Y-88914632D01*
X137120368Y-89121475D01*
X137363589Y-89283990D01*
X137633842Y-89395932D01*
X137920740Y-89453000D01*
X138213260Y-89453000D01*
X138500158Y-89395932D01*
X138770411Y-89283990D01*
X139013632Y-89121475D01*
X139220475Y-88914632D01*
X139337000Y-88740240D01*
X139453525Y-88914632D01*
X139660368Y-89121475D01*
X139903589Y-89283990D01*
X140173842Y-89395932D01*
X140460740Y-89453000D01*
X140753260Y-89453000D01*
X141040158Y-89395932D01*
X141310411Y-89283990D01*
X141553632Y-89121475D01*
X141685487Y-88989620D01*
X141707498Y-89062180D01*
X141766463Y-89172494D01*
X141845815Y-89269185D01*
X141942506Y-89348537D01*
X142052820Y-89407502D01*
X142172518Y-89443812D01*
X142297000Y-89456072D01*
X143997000Y-89456072D01*
X144121482Y-89443812D01*
X144241180Y-89407502D01*
X144351494Y-89348537D01*
X144448185Y-89269185D01*
X144527537Y-89172494D01*
X144586502Y-89062180D01*
X144608513Y-88989620D01*
X144740368Y-89121475D01*
X144983589Y-89283990D01*
X145253842Y-89395932D01*
X145540740Y-89453000D01*
X145833260Y-89453000D01*
X146120158Y-89395932D01*
X146390411Y-89283990D01*
X146633632Y-89121475D01*
X146840475Y-88914632D01*
X146957000Y-88740240D01*
X147073525Y-88914632D01*
X147280368Y-89121475D01*
X147523589Y-89283990D01*
X147793842Y-89395932D01*
X148080740Y-89453000D01*
X148373260Y-89453000D01*
X148660158Y-89395932D01*
X148930411Y-89283990D01*
X149173632Y-89121475D01*
X149380475Y-88914632D01*
X149497000Y-88740240D01*
X149613525Y-88914632D01*
X149820368Y-89121475D01*
X150063589Y-89283990D01*
X150333842Y-89395932D01*
X150620740Y-89453000D01*
X150913260Y-89453000D01*
X151200158Y-89395932D01*
X151470411Y-89283990D01*
X151713632Y-89121475D01*
X151920475Y-88914632D01*
X152037000Y-88740240D01*
X152153525Y-88914632D01*
X152360368Y-89121475D01*
X152603589Y-89283990D01*
X152873842Y-89395932D01*
X153160740Y-89453000D01*
X153453260Y-89453000D01*
X153740158Y-89395932D01*
X154010411Y-89283990D01*
X154253632Y-89121475D01*
X154385487Y-88989620D01*
X154407498Y-89062180D01*
X154466463Y-89172494D01*
X154545815Y-89269185D01*
X154642506Y-89348537D01*
X154752820Y-89407502D01*
X154872518Y-89443812D01*
X154997000Y-89456072D01*
X156697000Y-89456072D01*
X156821482Y-89443812D01*
X156941180Y-89407502D01*
X157051494Y-89348537D01*
X157148185Y-89269185D01*
X157227537Y-89172494D01*
X157286502Y-89062180D01*
X157308513Y-88989620D01*
X157440368Y-89121475D01*
X157683589Y-89283990D01*
X157953842Y-89395932D01*
X158240740Y-89453000D01*
X158533260Y-89453000D01*
X158820158Y-89395932D01*
X159090411Y-89283990D01*
X159333632Y-89121475D01*
X159540475Y-88914632D01*
X159657000Y-88740240D01*
X159773525Y-88914632D01*
X159980368Y-89121475D01*
X160223589Y-89283990D01*
X160493842Y-89395932D01*
X160780740Y-89453000D01*
X161073260Y-89453000D01*
X161360158Y-89395932D01*
X161630411Y-89283990D01*
X161873632Y-89121475D01*
X162080475Y-88914632D01*
X162242990Y-88671411D01*
X162354932Y-88401158D01*
X162412000Y-88114260D01*
X162412000Y-87821740D01*
X162354932Y-87534842D01*
X162242990Y-87264589D01*
X162080475Y-87021368D01*
X161873632Y-86814525D01*
X161630411Y-86652010D01*
X161360158Y-86540068D01*
X161073260Y-86483000D01*
X160780740Y-86483000D01*
X160493842Y-86540068D01*
X160223589Y-86652010D01*
X159980368Y-86814525D01*
X159773525Y-87021368D01*
X159657000Y-87195760D01*
X159540475Y-87021368D01*
X159333632Y-86814525D01*
X159090411Y-86652010D01*
X158820158Y-86540068D01*
X158533260Y-86483000D01*
X158240740Y-86483000D01*
X157953842Y-86540068D01*
X157683589Y-86652010D01*
X157440368Y-86814525D01*
X157308513Y-86946380D01*
X157286502Y-86873820D01*
X157227537Y-86763506D01*
X157148185Y-86666815D01*
X157051494Y-86587463D01*
X156941180Y-86528498D01*
X156821482Y-86492188D01*
X156697000Y-86479928D01*
X154997000Y-86479928D01*
X154872518Y-86492188D01*
X154752820Y-86528498D01*
X154642506Y-86587463D01*
X154545815Y-86666815D01*
X154466463Y-86763506D01*
X154407498Y-86873820D01*
X154385487Y-86946380D01*
X154253632Y-86814525D01*
X154010411Y-86652010D01*
X153740158Y-86540068D01*
X153453260Y-86483000D01*
X153160740Y-86483000D01*
X152873842Y-86540068D01*
X152603589Y-86652010D01*
X152360368Y-86814525D01*
X152153525Y-87021368D01*
X152037000Y-87195760D01*
X151920475Y-87021368D01*
X151713632Y-86814525D01*
X151470411Y-86652010D01*
X151200158Y-86540068D01*
X150913260Y-86483000D01*
X150620740Y-86483000D01*
X150333842Y-86540068D01*
X150063589Y-86652010D01*
X149820368Y-86814525D01*
X149613525Y-87021368D01*
X149497000Y-87195760D01*
X149380475Y-87021368D01*
X149173632Y-86814525D01*
X148930411Y-86652010D01*
X148660158Y-86540068D01*
X148373260Y-86483000D01*
X148080740Y-86483000D01*
X147793842Y-86540068D01*
X147523589Y-86652010D01*
X147280368Y-86814525D01*
X147073525Y-87021368D01*
X146957000Y-87195760D01*
X146840475Y-87021368D01*
X146633632Y-86814525D01*
X146390411Y-86652010D01*
X146120158Y-86540068D01*
X145833260Y-86483000D01*
X145540740Y-86483000D01*
X145253842Y-86540068D01*
X144983589Y-86652010D01*
X144740368Y-86814525D01*
X144608513Y-86946380D01*
X144586502Y-86873820D01*
X144527537Y-86763506D01*
X144448185Y-86666815D01*
X144351494Y-86587463D01*
X144241180Y-86528498D01*
X144121482Y-86492188D01*
X143997000Y-86479928D01*
X142297000Y-86479928D01*
X142172518Y-86492188D01*
X142052820Y-86528498D01*
X141942506Y-86587463D01*
X141845815Y-86666815D01*
X141766463Y-86763506D01*
X141707498Y-86873820D01*
X141685487Y-86946380D01*
X141553632Y-86814525D01*
X141310411Y-86652010D01*
X141040158Y-86540068D01*
X140753260Y-86483000D01*
X140460740Y-86483000D01*
X140173842Y-86540068D01*
X139903589Y-86652010D01*
X139660368Y-86814525D01*
X139453525Y-87021368D01*
X139337000Y-87195760D01*
X139220475Y-87021368D01*
X139013632Y-86814525D01*
X138770411Y-86652010D01*
X138500158Y-86540068D01*
X138213260Y-86483000D01*
X137920740Y-86483000D01*
X137633842Y-86540068D01*
X137363589Y-86652010D01*
X137120368Y-86814525D01*
X136913525Y-87021368D01*
X136797000Y-87195760D01*
X136680475Y-87021368D01*
X136473632Y-86814525D01*
X136230411Y-86652010D01*
X135960158Y-86540068D01*
X135673260Y-86483000D01*
X135380740Y-86483000D01*
X135093842Y-86540068D01*
X134823589Y-86652010D01*
X134580368Y-86814525D01*
X134373525Y-87021368D01*
X134257000Y-87195760D01*
X134140475Y-87021368D01*
X133933632Y-86814525D01*
X133690411Y-86652010D01*
X133420158Y-86540068D01*
X133133260Y-86483000D01*
X132840740Y-86483000D01*
X132553842Y-86540068D01*
X132283589Y-86652010D01*
X132040368Y-86814525D01*
X131908513Y-86946380D01*
X131886502Y-86873820D01*
X131827537Y-86763506D01*
X131748185Y-86666815D01*
X131651494Y-86587463D01*
X131541180Y-86528498D01*
X131421482Y-86492188D01*
X131297000Y-86479928D01*
X129597000Y-86479928D01*
X129472518Y-86492188D01*
X129352820Y-86528498D01*
X129242506Y-86587463D01*
X129145815Y-86666815D01*
X129066463Y-86763506D01*
X129007498Y-86873820D01*
X128985487Y-86946380D01*
X128853632Y-86814525D01*
X128610411Y-86652010D01*
X128340158Y-86540068D01*
X128053260Y-86483000D01*
X127760740Y-86483000D01*
X127473842Y-86540068D01*
X127203589Y-86652010D01*
X126960368Y-86814525D01*
X126753525Y-87021368D01*
X126637000Y-87195760D01*
X126520475Y-87021368D01*
X126313632Y-86814525D01*
X126070411Y-86652010D01*
X125800158Y-86540068D01*
X125513260Y-86483000D01*
X125220740Y-86483000D01*
X124933842Y-86540068D01*
X124663589Y-86652010D01*
X124420368Y-86814525D01*
X124213525Y-87021368D01*
X124097000Y-87195760D01*
X123980475Y-87021368D01*
X123773632Y-86814525D01*
X123530411Y-86652010D01*
X123260158Y-86540068D01*
X122973260Y-86483000D01*
X122680740Y-86483000D01*
X122393842Y-86540068D01*
X122123589Y-86652010D01*
X121880368Y-86814525D01*
X121673525Y-87021368D01*
X121557000Y-87195760D01*
X121440475Y-87021368D01*
X121233632Y-86814525D01*
X120990411Y-86652010D01*
X120720158Y-86540068D01*
X120433260Y-86483000D01*
X120140740Y-86483000D01*
X119853842Y-86540068D01*
X119583589Y-86652010D01*
X119340368Y-86814525D01*
X119208513Y-86946380D01*
X119186502Y-86873820D01*
X119127537Y-86763506D01*
X119048185Y-86666815D01*
X118951494Y-86587463D01*
X118841180Y-86528498D01*
X118721482Y-86492188D01*
X118597000Y-86479928D01*
X118032750Y-86483000D01*
X117874000Y-86641750D01*
X117620000Y-86641750D01*
X117461250Y-86483000D01*
X116897000Y-86479928D01*
X116772518Y-86492188D01*
X116652820Y-86528498D01*
X116542506Y-86587463D01*
X116445815Y-86666815D01*
X116366463Y-86763506D01*
X116307498Y-86873820D01*
X116285487Y-86946380D01*
X116153632Y-86814525D01*
X115910411Y-86652010D01*
X115640158Y-86540068D01*
X115353260Y-86483000D01*
X115060740Y-86483000D01*
X114773842Y-86540068D01*
X114503589Y-86652010D01*
X114260368Y-86814525D01*
X114053525Y-87021368D01*
X113937000Y-87195760D01*
X113820475Y-87021368D01*
X113613632Y-86814525D01*
X113370411Y-86652010D01*
X113100158Y-86540068D01*
X112813260Y-86483000D01*
X112520740Y-86483000D01*
X112233842Y-86540068D01*
X111963589Y-86652010D01*
X111720368Y-86814525D01*
X111513525Y-87021368D01*
X111485000Y-87064059D01*
X111485000Y-82756061D01*
X158762000Y-82756061D01*
X158762000Y-82959939D01*
X158801774Y-83159898D01*
X158879795Y-83348256D01*
X158993063Y-83517774D01*
X159137226Y-83661937D01*
X159306744Y-83775205D01*
X159495102Y-83853226D01*
X159695061Y-83893000D01*
X159898939Y-83893000D01*
X160098898Y-83853226D01*
X160287256Y-83775205D01*
X160335454Y-83743000D01*
X196680422Y-83743000D01*
X199662000Y-86724579D01*
X199662001Y-95569544D01*
X199629795Y-95617744D01*
X199551774Y-95806102D01*
X199512000Y-96006061D01*
X199512000Y-96209939D01*
X199551774Y-96409898D01*
X199629795Y-96598256D01*
X199743063Y-96767774D01*
X199887226Y-96911937D01*
X200056744Y-97025205D01*
X200245102Y-97103226D01*
X200445061Y-97143000D01*
X200648939Y-97143000D01*
X200848898Y-97103226D01*
X201037256Y-97025205D01*
X201206774Y-96911937D01*
X201350937Y-96767774D01*
X201464205Y-96598256D01*
X201542226Y-96409898D01*
X201582000Y-96209939D01*
X201582000Y-96006061D01*
X201542226Y-95806102D01*
X201464205Y-95617744D01*
X201432000Y-95569546D01*
X201432000Y-86401465D01*
X201436281Y-86357999D01*
X201432000Y-86314533D01*
X201432000Y-86314523D01*
X201419195Y-86184510D01*
X201368589Y-86017687D01*
X201286411Y-85863941D01*
X201175817Y-85729183D01*
X201142050Y-85701471D01*
X197703534Y-82262956D01*
X197675817Y-82229183D01*
X197541059Y-82118589D01*
X197387313Y-82036411D01*
X197220490Y-81985805D01*
X197090477Y-81973000D01*
X197090469Y-81973000D01*
X197047000Y-81968719D01*
X197003531Y-81973000D01*
X160335454Y-81973000D01*
X160287256Y-81940795D01*
X160098898Y-81862774D01*
X159898939Y-81823000D01*
X159695061Y-81823000D01*
X159495102Y-81862774D01*
X159306744Y-81940795D01*
X159137226Y-82054063D01*
X158993063Y-82198226D01*
X158879795Y-82367744D01*
X158801774Y-82556102D01*
X158762000Y-82756061D01*
X111485000Y-82756061D01*
X111485000Y-80535000D01*
X206115000Y-80535000D01*
X206115001Y-127165000D01*
%TA.AperFunction,Conductor*%
D21*
G36*
X206115001Y-127165000D02*
G01*
X111485000Y-127165000D01*
X111485000Y-120683000D01*
X115733928Y-120683000D01*
X115733928Y-122033000D01*
X115746188Y-122157482D01*
X115782498Y-122277180D01*
X115841463Y-122387494D01*
X115920815Y-122484185D01*
X116017506Y-122563537D01*
X116127820Y-122622502D01*
X116247518Y-122658812D01*
X116372000Y-122671072D01*
X117722000Y-122671072D01*
X117846482Y-122658812D01*
X117966180Y-122622502D01*
X118076494Y-122563537D01*
X118173185Y-122484185D01*
X118244487Y-122397303D01*
X118426482Y-122518907D01*
X118664887Y-122617658D01*
X118917976Y-122668000D01*
X119176024Y-122668000D01*
X119429113Y-122617658D01*
X119667518Y-122518907D01*
X119882077Y-122375544D01*
X120047000Y-122210621D01*
X120211923Y-122375544D01*
X120426482Y-122518907D01*
X120664887Y-122617658D01*
X120917976Y-122668000D01*
X121176024Y-122668000D01*
X121429113Y-122617658D01*
X121667518Y-122518907D01*
X121882077Y-122375544D01*
X122053681Y-122203940D01*
X122175773Y-122336303D01*
X122383371Y-122487473D01*
X122616472Y-122595238D01*
X122717600Y-122625910D01*
X122920000Y-122502224D01*
X122920000Y-121485000D01*
X123174000Y-121485000D01*
X123174000Y-122502224D01*
X123376400Y-122625910D01*
X123477528Y-122595238D01*
X123710629Y-122487473D01*
X123918227Y-122336303D01*
X124092344Y-122147537D01*
X124162363Y-122033000D01*
X132733928Y-122033000D01*
X132746188Y-122157482D01*
X132782498Y-122277180D01*
X132841463Y-122387494D01*
X132920815Y-122484185D01*
X133017506Y-122563537D01*
X133127820Y-122622502D01*
X133247518Y-122658812D01*
X133372000Y-122671072D01*
X133761250Y-122668000D01*
X133920000Y-122509250D01*
X133920000Y-121485000D01*
X132895750Y-121485000D01*
X132737000Y-121643750D01*
X132733928Y-122033000D01*
X124162363Y-122033000D01*
X124226289Y-121928430D01*
X124314915Y-121687401D01*
X124192085Y-121485000D01*
X123174000Y-121485000D01*
X122920000Y-121485000D01*
X122900000Y-121485000D01*
X122900000Y-121231000D01*
X122920000Y-121231000D01*
X122920000Y-120213776D01*
X123174000Y-120213776D01*
X123174000Y-121231000D01*
X124192085Y-121231000D01*
X124314915Y-121028599D01*
X124226289Y-120787570D01*
X124162364Y-120683000D01*
X132733928Y-120683000D01*
X132737000Y-121072250D01*
X132895750Y-121231000D01*
X133920000Y-121231000D01*
X133920000Y-120206750D01*
X134174000Y-120206750D01*
X134174000Y-121231000D01*
X134194000Y-121231000D01*
X134194000Y-121485000D01*
X134174000Y-121485000D01*
X134174000Y-122509250D01*
X134332750Y-122668000D01*
X134722000Y-122671072D01*
X134846482Y-122658812D01*
X134966180Y-122622502D01*
X135076494Y-122563537D01*
X135173185Y-122484185D01*
X135244487Y-122397303D01*
X135426482Y-122518907D01*
X135664887Y-122617658D01*
X135917976Y-122668000D01*
X136176024Y-122668000D01*
X136429113Y-122617658D01*
X136667518Y-122518907D01*
X136882077Y-122375544D01*
X137047000Y-122210621D01*
X137211923Y-122375544D01*
X137426482Y-122518907D01*
X137664887Y-122617658D01*
X137711113Y-122626853D01*
X137556744Y-122690795D01*
X137387226Y-122804063D01*
X137243063Y-122948226D01*
X137129795Y-123117744D01*
X137051774Y-123306102D01*
X137012000Y-123506061D01*
X137012000Y-123709939D01*
X137051774Y-123909898D01*
X137129795Y-124098256D01*
X137243063Y-124267774D01*
X137387226Y-124411937D01*
X137556744Y-124525205D01*
X137745102Y-124603226D01*
X137801957Y-124614535D01*
X138390470Y-125203049D01*
X138418183Y-125236817D01*
X138451951Y-125264530D01*
X138451953Y-125264532D01*
X138552941Y-125347411D01*
X138706686Y-125429589D01*
X138873510Y-125480195D01*
X139003523Y-125493000D01*
X139003531Y-125493000D01*
X139047000Y-125497281D01*
X139090469Y-125493000D01*
X154753531Y-125493000D01*
X154797000Y-125497281D01*
X154840469Y-125493000D01*
X154840477Y-125493000D01*
X154970490Y-125480195D01*
X155137313Y-125429589D01*
X155291059Y-125347411D01*
X155425817Y-125236817D01*
X155453534Y-125203044D01*
X155642044Y-125014534D01*
X155675817Y-124986817D01*
X155786411Y-124852059D01*
X155868589Y-124698313D01*
X155919195Y-124531490D01*
X155932000Y-124401477D01*
X155932000Y-124401467D01*
X155936281Y-124358001D01*
X155932000Y-124314535D01*
X155932000Y-122325621D01*
X156047000Y-122210621D01*
X156211923Y-122375544D01*
X156426482Y-122518907D01*
X156664887Y-122617658D01*
X156917976Y-122668000D01*
X157176024Y-122668000D01*
X157429113Y-122617658D01*
X157667518Y-122518907D01*
X157882077Y-122375544D01*
X158064544Y-122193077D01*
X158207907Y-121978518D01*
X158306658Y-121740113D01*
X158357000Y-121487024D01*
X158357000Y-121228976D01*
X158306658Y-120975887D01*
X158207907Y-120737482D01*
X158064544Y-120522923D01*
X157882077Y-120340456D01*
X157667518Y-120197093D01*
X157429113Y-120098342D01*
X157176024Y-120048000D01*
X156917976Y-120048000D01*
X156664887Y-120098342D01*
X156426482Y-120197093D01*
X156211923Y-120340456D01*
X156047000Y-120505379D01*
X155882077Y-120340456D01*
X155667518Y-120197093D01*
X155429113Y-120098342D01*
X155176024Y-120048000D01*
X154917976Y-120048000D01*
X154664887Y-120098342D01*
X154426482Y-120197093D01*
X154211923Y-120340456D01*
X154047000Y-120505379D01*
X153932000Y-120390379D01*
X153932000Y-119901465D01*
X153936281Y-119857999D01*
X153932000Y-119814533D01*
X153932000Y-119814523D01*
X153919195Y-119684510D01*
X153868589Y-119517687D01*
X153786411Y-119363941D01*
X153762210Y-119334452D01*
X153703532Y-119262953D01*
X153703530Y-119262951D01*
X153675817Y-119229183D01*
X153642050Y-119201471D01*
X152953534Y-118512956D01*
X152925817Y-118479183D01*
X152791059Y-118368589D01*
X152637313Y-118286411D01*
X152470490Y-118235805D01*
X152340477Y-118223000D01*
X152340469Y-118223000D01*
X152297000Y-118218719D01*
X152253531Y-118223000D01*
X137090469Y-118223000D01*
X137047000Y-118218719D01*
X137003531Y-118223000D01*
X137003523Y-118223000D01*
X136873510Y-118235805D01*
X136706686Y-118286411D01*
X136552941Y-118368589D01*
X136451953Y-118451468D01*
X136451951Y-118451470D01*
X136418183Y-118479183D01*
X136390470Y-118512951D01*
X135451951Y-119451471D01*
X135418184Y-119479183D01*
X135390471Y-119512951D01*
X135390468Y-119512954D01*
X135307590Y-119613941D01*
X135225412Y-119767687D01*
X135174805Y-119934510D01*
X135157719Y-120108000D01*
X135162001Y-120151478D01*
X135162001Y-120222636D01*
X135076494Y-120152463D01*
X134966180Y-120093498D01*
X134846482Y-120057188D01*
X134722000Y-120044928D01*
X134332750Y-120048000D01*
X134174000Y-120206750D01*
X133920000Y-120206750D01*
X133761250Y-120048000D01*
X133372000Y-120044928D01*
X133247518Y-120057188D01*
X133127820Y-120093498D01*
X133017506Y-120152463D01*
X132920815Y-120231815D01*
X132841463Y-120328506D01*
X132782498Y-120438820D01*
X132746188Y-120558518D01*
X132733928Y-120683000D01*
X124162364Y-120683000D01*
X124092344Y-120568463D01*
X123918227Y-120379697D01*
X123710629Y-120228527D01*
X123477528Y-120120762D01*
X123376400Y-120090090D01*
X123174000Y-120213776D01*
X122920000Y-120213776D01*
X122717600Y-120090090D01*
X122616472Y-120120762D01*
X122383371Y-120228527D01*
X122175773Y-120379697D01*
X122053681Y-120512060D01*
X121932000Y-120390379D01*
X121932000Y-117901469D01*
X121936281Y-117858000D01*
X121932000Y-117814531D01*
X121932000Y-117814523D01*
X121919195Y-117684510D01*
X121868589Y-117517687D01*
X121786411Y-117363941D01*
X121675817Y-117229183D01*
X121642050Y-117201471D01*
X120453534Y-116012956D01*
X120425817Y-115979183D01*
X120291059Y-115868589D01*
X120137313Y-115786411D01*
X119970490Y-115735805D01*
X119840477Y-115723000D01*
X119840469Y-115723000D01*
X119797000Y-115718719D01*
X119753531Y-115723000D01*
X117682000Y-115723000D01*
X117682000Y-110974578D01*
X117913579Y-110743000D01*
X162728613Y-110743000D01*
X162637226Y-110804063D01*
X162493063Y-110948226D01*
X162379795Y-111117744D01*
X162301774Y-111306102D01*
X162262000Y-111506061D01*
X162262000Y-111709939D01*
X162301774Y-111909898D01*
X162379795Y-112098256D01*
X162493063Y-112267774D01*
X162634059Y-112408770D01*
X162556744Y-112440795D01*
X162387226Y-112554063D01*
X162243063Y-112698226D01*
X162129795Y-112867744D01*
X162051774Y-113056102D01*
X162012000Y-113256061D01*
X162012000Y-113459939D01*
X162051774Y-113659898D01*
X162129795Y-113848256D01*
X162243063Y-114017774D01*
X162387226Y-114161937D01*
X162556744Y-114275205D01*
X162745102Y-114353226D01*
X162801957Y-114364535D01*
X163788103Y-115350681D01*
X163648939Y-115323000D01*
X163445061Y-115323000D01*
X163245102Y-115362774D01*
X163056744Y-115440795D01*
X162887226Y-115554063D01*
X162743063Y-115698226D01*
X162629795Y-115867744D01*
X162551774Y-116056102D01*
X162512000Y-116256061D01*
X162512000Y-116459939D01*
X162551774Y-116659898D01*
X162629795Y-116848256D01*
X162743063Y-117017774D01*
X162887226Y-117161937D01*
X163056744Y-117275205D01*
X163245102Y-117353226D01*
X163301957Y-117364535D01*
X166160421Y-120223000D01*
X165663579Y-120223000D01*
X160682000Y-115241422D01*
X160682000Y-113146454D01*
X160714205Y-113098256D01*
X160792226Y-112909898D01*
X160832000Y-112709939D01*
X160832000Y-112506061D01*
X160792226Y-112306102D01*
X160714205Y-112117744D01*
X160600937Y-111948226D01*
X160456774Y-111804063D01*
X160287256Y-111690795D01*
X160098898Y-111612774D01*
X159898939Y-111573000D01*
X159695061Y-111573000D01*
X159495102Y-111612774D01*
X159306744Y-111690795D01*
X159137226Y-111804063D01*
X158993063Y-111948226D01*
X158879795Y-112117744D01*
X158801774Y-112306102D01*
X158762000Y-112506061D01*
X158762000Y-112709939D01*
X158801774Y-112909898D01*
X158879795Y-113098256D01*
X158912000Y-113146455D01*
X158912001Y-115564521D01*
X158907719Y-115608000D01*
X158924805Y-115781490D01*
X158975412Y-115948313D01*
X159057590Y-116102059D01*
X159140468Y-116203046D01*
X159140471Y-116203049D01*
X159168184Y-116236817D01*
X159201952Y-116264530D01*
X164640470Y-121703049D01*
X164668183Y-121736817D01*
X164701951Y-121764530D01*
X164701953Y-121764532D01*
X164802941Y-121847411D01*
X164956686Y-121929589D01*
X165117982Y-121978518D01*
X165123510Y-121980195D01*
X165253523Y-121993000D01*
X165253531Y-121993000D01*
X165297000Y-121997281D01*
X165340469Y-121993000D01*
X196008546Y-121993000D01*
X196056744Y-122025205D01*
X196245102Y-122103226D01*
X196445061Y-122143000D01*
X196648939Y-122143000D01*
X196848898Y-122103226D01*
X197037256Y-122025205D01*
X197206774Y-121911937D01*
X197350937Y-121767774D01*
X197464205Y-121598256D01*
X197542226Y-121409898D01*
X197582000Y-121209939D01*
X197582000Y-121006061D01*
X197542226Y-120806102D01*
X197464205Y-120617744D01*
X197350937Y-120448226D01*
X197206774Y-120304063D01*
X197037256Y-120190795D01*
X196848898Y-120112774D01*
X196648939Y-120073000D01*
X196445061Y-120073000D01*
X196245102Y-120112774D01*
X196056744Y-120190795D01*
X196008546Y-120223000D01*
X175266088Y-120223000D01*
X175292226Y-120159898D01*
X175332000Y-119959939D01*
X175332000Y-119756061D01*
X175292226Y-119556102D01*
X175214205Y-119367744D01*
X175100937Y-119198226D01*
X174956774Y-119054063D01*
X174787256Y-118940795D01*
X174598898Y-118862774D01*
X174398939Y-118823000D01*
X174195061Y-118823000D01*
X173995102Y-118862774D01*
X173806744Y-118940795D01*
X173758546Y-118973000D01*
X168880854Y-118973000D01*
X168964205Y-118848256D01*
X169042226Y-118659898D01*
X169082000Y-118459939D01*
X169082000Y-118256061D01*
X169042226Y-118056102D01*
X168964205Y-117867744D01*
X168850937Y-117698226D01*
X168706774Y-117554063D01*
X168537256Y-117440795D01*
X168348898Y-117362774D01*
X168292044Y-117351465D01*
X164053535Y-113112957D01*
X164042226Y-113056102D01*
X163964205Y-112867744D01*
X163850937Y-112698226D01*
X163709941Y-112557230D01*
X163787256Y-112525205D01*
X163835454Y-112493000D01*
X190753531Y-112493000D01*
X190797000Y-112497281D01*
X190840469Y-112493000D01*
X190840477Y-112493000D01*
X190970490Y-112480195D01*
X191137313Y-112429589D01*
X191291059Y-112347411D01*
X191425817Y-112236817D01*
X191453534Y-112203044D01*
X196792044Y-106864535D01*
X196848898Y-106853226D01*
X197037256Y-106775205D01*
X197206774Y-106661937D01*
X197350937Y-106517774D01*
X197464205Y-106348256D01*
X197542226Y-106159898D01*
X197582000Y-105959939D01*
X197582000Y-105756061D01*
X197542226Y-105556102D01*
X197464205Y-105367744D01*
X197350937Y-105198226D01*
X197206774Y-105054063D01*
X197037256Y-104940795D01*
X196848898Y-104862774D01*
X196648939Y-104823000D01*
X196445061Y-104823000D01*
X196245102Y-104862774D01*
X196056744Y-104940795D01*
X195887226Y-105054063D01*
X195743063Y-105198226D01*
X195629795Y-105367744D01*
X195551774Y-105556102D01*
X195540465Y-105612956D01*
X190430422Y-110723000D01*
X165365387Y-110723000D01*
X165456774Y-110661937D01*
X165600937Y-110517774D01*
X165714205Y-110348256D01*
X165792226Y-110159898D01*
X165832000Y-109959939D01*
X165832000Y-109756061D01*
X165792226Y-109556102D01*
X165714205Y-109367744D01*
X165600937Y-109198226D01*
X165456774Y-109054063D01*
X165287256Y-108940795D01*
X165098898Y-108862774D01*
X164898939Y-108823000D01*
X164695061Y-108823000D01*
X164495102Y-108862774D01*
X164306744Y-108940795D01*
X164258546Y-108973000D01*
X117590465Y-108973000D01*
X117546999Y-108968719D01*
X117503533Y-108973000D01*
X117503523Y-108973000D01*
X117373510Y-108985805D01*
X117206687Y-109036411D01*
X117052941Y-109118589D01*
X117052939Y-109118590D01*
X117052940Y-109118590D01*
X116951953Y-109201468D01*
X116951951Y-109201470D01*
X116918183Y-109229183D01*
X116890470Y-109262951D01*
X116201956Y-109951466D01*
X116168183Y-109979183D01*
X116057589Y-110113942D01*
X115975411Y-110267688D01*
X115924805Y-110434511D01*
X115912000Y-110564524D01*
X115912000Y-110564531D01*
X115907719Y-110608000D01*
X115912000Y-110651469D01*
X115912001Y-116069544D01*
X115879795Y-116117744D01*
X115801774Y-116306102D01*
X115762000Y-116506061D01*
X115762000Y-116709939D01*
X115801774Y-116909898D01*
X115879795Y-117098256D01*
X115993063Y-117267774D01*
X116137226Y-117411937D01*
X116306744Y-117525205D01*
X116495102Y-117603226D01*
X116695061Y-117643000D01*
X116898939Y-117643000D01*
X117098898Y-117603226D01*
X117287256Y-117525205D01*
X117335454Y-117493000D01*
X119430422Y-117493000D01*
X120162000Y-118224579D01*
X120162001Y-120390378D01*
X120047000Y-120505379D01*
X119882077Y-120340456D01*
X119667518Y-120197093D01*
X119429113Y-120098342D01*
X119176024Y-120048000D01*
X118917976Y-120048000D01*
X118664887Y-120098342D01*
X118426482Y-120197093D01*
X118244487Y-120318697D01*
X118173185Y-120231815D01*
X118076494Y-120152463D01*
X117966180Y-120093498D01*
X117846482Y-120057188D01*
X117722000Y-120044928D01*
X116372000Y-120044928D01*
X116247518Y-120057188D01*
X116127820Y-120093498D01*
X116017506Y-120152463D01*
X115920815Y-120231815D01*
X115841463Y-120328506D01*
X115782498Y-120438820D01*
X115746188Y-120558518D01*
X115733928Y-120683000D01*
X111485000Y-120683000D01*
X111485000Y-106651941D01*
X111513525Y-106694632D01*
X111720368Y-106901475D01*
X111963589Y-107063990D01*
X112233842Y-107175932D01*
X112520740Y-107233000D01*
X112813260Y-107233000D01*
X113100158Y-107175932D01*
X113370411Y-107063990D01*
X113613632Y-106901475D01*
X113820475Y-106694632D01*
X113937000Y-106520240D01*
X114053525Y-106694632D01*
X114260368Y-106901475D01*
X114503589Y-107063990D01*
X114773842Y-107175932D01*
X115060740Y-107233000D01*
X115353260Y-107233000D01*
X115640158Y-107175932D01*
X115910411Y-107063990D01*
X116153632Y-106901475D01*
X116285487Y-106769620D01*
X116307498Y-106842180D01*
X116366463Y-106952494D01*
X116445815Y-107049185D01*
X116542506Y-107128537D01*
X116652820Y-107187502D01*
X116772518Y-107223812D01*
X116897000Y-107236072D01*
X118597000Y-107236072D01*
X118721482Y-107223812D01*
X118841180Y-107187502D01*
X118951494Y-107128537D01*
X119048185Y-107049185D01*
X119127537Y-106952494D01*
X119186502Y-106842180D01*
X119208513Y-106769620D01*
X119340368Y-106901475D01*
X119583589Y-107063990D01*
X119853842Y-107175932D01*
X120140740Y-107233000D01*
X120433260Y-107233000D01*
X120720158Y-107175932D01*
X120990411Y-107063990D01*
X121233632Y-106901475D01*
X121440475Y-106694632D01*
X121557000Y-106520240D01*
X121673525Y-106694632D01*
X121880368Y-106901475D01*
X122123589Y-107063990D01*
X122393842Y-107175932D01*
X122680740Y-107233000D01*
X122973260Y-107233000D01*
X123260158Y-107175932D01*
X123530411Y-107063990D01*
X123773632Y-106901475D01*
X123980475Y-106694632D01*
X124097000Y-106520240D01*
X124213525Y-106694632D01*
X124420368Y-106901475D01*
X124663589Y-107063990D01*
X124933842Y-107175932D01*
X125220740Y-107233000D01*
X125513260Y-107233000D01*
X125800158Y-107175932D01*
X126070411Y-107063990D01*
X126313632Y-106901475D01*
X126520475Y-106694632D01*
X126637000Y-106520240D01*
X126753525Y-106694632D01*
X126960368Y-106901475D01*
X127203589Y-107063990D01*
X127473842Y-107175932D01*
X127760740Y-107233000D01*
X128053260Y-107233000D01*
X128340158Y-107175932D01*
X128610411Y-107063990D01*
X128853632Y-106901475D01*
X128985487Y-106769620D01*
X129007498Y-106842180D01*
X129066463Y-106952494D01*
X129145815Y-107049185D01*
X129242506Y-107128537D01*
X129352820Y-107187502D01*
X129472518Y-107223812D01*
X129597000Y-107236072D01*
X131297000Y-107236072D01*
X131421482Y-107223812D01*
X131541180Y-107187502D01*
X131651494Y-107128537D01*
X131748185Y-107049185D01*
X131827537Y-106952494D01*
X131886502Y-106842180D01*
X131908513Y-106769620D01*
X132040368Y-106901475D01*
X132283589Y-107063990D01*
X132553842Y-107175932D01*
X132840740Y-107233000D01*
X133133260Y-107233000D01*
X133420158Y-107175932D01*
X133690411Y-107063990D01*
X133933632Y-106901475D01*
X134140475Y-106694632D01*
X134257000Y-106520240D01*
X134373525Y-106694632D01*
X134580368Y-106901475D01*
X134823589Y-107063990D01*
X135093842Y-107175932D01*
X135380740Y-107233000D01*
X135673260Y-107233000D01*
X135960158Y-107175932D01*
X136230411Y-107063990D01*
X136473632Y-106901475D01*
X136680475Y-106694632D01*
X136797000Y-106520240D01*
X136913525Y-106694632D01*
X137120368Y-106901475D01*
X137363589Y-107063990D01*
X137633842Y-107175932D01*
X137920740Y-107233000D01*
X138213260Y-107233000D01*
X138500158Y-107175932D01*
X138770411Y-107063990D01*
X139013632Y-106901475D01*
X139220475Y-106694632D01*
X139337000Y-106520240D01*
X139453525Y-106694632D01*
X139660368Y-106901475D01*
X139903589Y-107063990D01*
X140173842Y-107175932D01*
X140460740Y-107233000D01*
X140753260Y-107233000D01*
X141040158Y-107175932D01*
X141310411Y-107063990D01*
X141553632Y-106901475D01*
X141685487Y-106769620D01*
X141707498Y-106842180D01*
X141766463Y-106952494D01*
X141845815Y-107049185D01*
X141942506Y-107128537D01*
X142052820Y-107187502D01*
X142172518Y-107223812D01*
X142297000Y-107236072D01*
X143997000Y-107236072D01*
X144121482Y-107223812D01*
X144241180Y-107187502D01*
X144351494Y-107128537D01*
X144448185Y-107049185D01*
X144527537Y-106952494D01*
X144586502Y-106842180D01*
X144608513Y-106769620D01*
X144740368Y-106901475D01*
X144983589Y-107063990D01*
X145253842Y-107175932D01*
X145540740Y-107233000D01*
X145833260Y-107233000D01*
X146120158Y-107175932D01*
X146390411Y-107063990D01*
X146633632Y-106901475D01*
X146840475Y-106694632D01*
X146957000Y-106520240D01*
X147073525Y-106694632D01*
X147280368Y-106901475D01*
X147523589Y-107063990D01*
X147793842Y-107175932D01*
X148080740Y-107233000D01*
X148373260Y-107233000D01*
X148660158Y-107175932D01*
X148930411Y-107063990D01*
X149173632Y-106901475D01*
X149380475Y-106694632D01*
X149497000Y-106520240D01*
X149613525Y-106694632D01*
X149820368Y-106901475D01*
X150063589Y-107063990D01*
X150333842Y-107175932D01*
X150620740Y-107233000D01*
X150913260Y-107233000D01*
X151200158Y-107175932D01*
X151470411Y-107063990D01*
X151713632Y-106901475D01*
X151920475Y-106694632D01*
X152037000Y-106520240D01*
X152153525Y-106694632D01*
X152360368Y-106901475D01*
X152603589Y-107063990D01*
X152873842Y-107175932D01*
X153160740Y-107233000D01*
X153453260Y-107233000D01*
X153740158Y-107175932D01*
X154010411Y-107063990D01*
X154253632Y-106901475D01*
X154385487Y-106769620D01*
X154407498Y-106842180D01*
X154466463Y-106952494D01*
X154545815Y-107049185D01*
X154642506Y-107128537D01*
X154752820Y-107187502D01*
X154872518Y-107223812D01*
X154997000Y-107236072D01*
X156697000Y-107236072D01*
X156821482Y-107223812D01*
X156941180Y-107187502D01*
X157051494Y-107128537D01*
X157148185Y-107049185D01*
X157227537Y-106952494D01*
X157286502Y-106842180D01*
X157308513Y-106769620D01*
X157440368Y-106901475D01*
X157683589Y-107063990D01*
X157953842Y-107175932D01*
X158240740Y-107233000D01*
X158533260Y-107233000D01*
X158820158Y-107175932D01*
X159090411Y-107063990D01*
X159333632Y-106901475D01*
X159540475Y-106694632D01*
X159657000Y-106520240D01*
X159773525Y-106694632D01*
X159980368Y-106901475D01*
X160223589Y-107063990D01*
X160493842Y-107175932D01*
X160780740Y-107233000D01*
X161073260Y-107233000D01*
X161360158Y-107175932D01*
X161630411Y-107063990D01*
X161873632Y-106901475D01*
X162080475Y-106694632D01*
X162242990Y-106451411D01*
X162354932Y-106181158D01*
X162412000Y-105894260D01*
X162412000Y-105601740D01*
X162354932Y-105314842D01*
X162242990Y-105044589D01*
X162080475Y-104801368D01*
X161873632Y-104594525D01*
X161630411Y-104432010D01*
X161360158Y-104320068D01*
X161073260Y-104263000D01*
X160780740Y-104263000D01*
X160493842Y-104320068D01*
X160223589Y-104432010D01*
X159980368Y-104594525D01*
X159773525Y-104801368D01*
X159657000Y-104975760D01*
X159540475Y-104801368D01*
X159333632Y-104594525D01*
X159090411Y-104432010D01*
X158820158Y-104320068D01*
X158533260Y-104263000D01*
X158240740Y-104263000D01*
X157953842Y-104320068D01*
X157683589Y-104432010D01*
X157440368Y-104594525D01*
X157308513Y-104726380D01*
X157286502Y-104653820D01*
X157227537Y-104543506D01*
X157148185Y-104446815D01*
X157051494Y-104367463D01*
X156941180Y-104308498D01*
X156821482Y-104272188D01*
X156697000Y-104259928D01*
X154997000Y-104259928D01*
X154872518Y-104272188D01*
X154752820Y-104308498D01*
X154642506Y-104367463D01*
X154545815Y-104446815D01*
X154466463Y-104543506D01*
X154407498Y-104653820D01*
X154385487Y-104726380D01*
X154253632Y-104594525D01*
X154010411Y-104432010D01*
X153740158Y-104320068D01*
X153453260Y-104263000D01*
X153160740Y-104263000D01*
X152873842Y-104320068D01*
X152603589Y-104432010D01*
X152360368Y-104594525D01*
X152153525Y-104801368D01*
X152037000Y-104975760D01*
X151920475Y-104801368D01*
X151713632Y-104594525D01*
X151470411Y-104432010D01*
X151200158Y-104320068D01*
X150913260Y-104263000D01*
X150620740Y-104263000D01*
X150333842Y-104320068D01*
X150063589Y-104432010D01*
X149820368Y-104594525D01*
X149613525Y-104801368D01*
X149497000Y-104975760D01*
X149380475Y-104801368D01*
X149173632Y-104594525D01*
X148930411Y-104432010D01*
X148660158Y-104320068D01*
X148373260Y-104263000D01*
X148080740Y-104263000D01*
X147793842Y-104320068D01*
X147523589Y-104432010D01*
X147280368Y-104594525D01*
X147073525Y-104801368D01*
X146957000Y-104975760D01*
X146840475Y-104801368D01*
X146633632Y-104594525D01*
X146390411Y-104432010D01*
X146120158Y-104320068D01*
X145833260Y-104263000D01*
X145540740Y-104263000D01*
X145253842Y-104320068D01*
X144983589Y-104432010D01*
X144740368Y-104594525D01*
X144608513Y-104726380D01*
X144586502Y-104653820D01*
X144527537Y-104543506D01*
X144448185Y-104446815D01*
X144351494Y-104367463D01*
X144241180Y-104308498D01*
X144121482Y-104272188D01*
X143997000Y-104259928D01*
X142297000Y-104259928D01*
X142172518Y-104272188D01*
X142052820Y-104308498D01*
X141942506Y-104367463D01*
X141845815Y-104446815D01*
X141766463Y-104543506D01*
X141707498Y-104653820D01*
X141685487Y-104726380D01*
X141553632Y-104594525D01*
X141310411Y-104432010D01*
X141040158Y-104320068D01*
X140753260Y-104263000D01*
X140460740Y-104263000D01*
X140173842Y-104320068D01*
X139903589Y-104432010D01*
X139660368Y-104594525D01*
X139453525Y-104801368D01*
X139337000Y-104975760D01*
X139220475Y-104801368D01*
X139013632Y-104594525D01*
X138770411Y-104432010D01*
X138500158Y-104320068D01*
X138213260Y-104263000D01*
X137920740Y-104263000D01*
X137633842Y-104320068D01*
X137363589Y-104432010D01*
X137120368Y-104594525D01*
X136913525Y-104801368D01*
X136797000Y-104975760D01*
X136680475Y-104801368D01*
X136473632Y-104594525D01*
X136230411Y-104432010D01*
X135960158Y-104320068D01*
X135673260Y-104263000D01*
X135380740Y-104263000D01*
X135093842Y-104320068D01*
X134823589Y-104432010D01*
X134580368Y-104594525D01*
X134373525Y-104801368D01*
X134257000Y-104975760D01*
X134140475Y-104801368D01*
X133933632Y-104594525D01*
X133690411Y-104432010D01*
X133420158Y-104320068D01*
X133133260Y-104263000D01*
X132840740Y-104263000D01*
X132553842Y-104320068D01*
X132283589Y-104432010D01*
X132040368Y-104594525D01*
X131908513Y-104726380D01*
X131886502Y-104653820D01*
X131827537Y-104543506D01*
X131748185Y-104446815D01*
X131651494Y-104367463D01*
X131541180Y-104308498D01*
X131421482Y-104272188D01*
X131297000Y-104259928D01*
X129597000Y-104259928D01*
X129472518Y-104272188D01*
X129352820Y-104308498D01*
X129242506Y-104367463D01*
X129145815Y-104446815D01*
X129066463Y-104543506D01*
X129007498Y-104653820D01*
X128985487Y-104726380D01*
X128853632Y-104594525D01*
X128610411Y-104432010D01*
X128340158Y-104320068D01*
X128053260Y-104263000D01*
X127760740Y-104263000D01*
X127473842Y-104320068D01*
X127203589Y-104432010D01*
X126960368Y-104594525D01*
X126753525Y-104801368D01*
X126637000Y-104975760D01*
X126520475Y-104801368D01*
X126313632Y-104594525D01*
X126070411Y-104432010D01*
X125800158Y-104320068D01*
X125513260Y-104263000D01*
X125220740Y-104263000D01*
X124933842Y-104320068D01*
X124663589Y-104432010D01*
X124420368Y-104594525D01*
X124213525Y-104801368D01*
X124097000Y-104975760D01*
X123980475Y-104801368D01*
X123773632Y-104594525D01*
X123530411Y-104432010D01*
X123260158Y-104320068D01*
X122973260Y-104263000D01*
X122680740Y-104263000D01*
X122393842Y-104320068D01*
X122123589Y-104432010D01*
X121880368Y-104594525D01*
X121673525Y-104801368D01*
X121557000Y-104975760D01*
X121440475Y-104801368D01*
X121233632Y-104594525D01*
X120990411Y-104432010D01*
X120720158Y-104320068D01*
X120433260Y-104263000D01*
X120140740Y-104263000D01*
X119853842Y-104320068D01*
X119583589Y-104432010D01*
X119340368Y-104594525D01*
X119208513Y-104726380D01*
X119186502Y-104653820D01*
X119127537Y-104543506D01*
X119048185Y-104446815D01*
X118951494Y-104367463D01*
X118841180Y-104308498D01*
X118721482Y-104272188D01*
X118597000Y-104259928D01*
X116897000Y-104259928D01*
X116772518Y-104272188D01*
X116652820Y-104308498D01*
X116542506Y-104367463D01*
X116445815Y-104446815D01*
X116366463Y-104543506D01*
X116307498Y-104653820D01*
X116285487Y-104726380D01*
X116153632Y-104594525D01*
X115910411Y-104432010D01*
X115640158Y-104320068D01*
X115353260Y-104263000D01*
X115060740Y-104263000D01*
X114773842Y-104320068D01*
X114503589Y-104432010D01*
X114260368Y-104594525D01*
X114053525Y-104801368D01*
X113937000Y-104975760D01*
X113820475Y-104801368D01*
X113613632Y-104594525D01*
X113370411Y-104432010D01*
X113100158Y-104320068D01*
X112813260Y-104263000D01*
X112520740Y-104263000D01*
X112233842Y-104320068D01*
X111963589Y-104432010D01*
X111720368Y-104594525D01*
X111513525Y-104801368D01*
X111485000Y-104844059D01*
X111485000Y-100382379D01*
X111604688Y-100561505D01*
X111818495Y-100775312D01*
X112069905Y-100943299D01*
X112349257Y-101059011D01*
X112645816Y-101118000D01*
X112948184Y-101118000D01*
X113244743Y-101059011D01*
X113524095Y-100943299D01*
X113775505Y-100775312D01*
X113989312Y-100561505D01*
X114157299Y-100310095D01*
X114273011Y-100030743D01*
X114332000Y-99734184D01*
X114332000Y-99431816D01*
X114275266Y-99146589D01*
X114442000Y-99146589D01*
X114442000Y-99419411D01*
X114495225Y-99686989D01*
X114599629Y-99939043D01*
X114751201Y-100165886D01*
X114944114Y-100358799D01*
X115170957Y-100510371D01*
X115423011Y-100614775D01*
X115690589Y-100668000D01*
X115963411Y-100668000D01*
X116230989Y-100614775D01*
X116483043Y-100510371D01*
X116709886Y-100358799D01*
X116902799Y-100165886D01*
X117054371Y-99939043D01*
X117158775Y-99686989D01*
X117212000Y-99419411D01*
X117212000Y-99146589D01*
X117158775Y-98879011D01*
X117054371Y-98626957D01*
X116902799Y-98400114D01*
X116709886Y-98207201D01*
X116483043Y-98055629D01*
X116230989Y-97951225D01*
X115963411Y-97898000D01*
X115690589Y-97898000D01*
X115423011Y-97951225D01*
X115170957Y-98055629D01*
X114944114Y-98207201D01*
X114751201Y-98400114D01*
X114599629Y-98626957D01*
X114495225Y-98879011D01*
X114442000Y-99146589D01*
X114275266Y-99146589D01*
X114273011Y-99135257D01*
X114157299Y-98855905D01*
X113989312Y-98604495D01*
X113775505Y-98390688D01*
X113524095Y-98222701D01*
X113244743Y-98106989D01*
X112948184Y-98048000D01*
X112645816Y-98048000D01*
X112349257Y-98106989D01*
X112069905Y-98222701D01*
X111818495Y-98390688D01*
X111604688Y-98604495D01*
X111485000Y-98783621D01*
X111485000Y-96008000D01*
X159208928Y-96008000D01*
X159208928Y-97708000D01*
X159221188Y-97832482D01*
X159257498Y-97952180D01*
X159316463Y-98062494D01*
X159395815Y-98159185D01*
X159492506Y-98238537D01*
X159602820Y-98297502D01*
X159675380Y-98319513D01*
X159543525Y-98451368D01*
X159381010Y-98694589D01*
X159269068Y-98964842D01*
X159212000Y-99251740D01*
X159212000Y-99544260D01*
X159269068Y-99831158D01*
X159381010Y-100101411D01*
X159543525Y-100344632D01*
X159750368Y-100551475D01*
X159993589Y-100713990D01*
X160263842Y-100825932D01*
X160550740Y-100883000D01*
X160843260Y-100883000D01*
X161130158Y-100825932D01*
X161400411Y-100713990D01*
X161643632Y-100551475D01*
X161850475Y-100344632D01*
X162012990Y-100101411D01*
X162124932Y-99831158D01*
X162182000Y-99544260D01*
X162182000Y-99251740D01*
X162124932Y-98964842D01*
X162012990Y-98694589D01*
X161850475Y-98451368D01*
X161718620Y-98319513D01*
X161791180Y-98297502D01*
X161901494Y-98238537D01*
X161998185Y-98159185D01*
X162077537Y-98062494D01*
X162136502Y-97952180D01*
X162172812Y-97832482D01*
X162185072Y-97708000D01*
X162185072Y-96008000D01*
X162172812Y-95883518D01*
X162136502Y-95763820D01*
X162077537Y-95653506D01*
X161998185Y-95556815D01*
X161901494Y-95477463D01*
X161791180Y-95418498D01*
X161718620Y-95396487D01*
X161850475Y-95264632D01*
X162012990Y-95021411D01*
X162124932Y-94751158D01*
X162182000Y-94464260D01*
X162182000Y-94171740D01*
X162124932Y-93884842D01*
X162012990Y-93614589D01*
X161850475Y-93371368D01*
X161643632Y-93164525D01*
X161400411Y-93002010D01*
X161130158Y-92890068D01*
X160843260Y-92833000D01*
X160550740Y-92833000D01*
X160263842Y-92890068D01*
X159993589Y-93002010D01*
X159750368Y-93164525D01*
X159543525Y-93371368D01*
X159381010Y-93614589D01*
X159269068Y-93884842D01*
X159212000Y-94171740D01*
X159212000Y-94464260D01*
X159269068Y-94751158D01*
X159381010Y-95021411D01*
X159543525Y-95264632D01*
X159675380Y-95396487D01*
X159602820Y-95418498D01*
X159492506Y-95477463D01*
X159395815Y-95556815D01*
X159316463Y-95653506D01*
X159257498Y-95763820D01*
X159221188Y-95883518D01*
X159208928Y-96008000D01*
X111485000Y-96008000D01*
X111485000Y-94932379D01*
X111604688Y-95111505D01*
X111818495Y-95325312D01*
X112069905Y-95493299D01*
X112349257Y-95609011D01*
X112645816Y-95668000D01*
X112948184Y-95668000D01*
X113244743Y-95609011D01*
X113524095Y-95493299D01*
X113775505Y-95325312D01*
X113989312Y-95111505D01*
X114157299Y-94860095D01*
X114273011Y-94580743D01*
X114329532Y-94296589D01*
X114442000Y-94296589D01*
X114442000Y-94569411D01*
X114495225Y-94836989D01*
X114599629Y-95089043D01*
X114751201Y-95315886D01*
X114944114Y-95508799D01*
X115170957Y-95660371D01*
X115423011Y-95764775D01*
X115690589Y-95818000D01*
X115963411Y-95818000D01*
X116230989Y-95764775D01*
X116483043Y-95660371D01*
X116709886Y-95508799D01*
X116902799Y-95315886D01*
X117054371Y-95089043D01*
X117158775Y-94836989D01*
X117212000Y-94569411D01*
X117212000Y-94296589D01*
X117158775Y-94029011D01*
X117054371Y-93776957D01*
X116902799Y-93550114D01*
X116709886Y-93357201D01*
X116483043Y-93205629D01*
X116230989Y-93101225D01*
X115963411Y-93048000D01*
X115690589Y-93048000D01*
X115423011Y-93101225D01*
X115170957Y-93205629D01*
X114944114Y-93357201D01*
X114751201Y-93550114D01*
X114599629Y-93776957D01*
X114495225Y-94029011D01*
X114442000Y-94296589D01*
X114329532Y-94296589D01*
X114332000Y-94284184D01*
X114332000Y-93981816D01*
X114273011Y-93685257D01*
X114157299Y-93405905D01*
X113989312Y-93154495D01*
X113775505Y-92940688D01*
X113524095Y-92772701D01*
X113244743Y-92656989D01*
X112948184Y-92598000D01*
X112645816Y-92598000D01*
X112349257Y-92656989D01*
X112069905Y-92772701D01*
X111818495Y-92940688D01*
X111604688Y-93154495D01*
X111485000Y-93333621D01*
X111485000Y-88871941D01*
X111513525Y-88914632D01*
X111720368Y-89121475D01*
X111963589Y-89283990D01*
X112233842Y-89395932D01*
X112520740Y-89453000D01*
X112813260Y-89453000D01*
X113100158Y-89395932D01*
X113370411Y-89283990D01*
X113613632Y-89121475D01*
X113820475Y-88914632D01*
X113937000Y-88740240D01*
X114053525Y-88914632D01*
X114260368Y-89121475D01*
X114503589Y-89283990D01*
X114773842Y-89395932D01*
X115060740Y-89453000D01*
X115353260Y-89453000D01*
X115640158Y-89395932D01*
X115910411Y-89283990D01*
X116153632Y-89121475D01*
X116285487Y-88989620D01*
X116307498Y-89062180D01*
X116366463Y-89172494D01*
X116445815Y-89269185D01*
X116542506Y-89348537D01*
X116652820Y-89407502D01*
X116772518Y-89443812D01*
X116897000Y-89456072D01*
X117461250Y-89453000D01*
X117620000Y-89294250D01*
X117620000Y-88095000D01*
X117600000Y-88095000D01*
X117600000Y-87841000D01*
X117620000Y-87841000D01*
X117620000Y-86641750D01*
X117874000Y-86641750D01*
X117874000Y-87841000D01*
X117894000Y-87841000D01*
X117894000Y-88095000D01*
X117874000Y-88095000D01*
X117874000Y-89294250D01*
X118032750Y-89453000D01*
X118597000Y-89456072D01*
X118721482Y-89443812D01*
X118841180Y-89407502D01*
X118951494Y-89348537D01*
X119048185Y-89269185D01*
X119127537Y-89172494D01*
X119186502Y-89062180D01*
X119208513Y-88989620D01*
X119340368Y-89121475D01*
X119583589Y-89283990D01*
X119853842Y-89395932D01*
X120140740Y-89453000D01*
X120433260Y-89453000D01*
X120720158Y-89395932D01*
X120990411Y-89283990D01*
X121233632Y-89121475D01*
X121440475Y-88914632D01*
X121557000Y-88740240D01*
X121673525Y-88914632D01*
X121880368Y-89121475D01*
X122123589Y-89283990D01*
X122393842Y-89395932D01*
X122680740Y-89453000D01*
X122973260Y-89453000D01*
X123260158Y-89395932D01*
X123530411Y-89283990D01*
X123773632Y-89121475D01*
X123980475Y-88914632D01*
X124097000Y-88740240D01*
X124213525Y-88914632D01*
X124420368Y-89121475D01*
X124663589Y-89283990D01*
X124933842Y-89395932D01*
X125220740Y-89453000D01*
X125513260Y-89453000D01*
X125800158Y-89395932D01*
X126070411Y-89283990D01*
X126313632Y-89121475D01*
X126520475Y-88914632D01*
X126637000Y-88740240D01*
X126753525Y-88914632D01*
X126960368Y-89121475D01*
X127203589Y-89283990D01*
X127473842Y-89395932D01*
X127760740Y-89453000D01*
X128053260Y-89453000D01*
X128340158Y-89395932D01*
X128610411Y-89283990D01*
X128853632Y-89121475D01*
X128985487Y-88989620D01*
X129007498Y-89062180D01*
X129066463Y-89172494D01*
X129145815Y-89269185D01*
X129242506Y-89348537D01*
X129352820Y-89407502D01*
X129472518Y-89443812D01*
X129597000Y-89456072D01*
X131297000Y-89456072D01*
X131421482Y-89443812D01*
X131541180Y-89407502D01*
X131651494Y-89348537D01*
X131748185Y-89269185D01*
X131827537Y-89172494D01*
X131886502Y-89062180D01*
X131908513Y-88989620D01*
X132040368Y-89121475D01*
X132283589Y-89283990D01*
X132553842Y-89395932D01*
X132840740Y-89453000D01*
X133133260Y-89453000D01*
X133420158Y-89395932D01*
X133690411Y-89283990D01*
X133933632Y-89121475D01*
X134140475Y-88914632D01*
X134257000Y-88740240D01*
X134373525Y-88914632D01*
X134580368Y-89121475D01*
X134823589Y-89283990D01*
X135093842Y-89395932D01*
X135380740Y-89453000D01*
X135673260Y-89453000D01*
X135960158Y-89395932D01*
X136230411Y-89283990D01*
X136473632Y-89121475D01*
X136680475Y-88914632D01*
X136797000Y-88740240D01*
X136913525Y-88914632D01*
X137120368Y-89121475D01*
X137363589Y-89283990D01*
X137633842Y-89395932D01*
X137920740Y-89453000D01*
X138213260Y-89453000D01*
X138500158Y-89395932D01*
X138770411Y-89283990D01*
X139013632Y-89121475D01*
X139220475Y-88914632D01*
X139337000Y-88740240D01*
X139453525Y-88914632D01*
X139660368Y-89121475D01*
X139903589Y-89283990D01*
X140173842Y-89395932D01*
X140460740Y-89453000D01*
X140753260Y-89453000D01*
X141040158Y-89395932D01*
X141310411Y-89283990D01*
X141553632Y-89121475D01*
X141685487Y-88989620D01*
X141707498Y-89062180D01*
X141766463Y-89172494D01*
X141845815Y-89269185D01*
X141942506Y-89348537D01*
X142052820Y-89407502D01*
X142172518Y-89443812D01*
X142297000Y-89456072D01*
X143997000Y-89456072D01*
X144121482Y-89443812D01*
X144241180Y-89407502D01*
X144351494Y-89348537D01*
X144448185Y-89269185D01*
X144527537Y-89172494D01*
X144586502Y-89062180D01*
X144608513Y-88989620D01*
X144740368Y-89121475D01*
X144983589Y-89283990D01*
X145253842Y-89395932D01*
X145540740Y-89453000D01*
X145833260Y-89453000D01*
X146120158Y-89395932D01*
X146390411Y-89283990D01*
X146633632Y-89121475D01*
X146840475Y-88914632D01*
X146957000Y-88740240D01*
X147073525Y-88914632D01*
X147280368Y-89121475D01*
X147523589Y-89283990D01*
X147793842Y-89395932D01*
X148080740Y-89453000D01*
X148373260Y-89453000D01*
X148660158Y-89395932D01*
X148930411Y-89283990D01*
X149173632Y-89121475D01*
X149380475Y-88914632D01*
X149497000Y-88740240D01*
X149613525Y-88914632D01*
X149820368Y-89121475D01*
X150063589Y-89283990D01*
X150333842Y-89395932D01*
X150620740Y-89453000D01*
X150913260Y-89453000D01*
X151200158Y-89395932D01*
X151470411Y-89283990D01*
X151713632Y-89121475D01*
X151920475Y-88914632D01*
X152037000Y-88740240D01*
X152153525Y-88914632D01*
X152360368Y-89121475D01*
X152603589Y-89283990D01*
X152873842Y-89395932D01*
X153160740Y-89453000D01*
X153453260Y-89453000D01*
X153740158Y-89395932D01*
X154010411Y-89283990D01*
X154253632Y-89121475D01*
X154385487Y-88989620D01*
X154407498Y-89062180D01*
X154466463Y-89172494D01*
X154545815Y-89269185D01*
X154642506Y-89348537D01*
X154752820Y-89407502D01*
X154872518Y-89443812D01*
X154997000Y-89456072D01*
X156697000Y-89456072D01*
X156821482Y-89443812D01*
X156941180Y-89407502D01*
X157051494Y-89348537D01*
X157148185Y-89269185D01*
X157227537Y-89172494D01*
X157286502Y-89062180D01*
X157308513Y-88989620D01*
X157440368Y-89121475D01*
X157683589Y-89283990D01*
X157953842Y-89395932D01*
X158240740Y-89453000D01*
X158533260Y-89453000D01*
X158820158Y-89395932D01*
X159090411Y-89283990D01*
X159333632Y-89121475D01*
X159540475Y-88914632D01*
X159657000Y-88740240D01*
X159773525Y-88914632D01*
X159980368Y-89121475D01*
X160223589Y-89283990D01*
X160493842Y-89395932D01*
X160780740Y-89453000D01*
X161073260Y-89453000D01*
X161360158Y-89395932D01*
X161630411Y-89283990D01*
X161873632Y-89121475D01*
X162080475Y-88914632D01*
X162242990Y-88671411D01*
X162354932Y-88401158D01*
X162412000Y-88114260D01*
X162412000Y-87821740D01*
X162354932Y-87534842D01*
X162242990Y-87264589D01*
X162080475Y-87021368D01*
X161873632Y-86814525D01*
X161630411Y-86652010D01*
X161360158Y-86540068D01*
X161073260Y-86483000D01*
X160780740Y-86483000D01*
X160493842Y-86540068D01*
X160223589Y-86652010D01*
X159980368Y-86814525D01*
X159773525Y-87021368D01*
X159657000Y-87195760D01*
X159540475Y-87021368D01*
X159333632Y-86814525D01*
X159090411Y-86652010D01*
X158820158Y-86540068D01*
X158533260Y-86483000D01*
X158240740Y-86483000D01*
X157953842Y-86540068D01*
X157683589Y-86652010D01*
X157440368Y-86814525D01*
X157308513Y-86946380D01*
X157286502Y-86873820D01*
X157227537Y-86763506D01*
X157148185Y-86666815D01*
X157051494Y-86587463D01*
X156941180Y-86528498D01*
X156821482Y-86492188D01*
X156697000Y-86479928D01*
X154997000Y-86479928D01*
X154872518Y-86492188D01*
X154752820Y-86528498D01*
X154642506Y-86587463D01*
X154545815Y-86666815D01*
X154466463Y-86763506D01*
X154407498Y-86873820D01*
X154385487Y-86946380D01*
X154253632Y-86814525D01*
X154010411Y-86652010D01*
X153740158Y-86540068D01*
X153453260Y-86483000D01*
X153160740Y-86483000D01*
X152873842Y-86540068D01*
X152603589Y-86652010D01*
X152360368Y-86814525D01*
X152153525Y-87021368D01*
X152037000Y-87195760D01*
X151920475Y-87021368D01*
X151713632Y-86814525D01*
X151470411Y-86652010D01*
X151200158Y-86540068D01*
X150913260Y-86483000D01*
X150620740Y-86483000D01*
X150333842Y-86540068D01*
X150063589Y-86652010D01*
X149820368Y-86814525D01*
X149613525Y-87021368D01*
X149497000Y-87195760D01*
X149380475Y-87021368D01*
X149173632Y-86814525D01*
X148930411Y-86652010D01*
X148660158Y-86540068D01*
X148373260Y-86483000D01*
X148080740Y-86483000D01*
X147793842Y-86540068D01*
X147523589Y-86652010D01*
X147280368Y-86814525D01*
X147073525Y-87021368D01*
X146957000Y-87195760D01*
X146840475Y-87021368D01*
X146633632Y-86814525D01*
X146390411Y-86652010D01*
X146120158Y-86540068D01*
X145833260Y-86483000D01*
X145540740Y-86483000D01*
X145253842Y-86540068D01*
X144983589Y-86652010D01*
X144740368Y-86814525D01*
X144608513Y-86946380D01*
X144586502Y-86873820D01*
X144527537Y-86763506D01*
X144448185Y-86666815D01*
X144351494Y-86587463D01*
X144241180Y-86528498D01*
X144121482Y-86492188D01*
X143997000Y-86479928D01*
X142297000Y-86479928D01*
X142172518Y-86492188D01*
X142052820Y-86528498D01*
X141942506Y-86587463D01*
X141845815Y-86666815D01*
X141766463Y-86763506D01*
X141707498Y-86873820D01*
X141685487Y-86946380D01*
X141553632Y-86814525D01*
X141310411Y-86652010D01*
X141040158Y-86540068D01*
X140753260Y-86483000D01*
X140460740Y-86483000D01*
X140173842Y-86540068D01*
X139903589Y-86652010D01*
X139660368Y-86814525D01*
X139453525Y-87021368D01*
X139337000Y-87195760D01*
X139220475Y-87021368D01*
X139013632Y-86814525D01*
X138770411Y-86652010D01*
X138500158Y-86540068D01*
X138213260Y-86483000D01*
X137920740Y-86483000D01*
X137633842Y-86540068D01*
X137363589Y-86652010D01*
X137120368Y-86814525D01*
X136913525Y-87021368D01*
X136797000Y-87195760D01*
X136680475Y-87021368D01*
X136473632Y-86814525D01*
X136230411Y-86652010D01*
X135960158Y-86540068D01*
X135673260Y-86483000D01*
X135380740Y-86483000D01*
X135093842Y-86540068D01*
X134823589Y-86652010D01*
X134580368Y-86814525D01*
X134373525Y-87021368D01*
X134257000Y-87195760D01*
X134140475Y-87021368D01*
X133933632Y-86814525D01*
X133690411Y-86652010D01*
X133420158Y-86540068D01*
X133133260Y-86483000D01*
X132840740Y-86483000D01*
X132553842Y-86540068D01*
X132283589Y-86652010D01*
X132040368Y-86814525D01*
X131908513Y-86946380D01*
X131886502Y-86873820D01*
X131827537Y-86763506D01*
X131748185Y-86666815D01*
X131651494Y-86587463D01*
X131541180Y-86528498D01*
X131421482Y-86492188D01*
X131297000Y-86479928D01*
X129597000Y-86479928D01*
X129472518Y-86492188D01*
X129352820Y-86528498D01*
X129242506Y-86587463D01*
X129145815Y-86666815D01*
X129066463Y-86763506D01*
X129007498Y-86873820D01*
X128985487Y-86946380D01*
X128853632Y-86814525D01*
X128610411Y-86652010D01*
X128340158Y-86540068D01*
X128053260Y-86483000D01*
X127760740Y-86483000D01*
X127473842Y-86540068D01*
X127203589Y-86652010D01*
X126960368Y-86814525D01*
X126753525Y-87021368D01*
X126637000Y-87195760D01*
X126520475Y-87021368D01*
X126313632Y-86814525D01*
X126070411Y-86652010D01*
X125800158Y-86540068D01*
X125513260Y-86483000D01*
X125220740Y-86483000D01*
X124933842Y-86540068D01*
X124663589Y-86652010D01*
X124420368Y-86814525D01*
X124213525Y-87021368D01*
X124097000Y-87195760D01*
X123980475Y-87021368D01*
X123773632Y-86814525D01*
X123530411Y-86652010D01*
X123260158Y-86540068D01*
X122973260Y-86483000D01*
X122680740Y-86483000D01*
X122393842Y-86540068D01*
X122123589Y-86652010D01*
X121880368Y-86814525D01*
X121673525Y-87021368D01*
X121557000Y-87195760D01*
X121440475Y-87021368D01*
X121233632Y-86814525D01*
X120990411Y-86652010D01*
X120720158Y-86540068D01*
X120433260Y-86483000D01*
X120140740Y-86483000D01*
X119853842Y-86540068D01*
X119583589Y-86652010D01*
X119340368Y-86814525D01*
X119208513Y-86946380D01*
X119186502Y-86873820D01*
X119127537Y-86763506D01*
X119048185Y-86666815D01*
X118951494Y-86587463D01*
X118841180Y-86528498D01*
X118721482Y-86492188D01*
X118597000Y-86479928D01*
X118032750Y-86483000D01*
X117874000Y-86641750D01*
X117620000Y-86641750D01*
X117461250Y-86483000D01*
X116897000Y-86479928D01*
X116772518Y-86492188D01*
X116652820Y-86528498D01*
X116542506Y-86587463D01*
X116445815Y-86666815D01*
X116366463Y-86763506D01*
X116307498Y-86873820D01*
X116285487Y-86946380D01*
X116153632Y-86814525D01*
X115910411Y-86652010D01*
X115640158Y-86540068D01*
X115353260Y-86483000D01*
X115060740Y-86483000D01*
X114773842Y-86540068D01*
X114503589Y-86652010D01*
X114260368Y-86814525D01*
X114053525Y-87021368D01*
X113937000Y-87195760D01*
X113820475Y-87021368D01*
X113613632Y-86814525D01*
X113370411Y-86652010D01*
X113100158Y-86540068D01*
X112813260Y-86483000D01*
X112520740Y-86483000D01*
X112233842Y-86540068D01*
X111963589Y-86652010D01*
X111720368Y-86814525D01*
X111513525Y-87021368D01*
X111485000Y-87064059D01*
X111485000Y-82756061D01*
X158762000Y-82756061D01*
X158762000Y-82959939D01*
X158801774Y-83159898D01*
X158879795Y-83348256D01*
X158993063Y-83517774D01*
X159137226Y-83661937D01*
X159306744Y-83775205D01*
X159495102Y-83853226D01*
X159695061Y-83893000D01*
X159898939Y-83893000D01*
X160098898Y-83853226D01*
X160287256Y-83775205D01*
X160335454Y-83743000D01*
X196680422Y-83743000D01*
X199662000Y-86724579D01*
X199662001Y-95569544D01*
X199629795Y-95617744D01*
X199551774Y-95806102D01*
X199512000Y-96006061D01*
X199512000Y-96209939D01*
X199551774Y-96409898D01*
X199629795Y-96598256D01*
X199743063Y-96767774D01*
X199887226Y-96911937D01*
X200056744Y-97025205D01*
X200245102Y-97103226D01*
X200445061Y-97143000D01*
X200648939Y-97143000D01*
X200848898Y-97103226D01*
X201037256Y-97025205D01*
X201206774Y-96911937D01*
X201350937Y-96767774D01*
X201464205Y-96598256D01*
X201542226Y-96409898D01*
X201582000Y-96209939D01*
X201582000Y-96006061D01*
X201542226Y-95806102D01*
X201464205Y-95617744D01*
X201432000Y-95569546D01*
X201432000Y-86401465D01*
X201436281Y-86357999D01*
X201432000Y-86314533D01*
X201432000Y-86314523D01*
X201419195Y-86184510D01*
X201368589Y-86017687D01*
X201286411Y-85863941D01*
X201175817Y-85729183D01*
X201142050Y-85701471D01*
X197703534Y-82262956D01*
X197675817Y-82229183D01*
X197541059Y-82118589D01*
X197387313Y-82036411D01*
X197220490Y-81985805D01*
X197090477Y-81973000D01*
X197090469Y-81973000D01*
X197047000Y-81968719D01*
X197003531Y-81973000D01*
X160335454Y-81973000D01*
X160287256Y-81940795D01*
X160098898Y-81862774D01*
X159898939Y-81823000D01*
X159695061Y-81823000D01*
X159495102Y-81862774D01*
X159306744Y-81940795D01*
X159137226Y-82054063D01*
X158993063Y-82198226D01*
X158879795Y-82367744D01*
X158801774Y-82556102D01*
X158762000Y-82756061D01*
X111485000Y-82756061D01*
X111485000Y-80535000D01*
X206115000Y-80535000D01*
X206115001Y-127165000D01*
G37*
%TD.AperFunction*%
D20*
X152151165Y-120213744D02*
X152076494Y-120152463D01*
X151966180Y-120093498D01*
X151846482Y-120057188D01*
X151722000Y-120044928D01*
X151332750Y-120048000D01*
X151174000Y-120206750D01*
X151174000Y-121231000D01*
X151194000Y-121231000D01*
X151194000Y-121485000D01*
X151174000Y-121485000D01*
X151174000Y-122509250D01*
X151332750Y-122668000D01*
X151722000Y-122671072D01*
X151846482Y-122658812D01*
X151966180Y-122622502D01*
X152076494Y-122563537D01*
X152173185Y-122484185D01*
X152244487Y-122397303D01*
X152426482Y-122518907D01*
X152664887Y-122617658D01*
X152917976Y-122668000D01*
X153176024Y-122668000D01*
X153429113Y-122617658D01*
X153667518Y-122518907D01*
X153882077Y-122375544D01*
X154047000Y-122210621D01*
X154162000Y-122325621D01*
X154162001Y-123723000D01*
X139413579Y-123723000D01*
X139053535Y-123362957D01*
X139042226Y-123306102D01*
X138964205Y-123117744D01*
X138850937Y-122948226D01*
X138706774Y-122804063D01*
X138537256Y-122690795D01*
X138382887Y-122626853D01*
X138429113Y-122617658D01*
X138667518Y-122518907D01*
X138882077Y-122375544D01*
X139047000Y-122210621D01*
X139211923Y-122375544D01*
X139426482Y-122518907D01*
X139664887Y-122617658D01*
X139917976Y-122668000D01*
X140176024Y-122668000D01*
X140429113Y-122617658D01*
X140667518Y-122518907D01*
X140882077Y-122375544D01*
X141064544Y-122193077D01*
X141171503Y-122033000D01*
X149733928Y-122033000D01*
X149746188Y-122157482D01*
X149782498Y-122277180D01*
X149841463Y-122387494D01*
X149920815Y-122484185D01*
X150017506Y-122563537D01*
X150127820Y-122622502D01*
X150247518Y-122658812D01*
X150372000Y-122671072D01*
X150761250Y-122668000D01*
X150920000Y-122509250D01*
X150920000Y-121485000D01*
X149895750Y-121485000D01*
X149737000Y-121643750D01*
X149733928Y-122033000D01*
X141171503Y-122033000D01*
X141207907Y-121978518D01*
X141306658Y-121740113D01*
X141357000Y-121487024D01*
X141357000Y-121228976D01*
X141306658Y-120975887D01*
X141207907Y-120737482D01*
X141171504Y-120683000D01*
X149733928Y-120683000D01*
X149737000Y-121072250D01*
X149895750Y-121231000D01*
X150920000Y-121231000D01*
X150920000Y-120206750D01*
X150761250Y-120048000D01*
X150372000Y-120044928D01*
X150247518Y-120057188D01*
X150127820Y-120093498D01*
X150017506Y-120152463D01*
X149920815Y-120231815D01*
X149841463Y-120328506D01*
X149782498Y-120438820D01*
X149746188Y-120558518D01*
X149733928Y-120683000D01*
X141171504Y-120683000D01*
X141064544Y-120522923D01*
X140882077Y-120340456D01*
X140667518Y-120197093D01*
X140429113Y-120098342D01*
X140176024Y-120048000D01*
X139917976Y-120048000D01*
X139664887Y-120098342D01*
X139426482Y-120197093D01*
X139211923Y-120340456D01*
X139047000Y-120505379D01*
X138882077Y-120340456D01*
X138667518Y-120197093D01*
X138429113Y-120098342D01*
X138176024Y-120048000D01*
X137917976Y-120048000D01*
X137664887Y-120098342D01*
X137426482Y-120197093D01*
X137211923Y-120340456D01*
X137047000Y-120505379D01*
X136974100Y-120432479D01*
X137413579Y-119993000D01*
X151930422Y-119993000D01*
X152151165Y-120213744D01*
%TA.AperFunction,Conductor*%
D21*
G36*
X152151165Y-120213744D02*
G01*
X152076494Y-120152463D01*
X151966180Y-120093498D01*
X151846482Y-120057188D01*
X151722000Y-120044928D01*
X151332750Y-120048000D01*
X151174000Y-120206750D01*
X151174000Y-121231000D01*
X151194000Y-121231000D01*
X151194000Y-121485000D01*
X151174000Y-121485000D01*
X151174000Y-122509250D01*
X151332750Y-122668000D01*
X151722000Y-122671072D01*
X151846482Y-122658812D01*
X151966180Y-122622502D01*
X152076494Y-122563537D01*
X152173185Y-122484185D01*
X152244487Y-122397303D01*
X152426482Y-122518907D01*
X152664887Y-122617658D01*
X152917976Y-122668000D01*
X153176024Y-122668000D01*
X153429113Y-122617658D01*
X153667518Y-122518907D01*
X153882077Y-122375544D01*
X154047000Y-122210621D01*
X154162000Y-122325621D01*
X154162001Y-123723000D01*
X139413579Y-123723000D01*
X139053535Y-123362957D01*
X139042226Y-123306102D01*
X138964205Y-123117744D01*
X138850937Y-122948226D01*
X138706774Y-122804063D01*
X138537256Y-122690795D01*
X138382887Y-122626853D01*
X138429113Y-122617658D01*
X138667518Y-122518907D01*
X138882077Y-122375544D01*
X139047000Y-122210621D01*
X139211923Y-122375544D01*
X139426482Y-122518907D01*
X139664887Y-122617658D01*
X139917976Y-122668000D01*
X140176024Y-122668000D01*
X140429113Y-122617658D01*
X140667518Y-122518907D01*
X140882077Y-122375544D01*
X141064544Y-122193077D01*
X141171503Y-122033000D01*
X149733928Y-122033000D01*
X149746188Y-122157482D01*
X149782498Y-122277180D01*
X149841463Y-122387494D01*
X149920815Y-122484185D01*
X150017506Y-122563537D01*
X150127820Y-122622502D01*
X150247518Y-122658812D01*
X150372000Y-122671072D01*
X150761250Y-122668000D01*
X150920000Y-122509250D01*
X150920000Y-121485000D01*
X149895750Y-121485000D01*
X149737000Y-121643750D01*
X149733928Y-122033000D01*
X141171503Y-122033000D01*
X141207907Y-121978518D01*
X141306658Y-121740113D01*
X141357000Y-121487024D01*
X141357000Y-121228976D01*
X141306658Y-120975887D01*
X141207907Y-120737482D01*
X141171504Y-120683000D01*
X149733928Y-120683000D01*
X149737000Y-121072250D01*
X149895750Y-121231000D01*
X150920000Y-121231000D01*
X150920000Y-120206750D01*
X150761250Y-120048000D01*
X150372000Y-120044928D01*
X150247518Y-120057188D01*
X150127820Y-120093498D01*
X150017506Y-120152463D01*
X149920815Y-120231815D01*
X149841463Y-120328506D01*
X149782498Y-120438820D01*
X149746188Y-120558518D01*
X149733928Y-120683000D01*
X141171504Y-120683000D01*
X141064544Y-120522923D01*
X140882077Y-120340456D01*
X140667518Y-120197093D01*
X140429113Y-120098342D01*
X140176024Y-120048000D01*
X139917976Y-120048000D01*
X139664887Y-120098342D01*
X139426482Y-120197093D01*
X139211923Y-120340456D01*
X139047000Y-120505379D01*
X138882077Y-120340456D01*
X138667518Y-120197093D01*
X138429113Y-120098342D01*
X138176024Y-120048000D01*
X137917976Y-120048000D01*
X137664887Y-120098342D01*
X137426482Y-120197093D01*
X137211923Y-120340456D01*
X137047000Y-120505379D01*
X136974100Y-120432479D01*
X137413579Y-119993000D01*
X151930422Y-119993000D01*
X152151165Y-120213744D01*
G37*
%TD.AperFunction*%
%TD*%
M02*
