M48
; DRILL file {KiCad (5.1.10)-1} date 11/12/21 12:38:25
; FORMAT={-:-/ absolute / inch / decimal}
; #@! TF.CreationDate,2021-11-12T12:38:25+01:00
; #@! TF.GenerationSoftware,Kicad,Pcbnew,(5.1.10)-1
; #@! TF.FileFunction,Plated,1,2,PTH
FMAT,2
INCH
T1C0.0157
T2C0.0315
T3C0.0402
%
G90
G05
T1
X4.4408Y-4.6794
X4.4802Y-3.2621
X4.5983Y-4.5909
X4.7952Y-3.7543
X5.4349Y-4.8665
X5.8778Y-4.581
X6.2912Y-3.2621
X6.2912Y-4.4334
X6.37Y-4.522
X6.4192Y-4.4629
X6.429Y-4.394
X6.4389Y-4.581
X6.4881Y-4.3251
X6.616Y-4.6598
X6.6456Y-3.3409
X6.6456Y-4.9157
X6.8621Y-4.7188
X7.5904Y-3.892
X7.7381Y-4.1676
X7.7381Y-4.768
X7.8956Y-3.7838
X7.9448Y-3.3015
X8.0235Y-4.9157
T2
X4.6081Y-4.7779
X4.6869Y-4.7779
X4.7656Y-4.7779
X4.8444Y-4.7779
X5.2774Y-4.7779
X5.3562Y-4.7779
X5.4349Y-4.7779
X5.5137Y-4.7779
X5.9467Y-4.7779
X6.0255Y-4.7779
X6.1042Y-4.7779
X6.183Y-4.7779
T3
X4.4357Y-3.4633
X4.4357Y-4.1633
X4.5357Y-3.4633
X4.5357Y-4.1633
X4.6357Y-3.4633
X4.6357Y-4.1633
X4.7357Y-3.4633
X4.7357Y-4.1633
X4.8357Y-3.4633
X4.8357Y-4.1633
X4.9357Y-3.4633
X4.9357Y-4.1633
X5.0357Y-3.4633
X5.0357Y-4.1633
X5.1357Y-3.4633
X5.1357Y-4.1633
X5.2357Y-3.4633
X5.2357Y-4.1633
X5.3357Y-3.4633
X5.3357Y-4.1633
X5.4357Y-3.4633
X5.4357Y-4.1633
X5.5357Y-3.4633
X5.5357Y-4.1633
X5.6357Y-3.4633
X5.6357Y-4.1633
X5.7357Y-3.4633
X5.7357Y-4.1633
X5.8357Y-3.4633
X5.8357Y-4.1633
X5.9357Y-3.4633
X5.9357Y-4.1633
X6.0357Y-3.4633
X6.0357Y-4.1633
X6.1357Y-3.4633
X6.1357Y-4.1633
X6.2357Y-3.4633
X6.2357Y-4.1633
X6.3267Y-3.7133
X6.3267Y-3.8133
X6.3267Y-3.9133
X6.3357Y-3.4633
X6.3357Y-4.1633
T0
M30
