%TF.GenerationSoftware,KiCad,Pcbnew,(5.1.10)-1*%
%TF.CreationDate,2021-11-12T12:38:22+01:00*%
%TF.ProjectId,HRWizzard,48525769-7a7a-4617-9264-2e6b69636164,rev?*%
%TF.SameCoordinates,Original*%
%TF.FileFunction,Legend,Top*%
%TF.FilePolarity,Positive*%
%FSLAX46Y46*%
G04 Gerber Fmt 4.6, Leading zero omitted, Abs format (unit mm)*
G04 Created by KiCad (PCBNEW (5.1.10)-1) date 2021-11-12 12:38:22*
%MOMM*%
%LPD*%
G01*
G04 APERTURE LIST*
%ADD10C,0.100000*%
%ADD11C,0.150000*%
%ADD12C,0.300000*%
%ADD13C,0.400000*%
%ADD14C,0.200000*%
%ADD15C,0.120000*%
G04 APERTURE END LIST*
D10*
D11*
X177002200Y-166007200D02*
X177002200Y-198007200D01*
X285002200Y-198007200D01*
X285002200Y-166007200D01*
X177002200Y-166007200D01*
D10*
D11*
X10000000Y-10000000D02*
X10000000Y-200007200D01*
X287002200Y-200007200D01*
X287002200Y-10000000D01*
X10000000Y-10000000D01*
D10*
D11*
X12000000Y-12000000D02*
X12000000Y-198007200D01*
X285002200Y-198007200D01*
X285002200Y-12000000D01*
X12000000Y-12000000D01*
D10*
D11*
X60000000Y-12000000D02*
X60000000Y-10000000D01*
D10*
D11*
X110000000Y-12000000D02*
X110000000Y-10000000D01*
D10*
D11*
X160000000Y-12000000D02*
X160000000Y-10000000D01*
D10*
D11*
X210000000Y-12000000D02*
X210000000Y-10000000D01*
D10*
D11*
X260000000Y-12000000D02*
X260000000Y-10000000D01*
D10*
D11*
X36065476Y-11588095D02*
X35322619Y-11588095D01*
X35694047Y-11588095D02*
X35694047Y-10288095D01*
X35570238Y-10473809D01*
X35446428Y-10597619D01*
X35322619Y-10659523D01*
D10*
D11*
X85322619Y-10411904D02*
X85384523Y-10350000D01*
X85508333Y-10288095D01*
X85817857Y-10288095D01*
X85941666Y-10350000D01*
X86003571Y-10411904D01*
X86065476Y-10535714D01*
X86065476Y-10659523D01*
X86003571Y-10845238D01*
X85260714Y-11588095D01*
X86065476Y-11588095D01*
D10*
D11*
X135260714Y-10288095D02*
X136065476Y-10288095D01*
X135632142Y-10783333D01*
X135817857Y-10783333D01*
X135941666Y-10845238D01*
X136003571Y-10907142D01*
X136065476Y-11030952D01*
X136065476Y-11340476D01*
X136003571Y-11464285D01*
X135941666Y-11526190D01*
X135817857Y-11588095D01*
X135446428Y-11588095D01*
X135322619Y-11526190D01*
X135260714Y-11464285D01*
D10*
D11*
X185941666Y-10721428D02*
X185941666Y-11588095D01*
X185632142Y-10226190D02*
X185322619Y-11154761D01*
X186127380Y-11154761D01*
D10*
D11*
X236003571Y-10288095D02*
X235384523Y-10288095D01*
X235322619Y-10907142D01*
X235384523Y-10845238D01*
X235508333Y-10783333D01*
X235817857Y-10783333D01*
X235941666Y-10845238D01*
X236003571Y-10907142D01*
X236065476Y-11030952D01*
X236065476Y-11340476D01*
X236003571Y-11464285D01*
X235941666Y-11526190D01*
X235817857Y-11588095D01*
X235508333Y-11588095D01*
X235384523Y-11526190D01*
X235322619Y-11464285D01*
D10*
D11*
X285941666Y-10288095D02*
X285694047Y-10288095D01*
X285570238Y-10350000D01*
X285508333Y-10411904D01*
X285384523Y-10597619D01*
X285322619Y-10845238D01*
X285322619Y-11340476D01*
X285384523Y-11464285D01*
X285446428Y-11526190D01*
X285570238Y-11588095D01*
X285817857Y-11588095D01*
X285941666Y-11526190D01*
X286003571Y-11464285D01*
X286065476Y-11340476D01*
X286065476Y-11030952D01*
X286003571Y-10907142D01*
X285941666Y-10845238D01*
X285817857Y-10783333D01*
X285570238Y-10783333D01*
X285446428Y-10845238D01*
X285384523Y-10907142D01*
X285322619Y-11030952D01*
D10*
D11*
X60000000Y-198007200D02*
X60000000Y-200007200D01*
D10*
D11*
X110000000Y-198007200D02*
X110000000Y-200007200D01*
D10*
D11*
X160000000Y-198007200D02*
X160000000Y-200007200D01*
D10*
D11*
X210000000Y-198007200D02*
X210000000Y-200007200D01*
D10*
D11*
X260000000Y-198007200D02*
X260000000Y-200007200D01*
D10*
D11*
X36065476Y-199595295D02*
X35322619Y-199595295D01*
X35694047Y-199595295D02*
X35694047Y-198295295D01*
X35570238Y-198481009D01*
X35446428Y-198604819D01*
X35322619Y-198666723D01*
D10*
D11*
X85322619Y-198419104D02*
X85384523Y-198357200D01*
X85508333Y-198295295D01*
X85817857Y-198295295D01*
X85941666Y-198357200D01*
X86003571Y-198419104D01*
X86065476Y-198542914D01*
X86065476Y-198666723D01*
X86003571Y-198852438D01*
X85260714Y-199595295D01*
X86065476Y-199595295D01*
D10*
D11*
X135260714Y-198295295D02*
X136065476Y-198295295D01*
X135632142Y-198790533D01*
X135817857Y-198790533D01*
X135941666Y-198852438D01*
X136003571Y-198914342D01*
X136065476Y-199038152D01*
X136065476Y-199347676D01*
X136003571Y-199471485D01*
X135941666Y-199533390D01*
X135817857Y-199595295D01*
X135446428Y-199595295D01*
X135322619Y-199533390D01*
X135260714Y-199471485D01*
D10*
D11*
X185941666Y-198728628D02*
X185941666Y-199595295D01*
X185632142Y-198233390D02*
X185322619Y-199161961D01*
X186127380Y-199161961D01*
D10*
D11*
X236003571Y-198295295D02*
X235384523Y-198295295D01*
X235322619Y-198914342D01*
X235384523Y-198852438D01*
X235508333Y-198790533D01*
X235817857Y-198790533D01*
X235941666Y-198852438D01*
X236003571Y-198914342D01*
X236065476Y-199038152D01*
X236065476Y-199347676D01*
X236003571Y-199471485D01*
X235941666Y-199533390D01*
X235817857Y-199595295D01*
X235508333Y-199595295D01*
X235384523Y-199533390D01*
X235322619Y-199471485D01*
D10*
D11*
X285941666Y-198295295D02*
X285694047Y-198295295D01*
X285570238Y-198357200D01*
X285508333Y-198419104D01*
X285384523Y-198604819D01*
X285322619Y-198852438D01*
X285322619Y-199347676D01*
X285384523Y-199471485D01*
X285446428Y-199533390D01*
X285570238Y-199595295D01*
X285817857Y-199595295D01*
X285941666Y-199533390D01*
X286003571Y-199471485D01*
X286065476Y-199347676D01*
X286065476Y-199038152D01*
X286003571Y-198914342D01*
X285941666Y-198852438D01*
X285817857Y-198790533D01*
X285570238Y-198790533D01*
X285446428Y-198852438D01*
X285384523Y-198914342D01*
X285322619Y-199038152D01*
D10*
D11*
X10000000Y-60000000D02*
X12000000Y-60000000D01*
D10*
D11*
X10000000Y-110000000D02*
X12000000Y-110000000D01*
D10*
D11*
X10000000Y-160000000D02*
X12000000Y-160000000D01*
D10*
D11*
X10690476Y-35216666D02*
X11309523Y-35216666D01*
X10566666Y-35588095D02*
X11000000Y-34288095D01*
X11433333Y-35588095D01*
D10*
D11*
X11092857Y-84907142D02*
X11278571Y-84969047D01*
X11340476Y-85030952D01*
X11402380Y-85154761D01*
X11402380Y-85340476D01*
X11340476Y-85464285D01*
X11278571Y-85526190D01*
X11154761Y-85588095D01*
X10659523Y-85588095D01*
X10659523Y-84288095D01*
X11092857Y-84288095D01*
X11216666Y-84350000D01*
X11278571Y-84411904D01*
X11340476Y-84535714D01*
X11340476Y-84659523D01*
X11278571Y-84783333D01*
X11216666Y-84845238D01*
X11092857Y-84907142D01*
X10659523Y-84907142D01*
D10*
D11*
X11402380Y-135464285D02*
X11340476Y-135526190D01*
X11154761Y-135588095D01*
X11030952Y-135588095D01*
X10845238Y-135526190D01*
X10721428Y-135402380D01*
X10659523Y-135278571D01*
X10597619Y-135030952D01*
X10597619Y-134845238D01*
X10659523Y-134597619D01*
X10721428Y-134473809D01*
X10845238Y-134350000D01*
X11030952Y-134288095D01*
X11154761Y-134288095D01*
X11340476Y-134350000D01*
X11402380Y-134411904D01*
D10*
D11*
X10659523Y-185588095D02*
X10659523Y-184288095D01*
X10969047Y-184288095D01*
X11154761Y-184350000D01*
X11278571Y-184473809D01*
X11340476Y-184597619D01*
X11402380Y-184845238D01*
X11402380Y-185030952D01*
X11340476Y-185278571D01*
X11278571Y-185402380D01*
X11154761Y-185526190D01*
X10969047Y-185588095D01*
X10659523Y-185588095D01*
D10*
D11*
X287002200Y-60000000D02*
X285002200Y-60000000D01*
D10*
D11*
X287002200Y-110000000D02*
X285002200Y-110000000D01*
D10*
D11*
X287002200Y-160000000D02*
X285002200Y-160000000D01*
D10*
D11*
X285692676Y-35216666D02*
X286311723Y-35216666D01*
X285568866Y-35588095D02*
X286002200Y-34288095D01*
X286435533Y-35588095D01*
D10*
D11*
X286095057Y-84907142D02*
X286280771Y-84969047D01*
X286342676Y-85030952D01*
X286404580Y-85154761D01*
X286404580Y-85340476D01*
X286342676Y-85464285D01*
X286280771Y-85526190D01*
X286156961Y-85588095D01*
X285661723Y-85588095D01*
X285661723Y-84288095D01*
X286095057Y-84288095D01*
X286218866Y-84350000D01*
X286280771Y-84411904D01*
X286342676Y-84535714D01*
X286342676Y-84659523D01*
X286280771Y-84783333D01*
X286218866Y-84845238D01*
X286095057Y-84907142D01*
X285661723Y-84907142D01*
D10*
D11*
X286404580Y-135464285D02*
X286342676Y-135526190D01*
X286156961Y-135588095D01*
X286033152Y-135588095D01*
X285847438Y-135526190D01*
X285723628Y-135402380D01*
X285661723Y-135278571D01*
X285599819Y-135030952D01*
X285599819Y-134845238D01*
X285661723Y-134597619D01*
X285723628Y-134473809D01*
X285847438Y-134350000D01*
X286033152Y-134288095D01*
X286156961Y-134288095D01*
X286342676Y-134350000D01*
X286404580Y-134411904D01*
D10*
D11*
X285661723Y-185588095D02*
X285661723Y-184288095D01*
X285971247Y-184288095D01*
X286156961Y-184350000D01*
X286280771Y-184473809D01*
X286342676Y-184597619D01*
X286404580Y-184845238D01*
X286404580Y-185030952D01*
X286342676Y-185278571D01*
X286280771Y-185402380D01*
X286156961Y-185526190D01*
X285971247Y-185588095D01*
X285661723Y-185588095D01*
D10*
D11*
X200434342Y-193785771D02*
X200434342Y-192285771D01*
X200791485Y-192285771D01*
X201005771Y-192357200D01*
X201148628Y-192500057D01*
X201220057Y-192642914D01*
X201291485Y-192928628D01*
X201291485Y-193142914D01*
X201220057Y-193428628D01*
X201148628Y-193571485D01*
X201005771Y-193714342D01*
X200791485Y-193785771D01*
X200434342Y-193785771D01*
X202577200Y-193785771D02*
X202577200Y-193000057D01*
X202505771Y-192857200D01*
X202362914Y-192785771D01*
X202077200Y-192785771D01*
X201934342Y-192857200D01*
X202577200Y-193714342D02*
X202434342Y-193785771D01*
X202077200Y-193785771D01*
X201934342Y-193714342D01*
X201862914Y-193571485D01*
X201862914Y-193428628D01*
X201934342Y-193285771D01*
X202077200Y-193214342D01*
X202434342Y-193214342D01*
X202577200Y-193142914D01*
X203077200Y-192785771D02*
X203648628Y-192785771D01*
X203291485Y-192285771D02*
X203291485Y-193571485D01*
X203362914Y-193714342D01*
X203505771Y-193785771D01*
X203648628Y-193785771D01*
X204720057Y-193714342D02*
X204577200Y-193785771D01*
X204291485Y-193785771D01*
X204148628Y-193714342D01*
X204077200Y-193571485D01*
X204077200Y-193000057D01*
X204148628Y-192857200D01*
X204291485Y-192785771D01*
X204577200Y-192785771D01*
X204720057Y-192857200D01*
X204791485Y-193000057D01*
X204791485Y-193142914D01*
X204077200Y-193285771D01*
X205434342Y-193642914D02*
X205505771Y-193714342D01*
X205434342Y-193785771D01*
X205362914Y-193714342D01*
X205434342Y-193642914D01*
X205434342Y-193785771D01*
X205434342Y-192857200D02*
X205505771Y-192928628D01*
X205434342Y-193000057D01*
X205362914Y-192928628D01*
X205434342Y-192857200D01*
X205434342Y-193000057D01*
D10*
D11*
X177002200Y-194507200D02*
X285002200Y-194507200D01*
D10*
D11*
X178434342Y-196585771D02*
X178434342Y-195085771D01*
X179291485Y-196585771D02*
X178648628Y-195728628D01*
X179291485Y-195085771D02*
X178434342Y-195942914D01*
X179934342Y-196585771D02*
X179934342Y-195585771D01*
X179934342Y-195085771D02*
X179862914Y-195157200D01*
X179934342Y-195228628D01*
X180005771Y-195157200D01*
X179934342Y-195085771D01*
X179934342Y-195228628D01*
X181505771Y-196442914D02*
X181434342Y-196514342D01*
X181220057Y-196585771D01*
X181077200Y-196585771D01*
X180862914Y-196514342D01*
X180720057Y-196371485D01*
X180648628Y-196228628D01*
X180577200Y-195942914D01*
X180577200Y-195728628D01*
X180648628Y-195442914D01*
X180720057Y-195300057D01*
X180862914Y-195157200D01*
X181077200Y-195085771D01*
X181220057Y-195085771D01*
X181434342Y-195157200D01*
X181505771Y-195228628D01*
X182791485Y-196585771D02*
X182791485Y-195800057D01*
X182720057Y-195657200D01*
X182577200Y-195585771D01*
X182291485Y-195585771D01*
X182148628Y-195657200D01*
X182791485Y-196514342D02*
X182648628Y-196585771D01*
X182291485Y-196585771D01*
X182148628Y-196514342D01*
X182077200Y-196371485D01*
X182077200Y-196228628D01*
X182148628Y-196085771D01*
X182291485Y-196014342D01*
X182648628Y-196014342D01*
X182791485Y-195942914D01*
X184148628Y-196585771D02*
X184148628Y-195085771D01*
X184148628Y-196514342D02*
X184005771Y-196585771D01*
X183720057Y-196585771D01*
X183577200Y-196514342D01*
X183505771Y-196442914D01*
X183434342Y-196300057D01*
X183434342Y-195871485D01*
X183505771Y-195728628D01*
X183577200Y-195657200D01*
X183720057Y-195585771D01*
X184005771Y-195585771D01*
X184148628Y-195657200D01*
X186005771Y-195800057D02*
X186505771Y-195800057D01*
X186720057Y-196585771D02*
X186005771Y-196585771D01*
X186005771Y-195085771D01*
X186720057Y-195085771D01*
X187362914Y-196442914D02*
X187434342Y-196514342D01*
X187362914Y-196585771D01*
X187291485Y-196514342D01*
X187362914Y-196442914D01*
X187362914Y-196585771D01*
X188077200Y-196585771D02*
X188077200Y-195085771D01*
X188434342Y-195085771D01*
X188648628Y-195157200D01*
X188791485Y-195300057D01*
X188862914Y-195442914D01*
X188934342Y-195728628D01*
X188934342Y-195942914D01*
X188862914Y-196228628D01*
X188791485Y-196371485D01*
X188648628Y-196514342D01*
X188434342Y-196585771D01*
X188077200Y-196585771D01*
X189577200Y-196442914D02*
X189648628Y-196514342D01*
X189577200Y-196585771D01*
X189505771Y-196514342D01*
X189577200Y-196442914D01*
X189577200Y-196585771D01*
X190220057Y-196157200D02*
X190934342Y-196157200D01*
X190077200Y-196585771D02*
X190577200Y-195085771D01*
X191077200Y-196585771D01*
X191577200Y-196442914D02*
X191648628Y-196514342D01*
X191577200Y-196585771D01*
X191505771Y-196514342D01*
X191577200Y-196442914D01*
X191577200Y-196585771D01*
X194577200Y-196585771D02*
X194577200Y-195085771D01*
X194720057Y-196014342D02*
X195148628Y-196585771D01*
X195148628Y-195585771D02*
X194577200Y-196157200D01*
X195791485Y-196585771D02*
X195791485Y-195585771D01*
X195791485Y-195085771D02*
X195720057Y-195157200D01*
X195791485Y-195228628D01*
X195862914Y-195157200D01*
X195791485Y-195085771D01*
X195791485Y-195228628D01*
X197148628Y-196514342D02*
X197005771Y-196585771D01*
X196720057Y-196585771D01*
X196577200Y-196514342D01*
X196505771Y-196442914D01*
X196434342Y-196300057D01*
X196434342Y-195871485D01*
X196505771Y-195728628D01*
X196577200Y-195657200D01*
X196720057Y-195585771D01*
X197005771Y-195585771D01*
X197148628Y-195657200D01*
X198434342Y-196585771D02*
X198434342Y-195800057D01*
X198362914Y-195657200D01*
X198220057Y-195585771D01*
X197934342Y-195585771D01*
X197791485Y-195657200D01*
X198434342Y-196514342D02*
X198291485Y-196585771D01*
X197934342Y-196585771D01*
X197791485Y-196514342D01*
X197720057Y-196371485D01*
X197720057Y-196228628D01*
X197791485Y-196085771D01*
X197934342Y-196014342D01*
X198291485Y-196014342D01*
X198434342Y-195942914D01*
X199791485Y-196585771D02*
X199791485Y-195085771D01*
X199791485Y-196514342D02*
X199648628Y-196585771D01*
X199362914Y-196585771D01*
X199220057Y-196514342D01*
X199148628Y-196442914D01*
X199077200Y-196300057D01*
X199077200Y-195871485D01*
X199148628Y-195728628D01*
X199220057Y-195657200D01*
X199362914Y-195585771D01*
X199648628Y-195585771D01*
X199791485Y-195657200D01*
X202077200Y-197157200D02*
X202005771Y-197085771D01*
X201862914Y-196871485D01*
X201791485Y-196728628D01*
X201720057Y-196514342D01*
X201648628Y-196157200D01*
X201648628Y-195871485D01*
X201720057Y-195514342D01*
X201791485Y-195300057D01*
X201862914Y-195157200D01*
X202005771Y-194942914D01*
X202077200Y-194871485D01*
X203362914Y-195085771D02*
X202648628Y-195085771D01*
X202577200Y-195800057D01*
X202648628Y-195728628D01*
X202791485Y-195657200D01*
X203148628Y-195657200D01*
X203291485Y-195728628D01*
X203362914Y-195800057D01*
X203434342Y-195942914D01*
X203434342Y-196300057D01*
X203362914Y-196442914D01*
X203291485Y-196514342D01*
X203148628Y-196585771D01*
X202791485Y-196585771D01*
X202648628Y-196514342D01*
X202577200Y-196442914D01*
X204077200Y-196442914D02*
X204148628Y-196514342D01*
X204077200Y-196585771D01*
X204005771Y-196514342D01*
X204077200Y-196442914D01*
X204077200Y-196585771D01*
X205577200Y-196585771D02*
X204720057Y-196585771D01*
X205148628Y-196585771D02*
X205148628Y-195085771D01*
X205005771Y-195300057D01*
X204862914Y-195442914D01*
X204720057Y-195514342D01*
X206220057Y-196442914D02*
X206291485Y-196514342D01*
X206220057Y-196585771D01*
X206148628Y-196514342D01*
X206220057Y-196442914D01*
X206220057Y-196585771D01*
X207720057Y-196585771D02*
X206862914Y-196585771D01*
X207291485Y-196585771D02*
X207291485Y-195085771D01*
X207148628Y-195300057D01*
X207005771Y-195442914D01*
X206862914Y-195514342D01*
X208648628Y-195085771D02*
X208791485Y-195085771D01*
X208934342Y-195157200D01*
X209005771Y-195228628D01*
X209077200Y-195371485D01*
X209148628Y-195657200D01*
X209148628Y-196014342D01*
X209077200Y-196300057D01*
X209005771Y-196442914D01*
X208934342Y-196514342D01*
X208791485Y-196585771D01*
X208648628Y-196585771D01*
X208505771Y-196514342D01*
X208434342Y-196442914D01*
X208362914Y-196300057D01*
X208291485Y-196014342D01*
X208291485Y-195657200D01*
X208362914Y-195371485D01*
X208434342Y-195228628D01*
X208505771Y-195157200D01*
X208648628Y-195085771D01*
X209648628Y-197157200D02*
X209720057Y-197085771D01*
X209862914Y-196871485D01*
X209934342Y-196728628D01*
X210005771Y-196514342D01*
X210077200Y-196157200D01*
X210077200Y-195871485D01*
X210005771Y-195514342D01*
X209934342Y-195300057D01*
X209862914Y-195157200D01*
X209720057Y-194942914D01*
X209648628Y-194871485D01*
X210791485Y-196014342D02*
X211934342Y-196014342D01*
X213434342Y-196585771D02*
X212577200Y-196585771D01*
X213005771Y-196585771D02*
X213005771Y-195085771D01*
X212862914Y-195300057D01*
X212720057Y-195442914D01*
X212577200Y-195514342D01*
D10*
D11*
X177002200Y-191507200D02*
X285002200Y-191507200D01*
D10*
D12*
X264411485Y-193785771D02*
X263911485Y-193071485D01*
X263554342Y-193785771D02*
X263554342Y-192285771D01*
X264125771Y-192285771D01*
X264268628Y-192357200D01*
X264340057Y-192428628D01*
X264411485Y-192571485D01*
X264411485Y-192785771D01*
X264340057Y-192928628D01*
X264268628Y-193000057D01*
X264125771Y-193071485D01*
X263554342Y-193071485D01*
X265625771Y-193714342D02*
X265482914Y-193785771D01*
X265197200Y-193785771D01*
X265054342Y-193714342D01*
X264982914Y-193571485D01*
X264982914Y-193000057D01*
X265054342Y-192857200D01*
X265197200Y-192785771D01*
X265482914Y-192785771D01*
X265625771Y-192857200D01*
X265697200Y-193000057D01*
X265697200Y-193142914D01*
X264982914Y-193285771D01*
X266197200Y-192785771D02*
X266554342Y-193785771D01*
X266911485Y-192785771D01*
X267482914Y-193642914D02*
X267554342Y-193714342D01*
X267482914Y-193785771D01*
X267411485Y-193714342D01*
X267482914Y-193642914D01*
X267482914Y-193785771D01*
X267482914Y-192857200D02*
X267554342Y-192928628D01*
X267482914Y-193000057D01*
X267411485Y-192928628D01*
X267482914Y-192857200D01*
X267482914Y-193000057D01*
D10*
D11*
X178362914Y-193714342D02*
X178577200Y-193785771D01*
X178934342Y-193785771D01*
X179077200Y-193714342D01*
X179148628Y-193642914D01*
X179220057Y-193500057D01*
X179220057Y-193357200D01*
X179148628Y-193214342D01*
X179077200Y-193142914D01*
X178934342Y-193071485D01*
X178648628Y-193000057D01*
X178505771Y-192928628D01*
X178434342Y-192857200D01*
X178362914Y-192714342D01*
X178362914Y-192571485D01*
X178434342Y-192428628D01*
X178505771Y-192357200D01*
X178648628Y-192285771D01*
X179005771Y-192285771D01*
X179220057Y-192357200D01*
X179862914Y-193785771D02*
X179862914Y-192785771D01*
X179862914Y-192285771D02*
X179791485Y-192357200D01*
X179862914Y-192428628D01*
X179934342Y-192357200D01*
X179862914Y-192285771D01*
X179862914Y-192428628D01*
X180434342Y-192785771D02*
X181220057Y-192785771D01*
X180434342Y-193785771D01*
X181220057Y-193785771D01*
X182362914Y-193714342D02*
X182220057Y-193785771D01*
X181934342Y-193785771D01*
X181791485Y-193714342D01*
X181720057Y-193571485D01*
X181720057Y-193000057D01*
X181791485Y-192857200D01*
X181934342Y-192785771D01*
X182220057Y-192785771D01*
X182362914Y-192857200D01*
X182434342Y-193000057D01*
X182434342Y-193142914D01*
X181720057Y-193285771D01*
X183077200Y-193642914D02*
X183148628Y-193714342D01*
X183077200Y-193785771D01*
X183005771Y-193714342D01*
X183077200Y-193642914D01*
X183077200Y-193785771D01*
X183077200Y-192857200D02*
X183148628Y-192928628D01*
X183077200Y-193000057D01*
X183005771Y-192928628D01*
X183077200Y-192857200D01*
X183077200Y-193000057D01*
X184862914Y-193357200D02*
X185577200Y-193357200D01*
X184720057Y-193785771D02*
X185220057Y-192285771D01*
X185720057Y-193785771D01*
X186862914Y-192785771D02*
X186862914Y-193785771D01*
X186505771Y-192214342D02*
X186148628Y-193285771D01*
X187077200Y-193285771D01*
D10*
D11*
X263434342Y-196585771D02*
X263434342Y-195085771D01*
X264791485Y-196585771D02*
X264791485Y-195085771D01*
X264791485Y-196514342D02*
X264648628Y-196585771D01*
X264362914Y-196585771D01*
X264220057Y-196514342D01*
X264148628Y-196442914D01*
X264077200Y-196300057D01*
X264077200Y-195871485D01*
X264148628Y-195728628D01*
X264220057Y-195657200D01*
X264362914Y-195585771D01*
X264648628Y-195585771D01*
X264791485Y-195657200D01*
X265505771Y-196442914D02*
X265577200Y-196514342D01*
X265505771Y-196585771D01*
X265434342Y-196514342D01*
X265505771Y-196442914D01*
X265505771Y-196585771D01*
X265505771Y-195657200D02*
X265577200Y-195728628D01*
X265505771Y-195800057D01*
X265434342Y-195728628D01*
X265505771Y-195657200D01*
X265505771Y-195800057D01*
X268148628Y-196585771D02*
X267291485Y-196585771D01*
X267720057Y-196585771D02*
X267720057Y-195085771D01*
X267577200Y-195300057D01*
X267434342Y-195442914D01*
X267291485Y-195514342D01*
X269862914Y-195014342D02*
X268577200Y-196942914D01*
X271148628Y-196585771D02*
X270291485Y-196585771D01*
X270720057Y-196585771D02*
X270720057Y-195085771D01*
X270577200Y-195300057D01*
X270434342Y-195442914D01*
X270291485Y-195514342D01*
D10*
D11*
X177002200Y-187507200D02*
X285002200Y-187507200D01*
D10*
D13*
X178714580Y-188211961D02*
X179857438Y-188211961D01*
X179036009Y-190211961D02*
X179286009Y-188211961D01*
X180274104Y-190211961D02*
X180440771Y-188878628D01*
X180524104Y-188211961D02*
X180416961Y-188307200D01*
X180500295Y-188402438D01*
X180607438Y-188307200D01*
X180524104Y-188211961D01*
X180500295Y-188402438D01*
X181107438Y-188878628D02*
X181869342Y-188878628D01*
X181476485Y-188211961D02*
X181262200Y-189926247D01*
X181333628Y-190116723D01*
X181512200Y-190211961D01*
X181702676Y-190211961D01*
X182655057Y-190211961D02*
X182476485Y-190116723D01*
X182405057Y-189926247D01*
X182619342Y-188211961D01*
X184190771Y-190116723D02*
X183988390Y-190211961D01*
X183607438Y-190211961D01*
X183428866Y-190116723D01*
X183357438Y-189926247D01*
X183452676Y-189164342D01*
X183571723Y-188973866D01*
X183774104Y-188878628D01*
X184155057Y-188878628D01*
X184333628Y-188973866D01*
X184405057Y-189164342D01*
X184381247Y-189354819D01*
X183405057Y-189545295D01*
X185155057Y-190021485D02*
X185238390Y-190116723D01*
X185131247Y-190211961D01*
X185047914Y-190116723D01*
X185155057Y-190021485D01*
X185131247Y-190211961D01*
X185286009Y-188973866D02*
X185369342Y-189069104D01*
X185262200Y-189164342D01*
X185178866Y-189069104D01*
X185286009Y-188973866D01*
X185262200Y-189164342D01*
D10*
D11*
X178934342Y-185600057D02*
X178434342Y-185600057D01*
X178434342Y-186385771D02*
X178434342Y-184885771D01*
X179148628Y-184885771D01*
X179720057Y-186385771D02*
X179720057Y-185385771D01*
X179720057Y-184885771D02*
X179648628Y-184957200D01*
X179720057Y-185028628D01*
X179791485Y-184957200D01*
X179720057Y-184885771D01*
X179720057Y-185028628D01*
X180648628Y-186385771D02*
X180505771Y-186314342D01*
X180434342Y-186171485D01*
X180434342Y-184885771D01*
X181791485Y-186314342D02*
X181648628Y-186385771D01*
X181362914Y-186385771D01*
X181220057Y-186314342D01*
X181148628Y-186171485D01*
X181148628Y-185600057D01*
X181220057Y-185457200D01*
X181362914Y-185385771D01*
X181648628Y-185385771D01*
X181791485Y-185457200D01*
X181862914Y-185600057D01*
X181862914Y-185742914D01*
X181148628Y-185885771D01*
X182505771Y-186242914D02*
X182577200Y-186314342D01*
X182505771Y-186385771D01*
X182434342Y-186314342D01*
X182505771Y-186242914D01*
X182505771Y-186385771D01*
X182505771Y-185457200D02*
X182577200Y-185528628D01*
X182505771Y-185600057D01*
X182434342Y-185528628D01*
X182505771Y-185457200D01*
X182505771Y-185600057D01*
X184362914Y-186385771D02*
X184362914Y-184885771D01*
X184362914Y-185600057D02*
X185220057Y-185600057D01*
X185220057Y-186385771D02*
X185220057Y-184885771D01*
X186791485Y-186385771D02*
X186291485Y-185671485D01*
X185934342Y-186385771D02*
X185934342Y-184885771D01*
X186505771Y-184885771D01*
X186648628Y-184957200D01*
X186720057Y-185028628D01*
X186791485Y-185171485D01*
X186791485Y-185385771D01*
X186720057Y-185528628D01*
X186648628Y-185600057D01*
X186505771Y-185671485D01*
X185934342Y-185671485D01*
X187291485Y-184885771D02*
X187648628Y-186385771D01*
X187934342Y-185314342D01*
X188220057Y-186385771D01*
X188577200Y-184885771D01*
X189148628Y-186385771D02*
X189148628Y-185385771D01*
X189148628Y-184885771D02*
X189077200Y-184957200D01*
X189148628Y-185028628D01*
X189220057Y-184957200D01*
X189148628Y-184885771D01*
X189148628Y-185028628D01*
X189720057Y-185385771D02*
X190505771Y-185385771D01*
X189720057Y-186385771D01*
X190505771Y-186385771D01*
X190934342Y-185385771D02*
X191720057Y-185385771D01*
X190934342Y-186385771D01*
X191720057Y-186385771D01*
X192934342Y-186385771D02*
X192934342Y-185600057D01*
X192862914Y-185457200D01*
X192720057Y-185385771D01*
X192434342Y-185385771D01*
X192291485Y-185457200D01*
X192934342Y-186314342D02*
X192791485Y-186385771D01*
X192434342Y-186385771D01*
X192291485Y-186314342D01*
X192220057Y-186171485D01*
X192220057Y-186028628D01*
X192291485Y-185885771D01*
X192434342Y-185814342D01*
X192791485Y-185814342D01*
X192934342Y-185742914D01*
X193648628Y-186385771D02*
X193648628Y-185385771D01*
X193648628Y-185671485D02*
X193720057Y-185528628D01*
X193791485Y-185457200D01*
X193934342Y-185385771D01*
X194077200Y-185385771D01*
X195220057Y-186385771D02*
X195220057Y-184885771D01*
X195220057Y-186314342D02*
X195077200Y-186385771D01*
X194791485Y-186385771D01*
X194648628Y-186314342D01*
X194577200Y-186242914D01*
X194505771Y-186100057D01*
X194505771Y-185671485D01*
X194577200Y-185528628D01*
X194648628Y-185457200D01*
X194791485Y-185385771D01*
X195077200Y-185385771D01*
X195220057Y-185457200D01*
X195934342Y-186242914D02*
X196005771Y-186314342D01*
X195934342Y-186385771D01*
X195862914Y-186314342D01*
X195934342Y-186242914D01*
X195934342Y-186385771D01*
X196648628Y-186385771D02*
X196648628Y-184885771D01*
X196791485Y-185814342D02*
X197220057Y-186385771D01*
X197220057Y-185385771D02*
X196648628Y-185957200D01*
X197862914Y-186385771D02*
X197862914Y-185385771D01*
X197862914Y-184885771D02*
X197791485Y-184957200D01*
X197862914Y-185028628D01*
X197934342Y-184957200D01*
X197862914Y-184885771D01*
X197862914Y-185028628D01*
X199220057Y-186314342D02*
X199077200Y-186385771D01*
X198791485Y-186385771D01*
X198648628Y-186314342D01*
X198577200Y-186242914D01*
X198505771Y-186100057D01*
X198505771Y-185671485D01*
X198577200Y-185528628D01*
X198648628Y-185457200D01*
X198791485Y-185385771D01*
X199077200Y-185385771D01*
X199220057Y-185457200D01*
X200505771Y-186385771D02*
X200505771Y-185600057D01*
X200434342Y-185457200D01*
X200291485Y-185385771D01*
X200005771Y-185385771D01*
X199862914Y-185457200D01*
X200505771Y-186314342D02*
X200362914Y-186385771D01*
X200005771Y-186385771D01*
X199862914Y-186314342D01*
X199791485Y-186171485D01*
X199791485Y-186028628D01*
X199862914Y-185885771D01*
X200005771Y-185814342D01*
X200362914Y-185814342D01*
X200505771Y-185742914D01*
X201862914Y-186385771D02*
X201862914Y-184885771D01*
X201862914Y-186314342D02*
X201720057Y-186385771D01*
X201434342Y-186385771D01*
X201291485Y-186314342D01*
X201220057Y-186242914D01*
X201148628Y-186100057D01*
X201148628Y-185671485D01*
X201220057Y-185528628D01*
X201291485Y-185457200D01*
X201434342Y-185385771D01*
X201720057Y-185385771D01*
X201862914Y-185457200D01*
X202220057Y-186528628D02*
X203362914Y-186528628D01*
X203720057Y-185385771D02*
X203720057Y-186885771D01*
X203720057Y-185457200D02*
X203862914Y-185385771D01*
X204148628Y-185385771D01*
X204291485Y-185457200D01*
X204362914Y-185528628D01*
X204434342Y-185671485D01*
X204434342Y-186100057D01*
X204362914Y-186242914D01*
X204291485Y-186314342D01*
X204148628Y-186385771D01*
X203862914Y-186385771D01*
X203720057Y-186314342D01*
X205720057Y-186314342D02*
X205577200Y-186385771D01*
X205291485Y-186385771D01*
X205148628Y-186314342D01*
X205077200Y-186242914D01*
X205005771Y-186100057D01*
X205005771Y-185671485D01*
X205077200Y-185528628D01*
X205148628Y-185457200D01*
X205291485Y-185385771D01*
X205577200Y-185385771D01*
X205720057Y-185457200D01*
X206362914Y-186385771D02*
X206362914Y-184885771D01*
X206362914Y-185457200D02*
X206505771Y-185385771D01*
X206791485Y-185385771D01*
X206934342Y-185457200D01*
X207005771Y-185528628D01*
X207077200Y-185671485D01*
X207077200Y-186100057D01*
X207005771Y-186242914D01*
X206934342Y-186314342D01*
X206791485Y-186385771D01*
X206505771Y-186385771D01*
X206362914Y-186314342D01*
D10*
D11*
X177002200Y-181507200D02*
X285002200Y-181507200D01*
D10*
D11*
X178362914Y-183614342D02*
X178577200Y-183685771D01*
X178934342Y-183685771D01*
X179077200Y-183614342D01*
X179148628Y-183542914D01*
X179220057Y-183400057D01*
X179220057Y-183257200D01*
X179148628Y-183114342D01*
X179077200Y-183042914D01*
X178934342Y-182971485D01*
X178648628Y-182900057D01*
X178505771Y-182828628D01*
X178434342Y-182757200D01*
X178362914Y-182614342D01*
X178362914Y-182471485D01*
X178434342Y-182328628D01*
X178505771Y-182257200D01*
X178648628Y-182185771D01*
X179005771Y-182185771D01*
X179220057Y-182257200D01*
X179862914Y-183685771D02*
X179862914Y-182185771D01*
X180505771Y-183685771D02*
X180505771Y-182900057D01*
X180434342Y-182757200D01*
X180291485Y-182685771D01*
X180077200Y-182685771D01*
X179934342Y-182757200D01*
X179862914Y-182828628D01*
X181791485Y-183614342D02*
X181648628Y-183685771D01*
X181362914Y-183685771D01*
X181220057Y-183614342D01*
X181148628Y-183471485D01*
X181148628Y-182900057D01*
X181220057Y-182757200D01*
X181362914Y-182685771D01*
X181648628Y-182685771D01*
X181791485Y-182757200D01*
X181862914Y-182900057D01*
X181862914Y-183042914D01*
X181148628Y-183185771D01*
X183077200Y-183614342D02*
X182934342Y-183685771D01*
X182648628Y-183685771D01*
X182505771Y-183614342D01*
X182434342Y-183471485D01*
X182434342Y-182900057D01*
X182505771Y-182757200D01*
X182648628Y-182685771D01*
X182934342Y-182685771D01*
X183077200Y-182757200D01*
X183148628Y-182900057D01*
X183148628Y-183042914D01*
X182434342Y-183185771D01*
X183577200Y-182685771D02*
X184148628Y-182685771D01*
X183791485Y-182185771D02*
X183791485Y-183471485D01*
X183862914Y-183614342D01*
X184005771Y-183685771D01*
X184148628Y-183685771D01*
X184648628Y-183542914D02*
X184720057Y-183614342D01*
X184648628Y-183685771D01*
X184577200Y-183614342D01*
X184648628Y-183542914D01*
X184648628Y-183685771D01*
X184648628Y-182757200D02*
X184720057Y-182828628D01*
X184648628Y-182900057D01*
X184577200Y-182828628D01*
X184648628Y-182757200D01*
X184648628Y-182900057D01*
D10*
D11*
X197002200Y-191507200D02*
X197002200Y-194507200D01*
D10*
D11*
X261002200Y-191507200D02*
X261002200Y-198007200D01*
D14*
X113385095Y-116767523D02*
X112085095Y-116767523D01*
X112085095Y-116272285D01*
X112147000Y-116148476D01*
X112208904Y-116086571D01*
X112332714Y-116024666D01*
X112518428Y-116024666D01*
X112642238Y-116086571D01*
X112704142Y-116148476D01*
X112766047Y-116272285D01*
X112766047Y-116767523D01*
X112085095Y-115591333D02*
X113385095Y-115281809D01*
X112456523Y-115034190D01*
X113385095Y-114786571D01*
X112085095Y-114477047D01*
X113385095Y-113238952D02*
X112766047Y-113672285D01*
X113385095Y-113981809D02*
X112085095Y-113981809D01*
X112085095Y-113486571D01*
X112147000Y-113362761D01*
X112208904Y-113300857D01*
X112332714Y-113238952D01*
X112518428Y-113238952D01*
X112642238Y-113300857D01*
X112704142Y-113362761D01*
X112766047Y-113486571D01*
X112766047Y-113981809D01*
X113385095Y-112496095D02*
X113323190Y-112619904D01*
X113261285Y-112681809D01*
X113137476Y-112743714D01*
X112766047Y-112743714D01*
X112642238Y-112681809D01*
X112580333Y-112619904D01*
X112518428Y-112496095D01*
X112518428Y-112310380D01*
X112580333Y-112186571D01*
X112642238Y-112124666D01*
X112766047Y-112062761D01*
X113137476Y-112062761D01*
X113261285Y-112124666D01*
X113323190Y-112186571D01*
X113385095Y-112310380D01*
X113385095Y-112496095D01*
X112518428Y-111505619D02*
X113385095Y-111505619D01*
X112642238Y-111505619D02*
X112580333Y-111443714D01*
X112518428Y-111319904D01*
X112518428Y-111134190D01*
X112580333Y-111010380D01*
X112704142Y-110948476D01*
X113385095Y-110948476D01*
X148975571Y-122822285D02*
X147475571Y-122822285D01*
X147618428Y-122179428D02*
X147547000Y-122108000D01*
X147475571Y-121965142D01*
X147475571Y-121608000D01*
X147547000Y-121465142D01*
X147618428Y-121393714D01*
X147761285Y-121322285D01*
X147904142Y-121322285D01*
X148118428Y-121393714D01*
X148975571Y-122250857D01*
X148975571Y-121322285D01*
X148832714Y-119822285D02*
X148904142Y-119893714D01*
X148975571Y-120108000D01*
X148975571Y-120250857D01*
X148904142Y-120465142D01*
X148761285Y-120608000D01*
X148618428Y-120679428D01*
X148332714Y-120750857D01*
X148118428Y-120750857D01*
X147832714Y-120679428D01*
X147689857Y-120608000D01*
X147547000Y-120465142D01*
X147475571Y-120250857D01*
X147475571Y-120108000D01*
X147547000Y-119893714D01*
X147618428Y-119822285D01*
X131975571Y-122822285D02*
X130475571Y-122822285D01*
X130618428Y-122179428D02*
X130547000Y-122108000D01*
X130475571Y-121965142D01*
X130475571Y-121608000D01*
X130547000Y-121465142D01*
X130618428Y-121393714D01*
X130761285Y-121322285D01*
X130904142Y-121322285D01*
X131118428Y-121393714D01*
X131975571Y-122250857D01*
X131975571Y-121322285D01*
X131832714Y-119822285D02*
X131904142Y-119893714D01*
X131975571Y-120108000D01*
X131975571Y-120250857D01*
X131904142Y-120465142D01*
X131761285Y-120608000D01*
X131618428Y-120679428D01*
X131332714Y-120750857D01*
X131118428Y-120750857D01*
X130832714Y-120679428D01*
X130689857Y-120608000D01*
X130547000Y-120465142D01*
X130475571Y-120250857D01*
X130475571Y-120108000D01*
X130547000Y-119893714D01*
X130618428Y-119822285D01*
X114975571Y-122072285D02*
X114975571Y-122786571D01*
X113475571Y-122786571D01*
X114189857Y-121572285D02*
X114189857Y-121072285D01*
X114975571Y-120858000D02*
X114975571Y-121572285D01*
X113475571Y-121572285D01*
X113475571Y-120858000D01*
X114975571Y-120215142D02*
X113475571Y-120215142D01*
X113475571Y-119858000D01*
X113547000Y-119643714D01*
X113689857Y-119500857D01*
X113832714Y-119429428D01*
X114118428Y-119358000D01*
X114332714Y-119358000D01*
X114618428Y-119429428D01*
X114761285Y-119500857D01*
X114904142Y-119643714D01*
X114975571Y-119858000D01*
X114975571Y-120215142D01*
X188475571Y-99929428D02*
X188904142Y-98786571D01*
X189332714Y-99929428D01*
X189118428Y-125786571D02*
X188689857Y-126929428D01*
X188261285Y-125786571D01*
X174368428Y-113179428D02*
X173225571Y-112750857D01*
X174368428Y-112322285D01*
X203225571Y-112536571D02*
X204368428Y-112965142D01*
X203225571Y-113393714D01*
X200689857Y-93750857D02*
X200761285Y-93536571D01*
X200832714Y-93465142D01*
X200975571Y-93393714D01*
X201189857Y-93393714D01*
X201332714Y-93465142D01*
X201404142Y-93536571D01*
X201475571Y-93679428D01*
X201475571Y-94250857D01*
X199975571Y-94250857D01*
X199975571Y-93750857D01*
X200047000Y-93608000D01*
X200118428Y-93536571D01*
X200261285Y-93465142D01*
X200404142Y-93465142D01*
X200547000Y-93536571D01*
X200618428Y-93608000D01*
X200689857Y-93750857D01*
X200689857Y-94250857D01*
X193047000Y-85215142D02*
X193047000Y-84500857D01*
X193475571Y-85358000D02*
X191975571Y-84858000D01*
X193475571Y-84358000D01*
X174475571Y-99036571D02*
X173761285Y-99536571D01*
X174475571Y-99893714D02*
X172975571Y-99893714D01*
X172975571Y-99322285D01*
X173047000Y-99179428D01*
X173118428Y-99108000D01*
X173261285Y-99036571D01*
X173475571Y-99036571D01*
X173618428Y-99108000D01*
X173689857Y-99179428D01*
X173761285Y-99322285D01*
X173761285Y-99893714D01*
X173689857Y-98393714D02*
X173689857Y-97893714D01*
X174475571Y-97679428D02*
X174475571Y-98393714D01*
X172975571Y-98393714D01*
X172975571Y-97679428D01*
X174404142Y-97108000D02*
X174475571Y-96893714D01*
X174475571Y-96536571D01*
X174404142Y-96393714D01*
X174332714Y-96322285D01*
X174189857Y-96250857D01*
X174047000Y-96250857D01*
X173904142Y-96322285D01*
X173832714Y-96393714D01*
X173761285Y-96536571D01*
X173689857Y-96822285D01*
X173618428Y-96965142D01*
X173547000Y-97036571D01*
X173404142Y-97108000D01*
X173261285Y-97108000D01*
X173118428Y-97036571D01*
X173047000Y-96965142D01*
X172975571Y-96822285D01*
X172975571Y-96465142D01*
X173047000Y-96250857D01*
X173689857Y-95608000D02*
X173689857Y-95108000D01*
X174475571Y-94893714D02*
X174475571Y-95608000D01*
X172975571Y-95608000D01*
X172975571Y-94893714D01*
X172975571Y-94465142D02*
X172975571Y-93608000D01*
X174475571Y-94036571D02*
X172975571Y-94036571D01*
X112511285Y-126786571D02*
X112511285Y-125286571D01*
X112511285Y-126000857D02*
X113368428Y-126000857D01*
X113368428Y-126786571D02*
X113368428Y-125286571D01*
X114939857Y-126786571D02*
X114439857Y-126072285D01*
X114082714Y-126786571D02*
X114082714Y-125286571D01*
X114654142Y-125286571D01*
X114797000Y-125358000D01*
X114868428Y-125429428D01*
X114939857Y-125572285D01*
X114939857Y-125786571D01*
X114868428Y-125929428D01*
X114797000Y-126000857D01*
X114654142Y-126072285D01*
X114082714Y-126072285D01*
X115439857Y-125286571D02*
X115797000Y-126786571D01*
X116082714Y-125715142D01*
X116368428Y-126786571D01*
X116725571Y-125286571D01*
X117297000Y-126786571D02*
X117297000Y-125786571D01*
X117297000Y-125286571D02*
X117225571Y-125358000D01*
X117297000Y-125429428D01*
X117368428Y-125358000D01*
X117297000Y-125286571D01*
X117297000Y-125429428D01*
X117868428Y-125786571D02*
X118654142Y-125786571D01*
X117868428Y-126786571D01*
X118654142Y-126786571D01*
X119082714Y-125786571D02*
X119868428Y-125786571D01*
X119082714Y-126786571D01*
X119868428Y-126786571D01*
X121082714Y-126786571D02*
X121082714Y-126000857D01*
X121011285Y-125858000D01*
X120868428Y-125786571D01*
X120582714Y-125786571D01*
X120439857Y-125858000D01*
X121082714Y-126715142D02*
X120939857Y-126786571D01*
X120582714Y-126786571D01*
X120439857Y-126715142D01*
X120368428Y-126572285D01*
X120368428Y-126429428D01*
X120439857Y-126286571D01*
X120582714Y-126215142D01*
X120939857Y-126215142D01*
X121082714Y-126143714D01*
X121797000Y-126786571D02*
X121797000Y-125786571D01*
X121797000Y-126072285D02*
X121868428Y-125929428D01*
X121939857Y-125858000D01*
X122082714Y-125786571D01*
X122225571Y-125786571D01*
X123368428Y-126786571D02*
X123368428Y-125286571D01*
X123368428Y-126715142D02*
X123225571Y-126786571D01*
X122939857Y-126786571D01*
X122797000Y-126715142D01*
X122725571Y-126643714D01*
X122654142Y-126500857D01*
X122654142Y-126072285D01*
X122725571Y-125929428D01*
X122797000Y-125858000D01*
X122939857Y-125786571D01*
X123225571Y-125786571D01*
X123368428Y-125858000D01*
X125225571Y-126786571D02*
X125225571Y-125286571D01*
X125225571Y-126000857D02*
X126082714Y-126000857D01*
X126082714Y-126786571D02*
X126082714Y-125286571D01*
X127439857Y-126786571D02*
X127439857Y-126000857D01*
X127368428Y-125858000D01*
X127225571Y-125786571D01*
X126939857Y-125786571D01*
X126796999Y-125858000D01*
X127439857Y-126715142D02*
X127296999Y-126786571D01*
X126939857Y-126786571D01*
X126796999Y-126715142D01*
X126725571Y-126572285D01*
X126725571Y-126429428D01*
X126796999Y-126286571D01*
X126939857Y-126215142D01*
X127296999Y-126215142D01*
X127439857Y-126143714D01*
X128796999Y-125786571D02*
X128796999Y-126786571D01*
X128154142Y-125786571D02*
X128154142Y-126572285D01*
X128225571Y-126715142D01*
X128368428Y-126786571D01*
X128582714Y-126786571D01*
X128725571Y-126715142D01*
X128796999Y-126643714D01*
X129511285Y-125786571D02*
X129511285Y-127286571D01*
X129511285Y-125858000D02*
X129654142Y-125786571D01*
X129939857Y-125786571D01*
X130082714Y-125858000D01*
X130154142Y-125929428D01*
X130225571Y-126072285D01*
X130225571Y-126500857D01*
X130154142Y-126643714D01*
X130082714Y-126715142D01*
X129939857Y-126786571D01*
X129654142Y-126786571D01*
X129511285Y-126715142D01*
X130654142Y-125786571D02*
X131225571Y-125786571D01*
X130868428Y-125286571D02*
X130868428Y-126572285D01*
X130939857Y-126715142D01*
X131082714Y-126786571D01*
X131225571Y-126786571D01*
X131725571Y-125786571D02*
X131725571Y-127286571D01*
X131725571Y-125858000D02*
X131868428Y-125786571D01*
X132154142Y-125786571D01*
X132297000Y-125858000D01*
X132368428Y-125929428D01*
X132439857Y-126072285D01*
X132439857Y-126500857D01*
X132368428Y-126643714D01*
X132297000Y-126715142D01*
X132154142Y-126786571D01*
X131868428Y-126786571D01*
X131725571Y-126715142D01*
X133297000Y-126786571D02*
X133154142Y-126715142D01*
X133082714Y-126572285D01*
X133082714Y-125286571D01*
X134511285Y-126786571D02*
X134511285Y-126000857D01*
X134439857Y-125858000D01*
X134297000Y-125786571D01*
X134011285Y-125786571D01*
X133868428Y-125858000D01*
X134511285Y-126715142D02*
X134368428Y-126786571D01*
X134011285Y-126786571D01*
X133868428Y-126715142D01*
X133797000Y-126572285D01*
X133797000Y-126429428D01*
X133868428Y-126286571D01*
X134011285Y-126215142D01*
X134368428Y-126215142D01*
X134511285Y-126143714D01*
X135011285Y-125786571D02*
X135582714Y-125786571D01*
X135225571Y-125286571D02*
X135225571Y-126572285D01*
X135297000Y-126715142D01*
X135439857Y-126786571D01*
X135582714Y-126786571D01*
X136082714Y-126786571D02*
X136082714Y-125786571D01*
X136082714Y-125286571D02*
X136011285Y-125358000D01*
X136082714Y-125429428D01*
X136154142Y-125358000D01*
X136082714Y-125286571D01*
X136082714Y-125429428D01*
X136797000Y-125786571D02*
X136797000Y-126786571D01*
X136797000Y-125929428D02*
X136868428Y-125858000D01*
X137011285Y-125786571D01*
X137225571Y-125786571D01*
X137368428Y-125858000D01*
X137439857Y-126000857D01*
X137439857Y-126786571D01*
X138725571Y-126715142D02*
X138582714Y-126786571D01*
X138297000Y-126786571D01*
X138154142Y-126715142D01*
X138082714Y-126572285D01*
X138082714Y-126000857D01*
X138154142Y-125858000D01*
X138297000Y-125786571D01*
X138582714Y-125786571D01*
X138725571Y-125858000D01*
X138797000Y-126000857D01*
X138797000Y-126143714D01*
X138082714Y-126286571D01*
X140439857Y-125786571D02*
X140797000Y-126786571D01*
X141154142Y-125786571D01*
X142011285Y-125286571D02*
X142154142Y-125286571D01*
X142297000Y-125358000D01*
X142368428Y-125429428D01*
X142439857Y-125572285D01*
X142511285Y-125858000D01*
X142511285Y-126215142D01*
X142439857Y-126500857D01*
X142368428Y-126643714D01*
X142297000Y-126715142D01*
X142154142Y-126786571D01*
X142011285Y-126786571D01*
X141868428Y-126715142D01*
X141797000Y-126643714D01*
X141725571Y-126500857D01*
X141654142Y-126215142D01*
X141654142Y-125858000D01*
X141725571Y-125572285D01*
X141797000Y-125429428D01*
X141868428Y-125358000D01*
X142011285Y-125286571D01*
X143154142Y-126643714D02*
X143225571Y-126715142D01*
X143154142Y-126786571D01*
X143082714Y-126715142D01*
X143154142Y-126643714D01*
X143154142Y-126786571D01*
X144654142Y-126786571D02*
X143797000Y-126786571D01*
X144225571Y-126786571D02*
X144225571Y-125286571D01*
X144082714Y-125500857D01*
X143939857Y-125643714D01*
X143797000Y-125715142D01*
D15*
%TO.C,J4*%
X149987000Y-122418000D02*
X149987000Y-121358000D01*
X151047000Y-122418000D02*
X149987000Y-122418000D01*
X152047000Y-122418000D02*
X152047000Y-120298000D01*
X152047000Y-120298000D02*
X158107000Y-120298000D01*
X152047000Y-122418000D02*
X158107000Y-122418000D01*
X158107000Y-122418000D02*
X158107000Y-120298000D01*
%TO.C,J3*%
X132987000Y-122418000D02*
X132987000Y-121358000D01*
X134047000Y-122418000D02*
X132987000Y-122418000D01*
X135047000Y-122418000D02*
X135047000Y-120298000D01*
X135047000Y-120298000D02*
X141107000Y-120298000D01*
X135047000Y-122418000D02*
X141107000Y-122418000D01*
X141107000Y-122418000D02*
X141107000Y-120298000D01*
%TO.C,J1*%
X115987000Y-122418000D02*
X115987000Y-121358000D01*
X117047000Y-122418000D02*
X115987000Y-122418000D01*
X118047000Y-122418000D02*
X118047000Y-120298000D01*
X118047000Y-120298000D02*
X124107000Y-120298000D01*
X118047000Y-122418000D02*
X124107000Y-122418000D01*
X124107000Y-122418000D02*
X124107000Y-120298000D01*
%TO.C,R9*%
X115569936Y-114123000D02*
X116024064Y-114123000D01*
X115569936Y-115593000D02*
X116024064Y-115593000D01*
%TO.C,D1*%
X114797000Y-113318000D02*
X117657000Y-113318000D01*
X117657000Y-113318000D02*
X117657000Y-111398000D01*
X117657000Y-111398000D02*
X114797000Y-111398000D01*
%TO.C,U1*%
X111297000Y-107358000D02*
X111297000Y-86358000D01*
X162297000Y-100558000D02*
X162297000Y-107358000D01*
X113964000Y-107358000D02*
X113964000Y-104351000D01*
X113964000Y-104351000D02*
X111297000Y-104351000D01*
X111297000Y-107358000D02*
X111597000Y-107358000D01*
X113697000Y-107358000D02*
X114097000Y-107358000D01*
X116297000Y-107358000D02*
X116697000Y-107358000D01*
X118797000Y-107358000D02*
X119197000Y-107358000D01*
X121397000Y-107358000D02*
X121797000Y-107358000D01*
X123897000Y-107358000D02*
X124297000Y-107358000D01*
X126397000Y-107358000D02*
X126797000Y-107358000D01*
X128997000Y-107358000D02*
X129397000Y-107358000D01*
X131497000Y-107358000D02*
X131897000Y-107358000D01*
X134097000Y-107358000D02*
X134497000Y-107358000D01*
X136597000Y-107358000D02*
X136997000Y-107358000D01*
X139097000Y-107358000D02*
X139497000Y-107358000D01*
X141697000Y-107358000D02*
X142097000Y-107358000D01*
X144197000Y-107358000D02*
X144597000Y-107358000D01*
X146797000Y-107358000D02*
X147197000Y-107358000D01*
X149297000Y-107358000D02*
X149697000Y-107358000D01*
X151897000Y-107358000D02*
X152297000Y-107358000D01*
X154397000Y-107358000D02*
X154797000Y-107358000D01*
X156897000Y-107358000D02*
X157297000Y-107358000D01*
X159497000Y-107358000D02*
X159897000Y-107358000D01*
X126397000Y-86358000D02*
X126797000Y-86358000D01*
X131497000Y-86358000D02*
X131897000Y-86358000D01*
X139097000Y-86358000D02*
X139497000Y-86358000D01*
X146797000Y-86358000D02*
X147197000Y-86358000D01*
X116297000Y-86358000D02*
X116697000Y-86358000D01*
X113697000Y-86358000D02*
X114097000Y-86358000D01*
X121397000Y-86358000D02*
X121797000Y-86358000D01*
X154397000Y-86358000D02*
X154797000Y-86358000D01*
X159497000Y-86358000D02*
X159897000Y-86358000D01*
X156897000Y-86358000D02*
X157297000Y-86358000D01*
X141697000Y-86358000D02*
X142097000Y-86358000D01*
X136597000Y-86358000D02*
X136997000Y-86358000D01*
X123897000Y-86358000D02*
X124297000Y-86358000D01*
X128997000Y-86358000D02*
X129397000Y-86358000D01*
X149297000Y-86358000D02*
X149697000Y-86358000D01*
X134097000Y-86358000D02*
X134497000Y-86358000D01*
X111297000Y-86358000D02*
X111597000Y-86358000D01*
X118797000Y-86358000D02*
X119197000Y-86358000D01*
X144197000Y-86358000D02*
X144597000Y-86358000D01*
X151897000Y-86358000D02*
X152297000Y-86358000D01*
X162297000Y-86358000D02*
X162297000Y-93158000D01*
X162297000Y-98358000D02*
X162297000Y-97958000D01*
X162297000Y-95758000D02*
X162297000Y-95358000D01*
D10*
%TO.C,SW7*%
X201922000Y-109733000D02*
X201922000Y-110108000D01*
X201547000Y-109733000D02*
X201922000Y-109733000D01*
X201922000Y-115983000D02*
X201522000Y-115983000D01*
X201922000Y-115583000D02*
X201922000Y-115983000D01*
X195672000Y-109733000D02*
X195672000Y-110233000D01*
X196222000Y-109733000D02*
X195672000Y-109733000D01*
X195772000Y-116283000D02*
X195772000Y-117933000D01*
X195997000Y-116283000D02*
X195772000Y-116283000D01*
X195997000Y-115983000D02*
X195997000Y-116283000D01*
X195672000Y-115633000D02*
X195997000Y-115983000D01*
X195672000Y-115633000D02*
X195672000Y-115333000D01*
%TO.C,SW6*%
X185672000Y-100733000D02*
X186047000Y-100733000D01*
X185672000Y-101108000D02*
X185672000Y-100733000D01*
X191922000Y-100733000D02*
X191922000Y-101133000D01*
X191522000Y-100733000D02*
X191922000Y-100733000D01*
X185672000Y-106983000D02*
X186172000Y-106983000D01*
X185672000Y-106433000D02*
X185672000Y-106983000D01*
X192222000Y-106883000D02*
X193872000Y-106883000D01*
X192222000Y-106658000D02*
X192222000Y-106883000D01*
X191922000Y-106658000D02*
X192222000Y-106658000D01*
X191572000Y-106983000D02*
X191922000Y-106658000D01*
X191572000Y-106983000D02*
X191272000Y-106983000D01*
%TO.C,SW5*%
X185672000Y-118733000D02*
X186047000Y-118733000D01*
X185672000Y-119108000D02*
X185672000Y-118733000D01*
X191922000Y-118733000D02*
X191922000Y-119133000D01*
X191522000Y-118733000D02*
X191922000Y-118733000D01*
X185672000Y-124983000D02*
X186172000Y-124983000D01*
X185672000Y-124433000D02*
X185672000Y-124983000D01*
X192222000Y-124883000D02*
X193872000Y-124883000D01*
X192222000Y-124658000D02*
X192222000Y-124883000D01*
X191922000Y-124658000D02*
X192222000Y-124658000D01*
X191572000Y-124983000D02*
X191922000Y-124658000D01*
X191572000Y-124983000D02*
X191272000Y-124983000D01*
%TO.C,SW4*%
X181922000Y-109733000D02*
X181922000Y-110108000D01*
X181547000Y-109733000D02*
X181922000Y-109733000D01*
X181922000Y-115983000D02*
X181522000Y-115983000D01*
X181922000Y-115583000D02*
X181922000Y-115983000D01*
X175672000Y-109733000D02*
X175672000Y-110233000D01*
X176222000Y-109733000D02*
X175672000Y-109733000D01*
X175772000Y-116283000D02*
X175772000Y-117933000D01*
X175997000Y-116283000D02*
X175772000Y-116283000D01*
X175997000Y-115983000D02*
X175997000Y-116283000D01*
X175672000Y-115633000D02*
X175997000Y-115983000D01*
X175672000Y-115633000D02*
X175672000Y-115333000D01*
%TO.C,SW1*%
X189672000Y-90733000D02*
X190047000Y-90733000D01*
X189672000Y-91108000D02*
X189672000Y-90733000D01*
X195922000Y-90733000D02*
X195922000Y-91133000D01*
X195522000Y-90733000D02*
X195922000Y-90733000D01*
X189672000Y-96983000D02*
X190172000Y-96983000D01*
X189672000Y-96433000D02*
X189672000Y-96983000D01*
X196222000Y-96883000D02*
X197872000Y-96883000D01*
X196222000Y-96658000D02*
X196222000Y-96883000D01*
X195922000Y-96658000D02*
X196222000Y-96658000D01*
X195572000Y-96983000D02*
X195922000Y-96658000D01*
X195572000Y-96983000D02*
X195272000Y-96983000D01*
%TO.C,SW2*%
X181672000Y-81733000D02*
X182047000Y-81733000D01*
X181672000Y-82108000D02*
X181672000Y-81733000D01*
X187922000Y-81733000D02*
X187922000Y-82133000D01*
X187522000Y-81733000D02*
X187922000Y-81733000D01*
X181672000Y-87983000D02*
X182172000Y-87983000D01*
X181672000Y-87433000D02*
X181672000Y-87983000D01*
X188222000Y-87883000D02*
X189872000Y-87883000D01*
X188222000Y-87658000D02*
X188222000Y-87883000D01*
X187922000Y-87658000D02*
X188222000Y-87658000D01*
X187572000Y-87983000D02*
X187922000Y-87658000D01*
X187572000Y-87983000D02*
X187272000Y-87983000D01*
%TO.C,SW3*%
X171922000Y-94083000D02*
X171922000Y-94383000D01*
X171922000Y-94083000D02*
X171597000Y-93733000D01*
X171597000Y-93733000D02*
X171597000Y-93433000D01*
X171597000Y-93433000D02*
X171822000Y-93433000D01*
X171822000Y-93433000D02*
X171822000Y-91783000D01*
X171372000Y-99983000D02*
X171922000Y-99983000D01*
X171922000Y-99983000D02*
X171922000Y-99483000D01*
X165672000Y-94133000D02*
X165672000Y-93733000D01*
X165672000Y-93733000D02*
X166072000Y-93733000D01*
X166047000Y-99983000D02*
X165672000Y-99983000D01*
X165672000Y-99983000D02*
X165672000Y-99608000D01*
%TO.C,J4*%
D11*
X150713666Y-118560380D02*
X150713666Y-119274666D01*
X150666047Y-119417523D01*
X150570809Y-119512761D01*
X150427952Y-119560380D01*
X150332714Y-119560380D01*
X151618428Y-118893714D02*
X151618428Y-119560380D01*
X151380333Y-118512761D02*
X151142238Y-119227047D01*
X151761285Y-119227047D01*
%TO.C,J3*%
X133713666Y-118560380D02*
X133713666Y-119274666D01*
X133666047Y-119417523D01*
X133570809Y-119512761D01*
X133427952Y-119560380D01*
X133332714Y-119560380D01*
X134094619Y-118560380D02*
X134713666Y-118560380D01*
X134380333Y-118941333D01*
X134523190Y-118941333D01*
X134618428Y-118988952D01*
X134666047Y-119036571D01*
X134713666Y-119131809D01*
X134713666Y-119369904D01*
X134666047Y-119465142D01*
X134618428Y-119512761D01*
X134523190Y-119560380D01*
X134237476Y-119560380D01*
X134142238Y-119512761D01*
X134094619Y-119465142D01*
%TO.C,J1*%
X116713666Y-118560380D02*
X116713666Y-119274666D01*
X116666047Y-119417523D01*
X116570809Y-119512761D01*
X116427952Y-119560380D01*
X116332714Y-119560380D01*
X117713666Y-119560380D02*
X117142238Y-119560380D01*
X117427952Y-119560380D02*
X117427952Y-118560380D01*
X117332714Y-118703238D01*
X117237476Y-118798476D01*
X117142238Y-118846095D01*
%TO.C,R9*%
X118630333Y-112810380D02*
X118297000Y-112334190D01*
X118058904Y-112810380D02*
X118058904Y-111810380D01*
X118439857Y-111810380D01*
X118535095Y-111858000D01*
X118582714Y-111905619D01*
X118630333Y-112000857D01*
X118630333Y-112143714D01*
X118582714Y-112238952D01*
X118535095Y-112286571D01*
X118439857Y-112334190D01*
X118058904Y-112334190D01*
X119106523Y-112810380D02*
X119297000Y-112810380D01*
X119392238Y-112762761D01*
X119439857Y-112715142D01*
X119535095Y-112572285D01*
X119582714Y-112381809D01*
X119582714Y-112000857D01*
X119535095Y-111905619D01*
X119487476Y-111858000D01*
X119392238Y-111810380D01*
X119201761Y-111810380D01*
X119106523Y-111858000D01*
X119058904Y-111905619D01*
X119011285Y-112000857D01*
X119011285Y-112238952D01*
X119058904Y-112334190D01*
X119106523Y-112381809D01*
X119201761Y-112429428D01*
X119392238Y-112429428D01*
X119487476Y-112381809D01*
X119535095Y-112334190D01*
X119582714Y-112238952D01*
%TO.C,D1*%
X118058904Y-115310380D02*
X118058904Y-114310380D01*
X118297000Y-114310380D01*
X118439857Y-114358000D01*
X118535095Y-114453238D01*
X118582714Y-114548476D01*
X118630333Y-114738952D01*
X118630333Y-114881809D01*
X118582714Y-115072285D01*
X118535095Y-115167523D01*
X118439857Y-115262761D01*
X118297000Y-115310380D01*
X118058904Y-115310380D01*
X119582714Y-115310380D02*
X119011285Y-115310380D01*
X119297000Y-115310380D02*
X119297000Y-114310380D01*
X119201761Y-114453238D01*
X119106523Y-114548476D01*
X119011285Y-114596095D01*
%TO.C,U1*%
X136249380Y-97619904D02*
X137058904Y-97619904D01*
X137154142Y-97572285D01*
X137201761Y-97524666D01*
X137249380Y-97429428D01*
X137249380Y-97238952D01*
X137201761Y-97143714D01*
X137154142Y-97096095D01*
X137058904Y-97048476D01*
X136249380Y-97048476D01*
X137249380Y-96048476D02*
X137249380Y-96619904D01*
X137249380Y-96334190D02*
X136249380Y-96334190D01*
X136392238Y-96429428D01*
X136487476Y-96524666D01*
X136535095Y-96619904D01*
X163320809Y-92953238D02*
X163358904Y-92838952D01*
X163358904Y-92648476D01*
X163320809Y-92572285D01*
X163282714Y-92534190D01*
X163206523Y-92496095D01*
X163130333Y-92496095D01*
X163054142Y-92534190D01*
X163016047Y-92572285D01*
X162977952Y-92648476D01*
X162939857Y-92800857D01*
X162901761Y-92877047D01*
X162863666Y-92915142D01*
X162787476Y-92953238D01*
X162711285Y-92953238D01*
X162635095Y-92915142D01*
X162597000Y-92877047D01*
X162558904Y-92800857D01*
X162558904Y-92610380D01*
X162597000Y-92496095D01*
X162558904Y-92229428D02*
X163358904Y-92038952D01*
X162787476Y-91886571D01*
X163358904Y-91734190D01*
X162558904Y-91543714D01*
X163358904Y-91238952D02*
X162558904Y-91238952D01*
X162558904Y-91048476D01*
X162597000Y-90934190D01*
X162673190Y-90858000D01*
X162749380Y-90819904D01*
X162901761Y-90781809D01*
X163016047Y-90781809D01*
X163168428Y-90819904D01*
X163244619Y-90858000D01*
X163320809Y-90934190D01*
X163358904Y-91048476D01*
X163358904Y-91238952D01*
X163358904Y-90438952D02*
X162558904Y-90438952D01*
X162558904Y-89905619D02*
X162558904Y-89753238D01*
X162597000Y-89677047D01*
X162673190Y-89600857D01*
X162825571Y-89562761D01*
X163092238Y-89562761D01*
X163244619Y-89600857D01*
X163320809Y-89677047D01*
X163358904Y-89753238D01*
X163358904Y-89905619D01*
X163320809Y-89981809D01*
X163244619Y-90058000D01*
X163092238Y-90096095D01*
X162825571Y-90096095D01*
X162673190Y-90058000D01*
X162597000Y-89981809D01*
X162558904Y-89905619D01*
X163320809Y-104367523D02*
X163358904Y-104253238D01*
X163358904Y-104062761D01*
X163320809Y-103986571D01*
X163282714Y-103948476D01*
X163206523Y-103910380D01*
X163130333Y-103910380D01*
X163054142Y-103948476D01*
X163016047Y-103986571D01*
X162977952Y-104062761D01*
X162939857Y-104215142D01*
X162901761Y-104291333D01*
X162863666Y-104329428D01*
X162787476Y-104367523D01*
X162711285Y-104367523D01*
X162635095Y-104329428D01*
X162597000Y-104291333D01*
X162558904Y-104215142D01*
X162558904Y-104024666D01*
X162597000Y-103910380D01*
X162558904Y-103643714D02*
X163358904Y-103453238D01*
X162787476Y-103300857D01*
X163358904Y-103148476D01*
X162558904Y-102958000D01*
X163282714Y-102196095D02*
X163320809Y-102234190D01*
X163358904Y-102348476D01*
X163358904Y-102424666D01*
X163320809Y-102538952D01*
X163244619Y-102615142D01*
X163168428Y-102653238D01*
X163016047Y-102691333D01*
X162901761Y-102691333D01*
X162749380Y-102653238D01*
X162673190Y-102615142D01*
X162597000Y-102538952D01*
X162558904Y-102424666D01*
X162558904Y-102348476D01*
X162597000Y-102234190D01*
X162635095Y-102196095D01*
X163358904Y-101472285D02*
X163358904Y-101853238D01*
X162558904Y-101853238D01*
X163358904Y-101205619D02*
X162558904Y-101205619D01*
X163358904Y-100748476D02*
X162901761Y-101091333D01*
X162558904Y-100748476D02*
X163016047Y-101205619D01*
X129356035Y-82901597D02*
X129625409Y-83170971D01*
X129140536Y-83009346D02*
X129894783Y-82632223D01*
X129517659Y-83386470D01*
X130541280Y-83332595D02*
X130514343Y-83251783D01*
X130433531Y-83170971D01*
X130325781Y-83117096D01*
X130218032Y-83117096D01*
X130137219Y-83144033D01*
X130002532Y-83224845D01*
X129921720Y-83305658D01*
X129840908Y-83440345D01*
X129813971Y-83521157D01*
X129813971Y-83628906D01*
X129867845Y-83736656D01*
X129921720Y-83790531D01*
X130029470Y-83844406D01*
X130083345Y-83844406D01*
X130271906Y-83655844D01*
X130164157Y-83548094D01*
X130271906Y-84140717D02*
X130837592Y-83575032D01*
X130595155Y-84463966D01*
X131160841Y-83898280D01*
X130864529Y-84733340D02*
X131430215Y-84167654D01*
X131564902Y-84302341D01*
X131618776Y-84410091D01*
X131618776Y-84517841D01*
X131591839Y-84598653D01*
X131511027Y-84733340D01*
X131430215Y-84814152D01*
X131295528Y-84894964D01*
X131214715Y-84921902D01*
X131106966Y-84921902D01*
X130999216Y-84868027D01*
X130864529Y-84733340D01*
X117598844Y-83344158D02*
X117571906Y-83263346D01*
X117491094Y-83182534D01*
X117383345Y-83128659D01*
X117275595Y-83128659D01*
X117194783Y-83155597D01*
X117060096Y-83236409D01*
X116979284Y-83317221D01*
X116898471Y-83451908D01*
X116871534Y-83532720D01*
X116871534Y-83640470D01*
X116925409Y-83748219D01*
X116979284Y-83802094D01*
X117087033Y-83855969D01*
X117140908Y-83855969D01*
X117329470Y-83667407D01*
X117221720Y-83559658D01*
X117329470Y-84152280D02*
X117895155Y-83586595D01*
X117652719Y-84475529D01*
X118218404Y-83909844D01*
X117922093Y-84744903D02*
X118487778Y-84179218D01*
X118622465Y-84313905D01*
X118676340Y-84421654D01*
X118676340Y-84529404D01*
X118649402Y-84610216D01*
X118568590Y-84744903D01*
X118487778Y-84825715D01*
X118353091Y-84906528D01*
X118272279Y-84933465D01*
X118164529Y-84933465D01*
X118056780Y-84879590D01*
X117922093Y-84744903D01*
X142998844Y-83344158D02*
X142971906Y-83263346D01*
X142891094Y-83182534D01*
X142783345Y-83128659D01*
X142675595Y-83128659D01*
X142594783Y-83155597D01*
X142460096Y-83236409D01*
X142379284Y-83317221D01*
X142298471Y-83451908D01*
X142271534Y-83532720D01*
X142271534Y-83640470D01*
X142325409Y-83748219D01*
X142379284Y-83802094D01*
X142487033Y-83855969D01*
X142540908Y-83855969D01*
X142729470Y-83667407D01*
X142621720Y-83559658D01*
X142729470Y-84152280D02*
X143295155Y-83586595D01*
X143052719Y-84475529D01*
X143618404Y-83909844D01*
X143322093Y-84744903D02*
X143887778Y-84179218D01*
X144022465Y-84313905D01*
X144076340Y-84421654D01*
X144076340Y-84529404D01*
X144049402Y-84610216D01*
X143968590Y-84744903D01*
X143887778Y-84825715D01*
X143753091Y-84906528D01*
X143672279Y-84933465D01*
X143564529Y-84933465D01*
X143456780Y-84879590D01*
X143322093Y-84744903D01*
X155698844Y-83344158D02*
X155671906Y-83263346D01*
X155591094Y-83182534D01*
X155483345Y-83128659D01*
X155375595Y-83128659D01*
X155294783Y-83155597D01*
X155160096Y-83236409D01*
X155079284Y-83317221D01*
X154998471Y-83451908D01*
X154971534Y-83532720D01*
X154971534Y-83640470D01*
X155025409Y-83748219D01*
X155079284Y-83802094D01*
X155187033Y-83855969D01*
X155240908Y-83855969D01*
X155429470Y-83667407D01*
X155321720Y-83559658D01*
X155429470Y-84152280D02*
X155995155Y-83586595D01*
X155752719Y-84475529D01*
X156318404Y-83909844D01*
X156022093Y-84744903D02*
X156587778Y-84179218D01*
X156722465Y-84313905D01*
X156776340Y-84421654D01*
X156776340Y-84529404D01*
X156749402Y-84610216D01*
X156668590Y-84744903D01*
X156587778Y-84825715D01*
X156453091Y-84906528D01*
X156372279Y-84933465D01*
X156264529Y-84933465D01*
X156156780Y-84879590D01*
X156022093Y-84744903D01*
X155698844Y-108944158D02*
X155671906Y-108863346D01*
X155591094Y-108782534D01*
X155483345Y-108728659D01*
X155375595Y-108728659D01*
X155294783Y-108755597D01*
X155160096Y-108836409D01*
X155079284Y-108917221D01*
X154998471Y-109051908D01*
X154971534Y-109132720D01*
X154971534Y-109240470D01*
X155025409Y-109348219D01*
X155079284Y-109402094D01*
X155187033Y-109455969D01*
X155240908Y-109455969D01*
X155429470Y-109267407D01*
X155321720Y-109159658D01*
X155429470Y-109752280D02*
X155995155Y-109186595D01*
X155752719Y-110075529D01*
X156318404Y-109509844D01*
X156022093Y-110344903D02*
X156587778Y-109779218D01*
X156722465Y-109913905D01*
X156776340Y-110021654D01*
X156776340Y-110129404D01*
X156749402Y-110210216D01*
X156668590Y-110344903D01*
X156587778Y-110425715D01*
X156453091Y-110506528D01*
X156372279Y-110533465D01*
X156264529Y-110533465D01*
X156156780Y-110479590D01*
X156022093Y-110344903D01*
X142998844Y-108944158D02*
X142971906Y-108863346D01*
X142891094Y-108782534D01*
X142783345Y-108728659D01*
X142675595Y-108728659D01*
X142594783Y-108755597D01*
X142460096Y-108836409D01*
X142379284Y-108917221D01*
X142298471Y-109051908D01*
X142271534Y-109132720D01*
X142271534Y-109240470D01*
X142325409Y-109348219D01*
X142379284Y-109402094D01*
X142487033Y-109455969D01*
X142540908Y-109455969D01*
X142729470Y-109267407D01*
X142621720Y-109159658D01*
X142729470Y-109752280D02*
X143295155Y-109186595D01*
X143052719Y-110075529D01*
X143618404Y-109509844D01*
X143322093Y-110344903D02*
X143887778Y-109779218D01*
X144022465Y-109913905D01*
X144076340Y-110021654D01*
X144076340Y-110129404D01*
X144049402Y-110210216D01*
X143968590Y-110344903D01*
X143887778Y-110425715D01*
X143753091Y-110506528D01*
X143672279Y-110533465D01*
X143564529Y-110533465D01*
X143456780Y-110479590D01*
X143322093Y-110344903D01*
X130298844Y-108944158D02*
X130271906Y-108863346D01*
X130191094Y-108782534D01*
X130083345Y-108728659D01*
X129975595Y-108728659D01*
X129894783Y-108755597D01*
X129760096Y-108836409D01*
X129679284Y-108917221D01*
X129598471Y-109051908D01*
X129571534Y-109132720D01*
X129571534Y-109240470D01*
X129625409Y-109348219D01*
X129679284Y-109402094D01*
X129787033Y-109455969D01*
X129840908Y-109455969D01*
X130029470Y-109267407D01*
X129921720Y-109159658D01*
X130029470Y-109752280D02*
X130595155Y-109186595D01*
X130352719Y-110075529D01*
X130918404Y-109509844D01*
X130622093Y-110344903D02*
X131187778Y-109779218D01*
X131322465Y-109913905D01*
X131376340Y-110021654D01*
X131376340Y-110129404D01*
X131349402Y-110210216D01*
X131268590Y-110344903D01*
X131187778Y-110425715D01*
X131053091Y-110506528D01*
X130972279Y-110533465D01*
X130864529Y-110533465D01*
X130756780Y-110479590D01*
X130622093Y-110344903D01*
X117598844Y-108944158D02*
X117571906Y-108863346D01*
X117491094Y-108782534D01*
X117383345Y-108728659D01*
X117275595Y-108728659D01*
X117194783Y-108755597D01*
X117060096Y-108836409D01*
X116979284Y-108917221D01*
X116898471Y-109051908D01*
X116871534Y-109132720D01*
X116871534Y-109240470D01*
X116925409Y-109348219D01*
X116979284Y-109402094D01*
X117087033Y-109455969D01*
X117140908Y-109455969D01*
X117329470Y-109267407D01*
X117221720Y-109159658D01*
X117329470Y-109752280D02*
X117895155Y-109186595D01*
X117652719Y-110075529D01*
X118218404Y-109509844D01*
X117922093Y-110344903D02*
X118487778Y-109779218D01*
X118622465Y-109913905D01*
X118676340Y-110021654D01*
X118676340Y-110129404D01*
X118649402Y-110210216D01*
X118568590Y-110344903D01*
X118487778Y-110425715D01*
X118353091Y-110506528D01*
X118272279Y-110533465D01*
X118164529Y-110533465D01*
X118056780Y-110479590D01*
X117922093Y-110344903D01*
X111869690Y-82211129D02*
X111492566Y-82965377D01*
X112246813Y-82588253D01*
X112354563Y-83234751D02*
X112408438Y-83342500D01*
X112408438Y-83396375D01*
X112381500Y-83477187D01*
X112300688Y-83557999D01*
X112219876Y-83584937D01*
X112166001Y-83584937D01*
X112085189Y-83558000D01*
X111869690Y-83342500D01*
X112435375Y-82776815D01*
X112623937Y-82965377D01*
X112650874Y-83046189D01*
X112650874Y-83100064D01*
X112623937Y-83180876D01*
X112570062Y-83234751D01*
X112489250Y-83261688D01*
X112435375Y-83261688D01*
X112354563Y-83234751D01*
X112166001Y-83046189D01*
X113001061Y-83342500D02*
X112543125Y-83800436D01*
X112516187Y-83881248D01*
X112516187Y-83935123D01*
X112543125Y-84015935D01*
X112650874Y-84123685D01*
X112731687Y-84150622D01*
X112785561Y-84150622D01*
X112866374Y-84123685D01*
X113324309Y-83665749D01*
X113027998Y-84446934D02*
X113081873Y-84554683D01*
X113216560Y-84689370D01*
X113297372Y-84716308D01*
X113351247Y-84716308D01*
X113432059Y-84689370D01*
X113485934Y-84635496D01*
X113512871Y-84554683D01*
X113512871Y-84500809D01*
X113485934Y-84419996D01*
X113405122Y-84285309D01*
X113378184Y-84204497D01*
X113378184Y-84150622D01*
X113405122Y-84069810D01*
X113458996Y-84015935D01*
X113539809Y-83988998D01*
X113593683Y-83988998D01*
X113674496Y-84015935D01*
X113809183Y-84150622D01*
X113863057Y-84258372D01*
X114547033Y-82378473D02*
X114169910Y-83132720D01*
X114924157Y-82755597D01*
X114547033Y-83455969D02*
X114600908Y-83563719D01*
X114735595Y-83698406D01*
X114816407Y-83725343D01*
X114870282Y-83725343D01*
X114951094Y-83698406D01*
X115004969Y-83644531D01*
X115031906Y-83563719D01*
X115031906Y-83509844D01*
X115004969Y-83429032D01*
X114924157Y-83294345D01*
X114897219Y-83213532D01*
X114897219Y-83159658D01*
X114924157Y-83078845D01*
X114978032Y-83024971D01*
X115058844Y-82998033D01*
X115112719Y-82998033D01*
X115193531Y-83024971D01*
X115328218Y-83159658D01*
X115382093Y-83267407D01*
X115462905Y-83886967D02*
X115193531Y-84156341D01*
X115570654Y-83402094D02*
X115462905Y-83886967D01*
X115947778Y-83779218D01*
X115570654Y-84479590D02*
X115624529Y-84587340D01*
X115759216Y-84722027D01*
X115840028Y-84748964D01*
X115893903Y-84748964D01*
X115974715Y-84722027D01*
X116028590Y-84668152D01*
X116055528Y-84587340D01*
X116055528Y-84533465D01*
X116028590Y-84452653D01*
X115947778Y-84317966D01*
X115920841Y-84237154D01*
X115920841Y-84183279D01*
X115947778Y-84102467D01*
X116001653Y-84048592D01*
X116082465Y-84021654D01*
X116136340Y-84021654D01*
X116217152Y-84048592D01*
X116351839Y-84183279D01*
X116405714Y-84291028D01*
X118438691Y-81380131D02*
X118788877Y-81730317D01*
X118384816Y-81757255D01*
X118465629Y-81838067D01*
X118492566Y-81918879D01*
X118492566Y-81972754D01*
X118465629Y-82053566D01*
X118330942Y-82188253D01*
X118250129Y-82215190D01*
X118196255Y-82215190D01*
X118115442Y-82188253D01*
X117953818Y-82026629D01*
X117926881Y-81945816D01*
X117926881Y-81891942D01*
X118950502Y-81891942D02*
X118573378Y-82646189D01*
X119327625Y-82269065D01*
X119462312Y-82403752D02*
X119812499Y-82753938D01*
X119408438Y-82780876D01*
X119489250Y-82861688D01*
X119516187Y-82942500D01*
X119516187Y-82996375D01*
X119489250Y-83077187D01*
X119354563Y-83211874D01*
X119273751Y-83238812D01*
X119219876Y-83238812D01*
X119139064Y-83211874D01*
X118977439Y-83050250D01*
X118950502Y-82969438D01*
X118950502Y-82915563D01*
X119300688Y-83481248D02*
X119731687Y-83912247D01*
X120216560Y-83696748D02*
X120405122Y-83885309D01*
X120189622Y-84262433D02*
X119920248Y-83993059D01*
X120485934Y-83427374D01*
X120755308Y-83696748D01*
X120432059Y-84504870D02*
X120997744Y-83939184D01*
X120755308Y-84828118D01*
X121320993Y-84262433D01*
X122506407Y-82947847D02*
X122856593Y-83298033D01*
X122452532Y-83324971D01*
X122533345Y-83405783D01*
X122560282Y-83486595D01*
X122560282Y-83540470D01*
X122533345Y-83621282D01*
X122398658Y-83755969D01*
X122317845Y-83782906D01*
X122263971Y-83782906D01*
X122183158Y-83755969D01*
X122021534Y-83594345D01*
X121994597Y-83513532D01*
X121994597Y-83459658D01*
X123018218Y-83459658D02*
X122641094Y-84213905D01*
X123395341Y-83836781D01*
X123530028Y-83971468D02*
X123880215Y-84321654D01*
X123476154Y-84348592D01*
X123556966Y-84429404D01*
X123583903Y-84510216D01*
X123583903Y-84564091D01*
X123556966Y-84644903D01*
X123422279Y-84779590D01*
X123341467Y-84806528D01*
X123287592Y-84806528D01*
X123206780Y-84779590D01*
X123045155Y-84617966D01*
X123018218Y-84537154D01*
X123018218Y-84483279D01*
X122263226Y-81012788D02*
X122532600Y-81282162D01*
X122047727Y-81120537D02*
X122801974Y-80743414D01*
X122424850Y-81497661D01*
X122613412Y-81686223D02*
X123179097Y-81120537D01*
X123313784Y-81255224D01*
X123367659Y-81362974D01*
X123367659Y-81470723D01*
X123340722Y-81551536D01*
X123259910Y-81686223D01*
X123179097Y-81767035D01*
X123044410Y-81847847D01*
X122963598Y-81874784D01*
X122855849Y-81874784D01*
X122748099Y-81820910D01*
X122613412Y-81686223D01*
X123556221Y-82521282D02*
X123502346Y-82521282D01*
X123394597Y-82467407D01*
X123340722Y-82413532D01*
X123286847Y-82305783D01*
X123286847Y-82198033D01*
X123313784Y-82117221D01*
X123394597Y-81982534D01*
X123475409Y-81901722D01*
X123610096Y-81820910D01*
X123690908Y-81793972D01*
X123798658Y-81793972D01*
X123906407Y-81847847D01*
X123960282Y-81901722D01*
X124014157Y-82009471D01*
X124014157Y-82063346D01*
X123556221Y-82736781D02*
X123987219Y-83167780D01*
X124660654Y-82602094D02*
X124283531Y-83356341D01*
X125037778Y-82979218D01*
X124983903Y-84056714D02*
X125064715Y-83598778D01*
X124660654Y-83733465D02*
X125226340Y-83167780D01*
X125441839Y-83383279D01*
X125468776Y-83464091D01*
X125468776Y-83517966D01*
X125441839Y-83598778D01*
X125361027Y-83679590D01*
X125280215Y-83706528D01*
X125226340Y-83706528D01*
X125145528Y-83679590D01*
X124930028Y-83464091D01*
X125522651Y-84002839D02*
X125711213Y-84191401D01*
X125495714Y-84568524D02*
X125226340Y-84299150D01*
X125792025Y-83733465D01*
X126061399Y-84002839D01*
X126223024Y-84703211D02*
X126034462Y-84514650D01*
X125738150Y-84810961D02*
X126303836Y-84245276D01*
X126573210Y-84514650D01*
X127262407Y-82847722D02*
X127235470Y-82766910D01*
X127154658Y-82686097D01*
X127046908Y-82632223D01*
X126939158Y-82632223D01*
X126858346Y-82659160D01*
X126723659Y-82739972D01*
X126642847Y-82820784D01*
X126562035Y-82955471D01*
X126535097Y-83036284D01*
X126535097Y-83144033D01*
X126588972Y-83251783D01*
X126642847Y-83305658D01*
X126750597Y-83359532D01*
X126804471Y-83359532D01*
X126993033Y-83170971D01*
X126885284Y-83063221D01*
X126993033Y-83655844D02*
X127558719Y-83090158D01*
X127774218Y-83305658D01*
X127801155Y-83386470D01*
X127801155Y-83440345D01*
X127774218Y-83521157D01*
X127693406Y-83601969D01*
X127612593Y-83628906D01*
X127558719Y-83628906D01*
X127477906Y-83601969D01*
X127262407Y-83386470D01*
X128043592Y-83682781D02*
X128097467Y-83682781D01*
X128178279Y-83709719D01*
X128312966Y-83844406D01*
X128339903Y-83925218D01*
X128339903Y-83979093D01*
X128312966Y-84059905D01*
X128259091Y-84113780D01*
X128151341Y-84167654D01*
X127504844Y-84167654D01*
X127855030Y-84517841D01*
X128501528Y-84517841D02*
X128474590Y-84437028D01*
X128474590Y-84383154D01*
X128501528Y-84302341D01*
X128528465Y-84275404D01*
X128609277Y-84248467D01*
X128663152Y-84248467D01*
X128743964Y-84275404D01*
X128851714Y-84383154D01*
X128878651Y-84463966D01*
X128878651Y-84517841D01*
X128851714Y-84598653D01*
X128824776Y-84625590D01*
X128743964Y-84652528D01*
X128690089Y-84652528D01*
X128609277Y-84625590D01*
X128501528Y-84517841D01*
X128420715Y-84490903D01*
X128366841Y-84490903D01*
X128286028Y-84517841D01*
X128178279Y-84625590D01*
X128151341Y-84706402D01*
X128151341Y-84760277D01*
X128178279Y-84841089D01*
X128286028Y-84948839D01*
X128366841Y-84975776D01*
X128420715Y-84975776D01*
X128501528Y-84948839D01*
X128609277Y-84841089D01*
X128636215Y-84760277D01*
X128636215Y-84706402D01*
X128609277Y-84625590D01*
X132606407Y-82847722D02*
X132579470Y-82766910D01*
X132498658Y-82686097D01*
X132390908Y-82632223D01*
X132283158Y-82632223D01*
X132202346Y-82659160D01*
X132067659Y-82739972D01*
X131986847Y-82820784D01*
X131906035Y-82955471D01*
X131879097Y-83036284D01*
X131879097Y-83144033D01*
X131932972Y-83251783D01*
X131986847Y-83305658D01*
X132094597Y-83359532D01*
X132148471Y-83359532D01*
X132337033Y-83170971D01*
X132229284Y-83063221D01*
X132337033Y-83655844D02*
X132902719Y-83090158D01*
X133118218Y-83305658D01*
X133145155Y-83386470D01*
X133145155Y-83440345D01*
X133118218Y-83521157D01*
X133037406Y-83601969D01*
X132956593Y-83628906D01*
X132902719Y-83628906D01*
X132821906Y-83601969D01*
X132606407Y-83386470D01*
X133387592Y-83682781D02*
X133441467Y-83682781D01*
X133522279Y-83709719D01*
X133656966Y-83844406D01*
X133683903Y-83925218D01*
X133683903Y-83979093D01*
X133656966Y-84059905D01*
X133603091Y-84113780D01*
X133495341Y-84167654D01*
X132848844Y-84167654D01*
X133199030Y-84517841D01*
X133953277Y-84140717D02*
X134330401Y-84517841D01*
X133522279Y-84841089D01*
X135136407Y-82847722D02*
X135109470Y-82766910D01*
X135028658Y-82686097D01*
X134920908Y-82632223D01*
X134813158Y-82632223D01*
X134732346Y-82659160D01*
X134597659Y-82739972D01*
X134516847Y-82820784D01*
X134436035Y-82955471D01*
X134409097Y-83036284D01*
X134409097Y-83144033D01*
X134462972Y-83251783D01*
X134516847Y-83305658D01*
X134624597Y-83359532D01*
X134678471Y-83359532D01*
X134867033Y-83170971D01*
X134759284Y-83063221D01*
X134867033Y-83655844D02*
X135432719Y-83090158D01*
X135648218Y-83305658D01*
X135675155Y-83386470D01*
X135675155Y-83440345D01*
X135648218Y-83521157D01*
X135567406Y-83601969D01*
X135486593Y-83628906D01*
X135432719Y-83628906D01*
X135351906Y-83601969D01*
X135136407Y-83386470D01*
X135917592Y-83682781D02*
X135971467Y-83682781D01*
X136052279Y-83709719D01*
X136186966Y-83844406D01*
X136213903Y-83925218D01*
X136213903Y-83979093D01*
X136186966Y-84059905D01*
X136133091Y-84113780D01*
X136025341Y-84167654D01*
X135378844Y-84167654D01*
X135729030Y-84517841D01*
X136779589Y-84437028D02*
X136671839Y-84329279D01*
X136591027Y-84302341D01*
X136537152Y-84302341D01*
X136402465Y-84329279D01*
X136267778Y-84410091D01*
X136052279Y-84625590D01*
X136025341Y-84706402D01*
X136025341Y-84760277D01*
X136052279Y-84841089D01*
X136160028Y-84948839D01*
X136240841Y-84975776D01*
X136294715Y-84975776D01*
X136375528Y-84948839D01*
X136510215Y-84814152D01*
X136537152Y-84733340D01*
X136537152Y-84679465D01*
X136510215Y-84598653D01*
X136402465Y-84490903D01*
X136321653Y-84463966D01*
X136267778Y-84463966D01*
X136186966Y-84490903D01*
X137393564Y-83696375D02*
X137474377Y-83238439D01*
X137070316Y-83373126D02*
X137636001Y-82807441D01*
X137851500Y-83022940D01*
X137878438Y-83103752D01*
X137878438Y-83157627D01*
X137851500Y-83238439D01*
X137770688Y-83319251D01*
X137689876Y-83346189D01*
X137636001Y-83346189D01*
X137555189Y-83319251D01*
X137339690Y-83103752D01*
X138201687Y-83373126D02*
X137743751Y-83831062D01*
X137716813Y-83911874D01*
X137716813Y-83965749D01*
X137743751Y-84046561D01*
X137851500Y-84154311D01*
X137932312Y-84181248D01*
X137986187Y-84181248D01*
X138067000Y-84154311D01*
X138524935Y-83696375D01*
X138228624Y-84531435D02*
X138794309Y-83965749D01*
X138551873Y-84854683D01*
X139117558Y-84288998D01*
X140216407Y-82847722D02*
X140189470Y-82766910D01*
X140108658Y-82686097D01*
X140000908Y-82632223D01*
X139893158Y-82632223D01*
X139812346Y-82659160D01*
X139677659Y-82739972D01*
X139596847Y-82820784D01*
X139516035Y-82955471D01*
X139489097Y-83036284D01*
X139489097Y-83144033D01*
X139542972Y-83251783D01*
X139596847Y-83305658D01*
X139704597Y-83359532D01*
X139758471Y-83359532D01*
X139947033Y-83170971D01*
X139839284Y-83063221D01*
X139947033Y-83655844D02*
X140512719Y-83090158D01*
X140728218Y-83305658D01*
X140755155Y-83386470D01*
X140755155Y-83440345D01*
X140728218Y-83521157D01*
X140647406Y-83601969D01*
X140566593Y-83628906D01*
X140512719Y-83628906D01*
X140431906Y-83601969D01*
X140216407Y-83386470D01*
X140997592Y-83682781D02*
X141051467Y-83682781D01*
X141132279Y-83709719D01*
X141266966Y-83844406D01*
X141293903Y-83925218D01*
X141293903Y-83979093D01*
X141266966Y-84059905D01*
X141213091Y-84113780D01*
X141105341Y-84167654D01*
X140458844Y-84167654D01*
X140809030Y-84517841D01*
X141536340Y-84221529D02*
X141590215Y-84221529D01*
X141671027Y-84248467D01*
X141805714Y-84383154D01*
X141832651Y-84463966D01*
X141832651Y-84517841D01*
X141805714Y-84598653D01*
X141751839Y-84652528D01*
X141644089Y-84706402D01*
X140997592Y-84706402D01*
X141347778Y-85056589D01*
X145306407Y-82847722D02*
X145279470Y-82766910D01*
X145198658Y-82686097D01*
X145090908Y-82632223D01*
X144983158Y-82632223D01*
X144902346Y-82659160D01*
X144767659Y-82739972D01*
X144686847Y-82820784D01*
X144606035Y-82955471D01*
X144579097Y-83036284D01*
X144579097Y-83144033D01*
X144632972Y-83251783D01*
X144686847Y-83305658D01*
X144794597Y-83359532D01*
X144848471Y-83359532D01*
X145037033Y-83170971D01*
X144929284Y-83063221D01*
X145037033Y-83655844D02*
X145602719Y-83090158D01*
X145818218Y-83305658D01*
X145845155Y-83386470D01*
X145845155Y-83440345D01*
X145818218Y-83521157D01*
X145737406Y-83601969D01*
X145656593Y-83628906D01*
X145602719Y-83628906D01*
X145521906Y-83601969D01*
X145306407Y-83386470D01*
X146087592Y-83682781D02*
X146141467Y-83682781D01*
X146222279Y-83709719D01*
X146356966Y-83844406D01*
X146383903Y-83925218D01*
X146383903Y-83979093D01*
X146356966Y-84059905D01*
X146303091Y-84113780D01*
X146195341Y-84167654D01*
X145548844Y-84167654D01*
X145899030Y-84517841D01*
X146437778Y-85056589D02*
X146114529Y-84733340D01*
X146276154Y-84894964D02*
X146841839Y-84329279D01*
X146707152Y-84356216D01*
X146599402Y-84356216D01*
X146518590Y-84329279D01*
X147836407Y-82847722D02*
X147809470Y-82766910D01*
X147728658Y-82686097D01*
X147620908Y-82632223D01*
X147513158Y-82632223D01*
X147432346Y-82659160D01*
X147297659Y-82739972D01*
X147216847Y-82820784D01*
X147136035Y-82955471D01*
X147109097Y-83036284D01*
X147109097Y-83144033D01*
X147162972Y-83251783D01*
X147216847Y-83305658D01*
X147324597Y-83359532D01*
X147378471Y-83359532D01*
X147567033Y-83170971D01*
X147459284Y-83063221D01*
X147567033Y-83655844D02*
X148132719Y-83090158D01*
X148348218Y-83305658D01*
X148375155Y-83386470D01*
X148375155Y-83440345D01*
X148348218Y-83521157D01*
X148267406Y-83601969D01*
X148186593Y-83628906D01*
X148132719Y-83628906D01*
X148051906Y-83601969D01*
X147836407Y-83386470D01*
X148617592Y-83682781D02*
X148671467Y-83682781D01*
X148752279Y-83709719D01*
X148886966Y-83844406D01*
X148913903Y-83925218D01*
X148913903Y-83979093D01*
X148886966Y-84059905D01*
X148833091Y-84113780D01*
X148725341Y-84167654D01*
X148078844Y-84167654D01*
X148429030Y-84517841D01*
X149344902Y-84302341D02*
X149398776Y-84356216D01*
X149425714Y-84437028D01*
X149425714Y-84490903D01*
X149398776Y-84571715D01*
X149317964Y-84706402D01*
X149183277Y-84841089D01*
X149048590Y-84921902D01*
X148967778Y-84948839D01*
X148913903Y-84948839D01*
X148833091Y-84921902D01*
X148779216Y-84868027D01*
X148752279Y-84787215D01*
X148752279Y-84733340D01*
X148779216Y-84652528D01*
X148860028Y-84517841D01*
X148994715Y-84383154D01*
X149129402Y-84302341D01*
X149210215Y-84275404D01*
X149264089Y-84275404D01*
X149344902Y-84302341D01*
X150376407Y-82847722D02*
X150349470Y-82766910D01*
X150268658Y-82686097D01*
X150160908Y-82632223D01*
X150053158Y-82632223D01*
X149972346Y-82659160D01*
X149837659Y-82739972D01*
X149756847Y-82820784D01*
X149676035Y-82955471D01*
X149649097Y-83036284D01*
X149649097Y-83144033D01*
X149702972Y-83251783D01*
X149756847Y-83305658D01*
X149864597Y-83359532D01*
X149918471Y-83359532D01*
X150107033Y-83170971D01*
X149999284Y-83063221D01*
X150107033Y-83655844D02*
X150672719Y-83090158D01*
X150888218Y-83305658D01*
X150915155Y-83386470D01*
X150915155Y-83440345D01*
X150888218Y-83521157D01*
X150807406Y-83601969D01*
X150726593Y-83628906D01*
X150672719Y-83628906D01*
X150591906Y-83601969D01*
X150376407Y-83386470D01*
X150969030Y-84517841D02*
X150645781Y-84194592D01*
X150807406Y-84356216D02*
X151373091Y-83790531D01*
X151238404Y-83817468D01*
X151130654Y-83817468D01*
X151049842Y-83790531D01*
X151238404Y-84787215D02*
X151346154Y-84894964D01*
X151426966Y-84921902D01*
X151480841Y-84921902D01*
X151615528Y-84894964D01*
X151750215Y-84814152D01*
X151965714Y-84598653D01*
X151992651Y-84517841D01*
X151992651Y-84463966D01*
X151965714Y-84383154D01*
X151857964Y-84275404D01*
X151777152Y-84248467D01*
X151723277Y-84248467D01*
X151642465Y-84275404D01*
X151507778Y-84410091D01*
X151480841Y-84490903D01*
X151480841Y-84544778D01*
X151507778Y-84625590D01*
X151615528Y-84733340D01*
X151696340Y-84760277D01*
X151750215Y-84760277D01*
X151831027Y-84733340D01*
X152916407Y-82847722D02*
X152889470Y-82766910D01*
X152808658Y-82686097D01*
X152700908Y-82632223D01*
X152593158Y-82632223D01*
X152512346Y-82659160D01*
X152377659Y-82739972D01*
X152296847Y-82820784D01*
X152216035Y-82955471D01*
X152189097Y-83036284D01*
X152189097Y-83144033D01*
X152242972Y-83251783D01*
X152296847Y-83305658D01*
X152404597Y-83359532D01*
X152458471Y-83359532D01*
X152647033Y-83170971D01*
X152539284Y-83063221D01*
X152647033Y-83655844D02*
X153212719Y-83090158D01*
X153428218Y-83305658D01*
X153455155Y-83386470D01*
X153455155Y-83440345D01*
X153428218Y-83521157D01*
X153347406Y-83601969D01*
X153266593Y-83628906D01*
X153212719Y-83628906D01*
X153131906Y-83601969D01*
X152916407Y-83386470D01*
X153509030Y-84517841D02*
X153185781Y-84194592D01*
X153347406Y-84356216D02*
X153913091Y-83790531D01*
X153778404Y-83817468D01*
X153670654Y-83817468D01*
X153589842Y-83790531D01*
X154155528Y-84517841D02*
X154128590Y-84437028D01*
X154128590Y-84383154D01*
X154155528Y-84302341D01*
X154182465Y-84275404D01*
X154263277Y-84248467D01*
X154317152Y-84248467D01*
X154397964Y-84275404D01*
X154505714Y-84383154D01*
X154532651Y-84463966D01*
X154532651Y-84517841D01*
X154505714Y-84598653D01*
X154478776Y-84625590D01*
X154397964Y-84652528D01*
X154344089Y-84652528D01*
X154263277Y-84625590D01*
X154155528Y-84517841D01*
X154074715Y-84490903D01*
X154020841Y-84490903D01*
X153940028Y-84517841D01*
X153832279Y-84625590D01*
X153805341Y-84706402D01*
X153805341Y-84760277D01*
X153832279Y-84841089D01*
X153940028Y-84948839D01*
X154020841Y-84975776D01*
X154074715Y-84975776D01*
X154155528Y-84948839D01*
X154263277Y-84841089D01*
X154290215Y-84760277D01*
X154290215Y-84706402D01*
X154263277Y-84625590D01*
X157996407Y-82847722D02*
X157969470Y-82766910D01*
X157888658Y-82686097D01*
X157780908Y-82632223D01*
X157673158Y-82632223D01*
X157592346Y-82659160D01*
X157457659Y-82739972D01*
X157376847Y-82820784D01*
X157296035Y-82955471D01*
X157269097Y-83036284D01*
X157269097Y-83144033D01*
X157322972Y-83251783D01*
X157376847Y-83305658D01*
X157484597Y-83359532D01*
X157538471Y-83359532D01*
X157727033Y-83170971D01*
X157619284Y-83063221D01*
X157727033Y-83655844D02*
X158292719Y-83090158D01*
X158508218Y-83305658D01*
X158535155Y-83386470D01*
X158535155Y-83440345D01*
X158508218Y-83521157D01*
X158427406Y-83601969D01*
X158346593Y-83628906D01*
X158292719Y-83628906D01*
X158211906Y-83601969D01*
X157996407Y-83386470D01*
X158589030Y-84517841D02*
X158265781Y-84194592D01*
X158427406Y-84356216D02*
X158993091Y-83790531D01*
X158858404Y-83817468D01*
X158750654Y-83817468D01*
X158669842Y-83790531D01*
X159343277Y-84140717D02*
X159720401Y-84517841D01*
X158912279Y-84841089D01*
X160536407Y-82847722D02*
X160509470Y-82766910D01*
X160428658Y-82686097D01*
X160320908Y-82632223D01*
X160213158Y-82632223D01*
X160132346Y-82659160D01*
X159997659Y-82739972D01*
X159916847Y-82820784D01*
X159836035Y-82955471D01*
X159809097Y-83036284D01*
X159809097Y-83144033D01*
X159862972Y-83251783D01*
X159916847Y-83305658D01*
X160024597Y-83359532D01*
X160078471Y-83359532D01*
X160267033Y-83170971D01*
X160159284Y-83063221D01*
X160267033Y-83655844D02*
X160832719Y-83090158D01*
X161048218Y-83305658D01*
X161075155Y-83386470D01*
X161075155Y-83440345D01*
X161048218Y-83521157D01*
X160967406Y-83601969D01*
X160886593Y-83628906D01*
X160832719Y-83628906D01*
X160751906Y-83601969D01*
X160536407Y-83386470D01*
X161129030Y-84517841D02*
X160805781Y-84194592D01*
X160967406Y-84356216D02*
X161533091Y-83790531D01*
X161398404Y-83817468D01*
X161290654Y-83817468D01*
X161209842Y-83790531D01*
X162179589Y-84437028D02*
X162071839Y-84329279D01*
X161991027Y-84302341D01*
X161937152Y-84302341D01*
X161802465Y-84329279D01*
X161667778Y-84410091D01*
X161452279Y-84625590D01*
X161425341Y-84706402D01*
X161425341Y-84760277D01*
X161452279Y-84841089D01*
X161560028Y-84948839D01*
X161640841Y-84975776D01*
X161694715Y-84975776D01*
X161775528Y-84948839D01*
X161910215Y-84814152D01*
X161937152Y-84733340D01*
X161937152Y-84679465D01*
X161910215Y-84598653D01*
X161802465Y-84490903D01*
X161721653Y-84463966D01*
X161667778Y-84463966D01*
X161586966Y-84490903D01*
X160536407Y-108955722D02*
X160509470Y-108874910D01*
X160428658Y-108794097D01*
X160320908Y-108740223D01*
X160213158Y-108740223D01*
X160132346Y-108767160D01*
X159997659Y-108847972D01*
X159916847Y-108928784D01*
X159836035Y-109063471D01*
X159809097Y-109144284D01*
X159809097Y-109252033D01*
X159862972Y-109359783D01*
X159916847Y-109413658D01*
X160024597Y-109467532D01*
X160078471Y-109467532D01*
X160267033Y-109278971D01*
X160159284Y-109171221D01*
X160267033Y-109763844D02*
X160832719Y-109198158D01*
X161048218Y-109413658D01*
X161075155Y-109494470D01*
X161075155Y-109548345D01*
X161048218Y-109629157D01*
X160967406Y-109709969D01*
X160886593Y-109736906D01*
X160832719Y-109736906D01*
X160751906Y-109709969D01*
X160536407Y-109494470D01*
X161129030Y-110625841D02*
X160805781Y-110302592D01*
X160967406Y-110464216D02*
X161533091Y-109898531D01*
X161398404Y-109925468D01*
X161290654Y-109925468D01*
X161209842Y-109898531D01*
X162206526Y-110571966D02*
X161937152Y-110302592D01*
X161640841Y-110545028D01*
X161694715Y-110545028D01*
X161775528Y-110571966D01*
X161910215Y-110706653D01*
X161937152Y-110787465D01*
X161937152Y-110841340D01*
X161910215Y-110922152D01*
X161775528Y-111056839D01*
X161694715Y-111083776D01*
X161640841Y-111083776D01*
X161560028Y-111056839D01*
X161425341Y-110922152D01*
X161398404Y-110841340D01*
X161398404Y-110787465D01*
X157996407Y-109001722D02*
X157969470Y-108920910D01*
X157888658Y-108840097D01*
X157780908Y-108786223D01*
X157673158Y-108786223D01*
X157592346Y-108813160D01*
X157457659Y-108893972D01*
X157376847Y-108974784D01*
X157296035Y-109109471D01*
X157269097Y-109190284D01*
X157269097Y-109298033D01*
X157322972Y-109405783D01*
X157376847Y-109459658D01*
X157484597Y-109513532D01*
X157538471Y-109513532D01*
X157727033Y-109324971D01*
X157619284Y-109217221D01*
X157727033Y-109809844D02*
X158292719Y-109244158D01*
X158508218Y-109459658D01*
X158535155Y-109540470D01*
X158535155Y-109594345D01*
X158508218Y-109675157D01*
X158427406Y-109755969D01*
X158346593Y-109782906D01*
X158292719Y-109782906D01*
X158211906Y-109755969D01*
X157996407Y-109540470D01*
X158589030Y-110671841D02*
X158265781Y-110348592D01*
X158427406Y-110510216D02*
X158993091Y-109944531D01*
X158858404Y-109971468D01*
X158750654Y-109971468D01*
X158669842Y-109944531D01*
X159451027Y-110779590D02*
X159073903Y-111156714D01*
X159531839Y-110429404D02*
X158993091Y-110698778D01*
X159343277Y-111048964D01*
X152916407Y-108955722D02*
X152889470Y-108874910D01*
X152808658Y-108794097D01*
X152700908Y-108740223D01*
X152593158Y-108740223D01*
X152512346Y-108767160D01*
X152377659Y-108847972D01*
X152296847Y-108928784D01*
X152216035Y-109063471D01*
X152189097Y-109144284D01*
X152189097Y-109252033D01*
X152242972Y-109359783D01*
X152296847Y-109413658D01*
X152404597Y-109467532D01*
X152458471Y-109467532D01*
X152647033Y-109278971D01*
X152539284Y-109171221D01*
X152647033Y-109763844D02*
X153212719Y-109198158D01*
X153428218Y-109413658D01*
X153455155Y-109494470D01*
X153455155Y-109548345D01*
X153428218Y-109629157D01*
X153347406Y-109709969D01*
X153266593Y-109736906D01*
X153212719Y-109736906D01*
X153131906Y-109709969D01*
X152916407Y-109494470D01*
X153509030Y-110625841D02*
X153185781Y-110302592D01*
X153347406Y-110464216D02*
X153913091Y-109898531D01*
X153778404Y-109925468D01*
X153670654Y-109925468D01*
X153589842Y-109898531D01*
X154263277Y-110248717D02*
X154613463Y-110598903D01*
X154209402Y-110625841D01*
X154290215Y-110706653D01*
X154317152Y-110787465D01*
X154317152Y-110841340D01*
X154290215Y-110922152D01*
X154155528Y-111056839D01*
X154074715Y-111083776D01*
X154020841Y-111083776D01*
X153940028Y-111056839D01*
X153778404Y-110895215D01*
X153751467Y-110814402D01*
X153751467Y-110760528D01*
X150376407Y-109101722D02*
X150349470Y-109020910D01*
X150268658Y-108940097D01*
X150160908Y-108886223D01*
X150053158Y-108886223D01*
X149972346Y-108913160D01*
X149837659Y-108993972D01*
X149756847Y-109074784D01*
X149676035Y-109209471D01*
X149649097Y-109290284D01*
X149649097Y-109398033D01*
X149702972Y-109505783D01*
X149756847Y-109559658D01*
X149864597Y-109613532D01*
X149918471Y-109613532D01*
X150107033Y-109424971D01*
X149999284Y-109317221D01*
X150107033Y-109909844D02*
X150672719Y-109344158D01*
X150888218Y-109559658D01*
X150915155Y-109640470D01*
X150915155Y-109694345D01*
X150888218Y-109775157D01*
X150807406Y-109855969D01*
X150726593Y-109882906D01*
X150672719Y-109882906D01*
X150591906Y-109855969D01*
X150376407Y-109640470D01*
X150969030Y-110771841D02*
X150645781Y-110448592D01*
X150807406Y-110610216D02*
X151373091Y-110044531D01*
X151238404Y-110071468D01*
X151130654Y-110071468D01*
X151049842Y-110044531D01*
X151696340Y-110475529D02*
X151750215Y-110475529D01*
X151831027Y-110502467D01*
X151965714Y-110637154D01*
X151992651Y-110717966D01*
X151992651Y-110771841D01*
X151965714Y-110852653D01*
X151911839Y-110906528D01*
X151804089Y-110960402D01*
X151157592Y-110960402D01*
X151507778Y-111310589D01*
X147836407Y-109101722D02*
X147809470Y-109020910D01*
X147728658Y-108940097D01*
X147620908Y-108886223D01*
X147513158Y-108886223D01*
X147432346Y-108913160D01*
X147297659Y-108993972D01*
X147216847Y-109074784D01*
X147136035Y-109209471D01*
X147109097Y-109290284D01*
X147109097Y-109398033D01*
X147162972Y-109505783D01*
X147216847Y-109559658D01*
X147324597Y-109613532D01*
X147378471Y-109613532D01*
X147567033Y-109424971D01*
X147459284Y-109317221D01*
X147567033Y-109909844D02*
X148132719Y-109344158D01*
X148348218Y-109559658D01*
X148375155Y-109640470D01*
X148375155Y-109694345D01*
X148348218Y-109775157D01*
X148267406Y-109855969D01*
X148186593Y-109882906D01*
X148132719Y-109882906D01*
X148051906Y-109855969D01*
X147836407Y-109640470D01*
X148429030Y-110771841D02*
X148105781Y-110448592D01*
X148267406Y-110610216D02*
X148833091Y-110044531D01*
X148698404Y-110071468D01*
X148590654Y-110071468D01*
X148509842Y-110044531D01*
X148967778Y-111310589D02*
X148644529Y-110987340D01*
X148806154Y-111148964D02*
X149371839Y-110583279D01*
X149237152Y-110610216D01*
X149129402Y-110610216D01*
X149048590Y-110583279D01*
X145296407Y-108955722D02*
X145269470Y-108874910D01*
X145188658Y-108794097D01*
X145080908Y-108740223D01*
X144973158Y-108740223D01*
X144892346Y-108767160D01*
X144757659Y-108847972D01*
X144676847Y-108928784D01*
X144596035Y-109063471D01*
X144569097Y-109144284D01*
X144569097Y-109252033D01*
X144622972Y-109359783D01*
X144676847Y-109413658D01*
X144784597Y-109467532D01*
X144838471Y-109467532D01*
X145027033Y-109278971D01*
X144919284Y-109171221D01*
X145027033Y-109763844D02*
X145592719Y-109198158D01*
X145808218Y-109413658D01*
X145835155Y-109494470D01*
X145835155Y-109548345D01*
X145808218Y-109629157D01*
X145727406Y-109709969D01*
X145646593Y-109736906D01*
X145592719Y-109736906D01*
X145511906Y-109709969D01*
X145296407Y-109494470D01*
X145889030Y-110625841D02*
X145565781Y-110302592D01*
X145727406Y-110464216D02*
X146293091Y-109898531D01*
X146158404Y-109925468D01*
X146050654Y-109925468D01*
X145969842Y-109898531D01*
X146804902Y-110410341D02*
X146858776Y-110464216D01*
X146885714Y-110545028D01*
X146885714Y-110598903D01*
X146858776Y-110679715D01*
X146777964Y-110814402D01*
X146643277Y-110949089D01*
X146508590Y-111029902D01*
X146427778Y-111056839D01*
X146373903Y-111056839D01*
X146293091Y-111029902D01*
X146239216Y-110976027D01*
X146212279Y-110895215D01*
X146212279Y-110841340D01*
X146239216Y-110760528D01*
X146320028Y-110625841D01*
X146454715Y-110491154D01*
X146589402Y-110410341D01*
X146670215Y-110383404D01*
X146724089Y-110383404D01*
X146804902Y-110410341D01*
X140485781Y-108971096D02*
X140458844Y-108890284D01*
X140378032Y-108809471D01*
X140270282Y-108755597D01*
X140162532Y-108755597D01*
X140081720Y-108782534D01*
X139947033Y-108863346D01*
X139866221Y-108944158D01*
X139785409Y-109078845D01*
X139758471Y-109159658D01*
X139758471Y-109267407D01*
X139812346Y-109375157D01*
X139866221Y-109429032D01*
X139973971Y-109482906D01*
X140027845Y-109482906D01*
X140216407Y-109294345D01*
X140108658Y-109186595D01*
X140216407Y-109779218D02*
X140782093Y-109213532D01*
X140997592Y-109429032D01*
X141024529Y-109509844D01*
X141024529Y-109563719D01*
X140997592Y-109644531D01*
X140916780Y-109725343D01*
X140835967Y-109752280D01*
X140782093Y-109752280D01*
X140701280Y-109725343D01*
X140485781Y-109509844D01*
X140809030Y-110371841D02*
X140916780Y-110479590D01*
X140997592Y-110506528D01*
X141051467Y-110506528D01*
X141186154Y-110479590D01*
X141320841Y-110398778D01*
X141536340Y-110183279D01*
X141563277Y-110102467D01*
X141563277Y-110048592D01*
X141536340Y-109967780D01*
X141428590Y-109860030D01*
X141347778Y-109833093D01*
X141293903Y-109833093D01*
X141213091Y-109860030D01*
X141078404Y-109994717D01*
X141051467Y-110075529D01*
X141051467Y-110129404D01*
X141078404Y-110210216D01*
X141186154Y-110317966D01*
X141266966Y-110344903D01*
X141320841Y-110344903D01*
X141401653Y-110317966D01*
X137945781Y-108971096D02*
X137918844Y-108890284D01*
X137838032Y-108809471D01*
X137730282Y-108755597D01*
X137622532Y-108755597D01*
X137541720Y-108782534D01*
X137407033Y-108863346D01*
X137326221Y-108944158D01*
X137245409Y-109078845D01*
X137218471Y-109159658D01*
X137218471Y-109267407D01*
X137272346Y-109375157D01*
X137326221Y-109429032D01*
X137433971Y-109482906D01*
X137487845Y-109482906D01*
X137676407Y-109294345D01*
X137568658Y-109186595D01*
X137676407Y-109779218D02*
X138242093Y-109213532D01*
X138457592Y-109429032D01*
X138484529Y-109509844D01*
X138484529Y-109563719D01*
X138457592Y-109644531D01*
X138376780Y-109725343D01*
X138295967Y-109752280D01*
X138242093Y-109752280D01*
X138161280Y-109725343D01*
X137945781Y-109509844D01*
X138646154Y-110102467D02*
X138619216Y-110021654D01*
X138619216Y-109967780D01*
X138646154Y-109886967D01*
X138673091Y-109860030D01*
X138753903Y-109833093D01*
X138807778Y-109833093D01*
X138888590Y-109860030D01*
X138996340Y-109967780D01*
X139023277Y-110048592D01*
X139023277Y-110102467D01*
X138996340Y-110183279D01*
X138969402Y-110210216D01*
X138888590Y-110237154D01*
X138834715Y-110237154D01*
X138753903Y-110210216D01*
X138646154Y-110102467D01*
X138565341Y-110075529D01*
X138511467Y-110075529D01*
X138430654Y-110102467D01*
X138322905Y-110210216D01*
X138295967Y-110291028D01*
X138295967Y-110344903D01*
X138322905Y-110425715D01*
X138430654Y-110533465D01*
X138511467Y-110560402D01*
X138565341Y-110560402D01*
X138646154Y-110533465D01*
X138753903Y-110425715D01*
X138780841Y-110344903D01*
X138780841Y-110291028D01*
X138753903Y-110210216D01*
X135405781Y-108871096D02*
X135378844Y-108790284D01*
X135298032Y-108709471D01*
X135190282Y-108655597D01*
X135082532Y-108655597D01*
X135001720Y-108682534D01*
X134867033Y-108763346D01*
X134786221Y-108844158D01*
X134705409Y-108978845D01*
X134678471Y-109059658D01*
X134678471Y-109167407D01*
X134732346Y-109275157D01*
X134786221Y-109329032D01*
X134893971Y-109382906D01*
X134947845Y-109382906D01*
X135136407Y-109194345D01*
X135028658Y-109086595D01*
X135136407Y-109679218D02*
X135702093Y-109113532D01*
X135917592Y-109329032D01*
X135944529Y-109409844D01*
X135944529Y-109463719D01*
X135917592Y-109544531D01*
X135836780Y-109625343D01*
X135755967Y-109652280D01*
X135702093Y-109652280D01*
X135621280Y-109625343D01*
X135405781Y-109409844D01*
X136213903Y-109625343D02*
X136591027Y-110002467D01*
X135782905Y-110325715D01*
X132865781Y-108971096D02*
X132838844Y-108890284D01*
X132758032Y-108809471D01*
X132650282Y-108755597D01*
X132542532Y-108755597D01*
X132461720Y-108782534D01*
X132327033Y-108863346D01*
X132246221Y-108944158D01*
X132165409Y-109078845D01*
X132138471Y-109159658D01*
X132138471Y-109267407D01*
X132192346Y-109375157D01*
X132246221Y-109429032D01*
X132353971Y-109482906D01*
X132407845Y-109482906D01*
X132596407Y-109294345D01*
X132488658Y-109186595D01*
X132596407Y-109779218D02*
X133162093Y-109213532D01*
X133377592Y-109429032D01*
X133404529Y-109509844D01*
X133404529Y-109563719D01*
X133377592Y-109644531D01*
X133296780Y-109725343D01*
X133215967Y-109752280D01*
X133162093Y-109752280D01*
X133081280Y-109725343D01*
X132865781Y-109509844D01*
X133970215Y-110021654D02*
X133862465Y-109913905D01*
X133781653Y-109886967D01*
X133727778Y-109886967D01*
X133593091Y-109913905D01*
X133458404Y-109994717D01*
X133242905Y-110210216D01*
X133215967Y-110291028D01*
X133215967Y-110344903D01*
X133242905Y-110425715D01*
X133350654Y-110533465D01*
X133431467Y-110560402D01*
X133485341Y-110560402D01*
X133566154Y-110533465D01*
X133700841Y-110398778D01*
X133727778Y-110317966D01*
X133727778Y-110264091D01*
X133700841Y-110183279D01*
X133593091Y-110075529D01*
X133512279Y-110048592D01*
X133458404Y-110048592D01*
X133377592Y-110075529D01*
X127785781Y-108971096D02*
X127758844Y-108890284D01*
X127678032Y-108809471D01*
X127570282Y-108755597D01*
X127462532Y-108755597D01*
X127381720Y-108782534D01*
X127247033Y-108863346D01*
X127166221Y-108944158D01*
X127085409Y-109078845D01*
X127058471Y-109159658D01*
X127058471Y-109267407D01*
X127112346Y-109375157D01*
X127166221Y-109429032D01*
X127273971Y-109482906D01*
X127327845Y-109482906D01*
X127516407Y-109294345D01*
X127408658Y-109186595D01*
X127516407Y-109779218D02*
X128082093Y-109213532D01*
X128297592Y-109429032D01*
X128324529Y-109509844D01*
X128324529Y-109563719D01*
X128297592Y-109644531D01*
X128216780Y-109725343D01*
X128135967Y-109752280D01*
X128082093Y-109752280D01*
X128001280Y-109725343D01*
X127785781Y-109509844D01*
X128917152Y-110048592D02*
X128647778Y-109779218D01*
X128351467Y-110021654D01*
X128405341Y-110021654D01*
X128486154Y-110048592D01*
X128620841Y-110183279D01*
X128647778Y-110264091D01*
X128647778Y-110317966D01*
X128620841Y-110398778D01*
X128486154Y-110533465D01*
X128405341Y-110560402D01*
X128351467Y-110560402D01*
X128270654Y-110533465D01*
X128135967Y-110398778D01*
X128109030Y-110317966D01*
X128109030Y-110264091D01*
X125245781Y-108971096D02*
X125218844Y-108890284D01*
X125138032Y-108809471D01*
X125030282Y-108755597D01*
X124922532Y-108755597D01*
X124841720Y-108782534D01*
X124707033Y-108863346D01*
X124626221Y-108944158D01*
X124545409Y-109078845D01*
X124518471Y-109159658D01*
X124518471Y-109267407D01*
X124572346Y-109375157D01*
X124626221Y-109429032D01*
X124733971Y-109482906D01*
X124787845Y-109482906D01*
X124976407Y-109294345D01*
X124868658Y-109186595D01*
X124976407Y-109779218D02*
X125542093Y-109213532D01*
X125757592Y-109429032D01*
X125784529Y-109509844D01*
X125784529Y-109563719D01*
X125757592Y-109644531D01*
X125676780Y-109725343D01*
X125595967Y-109752280D01*
X125542093Y-109752280D01*
X125461280Y-109725343D01*
X125245781Y-109509844D01*
X126161653Y-110210216D02*
X125784529Y-110587340D01*
X126242465Y-109860030D02*
X125703717Y-110129404D01*
X126053903Y-110479590D01*
X122705781Y-108971096D02*
X122678844Y-108890284D01*
X122598032Y-108809471D01*
X122490282Y-108755597D01*
X122382532Y-108755597D01*
X122301720Y-108782534D01*
X122167033Y-108863346D01*
X122086221Y-108944158D01*
X122005409Y-109078845D01*
X121978471Y-109159658D01*
X121978471Y-109267407D01*
X122032346Y-109375157D01*
X122086221Y-109429032D01*
X122193971Y-109482906D01*
X122247845Y-109482906D01*
X122436407Y-109294345D01*
X122328658Y-109186595D01*
X122436407Y-109779218D02*
X123002093Y-109213532D01*
X123217592Y-109429032D01*
X123244529Y-109509844D01*
X123244529Y-109563719D01*
X123217592Y-109644531D01*
X123136780Y-109725343D01*
X123055967Y-109752280D01*
X123002093Y-109752280D01*
X122921280Y-109725343D01*
X122705781Y-109509844D01*
X123513903Y-109725343D02*
X123864089Y-110075529D01*
X123460028Y-110102467D01*
X123540841Y-110183279D01*
X123567778Y-110264091D01*
X123567778Y-110317966D01*
X123540841Y-110398778D01*
X123406154Y-110533465D01*
X123325341Y-110560402D01*
X123271467Y-110560402D01*
X123190654Y-110533465D01*
X123029030Y-110371841D01*
X123002093Y-110291028D01*
X123002093Y-110237154D01*
X112545781Y-108971096D02*
X112518844Y-108890284D01*
X112438032Y-108809471D01*
X112330282Y-108755597D01*
X112222532Y-108755597D01*
X112141720Y-108782534D01*
X112007033Y-108863346D01*
X111926221Y-108944158D01*
X111845409Y-109078845D01*
X111818471Y-109159658D01*
X111818471Y-109267407D01*
X111872346Y-109375157D01*
X111926221Y-109429032D01*
X112033971Y-109482906D01*
X112087845Y-109482906D01*
X112276407Y-109294345D01*
X112168658Y-109186595D01*
X112276407Y-109779218D02*
X112842093Y-109213532D01*
X113057592Y-109429032D01*
X113084529Y-109509844D01*
X113084529Y-109563719D01*
X113057592Y-109644531D01*
X112976780Y-109725343D01*
X112895967Y-109752280D01*
X112842093Y-109752280D01*
X112761280Y-109725343D01*
X112545781Y-109509844D01*
X113515528Y-109886967D02*
X113569402Y-109940842D01*
X113596340Y-110021654D01*
X113596340Y-110075529D01*
X113569402Y-110156341D01*
X113488590Y-110291028D01*
X113353903Y-110425715D01*
X113219216Y-110506528D01*
X113138404Y-110533465D01*
X113084529Y-110533465D01*
X113003717Y-110506528D01*
X112949842Y-110452653D01*
X112922905Y-110371841D01*
X112922905Y-110317966D01*
X112949842Y-110237154D01*
X113030654Y-110102467D01*
X113165341Y-109967780D01*
X113300028Y-109886967D01*
X113380841Y-109860030D01*
X113434715Y-109860030D01*
X113515528Y-109886967D01*
X120165781Y-109071096D02*
X120138844Y-108990284D01*
X120058032Y-108909471D01*
X119950282Y-108855597D01*
X119842532Y-108855597D01*
X119761720Y-108882534D01*
X119627033Y-108963346D01*
X119546221Y-109044158D01*
X119465409Y-109178845D01*
X119438471Y-109259658D01*
X119438471Y-109367407D01*
X119492346Y-109475157D01*
X119546221Y-109529032D01*
X119653971Y-109582906D01*
X119707845Y-109582906D01*
X119896407Y-109394345D01*
X119788658Y-109286595D01*
X119896407Y-109879218D02*
X120462093Y-109313532D01*
X120677592Y-109529032D01*
X120704529Y-109609844D01*
X120704529Y-109663719D01*
X120677592Y-109744531D01*
X120596780Y-109825343D01*
X120515967Y-109852280D01*
X120462093Y-109852280D01*
X120381280Y-109825343D01*
X120165781Y-109609844D01*
X120946966Y-109906155D02*
X121000841Y-109906155D01*
X121081653Y-109933093D01*
X121216340Y-110067780D01*
X121243277Y-110148592D01*
X121243277Y-110202467D01*
X121216340Y-110283279D01*
X121162465Y-110337154D01*
X121054715Y-110391028D01*
X120408218Y-110391028D01*
X120758404Y-110741215D01*
X115075781Y-109071096D02*
X115048844Y-108990284D01*
X114968032Y-108909471D01*
X114860282Y-108855597D01*
X114752532Y-108855597D01*
X114671720Y-108882534D01*
X114537033Y-108963346D01*
X114456221Y-109044158D01*
X114375409Y-109178845D01*
X114348471Y-109259658D01*
X114348471Y-109367407D01*
X114402346Y-109475157D01*
X114456221Y-109529032D01*
X114563971Y-109582906D01*
X114617845Y-109582906D01*
X114806407Y-109394345D01*
X114698658Y-109286595D01*
X114806407Y-109879218D02*
X115372093Y-109313532D01*
X115587592Y-109529032D01*
X115614529Y-109609844D01*
X115614529Y-109663719D01*
X115587592Y-109744531D01*
X115506780Y-109825343D01*
X115425967Y-109852280D01*
X115372093Y-109852280D01*
X115291280Y-109825343D01*
X115075781Y-109609844D01*
X115668404Y-110741215D02*
X115345155Y-110417966D01*
X115506780Y-110579590D02*
X116072465Y-110013905D01*
X115937778Y-110040842D01*
X115830028Y-110040842D01*
X115749216Y-110013905D01*
%TO.C,SW7*%
X195201761Y-114221333D02*
X195249380Y-114078476D01*
X195249380Y-113840380D01*
X195201761Y-113745142D01*
X195154142Y-113697523D01*
X195058904Y-113649904D01*
X194963666Y-113649904D01*
X194868428Y-113697523D01*
X194820809Y-113745142D01*
X194773190Y-113840380D01*
X194725571Y-114030857D01*
X194677952Y-114126095D01*
X194630333Y-114173714D01*
X194535095Y-114221333D01*
X194439857Y-114221333D01*
X194344619Y-114173714D01*
X194297000Y-114126095D01*
X194249380Y-114030857D01*
X194249380Y-113792761D01*
X194297000Y-113649904D01*
X194249380Y-113316571D02*
X195249380Y-113078476D01*
X194535095Y-112888000D01*
X195249380Y-112697523D01*
X194249380Y-112459428D01*
X194249380Y-112173714D02*
X194249380Y-111507047D01*
X195249380Y-111935619D01*
%TO.C,SW6*%
X187463666Y-108262761D02*
X187606523Y-108310380D01*
X187844619Y-108310380D01*
X187939857Y-108262761D01*
X187987476Y-108215142D01*
X188035095Y-108119904D01*
X188035095Y-108024666D01*
X187987476Y-107929428D01*
X187939857Y-107881809D01*
X187844619Y-107834190D01*
X187654142Y-107786571D01*
X187558904Y-107738952D01*
X187511285Y-107691333D01*
X187463666Y-107596095D01*
X187463666Y-107500857D01*
X187511285Y-107405619D01*
X187558904Y-107358000D01*
X187654142Y-107310380D01*
X187892238Y-107310380D01*
X188035095Y-107358000D01*
X188368428Y-107310380D02*
X188606523Y-108310380D01*
X188797000Y-107596095D01*
X188987476Y-108310380D01*
X189225571Y-107310380D01*
X190035095Y-107310380D02*
X189844619Y-107310380D01*
X189749380Y-107358000D01*
X189701761Y-107405619D01*
X189606523Y-107548476D01*
X189558904Y-107738952D01*
X189558904Y-108119904D01*
X189606523Y-108215142D01*
X189654142Y-108262761D01*
X189749380Y-108310380D01*
X189939857Y-108310380D01*
X190035095Y-108262761D01*
X190082714Y-108215142D01*
X190130333Y-108119904D01*
X190130333Y-107881809D01*
X190082714Y-107786571D01*
X190035095Y-107738952D01*
X189939857Y-107691333D01*
X189749380Y-107691333D01*
X189654142Y-107738952D01*
X189606523Y-107786571D01*
X189558904Y-107881809D01*
%TO.C,SW5*%
X187463666Y-118262761D02*
X187606523Y-118310380D01*
X187844619Y-118310380D01*
X187939857Y-118262761D01*
X187987476Y-118215142D01*
X188035095Y-118119904D01*
X188035095Y-118024666D01*
X187987476Y-117929428D01*
X187939857Y-117881809D01*
X187844619Y-117834190D01*
X187654142Y-117786571D01*
X187558904Y-117738952D01*
X187511285Y-117691333D01*
X187463666Y-117596095D01*
X187463666Y-117500857D01*
X187511285Y-117405619D01*
X187558904Y-117358000D01*
X187654142Y-117310380D01*
X187892238Y-117310380D01*
X188035095Y-117358000D01*
X188368428Y-117310380D02*
X188606523Y-118310380D01*
X188797000Y-117596095D01*
X188987476Y-118310380D01*
X189225571Y-117310380D01*
X190082714Y-117310380D02*
X189606523Y-117310380D01*
X189558904Y-117786571D01*
X189606523Y-117738952D01*
X189701761Y-117691333D01*
X189939857Y-117691333D01*
X190035095Y-117738952D01*
X190082714Y-117786571D01*
X190130333Y-117881809D01*
X190130333Y-118119904D01*
X190082714Y-118215142D01*
X190035095Y-118262761D01*
X189939857Y-118310380D01*
X189701761Y-118310380D01*
X189606523Y-118262761D01*
X189558904Y-118215142D01*
%TO.C,SW4*%
X183201761Y-114221333D02*
X183249380Y-114078476D01*
X183249380Y-113840380D01*
X183201761Y-113745142D01*
X183154142Y-113697523D01*
X183058904Y-113649904D01*
X182963666Y-113649904D01*
X182868428Y-113697523D01*
X182820809Y-113745142D01*
X182773190Y-113840380D01*
X182725571Y-114030857D01*
X182677952Y-114126095D01*
X182630333Y-114173714D01*
X182535095Y-114221333D01*
X182439857Y-114221333D01*
X182344619Y-114173714D01*
X182297000Y-114126095D01*
X182249380Y-114030857D01*
X182249380Y-113792761D01*
X182297000Y-113649904D01*
X182249380Y-113316571D02*
X183249380Y-113078476D01*
X182535095Y-112888000D01*
X183249380Y-112697523D01*
X182249380Y-112459428D01*
X182582714Y-111649904D02*
X183249380Y-111649904D01*
X182201761Y-111888000D02*
X182916047Y-112126095D01*
X182916047Y-111507047D01*
%TO.C,SW1*%
X191463666Y-90262761D02*
X191606523Y-90310380D01*
X191844619Y-90310380D01*
X191939857Y-90262761D01*
X191987476Y-90215142D01*
X192035095Y-90119904D01*
X192035095Y-90024666D01*
X191987476Y-89929428D01*
X191939857Y-89881809D01*
X191844619Y-89834190D01*
X191654142Y-89786571D01*
X191558904Y-89738952D01*
X191511285Y-89691333D01*
X191463666Y-89596095D01*
X191463666Y-89500857D01*
X191511285Y-89405619D01*
X191558904Y-89358000D01*
X191654142Y-89310380D01*
X191892238Y-89310380D01*
X192035095Y-89358000D01*
X192368428Y-89310380D02*
X192606523Y-90310380D01*
X192797000Y-89596095D01*
X192987476Y-90310380D01*
X193225571Y-89310380D01*
X194130333Y-90310380D02*
X193558904Y-90310380D01*
X193844619Y-90310380D02*
X193844619Y-89310380D01*
X193749380Y-89453238D01*
X193654142Y-89548476D01*
X193558904Y-89596095D01*
%TO.C,SW2*%
X183463666Y-81262761D02*
X183606523Y-81310380D01*
X183844619Y-81310380D01*
X183939857Y-81262761D01*
X183987476Y-81215142D01*
X184035095Y-81119904D01*
X184035095Y-81024666D01*
X183987476Y-80929428D01*
X183939857Y-80881809D01*
X183844619Y-80834190D01*
X183654142Y-80786571D01*
X183558904Y-80738952D01*
X183511285Y-80691333D01*
X183463666Y-80596095D01*
X183463666Y-80500857D01*
X183511285Y-80405619D01*
X183558904Y-80358000D01*
X183654142Y-80310380D01*
X183892238Y-80310380D01*
X184035095Y-80358000D01*
X184368428Y-80310380D02*
X184606523Y-81310380D01*
X184797000Y-80596095D01*
X184987476Y-81310380D01*
X185225571Y-80310380D01*
X185558904Y-80405619D02*
X185606523Y-80358000D01*
X185701761Y-80310380D01*
X185939857Y-80310380D01*
X186035095Y-80358000D01*
X186082714Y-80405619D01*
X186130333Y-80500857D01*
X186130333Y-80596095D01*
X186082714Y-80738952D01*
X185511285Y-81310380D01*
X186130333Y-81310380D01*
%TO.C,SW3*%
X165201761Y-97691333D02*
X165249380Y-97548476D01*
X165249380Y-97310380D01*
X165201761Y-97215142D01*
X165154142Y-97167523D01*
X165058904Y-97119904D01*
X164963666Y-97119904D01*
X164868428Y-97167523D01*
X164820809Y-97215142D01*
X164773190Y-97310380D01*
X164725571Y-97500857D01*
X164677952Y-97596095D01*
X164630333Y-97643714D01*
X164535095Y-97691333D01*
X164439857Y-97691333D01*
X164344619Y-97643714D01*
X164297000Y-97596095D01*
X164249380Y-97500857D01*
X164249380Y-97262761D01*
X164297000Y-97119904D01*
X164249380Y-96786571D02*
X165249380Y-96548476D01*
X164535095Y-96358000D01*
X165249380Y-96167523D01*
X164249380Y-95929428D01*
X164249380Y-95643714D02*
X164249380Y-95024666D01*
X164630333Y-95358000D01*
X164630333Y-95215142D01*
X164677952Y-95119904D01*
X164725571Y-95072285D01*
X164820809Y-95024666D01*
X165058904Y-95024666D01*
X165154142Y-95072285D01*
X165201761Y-95119904D01*
X165249380Y-95215142D01*
X165249380Y-95500857D01*
X165201761Y-95596095D01*
X165154142Y-95643714D01*
%TD*%
M02*
